<?xml version="1.0" encoding="UTF-8"?>
<svg id="Layer_1" data-name="Layer 1" xmlns="http://www.w3.org/2000/svg" xmlns:xlink="http://www.w3.org/1999/xlink" viewBox="0 0 540 540">
  <defs>
    <style>
      .cls-1, .cls-2, .cls-3, .cls-4, .cls-5 {
        fill: #fccf8c;
      }

      .cls-1, .cls-6, .cls-7, .cls-8, .cls-9, .cls-10, .cls-11, .cls-12, .cls-13, .cls-14, .cls-15, .cls-16, .cls-17, .cls-18, .cls-19, .cls-20, .cls-5 {
        stroke: #2d2d2d;
      }

      .cls-1, .cls-6, .cls-3, .cls-8, .cls-9, .cls-10, .cls-11, .cls-21, .cls-12, .cls-13, .cls-14, .cls-22, .cls-16, .cls-17, .cls-5 {
        stroke-miterlimit: 10;
      }

      .cls-1, .cls-14, .cls-16 {
        stroke-width: 1.15px;
      }

      .cls-6, .cls-23, .cls-24, .cls-19 {
        fill: #f9b860;
      }

      .cls-25 {
        fill: #eff7f3;
      }

      .cls-25, .cls-26, .cls-27, .cls-28, .cls-29, .cls-30, .cls-24, .cls-31, .cls-32, .cls-33, .cls-34, .cls-35, .cls-36, .cls-37, .cls-4, .cls-38 {
        stroke-width: 0px;
      }

      .cls-26 {
        fill: #000;
      }

      .cls-27 {
        fill: #ffecb0;
      }

      .cls-7, .cls-21, .cls-12, .cls-16, .cls-17, .cls-18, .cls-20 {
        fill: none;
      }

      .cls-7, .cls-12, .cls-15, .cls-18, .cls-19, .cls-20 {
        stroke-linecap: round;
      }

      .cls-7, .cls-15, .cls-18, .cls-19, .cls-20 {
        stroke-linejoin: round;
      }

      .cls-39 {
        clip-path: url(#clippath-2);
      }

      .cls-3, .cls-21 {
        stroke: #ca6e15;
      }

      .cls-40 {
        clip-path: url(#clippath-6);
      }

      .cls-41, .cls-9, .cls-31 {
        fill: #0d7f53;
      }

      .cls-28 {
        fill: #07271d;
      }

      .cls-8 {
        stroke-width: .5px;
      }

      .cls-8, .cls-29, .cls-10, .cls-13, .cls-33, .cls-14 {
        fill: #2d2d2d;
      }

      .cls-29, .cls-38 {
        opacity: .9;
      }

      .cls-42 {
        clip-path: url(#clippath-1);
      }

      .cls-43 {
        clip-path: url(#clippath-4);
      }

      .cls-30 {
        fill: #f9b85f;
      }

      .cls-11 {
        stroke-width: .18px;
      }

      .cls-11, .cls-44, .cls-37 {
        fill: #12100b;
      }

      .cls-12 {
        stroke-width: .26px;
      }

      .cls-32 {
        fill: #e09a39;
      }

      .cls-45 {
        clip-path: url(#clippath);
      }

      .cls-13 {
        stroke-width: .5px;
      }

      .cls-46 {
        clip-path: url(#clippath-3);
      }

      .cls-47 {
        clip-path: url(#clippath-8);
      }

      .cls-22 {
        fill: #ca6e15;
        stroke: #b05418;
      }

      .cls-34 {
        fill: #fff;
      }

      .cls-15 {
        fill: #4c4897;
      }

      .cls-15, .cls-18 {
        stroke-width: .25px;
      }

      .cls-48 {
        clip-path: url(#clippath-5);
      }

      .cls-35 {
        fill: #d7eadd;
      }

      .cls-36 {
        fill: #ba761a;
      }

      .cls-49 {
        clip-path: url(#clippath-10);
      }

      .cls-38 {
        fill: #171511;
      }

      .cls-20 {
        stroke-width: .42px;
      }
    </style>
    <clipPath id="clippath">
      <path class="cls-6" d="M341.26,456.52c0,8.36,6.89,15.1,15.25,14.83,2.1-.07,4.27-.08,6.52-.03,6.05.14,11.54.72,16.34,1.5h23.58c9.42,0,17.06-7.64,17.06-17.06h0c0-9.42-7.64-17.06-17.06-17.06h-22.31c-4.72.74-10.02,1.3-15.81,1.48-2.81.09-5.52.08-8.12-.01-8.43-.28-15.44,6.39-15.44,14.83v1.53Z"/>
    </clipPath>
    <clipPath id="clippath-1">
      <path class="cls-1" d="M360.56,445.06l-22.01-14.03c-3.42-2.18-7.99-.63-9.38,3.18l-6.87,18.88c-1.31,3.61.86,7.56,4.62,8.37l24.91,5.42c.73.16,1.47.19,2.21.09,2.29-.32,7.04-1.53,10.06-6.14.16-.25.31-.49.45-.74,2.95-5.2,1.05-11.83-3.99-15.04Z"/>
    </clipPath>
    <clipPath id="clippath-2">
      <path class="cls-9" d="M358.49,427.75l17.69,39.87s49.2-10.37,83.42-31.78c11.96-7.48,15.82-23.12,8.69-35.3-.1-.17-.2-.35-.31-.52-6.09-10.17-18.41-14.78-29.77-11.38-18.19,5.45-52.11,17.64-79.73,39.1Z"/>
    </clipPath>
    <clipPath id="clippath-3">
      <path class="cls-9" d="M345.57,427.75l-17.69,39.87s-49.2-10.37-83.42-31.78c-11.96-7.48-15.82-23.12-8.69-35.3.1-.17.2-.35.31-.52,6.09-10.17,18.41-14.78,29.77-11.38,18.19,5.45,52.11,17.64,79.73,39.1Z"/>
    </clipPath>
    <clipPath id="clippath-4">
      <path class="cls-5" d="M434.58,396.35h0s-17.9-37.85-17.9-37.85l-32.1,15,7.83,16.77-39.84,6.67,2.11,24.82,61.85-.23c3.73.44,7.63-.3,11.1-2.37,7.92-4.72,10.83-14.64,6.95-22.81Z"/>
    </clipPath>
    <clipPath id="clippath-5">
      <rect class="cls-4" x="273.73" y="363.8" width="35.43" height="44.63" transform="translate(392.04 859.3) rotate(-154.96)"/>
    </clipPath>
    <clipPath id="clippath-6">
      <path class="cls-19" d="M422.14,361.5l-22.73-37.49c-2.81-4.63-7.54-7.45-12.6-7.98-.39-.05-.81-.08-1.27-.09-.03,0-.07,0-.1,0-.03,0-.05,0-.08,0h-.58s-.04,0-.05,0h-66.43c-6.33-.71-12.73,2.25-16.19,7.97l-22.73,37.49c2.98-.09,8.93.14,15.46,3.33,5.97,2.91,9.64,6.94,11.45,9.24v48.08l85.56-.4-15.23-38.49c2.5-2.66,22.39-14.24,28.67-17.28,6.86-3.32,13.09-4.16,16.85-4.37Z"/>
    </clipPath>
    <clipPath id="clippath-8">
      <path class="cls-3" d="M341.64,310.84c-4.13-2.52-6.89-7.08-6.89-12.28v-11.77c0-5.76,4.67-10.43,10.43-10.43h6.64c6.45,0,11.68,5.23,11.68,11.68"/>
    </clipPath>
    <clipPath id="clippath-10">
      <path class="cls-37" d="M302.41,356.68c33.74,1.18,57.89,1.18,91.67,0,3.02-.11,5.29,1.99,4.97,4.68-2.17,18.27-3.57,36.06-4.29,55.82-.12,2.9-2.21,5.3-4.7,5.31-27.9,0-55.77,0-83.66,0-2.49-.01-4.57-2.42-4.69-5.32-.7-19.77-2.09-37.54-4.25-55.8-.32-2.69,1.94-4.79,4.96-4.68Z"/>
    </clipPath>
  </defs>
  <g id="Backup_server" data-name="Backup server">
    <circle class="cls-35" cx="270" cy="269.05" r="201.87"/>
    <g>
      <rect class="cls-32" x="227" y="204.32" width="239.57" height="169.88" rx="5.95" ry="5.95" transform="translate(693.57 578.53) rotate(180)"/>
      <rect class="cls-25" x="276.64" y="169.71" width="140.29" height="224.54" rx="5.95" ry="5.95" transform="translate(628.77 -64.8) rotate(90)"/>
      <g>
        <rect class="cls-35" x="240.08" y="219.19" width="155.88" height="73.07" rx="3.21" ry="3.21"/>
        <rect class="cls-35" x="240.08" y="298.45" width="155.88" height="50.04" rx="3.21" ry="3.21"/>
        <rect class="cls-35" x="401.05" y="218.74" width="52.92" height="129.53" rx="3.21" ry="3.21"/>
        <g>
          <path class="cls-31" d="M294.09,308.95h-42.18c-.27,0-.49-.22-.49-.49s.22-.49.49-.49h42.18c.27,0,.49.22.49.49s-.22.49-.49.49Z"/>
          <path class="cls-31" d="M314.94,308.95h-13.06c-.27,0-.49-.22-.49-.49s.22-.49.49-.49h13.06c.27,0,.49.22.49.49s-.22.49-.49.49Z"/>
          <path class="cls-31" d="M294.09,325.85h-42.18c-.27,0-.49-.22-.49-.49s.22-.49.49-.49h42.18c.27,0,.49.22.49.49s-.22.49-.49.49Z"/>
          <path class="cls-31" d="M319.95,325.85h-18.06c-.27,0-.49-.22-.49-.49s.22-.49.49-.49h18.06c.27,0,.49.22.49.49s-.22.49-.49.49Z"/>
          <path class="cls-31" d="M274.24,317.16h-22.33c-.27,0-.49-.22-.49-.49s.22-.49.49-.49h22.33c.27,0,.49.22.49.49s-.22.49-.49.49Z"/>
          <path class="cls-31" d="M306.95,317.16h-24.92c-.27,0-.49-.22-.49-.49s.22-.49.49-.49h24.92c.27,0,.49.22.49.49s-.22.49-.49.49Z"/>
        </g>
      </g>
      <g>
        <path class="cls-31" d="M317.04,273.44c-4.68,0-9-2.12-11.87-5.82-.16-.21-.13-.52.09-.68.21-.16.52-.13.68.09,2.68,3.46,6.73,5.44,11.1,5.44,7.74,0,14.04-6.3,14.04-14.04,0-1.11-.13-2.21-.38-3.28-.06-.26.1-.52.36-.59.26-.06.52.1.59.36.27,1.14.41,2.32.41,3.5,0,8.28-6.73,15.01-15.01,15.01Z"/>
        <path class="cls-31" d="M302.73,261.43c-.23,0-.44-.17-.48-.4-.15-.86-.23-1.73-.23-2.61,0-8.28,6.73-15.01,15.01-15.01,4.62,0,8.91,2.08,11.78,5.71.17.21.13.52-.08.68-.21.17-.52.13-.68-.08-2.68-3.39-6.7-5.34-11.02-5.34-7.74,0-14.04,6.3-14.04,14.04,0,.82.07,1.64.21,2.44.05.26-.13.52-.4.56-.03,0-.06,0-.08,0Z"/>
        <path class="cls-31" d="M316.97,270.61c-2.55,0-4.99-.78-7.06-2.27-.22-.16-.27-.46-.11-.68.16-.22.46-.27.68-.11,1.9,1.36,4.15,2.08,6.49,2.08,6.15,0,11.15-5,11.15-11.15,0-.85-.1-1.7-.29-2.53-.06-.26.1-.52.36-.58.26-.06.52.1.58.36.21.9.31,1.82.31,2.75,0,6.68-5.44,12.12-12.12,12.12Z"/>
        <path class="cls-31" d="M305.49,260.88c-.23,0-.44-.17-.48-.41-.11-.65-.16-1.32-.16-1.98,0-6.68,5.44-12.12,12.12-12.12,2.89,0,5.69,1.03,7.88,2.91.2.17.23.48.05.69-.18.2-.48.23-.69.05-2.02-1.73-4.59-2.68-7.25-2.68-6.15,0-11.15,5-11.15,11.15,0,.61.05,1.22.15,1.82.04.27-.14.52-.4.56-.03,0-.05,0-.08,0Z"/>
        <path class="cls-31" d="M305.55,265.11c-.1,0-.2-.03-.29-.09l-4.44-3.23c-.15-.11-.23-.3-.19-.49.04-.19.18-.33.36-.38l1.64-.4c.26-.06.52.09.59.36.06.26-.09.52-.36.59l-.62.15,3.05,2.21.94-3.09-.53.15c-.26.07-.53-.08-.6-.33-.07-.26.08-.53.33-.6l1.39-.4c.17-.05.36,0,.48.13.12.13.17.31.12.48l-1.4,4.59c-.05.15-.16.27-.31.32-.05.02-.1.03-.15.03Z"/>
        <path class="cls-31" d="M326.76,256.78c-.12,0-.24-.05-.33-.13-.13-.12-.18-.3-.14-.47l1.15-4.92c.04-.16.15-.29.3-.34.15-.06.32-.04.45.06l4.57,3.2c.15.1.23.28.2.46s-.15.33-.32.39l-1.3.47c-.25.09-.53-.04-.62-.29-.09-.25.04-.53.29-.62l.41-.15-3.21-2.24-.79,3.4.74-.22c.26-.08.53.07.61.33.08.26-.07.53-.33.61l-1.55.47s-.09.02-.14.02Z"/>
      </g>
      <g>
        <path class="cls-31" d="M427.77,297c-4.68,0-9-2.12-11.87-5.82-.16-.21-.13-.52.09-.68.21-.16.52-.13.68.09,2.68,3.46,6.73,5.44,11.1,5.44,7.74,0,14.04-6.3,14.04-14.04,0-1.11-.13-2.21-.38-3.28-.06-.26.1-.52.36-.59.26-.06.52.1.59.36.27,1.14.41,2.32.41,3.5,0,8.28-6.73,15.01-15.01,15.01Z"/>
        <path class="cls-31" d="M413.46,284.99c-.23,0-.44-.17-.48-.4-.15-.86-.23-1.73-.23-2.61,0-8.28,6.73-15.01,15.01-15.01,4.62,0,8.91,2.08,11.78,5.71.17.21.13.52-.08.68-.21.17-.52.13-.68-.08-2.68-3.39-6.7-5.34-11.02-5.34-7.74,0-14.04,6.3-14.04,14.04,0,.82.07,1.64.21,2.44.05.26-.13.52-.4.56-.03,0-.06,0-.08,0Z"/>
        <path class="cls-31" d="M427.7,294.17c-2.55,0-4.99-.78-7.06-2.27-.22-.16-.27-.46-.11-.68.16-.22.46-.27.68-.11,1.9,1.36,4.15,2.08,6.49,2.08,6.15,0,11.15-5,11.15-11.15,0-.85-.1-1.7-.29-2.53-.06-.26.1-.52.36-.58.26-.06.52.1.58.36.21.89.31,1.82.31,2.75,0,6.68-5.44,12.12-12.12,12.12Z"/>
        <path class="cls-31" d="M416.22,284.44c-.23,0-.44-.17-.48-.41-.11-.65-.16-1.32-.16-1.98,0-6.68,5.44-12.12,12.12-12.12,2.89,0,5.69,1.03,7.88,2.91.2.17.23.48.05.69-.17.2-.48.23-.69.05-2.02-1.73-4.59-2.68-7.25-2.68-6.15,0-11.15,5-11.15,11.15,0,.61.05,1.23.15,1.82.04.27-.14.52-.4.56-.03,0-.05,0-.08,0Z"/>
        <path class="cls-31" d="M416.27,288.67c-.1,0-.2-.03-.29-.09l-4.44-3.23c-.15-.11-.23-.3-.19-.49.04-.19.18-.33.36-.38l1.64-.4c.26-.06.52.09.59.36.06.26-.09.52-.36.59l-.62.15,3.05,2.21.94-3.09-.53.15c-.26.07-.53-.08-.6-.33-.07-.26.08-.53.33-.6l1.39-.4c.17-.05.36,0,.48.13.12.13.17.31.12.48l-1.4,4.59c-.05.15-.16.27-.31.32-.05.02-.1.03-.15.03Z"/>
        <path class="cls-31" d="M437.48,280.34c-.12,0-.24-.05-.33-.13-.13-.12-.18-.3-.14-.47l1.15-4.92c.04-.16.15-.29.3-.34.15-.06.32-.04.45.06l4.57,3.2c.15.1.23.28.2.46-.02.18-.15.33-.32.39l-1.3.47c-.25.09-.53-.04-.62-.29-.09-.25.04-.53.29-.62l.41-.15-3.21-2.24-.79,3.4.74-.22c.26-.08.53.07.61.33.08.26-.07.53-.33.61l-1.55.47s-.09.02-.14.02Z"/>
      </g>
    </g>
    <g>
      <g>
        <rect class="cls-32" x="77.9" y="106" width="143.28" height="338.29"/>
        <g>
          <path class="cls-33" d="M212.75,427.44h-126.89c-.27,0-.49-.22-.49-.49v-23.41c0-.27.22-.49.49-.49h126.89c.27,0,.49.22.49.49v23.41c0,.27-.22.49-.49.49ZM86.35,426.47h125.91v-22.44h-125.91v22.44Z"/>
          <path class="cls-31" d="M150.59,418.87c-2.03,0-3.68-1.65-3.68-3.68s1.65-3.68,3.68-3.68,3.68,1.65,3.68,3.68-1.65,3.68-3.68,3.68ZM150.59,412.49c-1.49,0-2.7,1.21-2.7,2.7s1.21,2.7,2.7,2.7,2.7-1.21,2.7-2.7-1.21-2.7-2.7-2.7Z"/>
          <rect class="cls-27" x="92.66" y="412.35" width="31.6" height="5.85"/>
          <rect class="cls-27" x="174.65" y="412.35" width="31.6" height="5.85"/>
        </g>
        <g>
          <path class="cls-33" d="M212.4,396.89h-126.89c-.27,0-.49-.22-.49-.49v-23.41c0-.27.22-.49.49-.49h126.89c.27,0,.49.22.49.49v23.41c0,.27-.22.49-.49.49ZM86,395.92h125.91v-22.44h-125.91v22.44Z"/>
          <path class="cls-31" d="M150.24,388.32c-2.03,0-3.68-1.65-3.68-3.68s1.65-3.68,3.68-3.68,3.68,1.65,3.68,3.68-1.65,3.68-3.68,3.68ZM150.24,381.94c-1.49,0-2.7,1.21-2.7,2.7s1.21,2.7,2.7,2.7,2.7-1.21,2.7-2.7-1.21-2.7-2.7-2.7Z"/>
          <rect class="cls-27" x="92.3" y="381.8" width="31.6" height="5.85"/>
          <rect class="cls-27" x="174.3" y="381.8" width="31.6" height="5.85"/>
        </g>
        <g>
          <path class="cls-33" d="M212.4,366.34h-126.89c-.27,0-.49-.22-.49-.49v-23.41c0-.27.22-.49.49-.49h126.89c.27,0,.49.22.49.49v23.41c0,.27-.22.49-.49.49ZM86,365.37h125.91v-22.44h-125.91v22.44Z"/>
          <path class="cls-31" d="M150.24,357.76c-2.03,0-3.68-1.65-3.68-3.68s1.65-3.68,3.68-3.68,3.68,1.65,3.68,3.68-1.65,3.68-3.68,3.68ZM150.24,351.39c-1.49,0-2.7,1.21-2.7,2.7s1.21,2.7,2.7,2.7,2.7-1.21,2.7-2.7-1.21-2.7-2.7-2.7Z"/>
          <rect class="cls-27" x="92.3" y="351.25" width="31.6" height="5.85"/>
          <rect class="cls-27" x="174.3" y="351.25" width="31.6" height="5.85"/>
        </g>
        <g>
          <path class="cls-36" d="M213.1,336.14h-126.89c-.27,0-.49-.22-.49-.49v-23.41c0-.27.22-.49.49-.49h126.89c.27,0,.49.22.49.49v23.41c0,.27-.22.49-.49.49ZM86.7,335.17h125.91v-22.44h-125.91v22.44Z"/>
          <g>
            <circle class="cls-27" cx="203.41" cy="324.74" r="3.19"/>
            <circle class="cls-27" cx="192.85" cy="324.36" r="3.19" transform="translate(-167.14 437.53) rotate(-76.72)"/>
            <circle class="cls-31" cx="182.31" cy="324.36" r="3.19" transform="translate(-110.25 94.46) rotate(-22.5)"/>
          </g>
          <path class="cls-36" d="M96.81,333.27c-.27,0-.49-.22-.49-.49v-17.56c0-.27.22-.49.49-.49s.49.22.49.49v17.56c0,.27-.22.49-.49.49Z"/>
          <path class="cls-36" d="M91.89,333.27c-.27,0-.49-.22-.49-.49v-9.9c0-.27.22-.49.49-.49s.49.22.49.49v9.9c0,.27-.22.49-.49.49Z"/>
          <path class="cls-36" d="M106.81,322.23c-.27,0-.49-.22-.49-.49v-6.34c0-.27.22-.49.49-.49s.49.22.49.49v6.34c0,.27-.22.49-.49.49Z"/>
          <path class="cls-36" d="M101.9,333.45c-.27,0-.49-.22-.49-.49v-17.56c0-.27.22-.49.49-.49s.49.22.49.49v17.56c0,.27-.22.49-.49.49Z"/>
          <path class="cls-36" d="M116.65,327.49c-.27,0-.49-.22-.49-.49v-12.13c0-.27.22-.49.49-.49s.49.22.49.49v12.13c0,.27-.22.49-.49.49Z"/>
          <path class="cls-36" d="M111.73,332.92c-.27,0-.49-.22-.49-.49v-17.56c0-.27.22-.49.49-.49s.49.22.49.49v17.56c0,.27-.22.49-.49.49Z"/>
          <path class="cls-36" d="M126.66,322.23c-.27,0-.49-.22-.49-.49v-6.69c0-.27.22-.49.49-.49s.49.22.49.49v6.69c0,.27-.22.49-.49.49Z"/>
          <path class="cls-36" d="M121.74,333.1c-.27,0-.49-.22-.49-.49v-17.56c0-.27.22-.49.49-.49s.49.22.49.49v17.56c0,.27-.22.49-.49.49Z"/>
        </g>
        <g>
          <path class="cls-36" d="M213.45,307.87h-126.89c-.27,0-.49-.22-.49-.49v-23.41c0-.27.22-.49.49-.49h126.89c.27,0,.49.22.49.49v23.41c0,.27-.22.49-.49.49ZM87.05,306.9h125.91v-22.44h-125.91v22.44Z"/>
          <g>
            <circle class="cls-31" cx="203.76" cy="296.47" r="3.19" transform="translate(-121.52 450.11) rotate(-80.78)"/>
            <circle class="cls-27" cx="193.2" cy="296.09" r="3.19"/>
            <circle class="cls-27" cx="182.66" cy="296.09" r="3.19"/>
          </g>
          <path class="cls-36" d="M97.15,305.01c-.27,0-.49-.22-.49-.49v-17.56c0-.27.22-.49.49-.49s.49.22.49.49v17.56c0,.27-.22.49-.49.49Z"/>
          <path class="cls-36" d="M92.24,305.01c-.27,0-.49-.22-.49-.49v-12.97c0-.27.22-.49.49-.49s.49.22.49.49v12.97c0,.27-.22.49-.49.49Z"/>
          <path class="cls-36" d="M107.16,305.18c-.27,0-.49-.22-.49-.49v-17.56c0-.27.22-.49.49-.49s.49.22.49.49v17.56c0,.27-.22.49-.49.49Z"/>
          <path class="cls-36" d="M102.25,305.18c-.27,0-.49-.22-.49-.49v-6.97c0-.27.22-.49.49-.49s.49.22.49.49v6.97c0,.27-.22.49-.49.49Z"/>
          <path class="cls-36" d="M117,304.66c-.27,0-.49-.22-.49-.49v-17.56c0-.27.22-.49.49-.49s.49.22.49.49v17.56c0,.27-.22.49-.49.49Z"/>
          <path class="cls-36" d="M112.08,304.66c-.27,0-.49-.22-.49-.49v-5.3c0-.27.22-.49.49-.49s.49.22.49.49v5.3c0,.27-.22.49-.49.49Z"/>
          <path class="cls-36" d="M127,295.24c-.27,0-.49-.22-.49-.49v-7.97c0-.27.22-.49.49-.49s.49.22.49.49v7.97c0,.27-.22.49-.49.49Z"/>
          <path class="cls-36" d="M122.09,304.83c-.27,0-.49-.22-.49-.49v-13.71c0-.27.22-.49.49-.49s.49.22.49.49v13.71c0,.27-.22.49-.49.49Z"/>
        </g>
        <g>
          <path class="cls-36" d="M213.1,277.5h-126.89c-.27,0-.49-.22-.49-.49v-23.41c0-.27.22-.49.49-.49h126.89c.27,0,.49.22.49.49v23.41c0,.27-.22.49-.49.49ZM86.7,276.53h125.91v-22.44h-125.91v22.44Z"/>
          <g>
            <circle class="cls-27" cx="203.41" cy="266.1" r="3.19"/>
            <circle class="cls-31" cx="192.85" cy="265.72" r="3.19"/>
            <circle class="cls-31" cx="182.31" cy="265.72" r="3.19" transform="translate(-118.18 382.1) rotate(-76.72)"/>
          </g>
          <path class="cls-36" d="M96.8,261.38c-.27,0-.49-.22-.49-.49v-4.31c0-.27.22-.49.49-.49s.49.22.49.49v4.31c0,.27-.22.49-.49.49Z"/>
          <path class="cls-36" d="M91.89,274.63c-.27,0-.49-.22-.49-.49v-17.56c0-.27.22-.49.49-.49s.49.22.49.49v17.56c0,.27-.22.49-.49.49Z"/>
          <path class="cls-36" d="M106.81,267.1c-.27,0-.49-.22-.49-.49v-9.85c0-.27.22-.49.49-.49s.49.22.49.49v9.85c0,.27-.22.49-.49.49Z"/>
          <path class="cls-36" d="M101.9,274.81c-.27,0-.49-.22-.49-.49v-17.56c0-.27.22-.49.49-.49s.49.22.49.49v17.56c0,.27-.22.49-.49.49Z"/>
          <path class="cls-36" d="M116.64,274.28c-.27,0-.49-.22-.49-.49v-17.56c0-.27.22-.49.49-.49s.49.22.49.49v17.56c0,.27-.22.49-.49.49Z"/>
          <path class="cls-36" d="M111.73,274.28c-.27,0-.49-.22-.49-.49v-17.56c0-.27.22-.49.49-.49s.49.22.49.49v17.56c0,.27-.22.49-.49.49Z"/>
          <path class="cls-36" d="M126.65,269.62c-.27,0-.49-.22-.49-.49v-12.72c0-.27.22-.49.49-.49s.49.22.49.49v12.72c0,.27-.22.49-.49.49Z"/>
          <path class="cls-36" d="M121.74,274.46c-.27,0-.49-.22-.49-.49v-13.07c0-.27.22-.49.49-.49s.49.22.49.49v13.07c0,.27-.22.49-.49.49Z"/>
        </g>
        <g>
          <path class="cls-36" d="M212.74,177.07h-126.89c-.27,0-.49-.22-.49-.49v-23.41c0-.27.22-.49.49-.49h126.89c.27,0,.49.22.49.49v23.41c0,.27-.22.49-.49.49ZM86.34,176.09h125.91v-22.44h-125.91v22.44Z"/>
          <g>
            <circle class="cls-31" cx="203.05" cy="165.66" r="3.19"/>
            <circle class="cls-27" cx="192.49" cy="165.28" r="3.19"/>
            <circle class="cls-27" cx="181.95" cy="165.28" r="3.19" transform="translate(-10.34 318.41) rotate(-80.78)"/>
          </g>
          <path class="cls-36" d="M96.45,174.2c-.27,0-.49-.22-.49-.49v-17.56c0-.27.22-.49.49-.49s.49.22.49.49v17.56c0,.27-.22.49-.49.49Z"/>
          <path class="cls-36" d="M91.53,174.2c-.27,0-.49-.22-.49-.49v-12.97c0-.27.22-.49.49-.49s.49.22.49.49v12.97c0,.27-.22.49-.49.49Z"/>
          <path class="cls-36" d="M106.45,174.37c-.27,0-.49-.22-.49-.49v-17.56c0-.27.22-.49.49-.49s.49.22.49.49v17.56c0,.27-.22.49-.49.49Z"/>
          <path class="cls-36" d="M101.54,174.37c-.27,0-.49-.22-.49-.49v-6.97c0-.27.22-.49.49-.49s.49.22.49.49v6.97c0,.27-.22.49-.49.49Z"/>
          <path class="cls-36" d="M116.29,173.85c-.27,0-.49-.22-.49-.49v-17.56c0-.27.22-.49.49-.49s.49.22.49.49v17.56c0,.27-.22.49-.49.49Z"/>
          <path class="cls-36" d="M111.37,173.85c-.27,0-.49-.22-.49-.49v-5.3c0-.27.22-.49.49-.49s.49.22.49.49v5.3c0,.27-.22.49-.49.49Z"/>
          <path class="cls-36" d="M126.29,164.43c-.27,0-.49-.22-.49-.49v-7.97c0-.27.22-.49.49-.49s.49.22.49.49v7.97c0,.27-.22.49-.49.49Z"/>
          <path class="cls-36" d="M121.38,174.02c-.27,0-.49-.22-.49-.49v-13.71c0-.27.22-.49.49-.49s.49.22.49.49v13.71c0,.27-.22.49-.49.49Z"/>
        </g>
        <g>
          <path class="cls-36" d="M212.39,146.69h-126.89c-.27,0-.49-.22-.49-.49v-23.41c0-.27.22-.49.49-.49h126.89c.27,0,.49.22.49.49v23.41c0,.27-.22.49-.49.49ZM85.99,145.72h125.91v-22.44h-125.91v22.44Z"/>
          <g>
            <circle class="cls-27" cx="202.7" cy="135.29" r="3.19" transform="translate(24.46 301.48) rotate(-76.72)"/>
            <circle class="cls-31" cx="192.14" cy="134.91" r="3.19"/>
            <circle class="cls-31" cx="181.6" cy="134.91" r="3.19"/>
          </g>
          <path class="cls-36" d="M96.1,130.58c-.27,0-.49-.22-.49-.49v-4.31c0-.27.22-.49.49-.49s.49.22.49.49v4.31c0,.27-.22.49-.49.49Z"/>
          <path class="cls-36" d="M91.18,143.82c-.27,0-.49-.22-.49-.49v-17.56c0-.27.22-.49.49-.49s.49.22.49.49v17.56c0,.27-.22.49-.49.49Z"/>
          <path class="cls-36" d="M106.1,136.29c-.27,0-.49-.22-.49-.49v-9.85c0-.27.22-.49.49-.49s.49.22.49.49v9.85c0,.27-.22.49-.49.49Z"/>
          <path class="cls-36" d="M101.19,144c-.27,0-.49-.22-.49-.49v-17.56c0-.27.22-.49.49-.49s.49.22.49.49v17.56c0,.27-.22.49-.49.49Z"/>
          <path class="cls-36" d="M115.94,143.47c-.27,0-.49-.22-.49-.49v-17.56c0-.27.22-.49.49-.49s.49.22.49.49v17.56c0,.27-.22.49-.49.49Z"/>
          <path class="cls-36" d="M111.02,143.47c-.27,0-.49-.22-.49-.49v-17.56c0-.27.22-.49.49-.49s.49.22.49.49v17.56c0,.27-.22.49-.49.49Z"/>
          <path class="cls-36" d="M125.94,138.81c-.27,0-.49-.22-.49-.49v-12.72c0-.27.22-.49.49-.49s.49.22.49.49v12.72c0,.27-.22.49-.49.49Z"/>
          <path class="cls-36" d="M121.03,143.65c-.27,0-.49-.22-.49-.49v-13.07c0-.27.22-.49.49-.49s.49.22.49.49v13.07c0,.27-.22.49-.49.49Z"/>
        </g>
        <g>
          <rect class="cls-27" x="86.58" y="228.93" width="126.19" height="11.24"/>
          <circle class="cls-31" cx="92.44" cy="234.78" r="2.11" transform="translate(-154.12 288.41) rotate(-80.78)"/>
          <circle class="cls-31" cx="207.85" cy="234.54" r="2.11"/>
        </g>
        <g>
          <rect class="cls-27" x="86.11" y="209.26" width="126.19" height="11.24"/>
          <circle class="cls-31" cx="91.97" cy="215.11" r="2.11"/>
          <circle class="cls-31" cx="207.38" cy="214.88" r="2.11"/>
        </g>
        <g>
          <rect class="cls-27" x="85.88" y="190.06" width="126.19" height="11.24"/>
          <circle class="cls-31" cx="91.73" cy="195.91" r="2.11"/>
          <circle class="cls-31" cx="207.15" cy="195.68" r="2.11"/>
        </g>
        <path class="cls-33" d="M219.09,442.69H71.6c-.27,0-.49-.22-.49-.49V101.57c0-.27.22-.49.49-.49h147.49c.27,0,.49.22.49.49v340.63c0,.27-.22.49-.49.49ZM72.09,441.71h146.52V102.06H72.09v339.66Z"/>
      </g>
      <g>
        <g>
          <path class="cls-33" d="M446.9,125.79h-105.17c-.27,0-.49-.22-.49-.49v-21.33c0-.27.22-.49.49-.49h105.17c.27,0,.49.22.49.49v21.33c0,.27-.22.49-.49.49ZM342.22,124.81h104.2v-20.36h-104.2v20.36Z"/>
          <rect class="cls-32" x="348.13" y="106.76" width="32.03" height="15.46"/>
          <path class="cls-33" d="M384.34,122.74c-.27,0-.49-.22-.49-.49v-4.35c0-.27.22-.49.49-.49s.49.22.49.49v4.35c0,.27-.22.49-.49.49Z"/>
          <path class="cls-33" d="M384.34,114.11c-.27,0-.49-.22-.49-.49v-6.86c0-.27.22-.49.49-.49s.49.22.49.49v6.86c0,.27-.22.49-.49.49Z"/>
          <path class="cls-33" d="M389.32,122.74c-.27,0-.49-.22-.49-.49v-7.76c0-.27.22-.49.49-.49s.49.22.49.49v7.76c0,.27-.22.49-.49.49Z"/>
          <path class="cls-33" d="M389.32,110.18c-.27,0-.49-.22-.49-.49v-2.93c0-.27.22-.49.49-.49s.49.22.49.49v2.93c0,.27-.22.49-.49.49Z"/>
          <path class="cls-33" d="M394.3,122.74c-.27,0-.49-.22-.49-.49v-4.35c0-.27.22-.49.49-.49s.49.22.49.49v4.35c0,.27-.22.49-.49.49Z"/>
          <path class="cls-33" d="M394.3,112.43c-.27,0-.49-.22-.49-.49v-5.18c0-.27.22-.49.49-.49s.49.22.49.49v5.18c0,.27-.22.49-.49.49Z"/>
          <path class="cls-33" d="M399.29,122.74c-.27,0-.49-.22-.49-.49v-8.63c0-.27.22-.49.49-.49s.49.22.49.49v8.63c0,.27-.22.49-.49.49Z"/>
          <path class="cls-33" d="M399.29,110.68c-.27,0-.49-.22-.49-.49v-3.43c0-.27.22-.49.49-.49s.49.22.49.49v3.43c0,.27-.22.49-.49.49Z"/>
          <path class="cls-33" d="M404.27,122.74c-.27,0-.49-.22-.49-.49v-2.97c0-.27.22-.49.49-.49s.49.22.49.49v2.97c0,.27-.22.49-.49.49Z"/>
          <path class="cls-33" d="M404.27,114.11c-.27,0-.49-.22-.49-.49v-6.86c0-.27.22-.49.49-.49s.49.22.49.49v6.86c0,.27-.22.49-.49.49Z"/>
          <path class="cls-33" d="M409.25,122.74c-.27,0-.49-.22-.49-.49v-9.19c0-.27.22-.49.49-.49s.49.22.49.49v9.19c0,.27-.22.49-.49.49Z"/>
          <path class="cls-33" d="M409.25,110.18c-.27,0-.49-.22-.49-.49v-2.93c0-.27.22-.49.49-.49s.49.22.49.49v2.93c0,.27-.22.49-.49.49Z"/>
        </g>
        <g>
          <path class="cls-33" d="M446.9,149.13h-72.67c-.27,0-.49-.22-.49-.49s.22-.49.49-.49h72.18v-20.36h-99.67c-.27,0-.49-.22-.49-.49s.22-.49.49-.49h100.16c.27,0,.49.22.49.49v21.33c0,.27-.22.49-.49.49Z"/>
          <path class="cls-33" d="M371.53,149.13h-29.8c-.27,0-.49-.22-.49-.49v-21.33c0-.27.22-.49.49-.49h3.02c.27,0,.49.22.49.49s-.22.49-.49.49h-2.53v20.36h29.32c.27,0,.49.22.49.49s-.22.49-.49.49Z"/>
          <rect class="cls-32" x="348.13" y="130.1" width="32.03" height="15.46"/>
          <path class="cls-33" d="M384.34,146.08c-.27,0-.49-.22-.49-.49v-4.35c0-.27.22-.49.49-.49s.49.22.49.49v4.35c0,.27-.22.49-.49.49Z"/>
          <path class="cls-33" d="M384.34,137.45c-.27,0-.49-.22-.49-.49v-6.86c0-.27.22-.49.49-.49s.49.22.49.49v6.86c0,.27-.22.49-.49.49Z"/>
          <path class="cls-33" d="M389.32,146.08c-.27,0-.49-.22-.49-.49v-7.76c0-.27.22-.49.49-.49s.49.22.49.49v7.76c0,.27-.22.49-.49.49Z"/>
          <path class="cls-33" d="M389.32,133.52c-.27,0-.49-.22-.49-.49v-2.93c0-.27.22-.49.49-.49s.49.22.49.49v2.93c0,.27-.22.49-.49.49Z"/>
          <path class="cls-33" d="M394.3,146.08c-.27,0-.49-.22-.49-.49v-4.35c0-.27.22-.49.49-.49s.49.22.49.49v4.35c0,.27-.22.49-.49.49Z"/>
          <path class="cls-33" d="M394.3,135.77c-.27,0-.49-.22-.49-.49v-5.18c0-.27.22-.49.49-.49s.49.22.49.49v5.18c0,.27-.22.49-.49.49Z"/>
          <path class="cls-33" d="M399.29,146.08c-.27,0-.49-.22-.49-.49v-8.63c0-.27.22-.49.49-.49s.49.22.49.49v8.63c0,.27-.22.49-.49.49Z"/>
          <path class="cls-33" d="M399.29,134.02c-.27,0-.49-.22-.49-.49v-3.43c0-.27.22-.49.49-.49s.49.22.49.49v3.43c0,.27-.22.49-.49.49Z"/>
          <path class="cls-33" d="M404.27,146.08c-.27,0-.49-.22-.49-.49v-2.97c0-.27.22-.49.49-.49s.49.22.49.49v2.97c0,.27-.22.49-.49.49Z"/>
          <path class="cls-33" d="M404.27,137.45c-.27,0-.49-.22-.49-.49v-6.86c0-.27.22-.49.49-.49s.49.22.49.49v6.86c0,.27-.22.49-.49.49Z"/>
          <path class="cls-33" d="M409.25,146.08c-.27,0-.49-.22-.49-.49v-9.19c0-.27.22-.49.49-.49s.49.22.49.49v9.19c0,.27-.22.49-.49.49Z"/>
          <path class="cls-33" d="M409.25,133.52c-.27,0-.49-.22-.49-.49v-2.93c0-.27.22-.49.49-.49s.49.22.49.49v2.93c0,.27-.22.49-.49.49Z"/>
        </g>
        <g>
          <path class="cls-33" d="M446.9,172.47h-105.17c-.27,0-.49-.22-.49-.49v-16.82c0-.27.22-.49.49-.49s.49.22.49.49v16.34h104.2v-20.36h-50.37c-.27,0-.49-.22-.49-.49s.22-.49.49-.49h50.86c.27,0,.49.22.49.49v21.33c0,.27-.22.49-.49.49Z"/>
          <path class="cls-33" d="M341.73,155.65c-.27,0-.49-.22-.49-.49v-4.51c0-.27.22-.49.49-.49h49.39c.27,0,.49.22.49.49s-.22.49-.49.49h-48.9v4.02c0,.27-.22.49-.49.49Z"/>
          <rect class="cls-32" x="348.13" y="153.45" width="32.03" height="15.46"/>
          <path class="cls-33" d="M384.34,169.42c-.27,0-.49-.22-.49-.49v-4.35c0-.27.22-.49.49-.49s.49.22.49.49v4.35c0,.27-.22.49-.49.49Z"/>
          <path class="cls-33" d="M384.34,160.79c-.27,0-.49-.22-.49-.49v-6.86c0-.27.22-.49.49-.49s.49.22.49.49v6.86c0,.27-.22.49-.49.49Z"/>
          <path class="cls-33" d="M389.32,169.42c-.27,0-.49-.22-.49-.49v-7.76c0-.27.22-.49.49-.49s.49.22.49.49v7.76c0,.27-.22.49-.49.49Z"/>
          <path class="cls-33" d="M389.32,156.87c-.27,0-.49-.22-.49-.49v-2.93c0-.27.22-.49.49-.49s.49.22.49.49v2.93c0,.27-.22.49-.49.49Z"/>
          <path class="cls-33" d="M394.3,169.42c-.27,0-.49-.22-.49-.49v-4.35c0-.27.22-.49.49-.49s.49.22.49.49v4.35c0,.27-.22.49-.49.49Z"/>
          <path class="cls-33" d="M394.3,159.11c-.27,0-.49-.22-.49-.49v-5.18c0-.27.22-.49.49-.49s.49.22.49.49v5.18c0,.27-.22.49-.49.49Z"/>
          <path class="cls-33" d="M399.29,169.42c-.27,0-.49-.22-.49-.49v-8.63c0-.27.22-.49.49-.49s.49.22.49.49v8.63c0,.27-.22.49-.49.49Z"/>
          <path class="cls-33" d="M399.29,157.36c-.27,0-.49-.22-.49-.49v-3.43c0-.27.22-.49.49-.49s.49.22.49.49v3.43c0,.27-.22.49-.49.49Z"/>
          <path class="cls-33" d="M404.27,169.42c-.27,0-.49-.22-.49-.49v-2.97c0-.27.22-.49.49-.49s.49.22.49.49v2.97c0,.27-.22.49-.49.49Z"/>
          <path class="cls-33" d="M404.27,160.79c-.27,0-.49-.22-.49-.49v-6.86c0-.27.22-.49.49-.49s.49.22.49.49v6.86c0,.27-.22.49-.49.49Z"/>
          <path class="cls-33" d="M409.25,169.42c-.27,0-.49-.22-.49-.49v-9.19c0-.27.22-.49.49-.49s.49.22.49.49v9.19c0,.27-.22.49-.49.49Z"/>
          <path class="cls-33" d="M409.25,156.87c-.27,0-.49-.22-.49-.49v-2.93c0-.27.22-.49.49-.49s.49.22.49.49v2.93c0,.27-.22.49-.49.49Z"/>
        </g>
      </g>
      <path class="cls-33" d="M401.32,96.15c-.27,0-.49-.22-.49-.49v-13.62l-266.58-1.45-.47,14.61c0,.27-.23.48-.5.47-.27,0-.48-.23-.47-.5l.49-15.08c0-.26.21-.47.49-.47l267.54,1.46c.27,0,.48.22.48.49v14.11c0,.27-.22.49-.49.49Z"/>
      <path class="cls-33" d="M459.2,194.29h0l-115.74-.29c-.27,0-.49-.22-.49-.49,0-.27.22-.49.49-.49h0l115.26.28.32-53.06-9.07.15c-.27,0-.49-.21-.49-.48,0-.27.21-.49.48-.49l9.57-.16s0,0,0,0c.13,0,.25.05.34.14.09.09.15.22.14.35l-.32,54.04c0,.27-.22.48-.49.48Z"/>
    </g>
    <g>
      <path class="cls-31" d="M282.23,191.19c-12.93,0-24.89-5.87-32.82-16.09-.16-.21-.13-.52.09-.68.21-.16.52-.13.68.09,7.75,9.99,19.43,15.72,32.06,15.72,22.35,0,40.54-18.19,40.54-40.54,0-3.2-.37-6.38-1.11-9.46-.06-.26.1-.52.36-.59.26-.06.52.1.59.36.75,3.16,1.14,6.41,1.14,9.69,0,22.89-18.62,41.51-41.51,41.51Z"/>
      <path class="cls-31" d="M241.82,157.3c-.23,0-.44-.17-.48-.4-.41-2.37-.62-4.79-.62-7.22,0-22.89,18.62-41.51,41.51-41.51,12.77,0,24.64,5.75,32.58,15.78.17.21.13.52-.08.68-.21.17-.52.13-.68-.08-7.75-9.79-19.34-15.41-31.81-15.41-22.35,0-40.54,18.19-40.54,40.54,0,2.37.21,4.74.61,7.05.05.26-.13.52-.4.56-.03,0-.06,0-.08,0Z"/>
      <path class="cls-31" d="M282.02,183.22c-7.02,0-13.74-2.16-19.42-6.23-.22-.16-.27-.46-.11-.68.16-.22.46-.27.68-.11,5.52,3.96,12.04,6.05,18.85,6.05,17.85,0,32.37-14.52,32.37-32.38,0-2.48-.28-4.95-.83-7.34-.06-.26.1-.52.36-.58.26-.06.52.1.58.36.57,2.46.86,5,.86,7.56,0,18.39-14.96,33.35-33.35,33.35Z"/>
      <path class="cls-31" d="M249.6,155.74c-.23,0-.44-.17-.48-.41-.29-1.79-.44-3.62-.44-5.45,0-18.39,14.96-33.35,33.35-33.35,7.95,0,15.66,2.85,21.69,8.02.2.17.23.48.05.69-.18.2-.48.23-.69.05-5.86-5.02-13.33-7.78-21.06-7.78-17.85,0-32.38,14.52-32.38,32.38,0,1.78.14,3.56.43,5.29.04.27-.14.52-.4.56-.03,0-.05,0-.08,0Z"/>
      <path class="cls-31" d="M249.76,167.69c-.12,0-.23-.04-.32-.12l-10.75-9.56c-.13-.12-.19-.3-.15-.48.04-.18.18-.31.36-.36l2.82-.7c.26-.06.52.09.59.36.06.26-.09.52-.36.59l-1.92.48,9.45,8.4,2.45-10.68-2.08.23c-.27.03-.51-.16-.54-.43-.03-.27.16-.51.43-.54l2.75-.3c.16-.02.31.04.42.16s.15.28.11.43l-2.79,12.15c-.04.17-.16.3-.33.35-.05.02-.1.02-.15.02Z"/>
      <path class="cls-31" d="M311.34,143.64c-.11,0-.22-.04-.31-.11-.13-.11-.19-.27-.17-.43l1.55-13.39c.02-.18.14-.33.3-.39.16-.07.35-.04.49.07l11.66,9.47c.14.11.2.29.17.46-.03.17-.15.32-.31.38l-2.43.87c-.25.09-.53-.04-.62-.29-.09-.25.04-.53.29-.62l1.62-.58-10.31-8.37-1.37,11.77,1.97-.59c.26-.08.53.07.61.33.08.26-.07.53-.33.61l-2.68.81s-.09.02-.14.02Z"/>
    </g>
    <g>
      <path id="path1948" class="cls-26" d="M281.27,128.57c-1.76,0-3.44.16-4.92.42-4.36.77-5.15,2.38-5.15,5.36v3.93h10.3v1.31h-14.17c-2.99,0-5.62,1.8-6.44,5.22-.95,3.93-.99,6.37,0,10.47.73,3.05,2.48,5.22,5.48,5.22h3.54v-4.71c0-3.4,2.94-6.4,6.44-6.4h10.29c2.87,0,5.15-2.36,5.15-5.24v-9.81c0-2.79-2.36-4.89-5.15-5.36-1.77-.29-3.61-.43-5.37-.42ZM275.7,131.73c1.06,0,1.93.88,1.93,1.97,0,1.08-.87,1.96-1.93,1.96-1.07,0-1.93-.88-1.93-1.96s.87-1.97,1.93-1.97Z"/>
      <path id="path1950" class="cls-33" d="M293.08,139.58v4.58c0,3.55-3.01,6.53-6.44,6.53h-10.29c-2.82,0-5.15,2.41-5.15,5.24v9.81c0,2.79,2.43,4.44,5.15,5.24,3.26.96,6.39,1.13,10.29,0,2.59-.75,5.15-2.26,5.15-5.24v-3.93h-10.29v-1.31h15.45c2.99,0,4.11-2.09,5.15-5.22,1.08-3.23,1.03-6.33,0-10.47-.74-2.98-2.15-5.22-5.15-5.22h-3.87ZM287.29,164.43c1.07,0,1.93.88,1.93,1.96s-.87,1.97-1.93,1.97-1.93-.88-1.93-1.97.87-1.96,1.93-1.96Z"/>
    </g>
  </g>
  <g>
    <polygon class="cls-28" points="399.8 389.71 402.26 452.65 308.89 452.65 306.1 392.21 306.04 390.92 399.8 389.71"/>
    <g>
      <path class="cls-6" d="M356.65,456.52c0,8.36-6.89,15.1-15.25,14.83-2.1-.07-4.27-.08-6.52-.03-6.05.14-11.54.72-16.34,1.5h-23.58c-9.42,0-17.06-7.64-17.06-17.06h0c0-9.42,7.64-17.06,17.06-17.06h22.31c4.72.74,10.02,1.3,15.81,1.48,2.81.09,5.52.08,8.12-.01,8.43-.28,15.44,6.39,15.44,14.83v1.53Z"/>
      <path class="cls-6" d="M297.95,438.69c1.49,3.14,3.55,8.55,3.82,15.56.33,8.63-2.25,15.25-3.82,18.57"/>
      <line class="cls-19" x1="309.18" y1="447.29" x2="309.18" y2="466.38"/>
      <line class="cls-19" x1="315.42" y1="447.29" x2="315.42" y2="466.38"/>
      <line class="cls-19" x1="321.92" y1="447.29" x2="321.92" y2="466.38"/>
    </g>
    <path class="cls-14" d="M334.65,446.79l24.72-15.76c3.42-2.18,7.99-.63,9.38,3.18l6.87,18.88c1.31,3.61-.86,7.56-4.62,8.37l-24.91,5.42c-.73.16-1.47.19-2.21.09-2.29-.32-7.04-1.53-10.06-6.14-2.33-3.56-2.39-7.24-2.02-9.73.26-1.78,1.33-3.35,2.85-4.32Z"/>
    <g>
      <g>
        <path class="cls-23" d="M341.26,456.52c0,8.36,6.89,15.1,15.25,14.83,2.1-.07,4.27-.08,6.52-.03,6.05.14,11.54.72,16.34,1.5h23.58c9.42,0,17.06-7.64,17.06-17.06h0c0-9.42-7.64-17.06-17.06-17.06h-22.31c-4.72.74-10.02,1.3-15.81,1.48-2.81.09-5.52.08-8.12-.01-8.43-.28-15.44,6.39-15.44,14.83v1.53Z"/>
        <g class="cls-45">
          <path class="cls-33" d="M338.79,440.84s76.05,12.39,82.48,33.26c6.43,20.87,31.04-21.45,31.04-21.45l-32.3-39.73-81.23,27.91Z"/>
        </g>
        <path class="cls-17" d="M341.26,456.52c0,8.36,6.89,15.1,15.25,14.83,2.1-.07,4.27-.08,6.52-.03,6.05.14,11.54.72,16.34,1.5h23.58c9.42,0,17.06-7.64,17.06-17.06h0c0-9.42-7.64-17.06-17.06-17.06h-22.31c-4.72.74-10.02,1.3-15.81,1.48-2.81.09-5.52.08-8.12-.01-8.43-.28-15.44,6.39-15.44,14.83v1.53Z"/>
      </g>
      <path class="cls-6" d="M399.97,438.69c-1.49,3.14-3.55,8.55-3.82,15.56-.33,8.63,2.25,15.25,3.82,18.57"/>
      <line class="cls-19" x1="388.73" y1="447.29" x2="388.73" y2="466.38"/>
      <line class="cls-19" x1="382.49" y1="447.29" x2="382.49" y2="466.38"/>
      <line class="cls-19" x1="376" y1="447.29" x2="376" y2="466.38"/>
    </g>
    <g>
      <path class="cls-2" d="M360.56,445.06l-22.01-14.03c-3.42-2.18-7.99-.63-9.38,3.18l-6.87,18.88c-1.31,3.61.86,7.56,4.62,8.37l24.91,5.42c.73.16,1.47.19,2.21.09,2.29-.32,7.04-1.53,10.06-6.14.16-.25.31-.49.45-.74,2.95-5.2,1.05-11.83-3.99-15.04Z"/>
      <g class="cls-42">
        <path class="cls-33" d="M341.62,424.77l40.87,34.88s-22.22-7.69-37.72-13.79c-9.4-3.7-14.76,27.21-17.14,26.48-14.25-4.38-10.82-32.66-10.35-33.64,1.08-2.23,21.95-17.51,21.95-17.51l2.39,3.59Z"/>
      </g>
      <path class="cls-16" d="M360.56,445.06l-22.01-14.03c-3.42-2.18-7.99-.63-9.38,3.18l-6.87,18.88c-1.31,3.61.86,7.56,4.62,8.37l24.91,5.42c.73.16,1.47.19,2.21.09,2.29-.32,7.04-1.53,10.06-6.14.16-.25.31-.49.45-.74,2.95-5.2,1.05-11.83-3.99-15.04Z"/>
    </g>
    <g>
      <path class="cls-41" d="M358.49,427.75l17.69,39.87s49.2-10.37,83.42-31.78c11.96-7.48,15.82-23.12,8.69-35.3-.1-.17-.2-.35-.31-.52-6.09-10.17-18.41-14.78-29.77-11.38-18.19,5.45-52.11,17.64-79.73,39.1Z"/>
      <g class="cls-39">
        <path class="cls-10" d="M427.9,387.53s30.13,2.6,30.13,21.1c0,16.55-71.22,65.74-71.22,65.74l111.13,2.67,14.48-92.28-57.91-24.9-26.61,27.67Z"/>
      </g>
      <path class="cls-17" d="M358.49,427.75l17.69,39.87s49.2-10.37,83.42-31.78c11.96-7.48,15.82-23.12,8.69-35.3-.1-.17-.2-.35-.31-.52-6.09-10.17-18.41-14.78-29.77-11.38-18.19,5.45-52.11,17.64-79.73,39.1Z"/>
    </g>
    <g>
      <path class="cls-41" d="M345.57,427.75l-17.69,39.87s-49.2-10.37-83.42-31.78c-11.96-7.48-15.82-23.12-8.69-35.3.1-.17.2-.35.31-.52,6.09-10.17,18.41-14.78,29.77-11.38,18.19,5.45,52.11,17.64,79.73,39.1Z"/>
      <g class="cls-46">
        <path class="cls-33" d="M277.9,387.18s-44.91,10.67-59.78,51.35-9.96-62.62-9.96-62.62l69.74,11.27Z"/>
      </g>
      <path class="cls-17" d="M345.57,427.75l-17.69,39.87s-49.2-10.37-83.42-31.78c-11.96-7.48-15.82-23.12-8.69-35.3.1-.17.2-.35.31-.52,6.09-10.17,18.41-14.78,29.77-11.38,18.19,5.45,52.11,17.64,79.73,39.1Z"/>
    </g>
    <g>
      <ellipse class="cls-8" cx="404.21" cy="369.1" rx="19.66" ry="7.94" transform="translate(-109.44 179.94) rotate(-22.18)"/>
      <g>
        <path class="cls-2" d="M434.58,396.35h0s-17.9-37.85-17.9-37.85l-32.1,15,7.83,16.77-39.84,6.67,2.11,24.82,61.85-.23c3.73.44,7.63-.3,11.1-2.37,7.92-4.72,10.83-14.64,6.95-22.81Z"/>
        <g class="cls-43">
          <path class="cls-4" d="M449.95,367.99c10.25,9.06,22.18,16.06,35.09,20.58.76.27,1.08-.94.33-1.2-12.7-4.44-24.46-11.34-34.54-20.26-.6-.53-1.48.35-.88.88h0Z"/>
          <path class="cls-33" d="M451.95,401.77c-.11-1.71-.34-3.44-.72-5.12-.56-2.46-1.66-4.83-2.67-7.13-1.43-3.26-3.04-6.45-4.57-9.66-3.11-6.53-6.23-13.07-9.34-19.6-.39-.82-.78-1.64-1.17-2.47-.67-1.23-1.57-2.22-2.73-2.97-1.02-.94-2.22-1.57-3.6-1.89-.64-.2-1.28-.32-1.93-.36-.5-.65-1.01-1.3-1.51-1.96-1.32-1.31-2.88-2.22-4.67-2.72-.94-.13-1.88-.25-2.81-.38-1.91,0-3.69.49-5.34,1.45-5.3,3.36-10.82,6.39-16.51,9.04-1.27.59-2.55,1.16-3.84,1.71-3.74,1.53-7.54,2.9-11.39,4.11-1.38.33-2.58.96-3.6,1.89-1.15.75-2.06,1.74-2.73,2.97-.77,1.21-1.19,2.53-1.26,3.94-.32,1.41-.25,2.81.19,4.22.36.84.71,1.69,1.07,2.53.94,1.59,2.21,2.86,3.8,3.8.84.36,1.69.71,2.53,1.07,1.88.5,3.75.5,5.63,0,5.57-1.75,10.17-6.9,15.05-10.11,4.25-2.8,7.7-4.71,12.3-6.49,1.4-.54,2-.99,4.03,2.88,1.69,3.56,3.39,7.12,5.08,10.67,2.02,4.23,4.03,8.47,6.05,12.7.67,1.42,1.39,2.81,2.03,4.24.59,1.32,1.36,2.78,1.4,4.26.05,1.4-.58,2.69-1.15,3.92s-1.19,2.69-2.09,3.74c-.93,1.07-1.94,2.06-3.02,2.98-1.76,1.24-3.63,2.3-5.59,3.2-4.46,1.71-9.15,2.73-13.86,3.5-1.11.18-2.22.35-3.34.51-2.1.26-4.2.48-6.31.66-1.46-.05-2.82.25-4.08.91-1.31.43-2.45,1.16-3.41,2.19-1.03.96-1.76,2.09-2.19,3.41-.66,1.26-.97,2.62-.91,4.08.13.94.25,1.88.38,2.81.5,1.79,1.41,3.35,2.72,4.67.71.55,1.43,1.1,2.14,1.66,1.65.96,3.43,1.44,5.34,1.45,4.49-.38,8.98-.96,13.43-1.64,3.37-.51,6.73-1.12,10.03-1.98,1.63-.43,3.25-.92,4.83-1.5,2.34-.85,4.66-1.82,6.89-2.93,1.31-.65,2.58-1.38,3.8-2.19,1.92-1.27,3.76-2.69,5.49-4.21,1.09-.96,2.11-2,3.03-3.12,1.48-1.8,2.95-3.67,4.09-5.71,1.23-2.22,2.19-4.61,3.1-6.99.6-1.58,1.18-3.19,1.43-4.87.25-1.7.57-3.43.46-5.16Z"/>
        </g>
        <path class="cls-17" d="M434.58,396.35h0s-17.9-37.85-17.9-37.85l-32.1,15,7.83,16.77-39.84,6.67,2.11,24.82,61.85-.23c3.73.44,7.63-.3,11.1-2.37,7.92-4.72,10.83-14.64,6.95-22.81Z"/>
      </g>
      <ellipse class="cls-13" cx="297.31" cy="368.88" rx="7.95" ry="19.68" transform="translate(-156.52 504.91) rotate(-67.82)"/>
      <g>
        <g>
          <ellipse class="cls-3" cx="334.98" cy="292.65" rx="4.25" ry="4.16"/>
          <g>
            <line class="cls-20" x1="333.61" y1="294.07" x2="336.18" y2="291.36"/>
            <line class="cls-20" x1="333.54" y1="291.44" x2="336.25" y2="294"/>
          </g>
        </g>
        <g>
          <rect class="cls-2" x="273.73" y="363.8" width="35.43" height="44.63" transform="translate(392.04 859.3) rotate(-154.96)"/>
          <g class="cls-48">
            <path class="cls-4" d="M247.55,346.46c4.54,1.16,8.96,2.72,13.22,4.68.72.33,1.36-.74.63-1.08-4.35-2-8.87-3.61-13.51-4.8-.78-.2-1.11,1-.33,1.2h0Z"/>
            <path class="cls-33" d="M282.05,365.32c1.14.03,2.27.12,3.41.27l-2.81-.38c2.98.42,5.86,1.24,8.63,2.39l-2.53-1.07c3.01,1.3,5.81,2.97,8.41,4.97l-2.14-1.66c2.97,2.34,5.6,5.04,7.92,8.03l-1.66-2.14c1.19,1.56,2.29,3.17,3.31,4.85,1.4,2.3,3.71,4.14,6.33,4.86s5.91.38,8.16-1.07c4.75-3.06,6.88-9.42,3.8-14.48-4.36-7.16-9.98-13.27-16.89-18.03-6.98-4.81-15.48-7.47-23.94-7.72-5.54-.16-10.84,4.98-10.58,10.58s4.65,10.41,10.58,10.58h0Z"/>
            <path class="cls-34" d="M392.66,362.81c1.96,6.64,2.87,13.51,2.7,20.43-.02.8,1.23.8,1.25,0,.17-7.02-.75-14.03-2.74-20.76-.23-.77-1.43-.44-1.2.33h0Z"/>
            <path class="cls-34" d="M433.36,346.67c5.87,9.23,12.15,18.2,18.83,26.87.48.63,1.56,0,1.08-.63-6.67-8.67-12.96-17.63-18.83-26.87-.43-.67-1.51-.05-1.08.63h0Z"/>
          </g>
        </g>
        <g>
          <path class="cls-23" d="M422.14,361.5l-22.73-37.49c-2.81-4.63-7.54-7.45-12.6-7.98-.39-.05-.81-.08-1.27-.09-.03,0-.07,0-.1,0-.03,0-.05,0-.08,0h-.58s-.04,0-.05,0h-66.43c-6.33-.71-12.73,2.25-16.19,7.97l-22.73,37.49c2.98-.09,8.93.14,15.46,3.33,5.97,2.91,9.64,6.94,11.45,9.24v48.08l85.56-.4-15.23-38.49c2.5-2.66,22.39-14.24,28.67-17.28,6.86-3.32,13.09-4.16,16.85-4.37Z"/>
          <g class="cls-40">
            <g>
              <path class="cls-24" d="M298.67,279.98c3.92,4.95,8.11,9.7,12.53,14.22"/>
              <path class="cls-33" d="M296.9,281.75c3.93,4.95,8.11,9.7,12.53,14.22.92.94,2.63.99,3.54,0s.98-2.54,0-3.54c-4.42-4.52-8.6-9.26-12.53-14.22-.82-1.03-2.69-.92-3.54,0-1,1.09-.87,2.44,0,3.54h0Z"/>
            </g>
            <path class="cls-33" d="M280.84,373.43c3.35-4.25,6.36-8.6,9-13.32,2.17-3.89,4.16-7.87,6.29-11.78,4.4-8.08,9.91-15.63,15.44-22.97l-1.95,2.53c1.35-1.73,2.89-3.27,4.61-4.63l-2.53,1.95c2.04-1.57,4.25-2.84,6.61-3.86l-2.99,1.26c2.74-1.14,5.59-1.9,8.52-2.31l-3.32.45c4.45-.57,9-.57,13.48-.58,4.73,0,9.45.14,14.18.31,4.09.14,8.2.21,12.28.54,2.45.19,4.9.45,7.34.78l-3.32-.45c6.29.85,12.67,2.05,18.55,4.49l-2.99-1.26c1.93.82,3.79,1.78,5.46,3.05l-2.53-1.95c3.45,2.71,6.4,6.22,9.08,9.67l-1.95-2.53c5.07,6.6,8.82,13.93,13.07,21.05s9.08,14.53,12.66,22.32c1.23,2.68,4.74,4.99,7.47,5.74,2.99.82,6.98.45,9.63-1.26s5.02-4.28,5.74-7.47l.45-3.32c0-2.26-.58-4.36-1.71-6.31-3.52-7.65-8.11-14.72-12.43-21.93s-7.85-14.23-12.78-20.75c-4.93-6.52-10.45-13.55-17.98-17.19-5.7-2.75-11.68-4.53-17.89-5.65-9.72-1.75-19.34-2.27-29.17-2.61-9.4-.32-18.97-.73-28.32.53s-18.53,5.25-25.16,12.18c-3.43,3.59-6.19,7.96-9.08,11.99-2.47,3.44-4.91,6.92-7.14,10.53-4.39,7.07-7.71,14.74-12.16,21.78-1.11,1.76-2.29,3.46-3.55,5.11l1.95-2.53c-.18.24-.36.47-.55.7-1.22,1.13-2.08,2.47-2.58,4.02-.78,1.49-1.14,3.09-1.08,4.82,0,3.07,1.36,6.73,3.66,8.84s5.51,3.81,8.84,3.66c3.08-.14,6.84-1.12,8.84-3.66h0Z"/>
          </g>
          <path class="cls-7" d="M422.14,361.5l-22.73-37.49c-2.81-4.63-7.54-7.45-12.6-7.98-.39-.05-.81-.08-1.27-.09-.03,0-.07,0-.1,0-.03,0-.05,0-.08,0h-.58s-.04,0-.05,0h-66.43c-6.33-.71-12.73,2.25-16.19,7.97l-22.73,37.49c2.98-.09,8.93.14,15.46,3.33,5.97,2.91,9.64,6.94,11.45,9.24v48.08l85.56-.4-15.23-38.49c2.5-2.66,22.39-14.24,28.67-17.28,6.86-3.32,13.09-4.16,16.85-4.37Z"/>
        </g>
        <polygon class="cls-4" points="346.83 421.65 348.94 396.83 284.93 386.11 281.93 421.41 346.83 421.65"/>
        <circle class="cls-4" cx="282.94" cy="403.83" r="17.71"/>
        <line class="cls-17" x1="283.25" y1="361.79" x2="281.52" y2="365.49"/>
        <path class="cls-21" d="M281.6,365.33l-13.41,28.7c-.16.24-.32.49-.47.75-.78,1.31-1.37,2.67-1.78,4.06h0s0,0,0,0c-2.23,7.58.84,15.99,7.94,20.22,3.48,2.07,7.38,2.81,11.11,2.37l61.84.23,2.11-24.82-39.84-6.67"/>
        <polygon class="cls-29" points="322.48 353.86 321.42 368.95 311.44 370.33 310.16 357.55 320.85 352.71 322.48 353.86"/>
        <polygon class="cls-30" points="309.73 378.98 322.1 353.62 320.31 350 303.76 355.29 309.73 378.98"/>
        <line class="cls-15" x1="322.02" y1="353.62" x2="309.65" y2="378.98"/>
        <polygon class="cls-29" points="376.32 353.86 377.38 368.95 387.36 370.33 388.63 357.55 377.95 352.71 376.32 353.86"/>
        <polygon class="cls-30" points="389.07 378.98 376.7 353.62 378.49 350 395.04 355.29 389.07 378.98"/>
        <path class="cls-3" d="M345,304.68h9.07c1.97,0,3.57,1.6,3.57,3.57v8.58c0,4.16-3.38,7.54-7.54,7.54h-1.15c-4.16,0-7.54-3.38-7.54-7.54v-8.58c0-1.97,1.6-3.57,3.57-3.57Z"/>
        <path class="cls-33" d="M356.13,311.11c-4.29,2.08-3.78,1.79-6.48,1.84-2.76.05-2.87.2-6.17-1.47-.79.36-2.05-2-2.05-.42,0,3.64,2.95,6.59,6.59,6.59h3.05c3.64,0,6.59-2.95,6.59-6.59,0-1.55.02.06-1.53.06Z"/>
        <g>
          <ellipse class="cls-3" cx="363.41" cy="292.65" rx="4.25" ry="4.16"/>
          <g>
            <line class="cls-20" x1="362.05" y1="294.07" x2="364.61" y2="291.36"/>
            <line class="cls-20" x1="361.98" y1="291.44" x2="364.68" y2="294"/>
          </g>
        </g>
        <path class="cls-2" d="M341.64,310.84c-4.13-2.52-6.89-7.08-6.89-12.28v-11.77c0-5.76,4.67-10.43,10.43-10.43h6.64c6.45,0,11.68,5.23,11.68,11.68l-.62,13.8c-.23,5.03-4.37,8.99-9.4,8.99h-11.83Z"/>
        <g>
          <path class="cls-2" d="M341.64,310.84c-4.13-2.52-6.89-7.08-6.89-12.28v-11.77c0-5.76,4.67-10.43,10.43-10.43h6.64c6.45,0,11.68,5.23,11.68,11.68"/>
          <g class="cls-47">
            <path class="cls-4" d="M370.36,282.9c1.36,2.53,2.47,5.17,3.33,7.91.2.64,1.21.37,1.01-.28-.89-2.82-2.04-5.56-3.44-8.16-.32-.59-1.22-.07-.9.53h0Z"/>
            <path class="cls-33" d="M361.65,278.39c.05.32.09.64.13.96l-.32-2.37c.45,3.44.78,6.9,1.03,10.36.24,3.28.44,6.49,0,9.76l.32-2.37c-.51,3.5-1.49,6.91-2.81,10.18l.9-2.13c-.82,1.93-1.87,3.72-3.12,5.39l1.39-1.8c-1.37,1.77-2.93,3.36-4.69,4.75l1.8-1.39c-1.34,1.04-2.76,1.94-4.28,2.71-4.16,2.12-5.69,8.3-3.19,12.18,2.74,4.25,7.73,5.46,12.18,3.19,4.01-2.04,7.72-5.03,10.52-8.54,1.62-2.03,3.16-4.09,4.28-6.44,1.18-2.47,2.17-5.07,2.94-7.7,1.44-4.91,2.05-10.05,1.73-15.15-.35-5.47-.9-10.9-1.66-16.33-.28-2.05-2.4-4.33-4.09-5.32-1.91-1.12-4.72-1.59-6.86-.9s-4.23,2.03-5.32,4.09l-.9,2.13c-.42,1.58-.42,3.16,0,4.73h0Z"/>
          </g>
          <path class="cls-21" d="M341.64,310.84c-4.13-2.52-6.89-7.08-6.89-12.28v-11.77c0-5.76,4.67-10.43,10.43-10.43h6.64c6.45,0,11.68,5.23,11.68,11.68"/>
        </g>
        <path class="cls-7" d="M352.03,288.39c.36-.18,1.18-.51,2.25-.44,1.04.07,1.79.48,2.13.7"/>
        <path class="cls-7" d="M345.85,288.39c-.36-.18-1.18-.51-2.25-.44-1.04.07-1.79.48-2.13.7"/>
        <path class="cls-12" d="M348.39,309.25c.19-.11.63-.35,1.24-.35.64,0,1.1.24,1.28.35"/>
        <ellipse class="cls-11" cx="353.15" cy="293.27" rx=".8" ry="1.4"/>
        <ellipse class="cls-11" cx="343.48" cy="293.18" rx=".8" ry="1.4"/>
        <path class="cls-7" d="M348.22,301.56l4.92-1.53-.27,1.84c-.17,1.18-1.09,2.11-2.27,2.29h0c-.91.15-1.79-.42-2.03-1.31l-.35-1.29Z"/>
        <path class="cls-7" d="M348.31,291l1.32,3.89c.68,1.72.15,1.72-1.06,1.72"/>
        <path class="cls-38" d="M338.11,282.23s7.69,3.56,23.08,2.16v-4.23l-23.08-.6v2.67Z"/>
        <path class="cls-22" d="M334.75,292.79l1.82.65v-3.14c0-1.08.49-2.1,1.34-2.77h0c.25-.2.39-.5.39-.81v-5.9h-3.56v11.97Z"/>
      </g>
      <line class="cls-18" x1="376.7" y1="353.62" x2="381.64" y2="363.78"/>
      <path class="cls-22" d="M363.82,281.34c.06-1.13-.07-2.26-.43-3.34-.16-.47-.36-.98-.62-1.49-1.5-3-4.36-5.07-7.09-6.11-3.03-1.16-6.69-1.5-9.83-.89-1.63.32-3.21,1.01-4.6,2.08-.28.21-.55.45-.87.58-.25.11-.52.14-.79.17-2.61.26-4.99-.7-7.45-1.56-.52-.16-1.06.03-1.38.5-.22.31-.34.75-.39,1.25-.13,1.2.12,2.72.3,3.58.34,1.64,1.01,3.18,1.97,4.43,1.09,1.41,2.68,1.48,4.16,1.73,1.87.31,3.74.57,5.61.77,3.75.4,7.52.59,11.28.55,2.08-.02,4.16-.11,6.24-.26v3.41c0,.32.14.62.39.81h0c.85.67,1.34,1.69,1.34,2.77v3.14l1.82-.65v-10.09c.24-.33.3-.84.32-1.36Z"/>
    </g>
    <path class="cls-7" d="M363.5,285.42v-2.72c.24-.33.3-.84.32-1.36.06-1.13-.07-2.26-.43-3.34-.16-.47-.36-.98-.62-1.49-1.5-3-4.36-5.07-7.09-6.11-3.03-1.16-6.69-1.5-9.83-.89-1.63.32-3.21,1.01-4.6,2.08-.28.21-.55.45-.87.58-.25.11-.52.14-.79.17-2.37.24-4.55-.54-6.78-1.32"/>
    <path class="cls-34" d="M390.23,364.53c1.68,8.12,5.07,16.02,4.77,24.44-.03.8,1.22.8,1.25,0,.31-8.54-3.11-16.54-4.81-24.77-.16-.78-1.36-.45-1.2.33h0Z"/>
    <path class="cls-17" d="M341.62,310.83c.97.59,2.52,1.38,4.57,1.81,2.18.45,4.02.31,5.17.13,1.12-.18,5.34-.98,8.65-4.81,2.17-2.52,3.49-5.8,3.49-9.39v-13.85"/>
    <g>
      <path class="cls-44" d="M302.41,356.68c33.74,1.18,57.89,1.18,91.67,0,3.02-.11,5.29,1.99,4.97,4.68-2.17,18.27-3.57,36.06-4.29,55.82-.12,2.9-2.21,5.3-4.7,5.31-27.9,0-55.77,0-83.66,0-2.49-.01-4.57-2.42-4.69-5.32-.7-19.77-2.09-37.54-4.25-55.8-.32-2.69,1.94-4.79,4.96-4.68Z"/>
      <g class="cls-49">
        <path class="cls-37" d="M390.83,364.36c1.67,8.22,5.16,16.23,4.79,24.61"/>
      </g>
    </g>
    <g>
      <rect class="cls-24" x="340.04" y="381.32" width="7.71" height="7.71"/>
      <rect class="cls-24" x="350.15" y="381.32" width="7.71" height="7.71"/>
      <rect class="cls-24" x="340.04" y="391.24" width="7.71" height="7.71"/>
      <rect class="cls-24" x="350.15" y="391.24" width="7.71" height="7.71"/>
    </g>
  </g>
</svg>