<?xml version="1.0" encoding="UTF-8"?>
<svg id="Layer_1" data-name="Layer 1" xmlns="http://www.w3.org/2000/svg" xmlns:xlink="http://www.w3.org/1999/xlink" viewBox="0 0 540 540">
  <defs>
    <style>
      .cls-1, .cls-2, .cls-3, .cls-4, .cls-5 {
        fill: #fccf8c;
      }

      .cls-6, .cls-7, .cls-8, .cls-9, .cls-10, .cls-11, .cls-12, .cls-13, .cls-3, .cls-14, .cls-15, .cls-5 {
        stroke: #2d2d2d;
      }

      .cls-6, .cls-16, .cls-17 {
        fill: #f9b860;
      }

      .cls-6, .cls-18, .cls-8, .cls-10, .cls-19, .cls-20, .cls-14, .cls-15, .cls-5 {
        stroke-miterlimit: 10;
      }

      .cls-7 {
        stroke-width: .8px;
      }

      .cls-7, .cls-8, .cls-9, .cls-21, .cls-11, .cls-22, .cls-19, .cls-14, .cls-15, .cls-23 {
        fill: none;
      }

      .cls-7, .cls-9, .cls-2, .cls-11, .cls-22, .cls-12, .cls-13, .cls-3, .cls-24, .cls-4, .cls-23 {
        stroke-linejoin: round;
      }

      .cls-7, .cls-9, .cls-2, .cls-11, .cls-22, .cls-13, .cls-3, .cls-24, .cls-4, .cls-23 {
        stroke-linecap: round;
      }

      .cls-25 {
        fill: #000;
      }

      .cls-25, .cls-26, .cls-27, .cls-21, .cls-17, .cls-28, .cls-29, .cls-30, .cls-31, .cls-32, .cls-33, .cls-34 {
        stroke-width: 0px;
      }

      .cls-18 {
        stroke: #0d7f53;
      }

      .cls-18, .cls-13, .cls-30 {
        fill: #2d2d2d;
      }

      .cls-8 {
        stroke-width: .8px;
      }

      .cls-26, .cls-35 {
        fill: #ffecb0;
      }

      .cls-36 {
        clip-path: url(#clippath-2);
      }

      .cls-2, .cls-22, .cls-4, .cls-23 {
        stroke: #ca6e15;
      }

      .cls-37 {
        clip-path: url(#clippath-6);
      }

      .cls-38, .cls-10, .cls-28 {
        fill: #0d7f53;
      }

      .cls-27 {
        fill: #4a79e7;
      }

      .cls-39 {
        clip-path: url(#clippath-7);
      }

      .cls-40 {
        clip-path: url(#clippath-1);
      }

      .cls-41 {
        clip-path: url(#clippath-4);
      }

      .cls-11 {
        stroke-width: .85px;
      }

      .cls-22, .cls-4 {
        stroke-width: .5px;
      }

      .cls-19 {
        stroke: #ffecb0;
        stroke-width: 1.12px;
      }

      .cls-29 {
        fill: #e09a39;
      }

      .cls-12 {
        fill: #12100b;
        stroke-width: .29px;
      }

      .cls-42 {
        clip-path: url(#clippath);
      }

      .cls-24, .cls-20 {
        stroke: #b05418;
      }

      .cls-24, .cls-20, .cls-34 {
        fill: #ca6e15;
      }

      .cls-43 {
        clip-path: url(#clippath-3);
      }

      .cls-35 {
        font-family: Montserrat-Bold, Montserrat;
        font-size: 22.33px;
        font-weight: 700;
      }

      .cls-31 {
        fill: #bfbfbf;
      }

      .cls-44 {
        clip-path: url(#clippath-8);
      }

      .cls-45 {
        clip-path: url(#clippath-5);
      }

      .cls-32 {
        fill: #d7eadd;
      }

      .cls-33 {
        fill: #ba761a;
      }

      .cls-15 {
        stroke-width: 9.5px;
      }
    </style>
    <clipPath id="clippath">
      <circle class="cls-21" cx="270" cy="278.68" r="201.87"/>
    </clipPath>
    <clipPath id="clippath-1">
      <path class="cls-4" d="M186.4,317.43c-1.05-3.12.69-6.5,3.86-7.45l.67-.47c.14-.2.28-.41.43-.61-2.23-.91-3.77-3.16-3.61-5.75.19-3.1,2.87-5.47,5.98-5.47h6.38c.14-.17.27-.33.41-.49,3.45-3.93,6.89-7.37,10.15-10.35,1.5-1.37,3.37-2.27,5.38-2.51,2.08-.26,4.6-.35,7.41,0,1.69.21,3.22.54,4.57.93,2.8.8,5.68,1.27,8.59,1.3l7,.07,1.49.02h0l2.47.03h0s54.38.56,54.38.56l31.76-50.02,1.94,2.35c4.26-6.95,11.34-11.75,18.57-7.8,7.23,3.95,12.01,1.08,8.46,8.41h.02s-.37.69-.37.69h0s0,0,0,0l-37.76,69.19c-2.63,4.85-7.79,8.12-13.69,8.06l-65.38-.67h0s-5.95-.06-5.95-.06c-2.8-.03-5.56.63-8.04,1.93-2.04,1.07-4.43,2.14-7.16,3.06-4.51,1.52-8.55,2.16-11.65,2.42-1.45,1.11-3.22,2.29-5.29,3.41-2.66,1.43-5.14,2.38-7.23,3.02-.15-.02-3.51-.44-4.9-3.53-.8-1.77-.51-3.44-.15-4.49.23-.66.68-1.22,1.29-1.56.9-.5,1.82-.99,2.75-1.49-1.93.44-3.74.75-5.38.97-3.03,1.02-6.37-.64-7.39-3.67Z"/>
    </clipPath>
    <clipPath id="clippath-2">
      <path class="cls-4" d="M182.65,266.98h12.47v42.04c0,3.44-2.79,6.24-6.24,6.24h0c-3.44,0-6.24-2.79-6.24-6.24v-42.04h0Z" transform="translate(489.8 118.26) rotate(93.1)"/>
    </clipPath>
    <clipPath id="clippath-3">
      <path class="cls-10" d="M316.98,480.55l124.83-9.51s-1.78-129.18-3.92-134.6-112.65,6.32-112.65,6.32l-8.25,137.79Z"/>
    </clipPath>
    <clipPath id="clippath-4">
      <path class="cls-6" d="M437.51,345.87c1.32-10.77,2.02-21.66,1.85-32.51-.07-4.36-4.09-38.53-2.83-39.09,16.11-7.1,30.93-8.72,33.21-3.59l-8.63-21.15c-4.89-11.99-14.45-21.55-26.55-26.17-1.65-.63-3.27-1.19-4.84-1.68,0,0-.02,0-.03,0-28.39-8.3-63.29-16.25-89.67,2.18-4.34,3.03-8.65,6.53-11.24,11.22-.03.05.03-.05,0,0-.03.05-.06.1-.09.16-3.12,5.77-4.64,12.27-4.62,18.83.11,33.57-.02,72.83-.02,106.49,0-.75,44.14-4.6,47.71-5.02,22-2.57,43.93-5.79,65.74-9.65Z"/>
    </clipPath>
    <clipPath id="clippath-5">
      <path class="cls-5" d="M360.49,236.13c6.34,4.34,17.75,2.02,25.48-5.2,7.73-7.21,8.86-16.58,2.52-20.93-6.34-4.34-17.75-2.02-25.48,5.2-7.73,7.21-8.86,16.58-2.52,20.93Z"/>
    </clipPath>
    <clipPath id="clippath-6">
      <path class="cls-3" d="M390.75,217.49c-2.38-15.58-4.47-15.65-4.91-31.68l-30.92.85,6.98,41.26"/>
    </clipPath>
    <clipPath id="clippath-7">
      <path class="cls-5" d="M364.6,155.09h0c10.52-.73,19.64,7.2,20.38,17.72l.12,1.76c1.12-.38,2.33-.53,3.58-.38,4.5.53,7.73,4.61,7.2,9.12-.53,4.5-4.61,7.73-9.12,7.2-.21-.02-1.38-.8-1.68-.96-.05,9.89-6.66,19.08-16.69,19.78h0c-10.52.73-19.64-7.2-20.38-17.72l-1.13-16.14c-.73-10.52,7.2-19.64,17.72-20.38Z"/>
    </clipPath>
    <clipPath id="clippath-8">
      <path class="cls-2" d="M453.57,263.84l-33.25,14.84,21.23,56.39-104.87,1.87v4.61l-47.22,3.28s12.05,22.78,47.22,21.82l155.35-4.24-38.45-98.57Z"/>
    </clipPath>
  </defs>
  <circle class="cls-32" cx="270" cy="278.68" r="201.87"/>
  <g>
    <circle class="cls-29" cx="267.33" cy="390.95" r="26.7"/>
    <ellipse class="cls-19" cx="267.33" cy="390.95" rx="13.35" ry="26.7"/>
    <line class="cls-19" x1="267.33" y1="364.25" x2="267.33" y2="417.65"/>
    <ellipse class="cls-19" cx="267.33" cy="390.95" rx="26.7" ry="13.35"/>
    <line class="cls-19" x1="294.03" y1="390.95" x2="240.63" y2="390.95"/>
  </g>
  <g>
    <g>
      <rect class="cls-33" x="157.28" y="213.46" width="5.34" height="31.28"/>
      <rect class="cls-33" x="157.28" y="204.11" width="5.34" height="81.27" transform="translate(404.69 84.79) rotate(90)"/>
      <circle class="cls-29" cx="159.95" cy="244.74" r="7.43" transform="translate(-81.48 79.84) rotate(-22.5)"/>
      <path class="cls-26" d="M163.65,244.74c0,2.04-1.66,3.7-3.7,3.7s-3.7-1.66-3.7-3.7,1.66-3.7,3.7-3.7,3.7,1.66,3.7,3.7Z"/>
    </g>
    <g>
      <g>
        <rect class="cls-29" x="91.24" y="122.3" width="136.6" height="27.03" rx="3.35" ry="3.35"/>
        <rect class="cls-26" x="97.41" y="149.33" width="124.25" height="5.03"/>
        <rect class="cls-26" x="97.9" y="128.27" width="3.62" height="15.09"/>
        <rect class="cls-26" x="106.67" y="128.27" width="3.62" height="15.09"/>
        <rect class="cls-33" x="117.44" y="128.27" width="31.24" height="15.09"/>
        <g>
          <path class="cls-28" d="M171.65,135.82c0,1.95-1.58,3.53-3.53,3.53s-3.53-1.58-3.53-3.53,1.58-3.53,3.53-3.53,3.53,1.58,3.53,3.53Z"/>
          <path class="cls-28" d="M182.61,135.82c0,1.95-1.58,3.53-3.53,3.53s-3.53-1.58-3.53-3.53,1.58-3.53,3.53-3.53,3.53,1.58,3.53,3.53Z"/>
          <path class="cls-26" d="M193.81,135.82c0,1.95-1.58,3.53-3.53,3.53s-3.53-1.58-3.53-3.53,1.58-3.53,3.53-3.53,3.53,1.58,3.53,3.53Z"/>
          <path class="cls-26" d="M205.05,135.82c0,1.95-1.58,3.53-3.53,3.53s-3.53-1.58-3.53-3.53,1.58-3.53,3.53-3.53,3.53,1.58,3.53,3.53Z"/>
          <path class="cls-26" d="M216.29,135.82c0,1.95-1.58,3.53-3.53,3.53s-3.53-1.58-3.53-3.53,1.58-3.53,3.53-3.53,3.53,1.58,3.53,3.53Z"/>
        </g>
      </g>
      <g>
        <rect class="cls-29" x="91.24" y="154.37" width="136.6" height="27.03" rx="3.35" ry="3.35"/>
        <rect class="cls-26" x="97.41" y="181.4" width="124.25" height="5.03"/>
        <rect class="cls-26" x="97.9" y="160.34" width="3.62" height="15.09"/>
        <rect class="cls-26" x="106.67" y="160.34" width="3.62" height="15.09"/>
        <rect class="cls-33" x="117.44" y="160.34" width="31.24" height="15.09"/>
        <g>
          <path class="cls-28" d="M171.65,167.88c0,1.95-1.58,3.53-3.53,3.53s-3.53-1.58-3.53-3.53,1.58-3.53,3.53-3.53,3.53,1.58,3.53,3.53Z"/>
          <path class="cls-28" d="M182.61,167.88c0,1.95-1.58,3.53-3.53,3.53s-3.53-1.58-3.53-3.53,1.58-3.53,3.53-3.53,3.53,1.58,3.53,3.53Z"/>
          <circle class="cls-28" cx="190.29" cy="167.88" r="3.53"/>
          <path class="cls-28" d="M205.05,167.88c0,1.95-1.58,3.53-3.53,3.53s-3.53-1.58-3.53-3.53,1.58-3.53,3.53-3.53,3.53,1.58,3.53,3.53Z"/>
          <path class="cls-26" d="M216.29,167.88c0,1.95-1.58,3.53-3.53,3.53s-3.53-1.58-3.53-3.53,1.58-3.53,3.53-3.53,3.53,1.58,3.53,3.53Z"/>
        </g>
      </g>
      <g>
        <rect class="cls-29" x="91.24" y="186.43" width="136.6" height="27.03" rx="3.35" ry="3.35"/>
        <rect class="cls-26" x="97.9" y="192.4" width="3.62" height="15.09"/>
        <rect class="cls-26" x="106.67" y="192.4" width="3.62" height="15.09"/>
        <rect class="cls-33" x="117.44" y="192.4" width="31.24" height="15.09"/>
        <g>
          <path class="cls-28" d="M171.65,199.94c0,1.95-1.58,3.53-3.53,3.53s-3.53-1.58-3.53-3.53,1.58-3.53,3.53-3.53,3.53,1.58,3.53,3.53Z"/>
          <path class="cls-28" d="M182.61,199.94c0,1.95-1.58,3.53-3.53,3.53s-3.53-1.58-3.53-3.53,1.58-3.53,3.53-3.53,3.53,1.58,3.53,3.53Z"/>
          <path class="cls-26" d="M193.81,199.94c0,1.95-1.58,3.53-3.53,3.53s-3.53-1.58-3.53-3.53,1.58-3.53,3.53-3.53,3.53,1.58,3.53,3.53Z"/>
          <path class="cls-26" d="M205.05,199.94c0,1.95-1.58,3.53-3.53,3.53s-3.53-1.58-3.53-3.53,1.58-3.53,3.53-3.53,3.53,1.58,3.53,3.53Z"/>
          <path class="cls-26" d="M216.29,199.94c0,1.95-1.58,3.53-3.53,3.53s-3.53-1.58-3.53-3.53,1.58-3.53,3.53-3.53,3.53,1.58,3.53,3.53Z"/>
        </g>
      </g>
    </g>
  </g>
  <rect class="cls-29" x="91.54" y="336.94" width="130.42" height="94.07"/>
  <rect class="cls-8" x="89.36" y="333.65" width="130.42" height="94.07"/>
  <g>
    <rect class="cls-33" x="128.64" y="354.02" width="74.83" height="6.51"/>
    <rect class="cls-26" x="128.64" y="354.02" width="36.14" height="6.51"/>
    <rect class="cls-33" x="110.04" y="354.02" width="6.51" height="6.51"/>
  </g>
  <g>
    <rect class="cls-33" x="128.64" y="378.53" width="74.83" height="6.51"/>
    <rect class="cls-26" x="128.64" y="378.53" width="10.43" height="6.51"/>
    <rect class="cls-33" x="110.04" y="378.53" width="6.51" height="6.51"/>
  </g>
  <g>
    <rect class="cls-33" x="128.64" y="403.03" width="74.83" height="6.51"/>
    <rect class="cls-26" x="128.64" y="403.03" width="61.55" height="6.51"/>
    <rect class="cls-33" x="110.04" y="403.03" width="6.51" height="6.51"/>
  </g>
  <g>
    <polyline class="cls-8" points="119.31 244.74 106.67 244.74 106.67 292.91 158.8 292.91 158.8 336.94"/>
    <polyline class="cls-8" points="91.54 199.94 73.04 199.94 73.04 357.28 91.54 357.28"/>
    <polyline class="cls-8" points="200.58 244.74 265.71 244.74 265.71 112"/>
    <rect class="cls-33" x="117.44" y="243.04" width="1.87" height="3.24"/>
    <rect class="cls-33" x="89.36" y="198.33" width="1.87" height="3.24"/>
    <rect class="cls-33" x="89.36" y="355.66" width="1.87" height="3.24"/>
    <rect class="cls-33" x="114.15" y="291.42" width="1.87" height="3.24"/>
    <rect class="cls-33" x="157.86" y="315.19" width="1.87" height="3.24" transform="translate(475.61 158.01) rotate(90)"/>
    <rect class="cls-33" x="264.77" y="132.49" width="1.87" height="3.24" transform="translate(399.82 -131.6) rotate(90)"/>
    <rect class="cls-33" x="157.86" y="334.39" width="1.87" height="3.24" transform="translate(494.81 177.21) rotate(90)"/>
    <rect class="cls-33" x="200.59" y="243.04" width="1.87" height="3.24"/>
  </g>
  <g>
    <circle class="cls-28" cx="265.71" cy="97.51" r="38.07" transform="translate(126.9 344.17) rotate(-80.78)"/>
    <text class="cls-35" transform="translate(242.82 105.33)"><tspan x="0" y="0">SQL</tspan></text>
  </g>
  <g>
    <g>
      <circle class="cls-28" cx="129.28" cy="293.03" r="13.25" transform="translate(-169.34 177.24) rotate(-45)"/>
      <circle class="cls-28" cx="186.44" cy="296.7" r="9.59"/>
      <circle class="cls-28" cx="160.06" cy="285.07" r="21.22"/>
      <polygon class="cls-28" points="129.28 306.29 186.44 306.29 186.44 293.03 126.89 293.03 129.28 306.29"/>
      <line class="cls-7" x1="129.28" y1="306.29" x2="186.44" y2="306.29"/>
    </g>
    <rect class="cls-25" x="158.8" y="282.95" width="2.74" height="12.39"/>
    <circle class="cls-25" cx="158.8" cy="289.15" r="6.2" transform="translate(-157.95 196.98) rotate(-45)"/>
    <circle class="cls-26" cx="161.54" cy="289.15" r="6.2" transform="translate(-157.15 198.92) rotate(-45)"/>
  </g>
  <rect class="cls-14" x="86.99" y="120.06" width="136.6" height="27.03" rx="3.35" ry="3.35"/>
  <rect class="cls-14" x="86.99" y="152.12" width="136.6" height="27.03" rx="3.35" ry="3.35"/>
  <rect class="cls-14" x="86.99" y="184.19" width="136.6" height="27.03" rx="3.35" ry="3.35"/>
  <g class="cls-42">
    <g>
      <ellipse class="cls-13" cx="325.24" cy="283.49" rx="10.25" ry="32.25" transform="translate(-95.11 380.72) rotate(-54.1)"/>
      <g>
        <g>
          <path class="cls-1" d="M186.4,317.43c-1.05-3.12.69-6.5,3.86-7.45l.67-.47c.14-.2.28-.41.43-.61-2.23-.91-3.77-3.16-3.61-5.75.19-3.1,2.87-5.47,5.98-5.47h6.38c.14-.17.27-.33.41-.49,3.45-3.93,6.89-7.37,10.15-10.35,1.5-1.37,3.37-2.27,5.38-2.51,2.08-.26,4.6-.35,7.41,0,1.69.21,3.22.54,4.57.93,2.8.8,5.68,1.27,8.59,1.3l7,.07,1.49.02h0l2.47.03h0s54.38.56,54.38.56l31.76-50.02,1.94,2.35c4.26-6.95,11.34-11.75,18.57-7.8,7.23,3.95,12.01,1.08,8.46,8.41h.02s-.37.69-.37.69h0s0,0,0,0l-37.76,69.19c-2.63,4.85-7.79,8.12-13.69,8.06l-65.38-.67h0s-5.95-.06-5.95-.06c-2.8-.03-5.56.63-8.04,1.93-2.04,1.07-4.43,2.14-7.16,3.06-4.51,1.52-8.55,2.16-11.65,2.42-1.45,1.11-3.22,2.29-5.29,3.41-2.66,1.43-5.14,2.38-7.23,3.02-.15-.02-3.51-.44-4.9-3.53-.8-1.77-.51-3.44-.15-4.49.23-.66.68-1.22,1.29-1.56.9-.5,1.82-.99,2.75-1.49-1.93.44-3.74.75-5.38.97-3.03,1.02-6.37-.64-7.39-3.67Z"/>
          <g class="cls-40">
            <path class="cls-30" d="M340.2,256.4c-7.16,14.81-15.23,29.19-24.16,43-2.53,3.91-5.13,7.77-7.79,11.59-1.46,2.09-1.69,5.56-1.04,7.94s2.51,4.98,4.74,6.16c2.39,1.26,5.29,1.9,7.94,1.04,2.67-.86,4.55-2.43,6.16-4.74,9.41-13.5,17.99-27.57,25.66-42.13,2.17-4.12,4.27-8.28,6.29-12.47,1.22-2.53,1.81-5.15,1.04-7.94-.66-2.39-2.51-4.98-4.74-6.16-2.39-1.26-5.29-1.9-7.94-1.04-2.44.79-5,2.34-6.16,4.74h0Z"/>
            <path class="cls-30" d="M316.42,302.01c-9.67.8-19.37,1.37-29.07,1.7-9.65.32-19.3.13-28.95.35-5.9.13-11.97.69-17.61,2.51-2.54.82-4.79,2.4-6.16,4.74-1.29,2.21-1.84,5.46-1.04,7.94s2.35,4.9,4.74,6.16,5.29,1.89,7.94,1.04c2.36-.76,4.77-1.27,7.22-1.6l-2.74.37c8.26-1.05,16.7-.5,25.01-.61,8.64-.12,17.27-.43,25.89-.93,4.93-.29,9.85-.64,14.77-1.04,2.77-.23,5.26-.99,7.29-3.02,1.79-1.79,3.13-4.72,3.02-7.29s-.99-5.43-3.02-7.29c-1.92-1.76-4.59-3.24-7.29-3.02h0Z"/>
            <path class="cls-30" d="M218.58,325.5c4.49-1.21,8.83-3.04,13.03-5.03s7.98-4.04,11.53-6.72c1.57-1.18,2.54-3.31,1.35-5.16-1-1.55-3.47-2.62-5.16-1.35-3.45,2.61-7.3,4.69-11.19,6.56-1.01.49-2.04.95-3.07,1.4-.28.12-.57.25-.85.37.37-.16.1-.04-.11.04-.56.23-1.11.45-1.67.67-1.92.74-3.87,1.41-5.86,1.95s-3.26,2.71-2.63,4.64,2.6,3.18,4.64,2.63h0Z"/>
            <path class="cls-30" d="M215.81,322.22c-.36.15-.72.29-1.07.46-.06.03-.12.06-.18.09-.11.07-.23.14-.33.22-.28.21-.55.42-.82.63-.03.02-.05.04-.08.06-.05.04-.1.09-.15.14-.1.09-.19.19-.28.3-.37.34-.63.75-.78,1.21-.24.45-.34.93-.32,1.45-.02.52.09,1,.32,1.45.15.47.41.87.78,1.21l.76.59c.59.34,1.22.51,1.9.51l1-.13c.64-.18,1.19-.5,1.66-.97.15-.19.33-.36.52-.51l-.76.59c.22-.17.45-.3.7-.41l-.9.38h.02c.49-.12.92-.35,1.28-.68.41-.27.73-.62.97-1.06.28-.43.42-.9.45-1.4.11-.5.09-1-.07-1.5l-.38-.9c-.34-.57-.79-1.02-1.35-1.35l-.9-.38c-.67-.18-1.34-.18-2,0h0Z"/>
            <path class="cls-30" d="M212.16,320.43c-3.37,4.88-9.26,6.99-14.6,8.9-1.51.54-.86,2.97.67,2.42,6.04-2.16,12.31-4.58,16.1-10.06.92-1.33-1.26-2.59-2.17-1.27h0Z"/>
            <path class="cls-30" d="M213.99,320.9c-4.99,4.91-11.56,8.06-18.1,10.31-1.52.52-.87,2.95.67,2.42,6.96-2.4,13.91-5.74,19.21-10.96,1.15-1.14-.62-2.91-1.78-1.78h0Z"/>
            <path class="cls-13" d="M307.36,268.23s22.64,3.65,25.67,7.04c3.03,3.39,8.51-18,8.51-18l-21.39-9.87-14.01,20.82"/>
          </g>
          <path class="cls-22" d="M186.4,317.43c-1.05-3.12.69-6.5,3.86-7.45l.67-.47c.14-.2.28-.41.43-.61-2.23-.91-3.77-3.16-3.61-5.75.19-3.1,2.87-5.47,5.98-5.47h6.38c.14-.17.27-.33.41-.49,3.45-3.93,6.89-7.37,10.15-10.35,1.5-1.37,3.37-2.27,5.38-2.51,2.08-.26,4.6-.35,7.41,0,1.69.21,3.22.54,4.57.93,2.8.8,5.68,1.27,8.59,1.3l7,.07,1.49.02h0l2.47.03h0s54.38.56,54.38.56l31.76-50.02,1.94,2.35c4.26-6.95,11.34-11.75,18.57-7.8,7.23,3.95,12.01,1.08,8.46,8.41h.02s-.37.69-.37.69h0s0,0,0,0l-37.76,69.19c-2.63,4.85-7.79,8.12-13.69,8.06l-65.38-.67h0s-5.95-.06-5.95-.06c-2.8-.03-5.56.63-8.04,1.93-2.04,1.07-4.43,2.14-7.16,3.06-4.51,1.52-8.55,2.16-11.65,2.42-1.45,1.11-3.22,2.29-5.29,3.41-2.66,1.43-5.14,2.38-7.23,3.02-.15-.02-3.51-.44-4.9-3.53-.8-1.77-.51-3.44-.15-4.49.23-.66.68-1.22,1.29-1.56.9-.5,1.82-.99,2.75-1.49-1.93.44-3.74.75-5.38.97-3.03,1.02-6.37-.64-7.39-3.67Z"/>
        </g>
        <g>
          <path class="cls-1" d="M182.65,266.98h12.47v42.04c0,3.44-2.79,6.24-6.24,6.24h0c-3.44,0-6.24-2.79-6.24-6.24v-42.04h0Z" transform="translate(489.8 118.26) rotate(93.1)"/>
          <g class="cls-36">
            <path class="cls-34" d="M225.22,267.08c2.45-.28,4.91-.48,7.38-.61.66-.03,1.29-.55,1.26-1.26-.03-.65-.55-1.29-1.26-1.26-2.47.12-4.93.33-7.38.61-.65.07-1.29.52-1.26,1.26.03.62.56,1.34,1.26,1.26h0Z"/>
            <path class="cls-30" d="M208.7,286.91c-3.72,2.1-7.38,4.62-9.61,8.37-.67,1.13-.29,2.81.9,3.44s2.72.31,3.44-.9c.24-.4.5-.79.78-1.17.25-.35-.29.36-.09.12.07-.09.15-.18.22-.27.15-.18.3-.35.46-.53.64-.69,1.33-1.32,2.06-1.91.07-.06.15-.12.22-.18-.58.48-.18.14-.06.05.19-.14.38-.28.58-.42.37-.26.75-.51,1.13-.76.82-.53,1.66-1.02,2.51-1.5,1.15-.65,1.63-2.31.9-3.44s-2.21-1.59-3.44-.9h0Z"/>
          </g>
          <path class="cls-22" d="M182.65,266.98h12.47v42.04c0,3.44-2.79,6.24-6.24,6.24h0c-3.44,0-6.24-2.79-6.24-6.24v-42.04h0Z" transform="translate(489.8 118.26) rotate(93.1)"/>
        </g>
        <polygon class="cls-30" points="202.58 292.15 164.94 289.18 165.1 292.11 166.27 294.13 168.35 295.78 174.39 296.57 199.85 297.95 204.76 295.11 202.58 292.15"/>
        <path class="cls-22" d="M182.65,266.98h12.47v42.04c0,3.44-2.79,6.24-6.24,6.24h0c-3.44,0-6.24-2.79-6.24-6.24v-42.04h0Z" transform="translate(489.8 118.26) rotate(93.1)"/>
        <line class="cls-4" x1="301.96" y1="287.22" x2="299.68" y2="292.25"/>
        <path class="cls-4" d="M228.11,306.89s-5.78-.64-12.86-2.58"/>
        <path class="cls-30" d="M211.37,312.39s-6.66,4.38-10.47,4.96c-3.82.58-10.62,1.76-14.28.63l2.32,2.58,2.47.73,4.64-.53,7.51-1.6,3.08-.96,3.22-1.52,1.72-2.22-.21-2.07Z"/>
        <path class="cls-4" d="M215.93,296.84l-17,16.94-4.63,4.57c-1.47.95-3.37.9-4.74-.11-.1-.08-.2-.16-.29-.24-1.38-1.24-1.56-3.34-.6-4.93,4.11-6.81,8.1-11.79,11.18-15.11,6.17-6.66,10.82-11.12,10.82-11.12.89-.71,2.39-1.73,4.49-2.35,2.71-.81,5.03-.56,6.24-.34"/>
        <path class="cls-4" d="M212.7,324.78l.65-1.35c1.34-2.78.25-6.13-2.47-7.58h0"/>
        <path class="cls-4" d="M209.93,302.81h0c1.15,1.99.72,4.51-1.02,6.01l-.58.5"/>
        <path class="cls-4" d="M188.48,310.52h3.65c1.35,0,2.44,1.09,2.44,2.44h0c0,1.35-1.09,2.44-2.44,2.44h-3.65v-4.87h0Z" transform="translate(557.35 341.2) rotate(125.88)"/>
        <line class="cls-4" x1="219.31" y1="307.78" x2="215.65" y2="309.91"/>
        <path class="cls-30" d="M209.49,323.47s3.38-4.26,3.53-5.35.91,2.45.91,2.45l-.09,1.37-1.06,2.68-1.39.14-1.9-1.29Z"/>
        <path class="cls-22" d="M199.17,320.14s11.01-1.87,12.25-5.11c1.24-3.24-2.84-7.43-7.74-5.98"/>
        <path class="cls-22" d="M324.58,310.04c-2.63,4.85-7.79,8.12-13.69,8.06l-65.38-.67h0s-5.95-.06-5.95-.06c-2.8-.03-5.56.63-8.04,1.93-2.04,1.07-4.43,2.14-7.16,3.06-4.51,1.52-8.55,2.16-11.65,2.42-1.45,1.11-3.22,2.29-5.29,3.41-2.66,1.43-5.14,2.38-7.23,3.02-.15-.02-3.51-.44-4.9-3.53-.8-1.77-.51-3.44-.15-4.49.23-.66.68-1.22,1.29-1.56.9-.5,1.82-.99,2.75-1.49-1.93.44-3.74.75-5.38.97-3.03,1.02-6.37-.64-7.39-3.67-1.05-3.12.69-6.5,3.86-7.45l.67-.47c.14-.2.28-.41.43-.61-2.23-.91-3.77-3.16-3.61-5.75.19-3.1,2.87-5.47,5.98-5.47h6.38c.14-.17.27-.33.41-.49,3.45-3.93,6.89-7.37,10.15-10.35,1.5-1.37,3.37-2.27,5.38-2.51,2.08-.26,4.6-.35,7.41,0,1.69.21,3.22.54,4.57.93,2.8.8,5.68,1.27,8.59,1.3l7,.07,1.49.02h0l2.47.03h0s54.38.56,54.38.56"/>
      </g>
      <path class="cls-6" d="M299.12,264.57s25.48-35.27,43.95-38.6c18.47-3.34,15.48,71.95,15.48,71.95-3.34-5.64-12.96-20.14-31.76-28.13-11.24-4.77-21.43-5.38-27.68-5.23Z"/>
      <g>
        <path class="cls-38" d="M316.98,480.55l124.83-9.51s-1.78-129.18-3.92-134.6-112.65,6.32-112.65,6.32l-8.25,137.79Z"/>
        <g class="cls-43">
          <path class="cls-18" d="M319.59,367.63c1.17,0,126-6.85,131.09-13.6,5.09-6.75-3.92-25.73-3.92-25.73l-117.83,18.04-9.34,21.29Z"/>
        </g>
        <path class="cls-14" d="M316.98,480.55l124.83-9.51s-1.78-129.18-3.92-134.6-112.65,6.32-112.65,6.32l-8.25,137.79Z"/>
      </g>
      <g>
        <path class="cls-20" d="M385.39,202.97c-1.05-2.28-1.52-4.92-1.24-7.67.62-5.96,4.62-10.66,9.64-12.02l-1.64-4.66s7.36-8.84,8.08-3.57c.72,5.27,5.21,11.74,5.21,11.74h0c2.54,2.8,3.93,6.81,3.48,11.09-.41,3.96-2.32,7.36-5.03,9.6h0s-.04.04-.1.08c-.53.43-1.08.82-1.66,1.16-1.92,1.38-4.8,3.63-5.6,5.19-1.21,2.39-15.48,7.66-15.48,7.66l-3.41-15.58,7.74-3.02Z"/>
        <path class="cls-20" d="M345.28,175.22c.15-3.35-.52-6.71-1.39-9.92-1.31-4.86.32-9.8,4.18-13.03,1.2-1.01,2.57-1.81,4.03-2.39,7.43-2.98,16.15.02,19.46,6.7,3.32,6.68-.02,14.51-7.46,17.49-3.14,1.26-6.5,1.44-9.59.74l3.69,20.94-.79,5.33c.73-.07,1.47-.08,2.22,0,6.84.71,11.74,7.41,10.95,14.96-.79,7.55-6.97,13.09-13.81,12.37-5.7-.6-10.04-5.35-10.89-11.27,0-.05,0-.09,0-.13-.08-.62-.13-1.24-.13-1.88-.49-3.76-2.17-6.4-2.17-6.4,0,0-3.59-3.74-4.49-10.65-.9-6.9,5.99-18.24,6.2-22.85Z"/>
        <g>
          <path class="cls-16" d="M437.51,345.87c1.32-10.77,2.02-21.66,1.85-32.51-.07-4.36-4.09-38.53-2.83-39.09,16.11-7.1,30.93-8.72,33.21-3.59l-8.63-21.15c-4.89-11.99-14.45-21.55-26.55-26.17-1.65-.63-3.27-1.19-4.84-1.68,0,0-.02,0-.03,0-28.39-8.3-63.29-16.25-89.67,2.18-4.34,3.03-8.65,6.53-11.24,11.22-.03.05.03-.05,0,0-.03.05-.06.1-.09.16-3.12,5.77-4.64,12.27-4.62,18.83.11,33.57-.02,72.83-.02,106.49,0-.75,44.14-4.6,47.71-5.02,22-2.57,43.93-5.79,65.74-9.65Z"/>
          <g class="cls-41">
            <path class="cls-30" d="M531.2,191.06c7.57,8.46,14.74,17.27,21.47,26.41.8,1.09,2.17,1.63,3.42.9,1.07-.63,1.7-2.33.9-3.42-6.98-9.49-14.4-18.65-22.25-27.43-2.15-2.4-5.68,1.14-3.54,3.54h0Z"/>
            <path class="cls-27" d="M416.05,339.3c1.27,2.36,2.4,4.78,3.45,7.24l-3.28-7.76c2.25,5.36,4.06,10.88,5.92,16.38,2.72,8.03,5.8,15.92,9.37,23.61,2.04,3.79,4.83,6.83,8.37,9.12,3.14,2.87,6.82,4.81,11.05,5.82,4.32,1.35,8.64,1.55,12.96.58,4.33-.2,8.35-1.48,12.08-3.86,2.19-1.69,4.39-3.39,6.58-5.08,4.03-4.06,6.81-8.84,8.36-14.34l1.16-8.64c-.02-5.87-1.5-11.33-4.44-16.4-.5-1.08-.98-2.17-1.45-3.26l3.28,7.76c-2.54-6.05-4.52-12.31-6.65-18.51-2.98-8.68-6.29-17.37-10.63-25.45-2.04-3.79-4.83-6.83-8.37-9.12-3.14-2.87-6.82-4.81-11.05-5.82-4.32-1.35-8.64-1.55-12.96-.58-4.33.2-8.35,1.48-12.08,3.86l-6.58,5.08c-4.03,4.06-6.81,8.84-8.36,14.34l-1.16,8.64c.02,5.87,1.5,11.33,4.44,16.4h0Z"/>
            <path class="cls-30" d="M394.1,303.48c.86,6.29,3.68,12.11,6.2,17.85,1.42,3.23,3.18,6.3,5.12,9.24,4.93,7.48,10.82,14.27,16.29,21.35-1.69-2.19-3.39-4.39-5.08-6.58,1.01,1.32,2.02,2.65,2.84,4.09,2.04,3.79,4.83,6.83,8.37,9.12,3.14,2.87,6.82,4.81,11.05,5.82,4.32,1.35,8.64,1.55,12.96.58,4.33-.2,8.35-1.48,12.08-3.86,2.19-1.69,4.39-3.39,6.58-5.08,4.03-4.06,6.81-8.84,8.36-14.34l1.16-8.64c-.02-5.87-1.5-11.33-4.44-16.4-.5-.88-1.08-1.72-1.68-2.54-2.27-3.12-4.67-6.14-7.06-9.17-1.83-2.32-3.7-4.6-5.51-6.94l5.08,6.58c-4-5.19-7.73-10.65-10.3-16.7l3.28,7.76c-1.26-3.03-2.19-6.16-2.64-9.42-1.01-4.23-2.94-7.91-5.82-11.05-2.29-3.54-5.33-6.33-9.12-8.37-3.73-2.38-7.76-3.66-12.08-3.86-4.32-.97-8.64-.77-12.96.58l-7.76,3.28c-4.88,2.89-8.77,6.78-11.66,11.66l-3.28,7.76c-1.55,5.76-1.55,11.52,0,17.28h0Z"/>
          </g>
          <path class="cls-14" d="M437.51,345.87c1.32-10.77,2.02-21.66,1.85-32.51-.07-4.36-4.09-38.53-2.83-39.09,16.11-7.1,30.93-8.72,33.21-3.59l-8.63-21.15c-4.89-11.99-14.45-21.55-26.55-26.17-1.65-.63-3.27-1.19-4.84-1.68,0,0-.02,0-.03,0-28.39-8.3-63.29-16.25-89.67,2.18-4.34,3.03-8.65,6.53-11.24,11.22-.03.05.03-.05,0,0-.03.05-.06.1-.09.16-3.12,5.77-4.64,12.27-4.62,18.83.11,33.57-.02,72.83-.02,106.49,0-.75,44.14-4.6,47.71-5.02,22-2.57,43.93-5.79,65.74-9.65Z"/>
        </g>
        <ellipse class="cls-13" cx="440.29" cy="283.82" rx="32.25" ry="10.25" transform="translate(-77.42 203.94) rotate(-24.04)"/>
        <path class="cls-17" d="M393.32,239.94c1.05,2.8,5.8,31.98,5.8,31.98,1.63,4.59,3.14,9.93,5.97,15.31,1.88,3.58,3.83,6.82,5.74,9.73-.13-.72-.25-1.89.07-3.25.55-2.33,2.03-3.73,2.62-4.24.43-.46,1.02-1.08,1.74-1.79,1.03-1.01,2.38-2.26,3.65-3.2,2.54-1.87,6.62-4.56,8.09-5.39,1.47-.83,6.88-3.65,7.74-4.01.86-.37,5.8-2.47,6.74-2.83.94-.36,5.48-1.91,6.69-2.25,1.21-.34,6.27-1.93,9.11-2.19,2.84-.26,3.37-.45,3.37-.45l-8.11-22.29-12.47-17.3-7.13-4.96-6.17-1.94-7-1.87-11.81.69-14.67,20.26Z"/>
        <path class="cls-9" d="M415.69,218.07s8.57,1.65,18.91,5.3c12.2,4.3,21.62,14.18,26.5,26.15l8.63,21.15c-2.31-5.17-17.36-3.48-33.63,3.77-16.27,7.26-27.59,17.33-25.28,22.5,0,0-13.92-22.46-15.42-35.06"/>
        <g>
          <path class="cls-1" d="M360.49,236.13c6.34,4.34,17.75,2.02,25.48-5.2,7.73-7.21,8.86-16.58,2.52-20.93-6.34-4.34-17.75-2.02-25.48,5.2-7.73,7.21-8.86,16.58-2.52,20.93Z"/>
          <g class="cls-45">
            <path class="cls-30" d="M383.2,217.1l-.05.4.27-2c-.22,1.47-.62,2.88-1.17,4.26l.76-1.8c-.37.87-.78,1.71-1.26,2.53-.24.41-.49.81-.76,1.2-.11.17-.23.34-.35.5-.46.62-.31.44.44-.55-1.32,1.26-2.42,2.69-3.85,3.88-.45.37-1.81,1.23.11-.06-.33.22-.65.47-.97.7-.76.53-1.55,1.03-2.35,1.5-1.6.94-3.27,1.75-4.98,2.49l1.8-.76c-5.3,2.23-10.89,3.59-16.5,4.76-3.85.81-6.45,5.55-5.25,9.25,1.32,4.07,5.12,6.12,9.25,5.25,8.08-1.7,16.28-3.86,23.44-8.11,3.73-2.21,7.34-5.02,10.06-8.43,1.55-1.95,2.97-3.91,4-6.19,1.34-2.97,2-5.59,2.41-8.82.22-1.77-1-4.12-2.2-5.32-1.3-1.3-3.44-2.29-5.32-2.2s-3.96.73-5.32,2.2c-1.44,1.57-1.94,3.22-2.2,5.32h0Z"/>
          </g>
          <path class="cls-14" d="M360.49,236.13c6.34,4.34,17.75,2.02,25.48-5.2,7.73-7.21,8.86-16.58,2.52-20.93-6.34-4.34-17.75-2.02-25.48,5.2-7.73,7.21-8.86,16.58-2.52,20.93Z"/>
        </g>
        <g>
          <path class="cls-1" d="M390.75,217.49c-2.38-15.58-4.47-15.65-4.91-31.68l-30.92.85,6.98,41.26"/>
          <g class="cls-37">
            <path class="cls-31" d="M442.19,109.53c-2.66,7.04-5.63,13.96-8.91,20.74-.83,1.72,1.74,3.24,2.58,1.51,3.39-7.01,6.46-14.17,9.21-21.45.68-1.8-2.2-2.57-2.88-.79h0Z"/>
            <path class="cls-30" d="M377.51,194.32c1.54,4.04,2.33,8.33,2.91,12.6l-.32-2.38c.53,3.99.86,8,1.17,12.01.18,2.4.88,4.58,2.62,6.33,1.55,1.55,4.1,2.72,6.33,2.62s4.71-.86,6.33-2.62,2.8-3.98,2.62-6.33c-.37-4.95-.85-9.88-1.54-14.8-.58-4.13-1.37-8.28-2.86-12.19-.85-2.24-1.98-4.1-4.11-5.35-1.92-1.12-4.75-1.6-6.9-.9s-4.25,2.04-5.35,4.11-1.75,4.68-.9,6.9h0Z"/>
            <path class="cls-30" d="M359.84,211.5c2.91,2.24,6.82,2.37,10.3,1.9,2.93-.39,5.81-1.08,8.57-2.14,5.95-2.29,11.47-5.98,14.5-11.77,1.21-2.32.67-5.54-1.79-6.84-2.3-1.22-5.55-.68-6.84,1.79-.28.54-.58,1.06-.91,1.57-.09.13-.65,1-.24.37s-.23.27-.28.33c-.75.86-1.58,1.62-2.45,2.35-.52.44.98-.68,0-.02-.2.14-.4.28-.6.41-.51.34-1.03.65-1.56.95s-1.08.58-1.64.84c-.14.07-1.1.52-.42.2s-.39.15-.43.17c-2.19.85-4.48,1.46-6.79,1.87-.05,0-1.25.2-.45.09s-.31.02-.47.04c-.64.05-1.26.04-1.9.02-.83-.03.17-.08.22.04,0-.01-.79-.2-.89-.22-.51-.07.75.51.03.02-.31-.21-.62-.39-.91-.61-2.08-1.6-5.69-.39-6.84,1.79-1.4,2.65-.43,5.13,1.79,6.84h0Z"/>
          </g>
          <path class="cls-9" d="M390.75,217.49c-2.38-15.58-4.47-15.65-4.91-31.68l-30.92.85,6.98,41.26"/>
        </g>
        <g>
          <path class="cls-1" d="M364.6,155.09h0c10.52-.73,19.64,7.2,20.38,17.72l.12,1.76c1.12-.38,2.33-.53,3.58-.38,4.5.53,7.73,4.61,7.2,9.12-.53,4.5-4.61,7.73-9.12,7.2-.21-.02-1.38-.8-1.68-.96-.05,9.89-6.66,19.08-16.69,19.78h0c-10.52.73-19.64-7.2-20.38-17.72l-1.13-16.14c-.73-10.52,7.2-19.64,17.72-20.38Z"/>
          <g class="cls-39">
            <path class="cls-31" d="M381.11,109.15c5.76-2.4,11.31-5.25,16.59-8.58,1.62-1.02.12-3.61-1.51-2.58-5.05,3.19-10.36,5.99-15.88,8.28-.74.31-1.27.99-1.04,1.83.19.7,1.09,1.35,1.83,1.04h0Z"/>
            <path class="cls-30" d="M345.29,168.23c3.61,1.47,7.72-.04,11.01-1.58,2.27-1.06,4.36-2.46,6.66-3.48l-1.79.76c.58-.24,1.17-.47,1.79-.58l-1.99.27c.25-.03.5-.02.75,0l-1.99-.27c.58.08,1.13.27,1.68.49l-1.79-.76c1.89.81,3.62,1.99,5.29,3.18.51.37,1.02.74,1.53,1.12.26.19.52.39.77.59,1.17.88-1.49-1.16-.52-.4s1.98,1.56,2.96,2.34c2.18,1.74,4.35,3.49,6.6,5.14,1.49,1.09,3.28,2.35,5.13,2.69,2.02.37,3.95.31,5.78-.76,1.56-.91,3.04-2.69,3.45-4.48.84-3.68-1.11-8.47-5.24-9.23-.18-.03-.36-.09-.53-.16l1.79.76c-.71-.31-1.36-.75-2-1.19-.42-.29-.83-.59-1.24-.9-.21-.16-.42-.32-.63-.47-.59-.44,1.29,1.01,1.05.82-.16-.13-.32-.25-.48-.37-2.17-1.7-4.31-3.44-6.49-5.13-5.04-3.9-11.01-9.09-17.87-7.74-3.95.78-7.31,3.56-10.95,5.13l1.79-.76c-.79.32-1.59.59-2.43.73l1.99-.27c-.41.05-.8.06-1.21.02l1.99.27c-.31-.05-.58-.13-.87-.24-1.68-.68-4.29-.12-5.78.76s-3.04,2.69-3.45,4.48c-.44,1.92-.34,4.07.76,5.78s2.57,2.67,4.48,3.45h0Z"/>
            <line class="cls-3" x1="386.05" y1="180.53" x2="391.66" y2="184.41"/>
            <line class="cls-3" x1="390.01" y1="180.07" x2="386.67" y2="184.54"/>
          </g>
          <path class="cls-14" d="M364.6,155.09h0c10.52-.73,19.64,7.2,20.38,17.72l.12,1.76c1.12-.38,2.33-.53,3.58-.38,4.5.53,7.73,4.61,7.2,9.12-.53,4.5-4.61,7.73-9.12,7.2-.21-.02-1.38-.8-1.68-.96-.05,9.89-6.66,19.08-16.69,19.78h0c-10.52.73-19.64-7.2-20.38-17.72l-1.13-16.14c-.73-10.52,7.2-19.64,17.72-20.38Z"/>
        </g>
        <path class="cls-9" d="M357.91,177.19s-3.75-3.06-6.41-.76"/>
        <path class="cls-9" d="M370.05,177.1s-3.75-3.06-6.41-.76"/>
        <path class="cls-3" d="M358.43,186.09c.02.14,0,1.8-.03,3.01-.01.65.57,1.15,1.21,1.04l2.7-.45"/>
        <ellipse class="cls-30" cx="354.23" cy="181.57" rx="2.28" ry="1.14" transform="translate(156.18 526.86) rotate(-87.3)"/>
        <ellipse class="cls-30" cx="366.45" cy="181.34" rx="1.14" ry="2.28" transform="translate(-.89 1.82) rotate(-.28)"/>
        <path class="cls-20" d="M383.57,183.59c-.19.34-.7.24-.74-.15-.35-3.28-3.03-11.99-20.59-21l-3.83-1.87s-5.01,8.02-11.16,10.31c-.74.27,0,0-.42-.16-2.44-.95-5.93-10.54-5.94-15.56,0-4.24,1.65-8.35,4.75-11.24.02-.02.05-.05.07-.07,4.14-3.82,8.86-4.66,11.94-5.17,7.1-1.17,14.61-.19,21.2,2.64,2.64,1.13,4.91,2.74,7.33,4.26,6.06,3.79,12.07,7.34,15,14.21,2.24,5.26,2.39,11.7.46,17.08-.68,1.9-2.27,3.56-3.63,5.02-.72.77-2.22,1.83-2.47,2.92,1.24-5.41-1.67-9.21-4.87-9.65-2.83-.39-5.25,5.09-7.11,8.43Z"/>
        <path class="cls-11" d="M363.58,196.82c.35,1.64,2.18,2.68,3.98,2.27,1.8-.41,2.91-2.12,2.42-3.73"/>
        <line class="cls-9" x1="365.12" y1="178.88" x2="368.81" y2="179.19"/>
        <line class="cls-9" x1="352.9" y1="178.88" x2="356.58" y2="179.19"/>
        <path class="cls-24" d="M382.4,161.5s-6.75-.4-12.35-7.27"/>
        <path class="cls-24" d="M358.4,148.73s-1.49,8.44-6.9,10.61"/>
      </g>
      <path class="cls-15" d="M385.72,213.01s1.05,11.88-7.04,17.66"/>
      <path class="cls-24" d="M397.98,190.16s3.52,1.76,2.15,7.12-3.23,8.09-3.23,8.09"/>
      <path class="cls-24" d="M344.96,195.36s-.39,2.37,3.13,7.46,3.41,9.8,3.41,9.8"/>
      <path class="cls-24" d="M392.59,193.63s2.05,4.3,0,7.04"/>
      <polygon class="cls-18" points="362.31 504.71 374.49 385.04 368.4 390.84 349.98 511.76 362.31 504.71"/>
    </g>
    <g>
      <path class="cls-1" d="M453.57,263.84l-33.25,14.84,21.23,56.39-104.87,1.87v4.61l-47.22,3.28s12.05,22.78,47.22,21.82l155.35-4.24-38.45-98.57Z"/>
      <g class="cls-44">
        <path class="cls-13" d="M420.54,293.03c3.84-3.93,10.01-9.27,18.78-13.45,12.7-6.05,24.33-6.57,30.59-6.39-5.78-9.38-11.57-18.75-17.35-28.13l-44.54,29.04,12.52,18.93Z"/>
        <path class="cls-13" d="M294.71,341.15s4.3,10.91,16.96,16.13c6.33,2.62,12.96,2.69,19.71,3.04,7.54.39,15.09.61,22.64.66,23.96.15,48.07-1.44,71.91-3.82,18.53-1.61,37.18-2.27,55.81-3.14,0,0-45.24-92.83-45.24-92.83,0,0,84.39-7.7,84.39-6.52s-.78,103.7-.78,103.7l-159.88,44.67s-94.06-27.84-92.7-29.02,11.53-37.07,11.53-37.07l15.65,4.2Z"/>
        <ellipse class="cls-13" cx="329.91" cy="342.24" rx="13.45" ry="5.59"/>
      </g>
      <path class="cls-23" d="M453.57,263.84l-33.25,14.84,21.23,56.39-104.87,1.87v4.61l-47.22,3.28s12.05,22.78,47.22,21.82l155.35-4.24-38.45-98.57Z"/>
    </g>
    <path class="cls-17" d="M393.32,239.94c1.05,2.8,5.8,31.98,5.8,31.98,1.63,4.59,3.14,9.93,5.97,15.31,1.88,3.58,3.83,6.82,5.74,9.73-.13-.72-.25-1.89.07-3.25.55-2.33,2.03-3.73,2.62-4.24.43-.46,1.02-1.08,1.74-1.79,1.03-1.01,2.38-2.26,3.65-3.2,2.54-1.87,6.62-4.56,8.09-5.39,1.47-.83,6.88-3.65,7.74-4.01.86-.37,5.8-2.47,6.74-2.83.94-.36,5.48-1.91,6.69-2.25,1.21-.34,6.27-1.93,9.11-2.19,2.84-.26,3.37-.45,3.37-.45l-8.11-22.29-12.47-17.3-7.13-4.96-6.17-1.94-7-1.87-11.81.69-14.67,20.26Z"/>
    <path class="cls-30" d="M389.5,224.28s29.35,2.64,39.6,9.2c10.26,6.56,20.13,27.95,20.13,27.95l3.9,7.11s12.53-3.15,16.3,1.61l-4.35-10.86-5.3-12.71s-3.19-5.79-4.99-7.88c-1.8-2.09-6.28-7.56-8.54-8.94-2.26-1.38-8.16-5.1-11.66-6.38-3.5-1.28-15.04-4.12-17.68-5s-26.17-5.36-26.17-5.36l-1.77,8.23.52,3.03Z"/>
    <path class="cls-9" d="M415.69,218.07s8.57,1.65,18.91,5.3c12.2,4.3,21.62,14.18,26.5,26.15l8.63,21.15c-2.31-5.17-17.36-3.48-33.63,3.77-16.27,7.26-27.59,17.33-25.28,22.5,0,0-13.92-22.46-15.42-35.06"/>
  </g>
  <g>
    <g>
      <path class="cls-12" d="M352.92,333.81h28.77c2.39,0,4.33,1.94,4.33,4.33v3.29c0,2.39-1.94,4.33-4.33,4.33h-28.77v-11.95h0Z"/>
      <path class="cls-12" d="M276.6,345.77h81.77c2.82,0,4.63-2.26,4.04-5.06l-10.09-47.8c-.59-2.79-3.35-5.06-6.18-5.06h-81.77c-2.82,0-4.63,2.26-4.04,5.06l10.09,47.8c.59,2.79,3.35,5.06,6.18,5.06Z"/>
    </g>
    <g>
      <polygon class="cls-17" points="307 314.16 297.21 314.16 295 304.38 304.79 304.38 307 314.16"/>
      <polygon class="cls-17" points="319.84 314.16 310.05 314.16 307.84 304.38 317.63 304.38 319.84 314.16"/>
      <polygon class="cls-17" points="309.84 326.76 300.06 326.76 297.85 316.98 307.63 316.98 309.84 326.76"/>
      <polygon class="cls-17" points="322.68 326.76 312.9 326.76 310.69 316.98 320.47 316.98 322.68 326.76"/>
    </g>
  </g>
  <line class="cls-2" x1="441.54" y1="335.07" x2="444.51" y2="342.45"/>
</svg>