<?xml version="1.0" encoding="UTF-8"?>
<svg id="Layer_1" data-name="Layer 1" xmlns="http://www.w3.org/2000/svg" viewBox="0 0 540 540">
  <defs>
    <style>
      .cls-1 {
        fill: #d6e9dc;
      }

      .cls-1, .cls-2, .cls-3, .cls-4, .cls-5, .cls-6, .cls-7 {
        stroke-width: 0px;
      }

      .cls-2, .cls-8 {
        fill: #eef6f2;
      }

      .cls-3 {
        fill: #0d4733;
      }

      .cls-4 {
        fill: #b9761a;
      }

      .cls-5 {
        fill: #2d2d2e;
      }

      .cls-6 {
        fill: #df9939;
      }

      .cls-9 {
        stroke-width: 5.17px;
      }

      .cls-9, .cls-8, .cls-10, .cls-11, .cls-12, .cls-13 {
        stroke: #2d2d2e;
      }

      .cls-9, .cls-8, .cls-10, .cls-11, .cls-13 {
        stroke-linejoin: round;
      }

      .cls-9, .cls-10, .cls-11, .cls-12, .cls-13 {
        fill: none;
      }

      .cls-9, .cls-10, .cls-13 {
        stroke-linecap: round;
      }

      .cls-8, .cls-11 {
        stroke-width: 6.48px;
      }

      .cls-7 {
        fill: #0b8054;
      }

      .cls-10 {
        opacity: .3;
      }

      .cls-10, .cls-13 {
        stroke-width: .75px;
      }

      .cls-12 {
        stroke-miterlimit: 10;
      }
    </style>
  </defs>
  <rect class="cls-5" x="261.03" y="362.87" width="17.01" height="43.58"/>
  <rect class="cls-8" x="86.64" y="121.69" width="366.71" height="240.22" rx="9.01" ry="9.01"/>
  <rect id="Fill_window" data-name="Fill window" class="cls-1" x="111.42" y="139.48" width="148.41" height="97.27" rx="4.59" ry="4.59"/>
  <g id="Stroke_Window" data-name="Stroke Window">
    <path class="cls-5" d="M255.24,139.48c2.54,0,4.59,2.06,4.59,4.59v88.08c0,2.54-2.06,4.59-4.59,4.59H116.02c-2.54,0-4.59-2.06-4.59-4.59v-88.08c0-2.54,2.06-4.59,4.59-4.59h139.22M255.24,138.48H116.02c-3.08,0-5.59,2.51-5.59,5.59v88.08c0,3.08,2.51,5.59,5.59,5.59h139.22c3.08,0,5.59-2.51,5.59-5.59v-88.08c0-3.08-2.51-5.59-5.59-5.59h0Z"/>
    <circle class="cls-5" cx="245.79" cy="143.75" r="1.4"/>
    <circle class="cls-5" cx="249.81" cy="143.75" r="1.4"/>
    <circle class="cls-5" cx="253.83" cy="143.75" r="1.4"/>
    <line class="cls-12" x1="111.42" y1="147.72" x2="259.83" y2="147.72"/>
  </g>
  <g>
    <line class="cls-10" x1="131.18" y1="169.75" x2="244.82" y2="169.75"/>
    <line class="cls-10" x1="131.18" y1="183.92" x2="244.82" y2="183.92"/>
    <line class="cls-10" x1="131.18" y1="198.09" x2="244.82" y2="198.09"/>
    <line class="cls-10" x1="131.18" y1="212.26" x2="244.82" y2="212.26"/>
    <polyline class="cls-13" points="127.26 160.74 127.26 226.37 244.82 226.37"/>
  </g>
  <rect class="cls-7" x="136.96" y="175.95" width="10.92" height="50.42"/>
  <rect class="cls-6" x="154.51" y="201.16" width="10.92" height="25.21"/>
  <rect class="cls-6" x="172.06" y="165.97" width="10.92" height="60.4"/>
  <rect class="cls-7" x="189.61" y="187.57" width="10.92" height="38.8"/>
  <rect class="cls-6" x="207.16" y="215.45" width="10.92" height="10.92"/>
  <rect class="cls-6" x="224.72" y="195.71" width="10.92" height="30.66"/>
  <rect id="Fill_Window" data-name="Fill Window" class="cls-1" x="277.88" y="246.84" width="148.41" height="97.27" rx="4.59" ry="4.59"/>
  <g id="Stroke_Window-2" data-name="Stroke Window">
    <path class="cls-5" d="M421.69,246.84c2.54,0,4.59,2.06,4.59,4.59v88.08c0,2.54-2.06,4.59-4.59,4.59h-139.22c-2.54,0-4.59-2.06-4.59-4.59v-88.08c0-2.54,2.06-4.59,4.59-4.59h139.22M421.69,245.84h-139.22c-3.08,0-5.59,2.51-5.59,5.59v88.08c0,3.08,2.51,5.59,5.59,5.59h139.22c3.08,0,5.59-2.51,5.59-5.59v-88.08c0-3.08-2.51-5.59-5.59-5.59h0Z"/>
    <circle class="cls-5" cx="412.25" cy="251.11" r="1.4"/>
    <circle class="cls-5" cx="416.27" cy="251.11" r="1.4"/>
    <circle class="cls-5" cx="420.29" cy="251.11" r="1.4"/>
    <line class="cls-12" x1="277.88" y1="255.09" x2="426.29" y2="255.09"/>
  </g>
  <g>
    <polygon class="cls-4" points="409.27 291.69 409.27 302.03 294.57 302.03 294.57 293.78 307.03 288.41 319.16 280.74 336.17 291.51 357.29 284.3 379.31 286.33 409.27 291.69"/>
    <polyline class="cls-12" points="294.3 293.94 306.24 288.76 319.1 280.74 336.17 291.51 357.03 284.38 378.69 286.33 409.27 291.51"/>
    <circle class="cls-4" cx="379.31" cy="286.33" r="1.07"/>
    <circle class="cls-4" cx="357.29" cy="284.3" r="1.07"/>
    <circle class="cls-4" cx="336.51" cy="291.69" r="1.07"/>
    <circle class="cls-4" cx="319.16" cy="280.74" r="1.07"/>
    <circle class="cls-4" cx="307.03" cy="288.41" r="1.07"/>
    <circle class="cls-4" cx="294.57" cy="293.78" r="1.07"/>
    <circle class="cls-4" cx="409.27" cy="291.69" r="1.07"/>
  </g>
  <g>
    <polygon class="cls-4" points="294.57 302.03 409.27 302.03 409.03 275.15 390.92 278.13 363.46 269.08 336.51 277.97 326.05 264.95 311.36 268.68 294.57 286 294.57 302.03"/>
    <polyline class="cls-12" points="294.3 286.33 311.36 268.68 326.06 264.95 336.43 278.07 363.46 269.08 390.89 278.15 409.27 275.24"/>
    <circle class="cls-4" cx="311.24" cy="268.72" r="1.07"/>
    <circle class="cls-4" cx="326.05" cy="264.95" r="1.07"/>
    <circle class="cls-4" cx="294.57" cy="286" r="1.07"/>
    <circle class="cls-4" cx="336.51" cy="277.97" r="1.07"/>
    <circle class="cls-4" cx="363.42" cy="269.35" r="1.07"/>
    <circle class="cls-4" cx="390.92" cy="278.13" r="1.07"/>
    <circle class="cls-4" cx="409.27" cy="275.01" r="1.07"/>
  </g>
  <polyline class="cls-13" points="289.7 273.94 289.7 302.03 414.47 302.03"/>
  <rect class="cls-2" x="290.09" y="313.69" width="110.71" height="7.11" rx="3.56" ry="3.56"/>
  <rect class="cls-2" x="290.09" y="326.81" width="110.71" height="7.11" rx="3.56" ry="3.56"/>
  <rect class="cls-6" x="291.1" y="327.78" width="72.35" height="5.17" rx="2.59" ry="2.59"/>
  <rect class="cls-7" x="291.1" y="314.66" width="43.92" height="5.17" rx="2.59" ry="2.59"/>
  <g>
    <polygon class="cls-4" points="409.27 295.32 409.27 302.03 294.57 302.03 294.57 288.95 310.31 293.94 336.43 287.34 381.46 296.04 409.27 295.32"/>
    <polyline class="cls-12" points="294.3 288.84 310.31 293.94 336.43 287.34 381.97 296.04 409.27 295.23"/>
    <circle class="cls-4" cx="381.46" cy="296.04" r="1.07"/>
    <circle class="cls-4" cx="336.51" cy="287.07" r="1.07"/>
    <circle class="cls-4" cx="294.57" cy="288.95" r="1.07"/>
    <circle class="cls-4" cx="310.17" cy="293.94" r="1.07"/>
    <circle class="cls-4" cx="409.27" cy="295.32" r="1.07"/>
  </g>
  <rect id="Fill_Window-2" data-name="Fill Window" class="cls-1" x="111.42" y="246.84" width="148.41" height="97.27" rx="4.59" ry="4.59"/>
  <g id="Stroke_Window-3" data-name="Stroke Window">
    <path class="cls-5" d="M255.24,246.84c2.54,0,4.59,2.06,4.59,4.59v88.08c0,2.54-2.06,4.59-4.59,4.59H116.02c-2.54,0-4.59-2.06-4.59-4.59v-88.08c0-2.54,2.06-4.59,4.59-4.59h139.22M255.24,245.84H116.02c-3.08,0-5.59,2.51-5.59,5.59v88.08c0,3.08,2.51,5.59,5.59,5.59h139.22c3.08,0,5.59-2.51,5.59-5.59v-88.08c0-3.08-2.51-5.59-5.59-5.59h0Z"/>
    <circle class="cls-5" cx="245.79" cy="251.11" r="1.4"/>
    <circle class="cls-5" cx="249.81" cy="251.11" r="1.4"/>
    <circle class="cls-5" cx="253.83" cy="251.11" r="1.4"/>
    <line class="cls-12" x1="111.42" y1="255.09" x2="259.83" y2="255.09"/>
  </g>
  <line class="cls-13" x1="133.81" y1="275.17" x2="133.81" y2="324.34"/>
  <line class="cls-13" x1="152.11" y1="288.5" x2="152.11" y2="324.34"/>
  <line class="cls-13" x1="170.77" y1="275.17" x2="170.77" y2="324.34"/>
  <line class="cls-13" x1="193.06" y1="283.7" x2="193.06" y2="324.34"/>
  <line class="cls-13" x1="215.25" y1="275.17" x2="215.25" y2="317.22"/>
  <rect class="cls-4" x="130" y="283.7" width="7.61" height="16.68" rx="1" ry="1"/>
  <rect class="cls-4" x="148.3" y="296.71" width="7.61" height="23.05" rx="1.18" ry="1.18"/>
  <rect class="cls-4" x="166.97" y="281.38" width="7.61" height="19" rx="1.07" ry="1.07"/>
  <rect class="cls-4" x="189.25" y="301.89" width="7.61" height="19" rx="1.07" ry="1.07"/>
  <rect class="cls-4" x="211.45" y="293.57" width="7.61" height="19" rx="1.07" ry="1.07"/>
  <line class="cls-13" x1="234.88" y1="298.92" x2="234.88" y2="323.7"/>
  <rect class="cls-4" x="231.07" y="306.42" width="7.61" height="6.15" rx=".61" ry=".61"/>
  <rect class="cls-1" x="277.88" y="139.48" width="148.41" height="97.27" rx="4.59" ry="4.59"/>
  <g>
    <path class="cls-5" d="M421.69,139.48c2.54,0,4.59,2.06,4.59,4.59v88.08c0,2.54-2.06,4.59-4.59,4.59h-139.22c-2.54,0-4.59-2.06-4.59-4.59v-88.08c0-2.54,2.06-4.59,4.59-4.59h139.22M421.69,138.48h-139.22c-3.08,0-5.59,2.51-5.59,5.59v88.08c0,3.08,2.51,5.59,5.59,5.59h139.22c3.08,0,5.59-2.51,5.59-5.59v-88.08c0-3.08-2.51-5.59-5.59-5.59h0Z"/>
    <circle class="cls-5" cx="412.25" cy="143.75" r="1.4"/>
    <circle class="cls-5" cx="416.27" cy="143.75" r="1.4"/>
    <circle class="cls-5" cx="420.29" cy="143.75" r="1.4"/>
    <line class="cls-12" x1="277.88" y1="147.72" x2="426.29" y2="147.72"/>
  </g>
  <rect class="cls-4" x="348.35" y="159.75" width="51.82" height="4.94" rx="2.47" ry="2.47"/>
  <rect class="cls-4" x="348.35" y="171.98" width="23.37" height="4.94" rx="2.47" ry="2.47"/>
  <polyline class="cls-13" points="298.17 205.7 298.17 226.48 400.17 226.48"/>
  <g>
    <polyline class="cls-12" points="298.17 218.65 315.33 208.93 332.48 218.65 350.91 201.65 369.25 216.09 394.81 193.3"/>
    <polygon class="cls-5" points="397.04 198 400.17 188.53 390.41 190.55 397.04 198"/>
  </g>
  <circle class="cls-4" cx="369.28" cy="214.71" r="2.81"/>
  <g>
    <circle class="cls-6" cx="315.8" cy="174.45" r="20.57"/>
    <path class="cls-7" d="M326.88,157.12l-11.07,17.33,18.1-9.77c-.64-1.16-1.5-2.64-2.83-4.11-1.47-1.61-3.02-2.69-4.2-3.45Z"/>
    <path class="cls-3" d="M315.8,174.45l15.37,13.66c1.67-1.35,3.63-4.44,4.69-8.8,1.75-7.19-.97-13.28-1.96-14.63-6.03,3.26-12.07,6.51-18.1,9.77Z"/>
  </g>
  <path class="cls-9" d="M168.22,418.31c26.27-6.28,61.02-11.99,101.99-11.86,39.72.12,73.5,5.7,99.27,11.86"/>
  <rect class="cls-11" x="86.64" y="121.69" width="366.71" height="240.22" rx="9.01" ry="9.01"/>
</svg>