<?xml version="1.0" encoding="UTF-8"?>
<svg id="Layer_2" data-name="Layer 2" xmlns="http://www.w3.org/2000/svg" viewBox="0 0 540 540">
  <defs>
    <style>
      .cls-1, .cls-2, .cls-3, .cls-4, .cls-5, .cls-6, .cls-7 {
        stroke-width: 0px;
      }

      .cls-1, .cls-8 {
        fill: #eff7f3;
      }

      .cls-2 {
        fill: #0d4733;
      }

      .cls-9, .cls-8 {
        stroke-width: 6.48px;
      }

      .cls-9, .cls-8, .cls-10, .cls-11, .cls-12, .cls-13, .cls-14 {
        stroke: #2d2d2d;
      }

      .cls-9, .cls-8, .cls-10, .cls-11, .cls-13, .cls-14 {
        stroke-linejoin: round;
      }

      .cls-9, .cls-10, .cls-11, .cls-12, .cls-13 {
        fill: none;
      }

      .cls-3 {
        fill: #0d7f53;
      }

      .cls-4 {
        fill: #e09a39;
      }

      .cls-5 {
        fill: #2d2d2d;
      }

      .cls-10 {
        opacity: .3;
      }

      .cls-10, .cls-11, .cls-13 {
        stroke-linecap: round;
      }

      .cls-10, .cls-13 {
        stroke-width: .75px;
      }

      .cls-6 {
        fill: #d7eadd;
      }

      .cls-11 {
        stroke-width: 5.17px;
      }

      .cls-7 {
        fill: #ba761a;
      }

      .cls-12 {
        stroke-miterlimit: 10;
      }

      .cls-14 {
        fill: #12100b;
        stroke-width: .29px;
      }
    </style>
  </defs>
  <g>
    <rect class="cls-5" x="261.03" y="398.75" width="17.01" height="43.58"/>
    <rect class="cls-8" x="86.64" y="157.57" width="366.71" height="240.22" rx="9.01" ry="9.01"/>
    <rect id="Fill_window" data-name="Fill window" class="cls-6" x="111.42" y="175.36" width="148.41" height="97.27" rx="4.59" ry="4.59"/>
    <g id="Stroke_Window" data-name="Stroke Window">
      <path class="cls-5" d="M255.24,175.36c2.54,0,4.59,2.06,4.59,4.59v88.08c0,2.54-2.06,4.59-4.59,4.59H116.02c-2.54,0-4.59-2.06-4.59-4.59v-88.08c0-2.54,2.06-4.59,4.59-4.59h139.22M255.24,174.36H116.02c-3.08,0-5.59,2.51-5.59,5.59v88.08c0,3.08,2.51,5.59,5.59,5.59h139.22c3.08,0,5.59-2.51,5.59-5.59v-88.08c0-3.08-2.51-5.59-5.59-5.59h0Z"/>
      <circle class="cls-5" cx="245.79" cy="179.63" r="1.4"/>
      <circle class="cls-5" cx="249.81" cy="179.63" r="1.4"/>
      <circle class="cls-5" cx="253.83" cy="179.63" r="1.4"/>
      <line class="cls-12" x1="111.42" y1="183.6" x2="259.83" y2="183.6"/>
    </g>
    <g>
      <line class="cls-10" x1="131.18" y1="205.63" x2="244.82" y2="205.63"/>
      <line class="cls-10" x1="131.18" y1="219.8" x2="244.82" y2="219.8"/>
      <line class="cls-10" x1="131.18" y1="233.97" x2="244.82" y2="233.97"/>
      <line class="cls-10" x1="131.18" y1="248.14" x2="244.82" y2="248.14"/>
      <polyline class="cls-13" points="127.26 196.62 127.26 262.25 244.82 262.25"/>
    </g>
    <rect class="cls-3" x="136.96" y="211.84" width="10.92" height="50.42"/>
    <rect class="cls-4" x="154.51" y="237.04" width="10.92" height="25.21"/>
    <rect class="cls-4" x="172.06" y="201.85" width="10.92" height="60.4"/>
    <rect class="cls-3" x="189.61" y="223.45" width="10.92" height="38.8"/>
    <rect class="cls-4" x="207.16" y="251.33" width="10.92" height="10.92"/>
    <rect class="cls-4" x="224.72" y="231.59" width="10.92" height="30.66"/>
    <rect id="Fill_Window" data-name="Fill Window" class="cls-6" x="277.88" y="282.73" width="148.41" height="97.27" rx="4.59" ry="4.59"/>
    <g id="Stroke_Window-2" data-name="Stroke Window">
      <path class="cls-5" d="M421.69,282.73c2.54,0,4.59,2.06,4.59,4.59v88.08c0,2.54-2.06,4.59-4.59,4.59h-139.22c-2.54,0-4.59-2.06-4.59-4.59v-88.08c0-2.54,2.06-4.59,4.59-4.59h139.22M421.69,281.73h-139.22c-3.08,0-5.59,2.51-5.59,5.59v88.08c0,3.08,2.51,5.59,5.59,5.59h139.22c3.08,0,5.59-2.51,5.59-5.59v-88.08c0-3.08-2.51-5.59-5.59-5.59h0Z"/>
      <circle class="cls-5" cx="412.25" cy="286.99" r="1.4"/>
      <circle class="cls-5" cx="416.27" cy="286.99" r="1.4"/>
      <circle class="cls-5" cx="420.29" cy="286.99" r="1.4"/>
      <line class="cls-12" x1="277.88" y1="290.97" x2="426.29" y2="290.97"/>
    </g>
    <g>
      <polygon class="cls-7" points="409.27 327.57 409.27 337.92 294.57 337.92 294.57 329.66 307.03 324.29 319.16 316.62 336.17 327.39 357.29 320.18 379.31 322.21 409.27 327.57"/>
      <polyline class="cls-12" points="294.3 329.82 306.24 324.64 319.1 316.62 336.17 327.39 357.03 320.27 378.69 322.21 409.27 327.39"/>
      <circle class="cls-7" cx="379.31" cy="322.21" r="1.07"/>
      <circle class="cls-7" cx="357.29" cy="320.18" r="1.07"/>
      <circle class="cls-7" cx="336.51" cy="327.57" r="1.07"/>
      <circle class="cls-7" cx="319.16" cy="316.62" r="1.07"/>
      <circle class="cls-7" cx="307.03" cy="324.29" r="1.07"/>
      <circle class="cls-7" cx="294.57" cy="329.66" r="1.07"/>
      <circle class="cls-7" cx="409.27" cy="327.57" r="1.07"/>
    </g>
    <g>
      <polygon class="cls-7" points="294.57 337.92 409.27 337.92 409.03 311.03 390.92 314.01 363.46 304.96 336.51 313.85 326.05 300.83 311.36 304.56 294.57 321.88 294.57 337.92"/>
      <polyline class="cls-12" points="294.3 322.21 311.36 304.56 326.06 300.83 336.43 313.95 363.46 304.96 390.89 314.03 409.27 311.12"/>
      <circle class="cls-7" cx="311.24" cy="304.61" r="1.07"/>
      <circle class="cls-7" cx="326.05" cy="300.83" r="1.07"/>
      <circle class="cls-7" cx="294.57" cy="321.88" r="1.07"/>
      <circle class="cls-7" cx="336.51" cy="313.85" r="1.07"/>
      <circle class="cls-7" cx="363.42" cy="305.23" r="1.07"/>
      <circle class="cls-7" cx="390.92" cy="314.01" r="1.07"/>
      <circle class="cls-7" cx="409.27" cy="310.89" r="1.07"/>
    </g>
    <polyline class="cls-13" points="289.7 309.82 289.7 337.92 414.47 337.92"/>
    <rect class="cls-1" x="290.09" y="349.57" width="110.71" height="7.11" rx="3.56" ry="3.56"/>
    <rect class="cls-1" x="290.09" y="362.69" width="110.71" height="7.11" rx="3.56" ry="3.56"/>
    <rect class="cls-4" x="291.1" y="363.66" width="72.35" height="5.17" rx="2.59" ry="2.59"/>
    <rect class="cls-3" x="291.1" y="350.54" width="43.92" height="5.17" rx="2.59" ry="2.59"/>
    <g>
      <polygon class="cls-7" points="409.27 331.2 409.27 337.92 294.57 337.92 294.57 324.83 310.31 329.82 336.43 323.22 381.46 331.92 409.27 331.2"/>
      <polyline class="cls-12" points="294.3 324.72 310.31 329.82 336.43 323.22 381.97 331.92 409.27 331.12"/>
      <circle class="cls-7" cx="381.46" cy="331.92" r="1.07"/>
      <circle class="cls-7" cx="336.51" cy="322.95" r="1.07"/>
      <circle class="cls-7" cx="294.57" cy="324.83" r="1.07"/>
      <circle class="cls-7" cx="310.17" cy="329.82" r="1.07"/>
      <circle class="cls-7" cx="409.27" cy="331.2" r="1.07"/>
    </g>
    <rect id="Fill_Window-2" data-name="Fill Window" class="cls-6" x="111.42" y="282.73" width="148.41" height="97.27" rx="4.59" ry="4.59"/>
    <g id="Stroke_Window-3" data-name="Stroke Window">
      <path class="cls-5" d="M255.24,282.73c2.54,0,4.59,2.06,4.59,4.59v88.08c0,2.54-2.06,4.59-4.59,4.59H116.02c-2.54,0-4.59-2.06-4.59-4.59v-88.08c0-2.54,2.06-4.59,4.59-4.59h139.22M255.24,281.73H116.02c-3.08,0-5.59,2.51-5.59,5.59v88.08c0,3.08,2.51,5.59,5.59,5.59h139.22c3.08,0,5.59-2.51,5.59-5.59v-88.08c0-3.08-2.51-5.59-5.59-5.59h0Z"/>
      <circle class="cls-5" cx="245.79" cy="286.99" r="1.4"/>
      <circle class="cls-5" cx="249.81" cy="286.99" r="1.4"/>
      <circle class="cls-5" cx="253.83" cy="286.99" r="1.4"/>
      <line class="cls-12" x1="111.42" y1="290.97" x2="259.83" y2="290.97"/>
    </g>
    <line class="cls-13" x1="133.81" y1="311.05" x2="133.81" y2="360.23"/>
    <line class="cls-13" x1="152.11" y1="324.38" x2="152.11" y2="360.23"/>
    <line class="cls-13" x1="170.77" y1="311.05" x2="170.77" y2="360.23"/>
    <line class="cls-13" x1="193.06" y1="319.58" x2="193.06" y2="360.23"/>
    <line class="cls-13" x1="215.25" y1="311.05" x2="215.25" y2="353.1"/>
    <rect class="cls-7" x="130" y="319.58" width="7.61" height="16.68" rx="1" ry="1"/>
    <rect class="cls-7" x="148.3" y="332.59" width="7.61" height="23.05" rx="1.18" ry="1.18"/>
    <rect class="cls-7" x="166.97" y="317.26" width="7.61" height="19" rx="1.07" ry="1.07"/>
    <rect class="cls-7" x="189.25" y="337.77" width="7.61" height="19" rx="1.07" ry="1.07"/>
    <rect class="cls-7" x="211.45" y="329.46" width="7.61" height="19" rx="1.07" ry="1.07"/>
    <line class="cls-13" x1="234.88" y1="334.8" x2="234.88" y2="359.58"/>
    <rect class="cls-7" x="231.07" y="342.31" width="7.61" height="6.15" rx=".61" ry=".61"/>
    <rect class="cls-6" x="277.88" y="175.36" width="148.41" height="97.27" rx="4.59" ry="4.59"/>
    <g>
      <path class="cls-5" d="M421.69,175.36c2.54,0,4.59,2.06,4.59,4.59v88.08c0,2.54-2.06,4.59-4.59,4.59h-139.22c-2.54,0-4.59-2.06-4.59-4.59v-88.08c0-2.54,2.06-4.59,4.59-4.59h139.22M421.69,174.36h-139.22c-3.08,0-5.59,2.51-5.59,5.59v88.08c0,3.08,2.51,5.59,5.59,5.59h139.22c3.08,0,5.59-2.51,5.59-5.59v-88.08c0-3.08-2.51-5.59-5.59-5.59h0Z"/>
      <circle class="cls-5" cx="412.25" cy="179.63" r="1.4"/>
      <circle class="cls-5" cx="416.27" cy="179.63" r="1.4"/>
      <circle class="cls-5" cx="420.29" cy="179.63" r="1.4"/>
      <line class="cls-12" x1="277.88" y1="183.6" x2="426.29" y2="183.6"/>
    </g>
    <rect class="cls-7" x="348.35" y="195.63" width="51.82" height="4.94" rx="2.47" ry="2.47"/>
    <rect class="cls-7" x="348.35" y="207.86" width="23.37" height="4.94" rx="2.47" ry="2.47"/>
    <polyline class="cls-13" points="298.17 241.58 298.17 262.36 400.17 262.36"/>
    <g>
      <polyline class="cls-12" points="298.17 254.53 315.33 244.81 332.48 254.53 350.91 237.53 369.25 251.97 394.81 229.19"/>
      <polygon class="cls-5" points="397.04 233.88 400.17 224.41 390.41 226.43 397.04 233.88"/>
    </g>
    <circle class="cls-7" cx="369.28" cy="250.59" r="2.81"/>
    <g>
      <circle class="cls-4" cx="315.8" cy="210.33" r="20.57"/>
      <path class="cls-3" d="M326.88,193l-11.07,17.33,18.1-9.77c-.64-1.16-1.5-2.64-2.83-4.11-1.47-1.61-3.02-2.69-4.2-3.45Z"/>
      <path class="cls-2" d="M315.8,210.33l15.37,13.66c1.67-1.35,3.63-4.44,4.69-8.8,1.75-7.19-.97-13.28-1.96-14.63-6.03,3.26-12.07,6.51-18.1,9.77Z"/>
    </g>
    <path class="cls-11" d="M168.22,454.2c26.27-6.28,61.02-11.99,101.99-11.86,39.72.12,73.5,5.7,99.27,11.86"/>
    <rect class="cls-9" x="86.64" y="157.57" width="366.71" height="240.22" rx="9.01" ry="9.01"/>
  </g>
  <g>
    <g>
      <polygon class="cls-14" points="150.45 68.96 150.45 71.93 145.12 71.93 145.12 73.87 150.45 73.87 150.45 79.8 152.53 79.8 152.53 73.87 157.98 73.87 157.98 71.93 152.53 71.93 152.53 65.99 150.45 65.99 150.45 68.96"/>
      <polygon class="cls-14" points="133.04 76.51 133.04 80.83 124.98 80.83 124.98 83.54 133.04 83.54 133.04 92.31 136.03 92.31 136.03 83.54 144.21 83.54 144.21 80.83 136.03 80.83 136.03 72.19 133.04 72.19 133.04 76.51"/>
      <polygon class="cls-14" points="166.82 76.51 166.82 80.83 158.76 80.83 158.76 83.67 166.82 83.67 166.82 92.31 169.93 92.31 169.93 83.67 177.99 83.67 177.99 80.83 169.93 80.83 169.93 72.19 166.82 72.19 166.82 76.51"/>
      <polygon class="cls-14" points="149.67 91.22 149.67 96.06 140.7 96.06 140.7 99.67 149.67 99.67 149.67 109.35 153.3 109.35 153.3 99.67 162.27 99.67 162.27 96.06 153.3 96.06 153.3 86.38 149.67 86.38 149.67 91.22"/>
      <polygon class="cls-14" points="176.04 93.67 176.04 96.71 170.58 96.71 170.58 99.16 176.04 99.16 176.04 105.22 178.76 105.22 178.76 99.16 184.22 99.16 184.22 96.71 178.76 96.71 178.76 90.64 176.04 90.64 176.04 93.67"/>
      <polygon class="cls-14" points="124.08 93.93 124.08 96.84 118.75 96.84 118.75 98.9 124.08 98.9 124.08 104.7 126.16 104.7 126.16 98.9 131.62 98.7 131.62 96.84 126.16 96.84 126.16 91.03 124.08 91.03 124.08 93.93"/>
      <polygon class="cls-14" points="133.04 107.61 133.04 111.93 124.98 111.93 124.98 114.77 133.04 114.77 133.04 123.41 136.15 123.41 136.15 114.77 144.21 114.77 144.21 111.93 136.15 111.93 136.15 103.29 133.04 103.29 133.04 107.61"/>
      <polygon class="cls-14" points="166.82 107.61 166.82 111.93 158.76 111.93 158.76 114.64 166.82 114.64 166.82 123.41 169.93 123.41 169.93 114.64 177.99 114.64 177.99 111.93 169.93 111.93 169.93 103.29 166.82 103.29 166.82 107.61"/>
      <polygon class="cls-14" points="150.19 118.58 150.19 121.61 144.73 121.61 144.73 124.07 150.19 124.07 150.19 130.13 152.91 130.13 152.91 124.07 158.37 124.07 158.37 121.61 152.91 121.61 152.91 115.55 150.19 115.55 150.19 118.58"/>
    </g>
    <path class="cls-14" d="M318.01,78.89v36.79h-4.15v-36.79h4.15ZM214.87,84.06v11.74h11.17v3.87h-11.17v12.65h-4.15v-12.65h-11.17v-3.87h11.17v-11.74h4.15ZM344.78,92.12c.75.04,1.71.16,2.14.27.42.11,1.13.36,1.55.57.44.19,1.14.62,1.56.94.44.33,1.04.93,1.36,1.34.31.41.76,1.16,1,1.66.24.5.56,1.37.7,1.94s.31,1.72.45,4.07h-14.35l.08.48c.04.27.19.83.31,1.26.13.42.47,1.09.74,1.46s.67.82.87.98c.22.16.65.42.98.59.31.16.87.36,1.23.46.36.1,1.33.18,2.2.18s2.09-.08,2.73-.19,1.55-.33,2.01-.47c.46-.15,1.06-.38,1.33-.51.27-.13.54-.25.62-.25.08,0,.13.68.13,3.49v.39h0l-.71.33c-.4.18-1.22.47-1.85.65-.63.17-1.78.39-2.57.47-1.08.11-1.8.11-2.93,0-.82-.08-2.02-.3-2.66-.48s-1.57-.54-2.06-.81c-.5-.27-1.33-.88-1.86-1.38-.54-.5-1.22-1.31-1.54-1.8-.31-.5-.7-1.34-.88-1.88-.18-.53-.4-1.46-.48-2.06-.1-.67-.12-1.6-.07-2.32.04-.68.19-1.69.34-2.26s.5-1.5.77-2.07.8-1.38,1.14-1.8c.35-.42,1.04-1.08,1.54-1.45.5-.38,1.33-.85,1.85-1.06.51-.22,1.39-.47,1.95-.58.67-.12,1.46-.17,2.37-.13ZM387.9,91.93v6.49c0,3.57-.04,7.84-.19,12.5l-1.04.31c-.57.17-1.72.44-2.57.57-1.08.19-2.11.27-3.5.27-1.1,0-2.37-.06-2.83-.13-.46-.08-1.37-.31-2.01-.52-.69-.22-1.59-.64-2.14-1-.54-.35-1.29-.97-1.68-1.39-.38-.41-.91-1.14-1.16-1.6-.25-.46-.61-1.31-.77-1.86-.25-.81-.33-1.44-.39-2.9-.04-1.17,0-2.21.1-2.78.08-.5.3-1.33.48-1.86.17-.53.57-1.38.88-1.88.3-.5.96-1.28,1.45-1.74.56-.51,1.28-1.03,1.88-1.32.53-.25,1.31-.57,1.74-.69.42-.11,1.48-.24,2.34-.28,1.15-.05,1.82,0,2.53.15.54.12,1.36.39,1.83.61.46.21.86.39.87.38.02,0,.03-.24.04-.56v-.74h4.15ZM259.43,91.93v8.07h0v.84c-.01,3.79-.06,7.5-.19,10.08l-1.04.31c-.57.17-1.77.44-2.66.59-1.37.23-1.98.25-3.96.21-1.83-.05-2.57-.12-3.38-.33-.58-.16-1.57-.53-2.21-.85-.68-.34-1.49-.87-1.95-1.27-.42-.39-1.03-1.08-1.32-1.52-.3-.46-.7-1.19-.87-1.61-.17-.42-.42-1.27-.54-1.86-.17-.87-.21-1.51-.16-3.04.06-1.46.15-2.18.35-2.9.16-.53.52-1.4.8-1.94.28-.53.83-1.34,1.25-1.79.42-.46,1.11-1.06,1.54-1.36.42-.28,1.13-.65,1.56-.82.42-.17,1.2-.4,1.72-.5.52-.1,1.49-.18,2.14-.18s1.61.1,2.12.19c.5.11,1.28.38,1.75.59.46.21.86.39.87.38.01,0,.04-.29.04-.64v-.65h4.15ZM283.72,82.77v6.15c0,3.79.04,4.04.23,3.98.13-.05.76-.22,1.4-.4.76-.21,1.68-.34,2.66-.4,1.11-.05,1.77-.01,2.59.15.7.13,1.54.42,2.28.79.64.31,1.49.85,1.89,1.2.39.34,1,1.05,1.36,1.59.36.53.81,1.38,1,1.9.21.51.46,1.46.58,2.13.15.87.18,1.62.13,2.81-.04.88-.17,1.98-.29,2.44-.11.46-.4,1.25-.63,1.74-.23.5-.69,1.26-1.02,1.68-.31.42-.96,1.05-1.42,1.4-.45.35-1.27.83-1.8,1.08-.53.25-1.42.57-1.95.71-.83.23-1.37.27-3.76.28-2.26.01-3-.04-3.9-.23-.61-.13-1.61-.39-2.21-.56s-1.14-.36-1.19-.41c-.05-.05-.11-6.37-.13-14.05l-.05-13.98h4.22ZM408.3,92.45v6.49s-.01.51-.01.51c0,.08,0,.16,0,.24v.91c0,4.03.03,4.8.19,5.42l.02.07c.02.05.03.11.05.17.16.48.45,1.05.69,1.34.23.27.71.63,1.08.8.35.17,1.03.36,1.49.42.5.07,1.2.07,1.69,0,.46-.06,1.14-.25,1.49-.42.36-.17.85-.53,1.08-.8.24-.29.54-.86.69-1.34.02-.06.04-.12.05-.19v-.05c.16-.64.19-1.79.2-8.96v-.58c0-.1,0-.2,0-.3v-1.59c0-.11,0-.22,0-.34v-1.8h4.25l-.02,7.01c-.01,5.85-.02,6.85-.19,7.51l-.02.06s-.02.06-.02.09l-.02.06h0l-.02.06h0c-.15.42-.45,1.06-.68,1.42-.23.36-.63.86-.91,1.13-.27.27-.85.69-1.27.94s-1.25.61-1.82.79c-.65.21-1.52.36-2.34.42-.73.04-1.89.04-2.6-.01-.81-.05-1.69-.21-2.34-.41-.58-.18-1.39-.53-1.83-.79-.42-.25-.99-.68-1.27-.94-.27-.27-.68-.76-.91-1.13-.22-.35-.52-.99-.67-1.42v-.03h0l-.02-.06c-.02-.06-.04-.11-.05-.17l-.02-.06c-.16-.67-.18-1.81-.21-7.45l-.05-7.01h4.31ZM379.58,95.94c-.46,0-1.16.1-1.55.19-.4.11-1,.35-1.36.54-.35.19-.86.59-1.14.9-.28.3-.64.83-.82,1.2-.18.35-.41,1-.52,1.45-.11.44-.19,1.29-.19,1.9s.08,1.46.19,1.9c.11.45.31,1.05.47,1.36s.56.83.88,1.17c.33.35.86.76,1.17.92.33.17.91.4,1.31.51.45.13,1.19.21,2.05.21.73,0,1.75-.06,2.26-.13.52-.07,1.02-.18,1.09-.23.11-.06.17-1.62.21-5.36l.04-5.29c-1.31-.67-2.03-.94-2.47-1.05-.42-.11-1.15-.19-1.62-.18ZM249.55,96.14c-.39.11-.99.35-1.34.54-.35.19-.86.59-1.14.9-.28.3-.65.83-.82,1.2-.18.35-.41,1-.52,1.45-.11.44-.19,1.23-.19,1.77s.06,1.32.13,1.74c.08.42.3,1.13.51,1.55.24.51.63,1.03,1.13,1.49.48.45,1.05.82,1.55,1.02.61.24,1.09.31,2.34.38.88.04,2-.01,2.59-.1.57-.08,1.1-.19,1.19-.24.1-.06.17-1.74.23-5.35l.08-5.25c-1.06-.58-1.66-.85-2.02-.97-.35-.13-1.17-.25-1.82-.28-.8-.04-1.39.01-1.89.16ZM287.69,95.94c-.5.01-1.15.07-1.43.13-.29.06-.96.27-1.5.46l-.97.34v10.73c2.03.53,2.47.57,3.82.53,1.33-.04,1.77-.1,2.41-.34.42-.17,1.02-.48,1.29-.71.29-.22.7-.63.92-.91.22-.28.53-.86.69-1.28.17-.42.36-1.23.44-1.8.11-.77.11-1.31-.01-2.13-.1-.74-.3-1.4-.61-2.03-.24-.52-.67-1.16-.93-1.43-.27-.27-.75-.64-1.08-.82-.31-.19-.93-.44-1.37-.54-.42-.12-1.19-.21-1.68-.19ZM343.34,96.12c-.39.11-1.02.39-1.4.62-.39.23-.93.68-1.22.99-.28.33-.65.86-.82,1.2-.17.34-.31.67-.31.74,0,.08,1.48.13,4.23.13h5.07c-.13-.96-.25-1.43-.35-1.68-.11-.24-.42-.7-.7-1-.34-.38-.75-.64-1.22-.82-.4-.13-1.13-.28-1.62-.31-.58-.02-1.17.02-1.63.15Z"/>
  </g>
</svg>