<?xml version="1.0" encoding="UTF-8"?>
<svg id="Layer_1" data-name="Layer 1" xmlns="http://www.w3.org/2000/svg" xmlns:xlink="http://www.w3.org/1999/xlink" viewBox="0 0 540 540">
  <defs>
    <style>
      .cls-1 {
        clip-path: url(#clippath-20);
      }

      .cls-2 {
        clip-path: url(#clippath-11);
      }

      .cls-3 {
        clip-path: url(#clippath-16);
      }

      .cls-4 {
        fill: #000;
      }

      .cls-4, .cls-5, .cls-6, .cls-7, .cls-8, .cls-9, .cls-10, .cls-11, .cls-12, .cls-13, .cls-14, .cls-15, .cls-16, .cls-17 {
        stroke-width: 0px;
      }

      .cls-5 {
        fill: #979697;
      }

      .cls-6 {
        fill: #767677;
      }

      .cls-7, .cls-18 {
        fill: #ffecb0;
      }

      .cls-8 {
        fill: #444876;
      }

      .cls-19 {
        clip-path: url(#clippath-2);
      }

      .cls-20 {
        clip-path: url(#clippath-13);
      }

      .cls-21 {
        clip-path: url(#clippath-25);
      }

      .cls-22 {
        opacity: .94;
      }

      .cls-23 {
        fill: #91c365;
      }

      .cls-23, .cls-24, .cls-10, .cls-25, .cls-26, .cls-27, .cls-28, .cls-29, .cls-30, .cls-31 {
        isolation: isolate;
      }

      .cls-23, .cls-24, .cls-25, .cls-26, .cls-27, .cls-28, .cls-29, .cls-30, .cls-31 {
        stroke-linejoin: round;
      }

      .cls-23, .cls-24, .cls-26, .cls-27, .cls-28, .cls-30, .cls-31 {
        opacity: .6;
        stroke: #000;
        stroke-width: 1.84px;
      }

      .cls-32 {
        clip-path: url(#clippath-15);
      }

      .cls-33 {
        clip-path: url(#clippath-6);
      }

      .cls-24 {
        fill: #70c1af;
      }

      .cls-9, .cls-25, .cls-34, .cls-28, .cls-29, .cls-35 {
        fill: none;
      }

      .cls-36 {
        fill: #0d7f53;
      }

      .cls-36, .cls-34, .cls-18, .cls-35 {
        stroke-miterlimit: 10;
      }

      .cls-36, .cls-18, .cls-35 {
        stroke: #2d2d2d;
      }

      .cls-37 {
        clip-path: url(#clippath-7);
      }

      .cls-38 {
        clip-path: url(#clippath-21);
      }

      .cls-10 {
        opacity: .05;
      }

      .cls-10, .cls-15 {
        fill: #fff;
      }

      .cls-39 {
        clip-path: url(#clippath-1);
      }

      .cls-40 {
        clip-path: url(#clippath-4);
      }

      .cls-41 {
        clip-path: url(#clippath-12);
      }

      .cls-11 {
        fill: #6f7071;
      }

      .cls-25 {
        stroke: gray;
      }

      .cls-25, .cls-34 {
        stroke-linecap: square;
      }

      .cls-25, .cls-29 {
        opacity: .9;
        stroke-dasharray: 0 0 .82 1.65;
        stroke-width: .82px;
      }

      .cls-26 {
        fill: #c8d300;
      }

      .cls-27 {
        fill: #fcc306;
      }

      .cls-42 {
        clip-path: url(#clippath-24);
      }

      .cls-12 {
        fill: #e09a39;
      }

      .cls-34 {
        stroke: #0f567d;
        stroke-width: 4.04px;
      }

      .cls-43 {
        clip-path: url(#clippath-22);
      }

      .cls-13 {
        fill: #ed7628;
      }

      .cls-44 {
        clip-path: url(#clippath-9);
      }

      .cls-45 {
        fill: #7db0bc;
        stroke-width: .17px;
      }

      .cls-45, .cls-46 {
        stroke: #fff;
        stroke-miterlimit: 37.8;
      }

      .cls-47 {
        clip-path: url(#clippath);
      }

      .cls-46 {
        fill: #afdad2;
        stroke-width: .04px;
      }

      .cls-29 {
        stroke: #848585;
        stroke-linecap: round;
      }

      .cls-48 {
        clip-path: url(#clippath-19);
      }

      .cls-49 {
        clip-path: url(#clippath-3);
      }

      .cls-14 {
        fill: #2d2d2d;
      }

      .cls-50 {
        clip-path: url(#clippath-8);
      }

      .cls-30 {
        fill: #3056a2;
      }

      .cls-51 {
        clip-path: url(#clippath-18);
      }

      .cls-52 {
        clip-path: url(#clippath-14);
      }

      .cls-53 {
        clip-path: url(#clippath-17);
      }

      .cls-54 {
        clip-path: url(#clippath-5);
      }

      .cls-16 {
        fill: #d7eadd;
      }

      .cls-55 {
        clip-path: url(#clippath-10);
      }

      .cls-56 {
        clip-path: url(#clippath-23);
      }

      .cls-17 {
        fill: #5c7da2;
      }

      .cls-31 {
        fill: #eb681c;
      }
    </style>
    <clipPath id="clippath">
      <path class="cls-9" d="M420.63,278.47c7.64,0,14.97-3.28,20.37-9.12,5.4-5.84,8.44-13.76,8.44-22.01s-3.03-16.18-8.44-22.01c-5.4-5.84-12.73-9.12-20.37-9.12s-14.97,3.28-20.37,9.12c-5.4,5.84-8.44,13.76-8.44,22.01s3.03,16.18,8.44,22.01c5.4,5.84,12.73,9.12,20.37,9.12Z"/>
    </clipPath>
    <clipPath id="clippath-1">
      <path class="cls-9" d="M420.63,278.47c7.64,0,14.97-3.28,20.37-9.12,5.4-5.84,8.44-13.76,8.44-22.01s-3.03-16.18-8.44-22.01c-5.4-5.84-12.73-9.12-20.37-9.12s-14.97,3.28-20.37,9.12c-5.4,5.84-8.44,13.76-8.44,22.01s3.03,16.18,8.44,22.01c5.4,5.84,12.73,9.12,20.37,9.12Z"/>
    </clipPath>
    <clipPath id="clippath-2">
      <path class="cls-9" d="M420.63,278.47c7.64,0,14.97-3.28,20.37-9.12,5.4-5.84,8.44-13.76,8.44-22.01s-3.03-16.18-8.44-22.01c-5.4-5.84-12.73-9.12-20.37-9.12s-14.97,3.28-20.37,9.12c-5.4,5.84-8.44,13.76-8.44,22.01s3.03,16.18,8.44,22.01c5.4,5.84,12.73,9.12,20.37,9.12Z"/>
    </clipPath>
    <clipPath id="clippath-3">
      <path class="cls-9" d="M420.63,278.47c7.64,0,14.97-3.28,20.37-9.12,5.4-5.84,8.44-13.76,8.44-22.01s-3.03-16.18-8.44-22.01c-5.4-5.84-12.73-9.12-20.37-9.12s-14.97,3.28-20.37,9.12c-5.4,5.84-8.44,13.76-8.44,22.01s3.03,16.18,8.44,22.01c5.4,5.84,12.73,9.12,20.37,9.12Z"/>
    </clipPath>
    <clipPath id="clippath-4">
      <path class="cls-9" d="M420.63,278.47c7.64,0,14.97-3.28,20.37-9.12,5.4-5.84,8.44-13.76,8.44-22.01s-3.03-16.18-8.44-22.01c-5.4-5.84-12.73-9.12-20.37-9.12s-14.97,3.28-20.37,9.12c-5.4,5.84-8.44,13.76-8.44,22.01s3.03,16.18,8.44,22.01c5.4,5.84,12.73,9.12,20.37,9.12Z"/>
    </clipPath>
    <clipPath id="clippath-5">
      <path class="cls-9" d="M420.63,278.47c7.64,0,14.97-3.28,20.37-9.12,5.4-5.84,8.44-13.76,8.44-22.01s-3.03-16.18-8.44-22.01c-5.4-5.84-12.73-9.12-20.37-9.12s-14.97,3.28-20.37,9.12c-5.4,5.84-8.44,13.76-8.44,22.01s3.03,16.18,8.44,22.01c5.4,5.84,12.73,9.12,20.37,9.12Z"/>
    </clipPath>
    <clipPath id="clippath-6">
      <path class="cls-9" d="M420.63,278.47c7.64,0,14.97-3.28,20.37-9.12,5.4-5.84,8.44-13.76,8.44-22.01s-3.03-16.18-8.44-22.01c-5.4-5.84-12.73-9.12-20.37-9.12s-14.97,3.28-20.37,9.12c-5.4,5.84-8.44,13.76-8.44,22.01s3.03,16.18,8.44,22.01c5.4,5.84,12.73,9.12,20.37,9.12Z"/>
    </clipPath>
    <clipPath id="clippath-7">
      <path class="cls-9" d="M420.63,278.47c7.64,0,14.97-3.28,20.37-9.12,5.4-5.84,8.44-13.76,8.44-22.01s-3.03-16.18-8.44-22.01c-5.4-5.84-12.73-9.12-20.37-9.12s-14.97,3.28-20.37,9.12c-5.4,5.84-8.44,13.76-8.44,22.01s3.03,16.18,8.44,22.01c5.4,5.84,12.73,9.12,20.37,9.12Z"/>
    </clipPath>
    <clipPath id="clippath-8">
      <path class="cls-9" d="M420.63,278.47c7.64,0,14.97-3.28,20.37-9.12,5.4-5.84,8.44-13.76,8.44-22.01s-3.03-16.18-8.44-22.01c-5.4-5.84-12.73-9.12-20.37-9.12s-14.97,3.28-20.37,9.12c-5.4,5.84-8.44,13.76-8.44,22.01s3.03,16.18,8.44,22.01c5.4,5.84,12.73,9.12,20.37,9.12Z"/>
    </clipPath>
    <clipPath id="clippath-9">
      <path class="cls-9" d="M420.63,278.47c7.64,0,14.97-3.28,20.37-9.12,5.4-5.84,8.44-13.76,8.44-22.01s-3.03-16.18-8.44-22.01c-5.4-5.84-12.73-9.12-20.37-9.12s-14.97,3.28-20.37,9.12c-5.4,5.84-8.44,13.76-8.44,22.01s3.03,16.18,8.44,22.01c5.4,5.84,12.73,9.12,20.37,9.12Z"/>
    </clipPath>
    <clipPath id="clippath-10">
      <path class="cls-9" d="M420.63,278.47c7.64,0,14.97-3.28,20.37-9.12,5.4-5.84,8.44-13.76,8.44-22.01s-3.03-16.18-8.44-22.01c-5.4-5.84-12.73-9.12-20.37-9.12s-14.97,3.28-20.37,9.12c-5.4,5.84-8.44,13.76-8.44,22.01s3.03,16.18,8.44,22.01c5.4,5.84,12.73,9.12,20.37,9.12Z"/>
    </clipPath>
    <clipPath id="clippath-11">
      <path class="cls-9" d="M420.63,278.47c7.64,0,14.97-3.28,20.37-9.12,5.4-5.84,8.44-13.76,8.44-22.01s-3.03-16.18-8.44-22.01c-5.4-5.84-12.73-9.12-20.37-9.12s-14.97,3.28-20.37,9.12c-5.4,5.84-8.44,13.76-8.44,22.01s3.03,16.18,8.44,22.01c5.4,5.84,12.73,9.12,20.37,9.12Z"/>
    </clipPath>
    <clipPath id="clippath-12">
      <path class="cls-9" d="M420.63,278.47c7.64,0,14.97-3.28,20.37-9.12,5.4-5.84,8.44-13.76,8.44-22.01s-3.03-16.18-8.44-22.01c-5.4-5.84-12.73-9.12-20.37-9.12s-14.97,3.28-20.37,9.12c-5.4,5.84-8.44,13.76-8.44,22.01s3.03,16.18,8.44,22.01c5.4,5.84,12.73,9.12,20.37,9.12Z"/>
    </clipPath>
    <clipPath id="clippath-13">
      <path class="cls-9" d="M420.63,278.47c7.64,0,14.97-3.28,20.37-9.12,5.4-5.84,8.44-13.76,8.44-22.01s-3.03-16.18-8.44-22.01c-5.4-5.84-12.73-9.12-20.37-9.12s-14.97,3.28-20.37,9.12c-5.4,5.84-8.44,13.76-8.44,22.01s3.03,16.18,8.44,22.01c5.4,5.84,12.73,9.12,20.37,9.12Z"/>
    </clipPath>
    <clipPath id="clippath-14">
      <path class="cls-9" d="M420.63,278.47c7.64,0,14.97-3.28,20.37-9.12,5.4-5.84,8.44-13.76,8.44-22.01s-3.03-16.18-8.44-22.01c-5.4-5.84-12.73-9.12-20.37-9.12s-14.97,3.28-20.37,9.12c-5.4,5.84-8.44,13.76-8.44,22.01s3.03,16.18,8.44,22.01c5.4,5.84,12.73,9.12,20.37,9.12Z"/>
    </clipPath>
    <clipPath id="clippath-15">
      <path class="cls-9" d="M420.63,278.47c7.64,0,14.97-3.28,20.37-9.12,5.4-5.84,8.44-13.76,8.44-22.01s-3.03-16.18-8.44-22.01c-5.4-5.84-12.73-9.12-20.37-9.12s-14.97,3.28-20.37,9.12c-5.4,5.84-8.44,13.76-8.44,22.01s3.03,16.18,8.44,22.01c5.4,5.84,12.73,9.12,20.37,9.12Z"/>
    </clipPath>
    <clipPath id="clippath-16">
      <path class="cls-9" d="M420.63,278.47c7.64,0,14.97-3.28,20.37-9.12,5.4-5.84,8.44-13.76,8.44-22.01s-3.03-16.18-8.44-22.01c-5.4-5.84-12.73-9.12-20.37-9.12s-14.97,3.28-20.37,9.12c-5.4,5.84-8.44,13.76-8.44,22.01s3.03,16.18,8.44,22.01c5.4,5.84,12.73,9.12,20.37,9.12Z"/>
    </clipPath>
    <clipPath id="clippath-17">
      <path class="cls-9" d="M420.63,278.47c7.64,0,14.97-3.28,20.37-9.12,5.4-5.84,8.44-13.76,8.44-22.01s-3.03-16.18-8.44-22.01c-5.4-5.84-12.73-9.12-20.37-9.12s-14.97,3.28-20.37,9.12c-5.4,5.84-8.44,13.76-8.44,22.01s3.03,16.18,8.44,22.01c5.4,5.84,12.73,9.12,20.37,9.12Z"/>
    </clipPath>
    <clipPath id="clippath-18">
      <path class="cls-9" d="M420.63,278.47c7.64,0,14.97-3.28,20.37-9.12,5.4-5.84,8.44-13.76,8.44-22.01s-3.03-16.18-8.44-22.01c-5.4-5.84-12.73-9.12-20.37-9.12s-14.97,3.28-20.37,9.12c-5.4,5.84-8.44,13.76-8.44,22.01s3.03,16.18,8.44,22.01c5.4,5.84,12.73,9.12,20.37,9.12Z"/>
    </clipPath>
    <clipPath id="clippath-19">
      <path class="cls-9" d="M420.63,278.47c7.64,0,14.97-3.28,20.37-9.12,5.4-5.84,8.44-13.76,8.44-22.01s-3.03-16.18-8.44-22.01c-5.4-5.84-12.73-9.12-20.37-9.12s-14.97,3.28-20.37,9.12c-5.4,5.84-8.44,13.76-8.44,22.01s3.03,16.18,8.44,22.01c5.4,5.84,12.73,9.12,20.37,9.12Z"/>
    </clipPath>
    <clipPath id="clippath-20">
      <path class="cls-9" d="M420.63,278.47c7.64,0,14.97-3.28,20.37-9.12,5.4-5.84,8.44-13.76,8.44-22.01s-3.03-16.18-8.44-22.01c-5.4-5.84-12.73-9.12-20.37-9.12s-14.97,3.28-20.37,9.12c-5.4,5.84-8.44,13.76-8.44,22.01s3.03,16.18,8.44,22.01c5.4,5.84,12.73,9.12,20.37,9.12Z"/>
    </clipPath>
    <clipPath id="clippath-21">
      <path class="cls-9" d="M420.63,278.47c7.64,0,14.97-3.28,20.37-9.12,5.4-5.84,8.44-13.76,8.44-22.01s-3.03-16.18-8.44-22.01c-5.4-5.84-12.73-9.12-20.37-9.12s-14.97,3.28-20.37,9.12c-5.4,5.84-8.44,13.76-8.44,22.01s3.03,16.18,8.44,22.01c5.4,5.84,12.73,9.12,20.37,9.12Z"/>
    </clipPath>
    <clipPath id="clippath-22">
      <path class="cls-9" d="M420.63,278.47c7.64,0,14.97-3.28,20.37-9.12,5.4-5.84,8.44-13.76,8.44-22.01s-3.03-16.18-8.44-22.01c-5.4-5.84-12.73-9.12-20.37-9.12s-14.97,3.28-20.37,9.12c-5.4,5.84-8.44,13.76-8.44,22.01s3.03,16.18,8.44,22.01c5.4,5.84,12.73,9.12,20.37,9.12Z"/>
    </clipPath>
    <clipPath id="clippath-23">
      <path class="cls-9" d="M420.63,278.47c7.64,0,14.97-3.28,20.37-9.12,5.4-5.84,8.44-13.76,8.44-22.01s-3.03-16.18-8.44-22.01c-5.4-5.84-12.73-9.12-20.37-9.12s-14.97,3.28-20.37,9.12c-5.4,5.84-8.44,13.76-8.44,22.01s3.03,16.18,8.44,22.01c5.4,5.84,12.73,9.12,20.37,9.12Z"/>
    </clipPath>
    <clipPath id="clippath-24">
      <path class="cls-9" d="M420.63,278.47c7.64,0,14.97-3.28,20.37-9.12,5.4-5.84,8.44-13.76,8.44-22.01s-3.03-16.18-8.44-22.01c-5.4-5.84-12.73-9.12-20.37-9.12s-14.97,3.28-20.37,9.12c-5.4,5.84-8.44,13.76-8.44,22.01s3.03,16.18,8.44,22.01c5.4,5.84,12.73,9.12,20.37,9.12Z"/>
    </clipPath>
    <clipPath id="clippath-25">
      <path class="cls-9" d="M420.63,278.47c7.64,0,14.97-3.28,20.37-9.12,5.4-5.84,8.44-13.76,8.44-22.01s-3.03-16.18-8.44-22.01c-5.4-5.84-12.73-9.12-20.37-9.12s-14.97,3.28-20.37,9.12c-5.4,5.84-8.44,13.76-8.44,22.01s3.03,16.18,8.44,22.01c5.4,5.84,12.73,9.12,20.37,9.12Z"/>
    </clipPath>
  </defs>
  <polyline class="cls-35" points="113.5 276.23 113.5 238.96 141.99 238.96"/>
  <polyline class="cls-35" points="283.56 388.48 244.47 388.48 244.47 335.6"/>
  <polyline class="cls-35" points="226.55 144.44 283.56 144.44 283.56 178.85"/>
  <polyline class="cls-35" points="435.28 290.42 435.28 325.42 376.63 325.42"/>
  <g>
    <g>
      <path class="cls-12" d="M126.94,179.35v-7.62c0-5.22,4.24-9.46,9.46-9.46h271.44c5.22,0,9.46,4.24,9.46,9.46v7.62H126.94Z"/>
      <path class="cls-14" d="M407.84,162.77c4.95,0,8.96,4.01,8.96,8.96v7.12H127.44v-7.12c0-4.95,4.01-8.96,8.96-8.96h271.44M407.84,161.77H136.4c-5.49,0-9.96,4.47-9.96,9.96v8.12h291.36v-8.12c0-5.49-4.47-9.96-9.96-9.96h0Z"/>
    </g>
    <g>
      <path class="cls-16" d="M136.4,352.91c-5.22,0-9.46-4.24-9.46-9.46v-165.1h290.36v165.1c0,5.22-4.24,9.46-9.46,9.46H136.4Z"/>
      <path class="cls-14" d="M416.8,178.85v164.6c0,4.95-4.01,8.96-8.96,8.96H136.4c-4.95,0-8.96-4.01-8.96-8.96v-164.6h289.36M417.8,177.85H126.44v165.6c0,5.49,4.47,9.96,9.96,9.96h271.44c5.49,0,9.96-4.47,9.96-9.96v-165.6h0Z"/>
    </g>
    <circle class="cls-14" cx="389.42" cy="171.09" r="2.73"/>
    <circle class="cls-14" cx="397.26" cy="171.09" r="2.73"/>
    <circle class="cls-14" cx="405.1" cy="171.09" r="2.73"/>
  </g>
  <rect class="cls-12" x="73.17" y="276.23" width="87.86" height="87.86" rx="10.45" ry="10.45"/>
  <g>
    <path id="path1948" class="cls-4" d="M113.67,287.9c-2.63.01-5.14.24-7.35.63-6.51,1.15-7.69,3.56-7.69,8v5.87h15.39v1.96h-21.16c-4.47,0-8.39,2.69-9.61,7.8-1.41,5.86-1.48,9.52,0,15.64,1.09,4.56,3.71,7.8,8.18,7.8h5.29v-7.03c0-5.08,4.39-9.56,9.61-9.56h15.37c4.28,0,7.69-3.52,7.69-7.82v-14.65c0-4.17-3.52-7.3-7.69-8-2.64-.44-5.39-.64-8.02-.63ZM105.35,292.62c1.59,0,2.89,1.32,2.89,2.94,0,1.62-1.3,2.92-2.89,2.92-1.6,0-2.89-1.31-2.89-2.92s1.29-2.94,2.89-2.94Z"/>
    <path id="path1950" class="cls-14" d="M131.3,304.35v6.83c0,5.3-4.49,9.76-9.61,9.76h-15.37c-4.21,0-7.69,3.6-7.69,7.82v14.65c0,4.17,3.63,6.62,7.69,7.82,4.87,1.43,9.54,1.69,15.37,0,3.87-1.12,7.69-3.38,7.69-7.82v-5.87h-15.37v-1.96h23.07c4.47,0,6.14-3.12,7.69-7.8,1.61-4.82,1.54-9.46,0-15.64-1.11-4.45-3.22-7.8-7.69-7.8h-5.78ZM122.66,341.46c1.6,0,2.89,1.31,2.89,2.92s-1.29,2.94-2.89,2.94-2.89-1.32-2.89-2.94,1.3-2.92,2.89-2.92Z"/>
  </g>
  <rect class="cls-12" x="378.68" y="200.55" width="91.75" height="91.75" rx="10.91" ry="10.91"/>
  <rect class="cls-7" x="141.99" y="107.59" width="91.26" height="91.26" rx="10.85" ry="10.85"/>
  <rect class="cls-7" x="288.78" y="344.55" width="87.86" height="87.86" rx="10.45" ry="10.45"/>
  <path class="cls-14" d="M362.12,344.55c5.77,0,10.45,4.68,10.45,10.45v66.96c0,5.77-4.68,10.45-10.45,10.45h-66.96c-5.77,0-10.45-4.68-10.45-10.45v-66.96c0-5.77,4.68-10.45,10.45-10.45h66.96M362.12,343.55h-66.96c-6.31,0-11.45,5.14-11.45,11.45v66.96c0,6.31,5.14,11.45,11.45,11.45h66.96c6.31,0,11.45-5.14,11.45-11.45v-66.96c0-6.31-5.14-11.45-11.45-11.45h0Z"/>
  <path class="cls-14" d="M146.98,276.29c5.77,0,10.45,4.68,10.45,10.45v66.96c0,5.77-4.68,10.45-10.45,10.45h-66.96c-5.77,0-10.45-4.68-10.45-10.45v-66.96c0-5.77,4.68-10.45,10.45-10.45h66.96M146.98,275.29h-66.96c-6.31,0-11.45,5.14-11.45,11.45v66.96c0,6.31,5.14,11.45,11.45,11.45h66.96c6.31,0,11.45-5.14,11.45-11.45v-66.96c0-6.31-5.14-11.45-11.45-11.45h0Z"/>
  <path class="cls-14" d="M453.55,202.56c5.77,0,10.45,4.68,10.45,10.45v66.96c0,5.77-4.68,10.45-10.45,10.45h-66.96c-5.77,0-10.45-4.68-10.45-10.45v-66.96c0-5.77,4.68-10.45,10.45-10.45h66.96M453.55,201.56h-66.96c-6.31,0-11.45,5.14-11.45,11.45v66.96c0,6.31,5.14,11.45,11.45,11.45h66.96c6.31,0,11.45-5.14,11.45-11.45v-66.96c0-6.31-5.14-11.45-11.45-11.45h0Z"/>
  <path class="cls-14" d="M216.1,109.11c5.77,0,10.45,4.68,10.45,10.45v66.96c0,5.77-4.68,10.45-10.45,10.45h-66.96c-5.77,0-10.45-4.68-10.45-10.45v-66.96c0-5.77,4.68-10.45,10.45-10.45h66.96M216.1,108.11h-66.96c-6.31,0-11.45,5.14-11.45,11.45v66.96c0,6.31,5.14,11.45,11.45,11.45h66.96c6.31,0,11.45-5.14,11.45-11.45v-66.96c0-6.31-5.14-11.45-11.45-11.45h0Z"/>
  <g>
    <path id="H" class="cls-6" d="M351.69,361.18c.03.72-.15,1.44-.52,2.06s-.92,1.11-1.57,1.42-1.38.41-2.09.3c-.71-.11-1.37-.43-1.9-.92-.53-.49-.9-1.13-1.07-1.83-.17-.7-.13-1.44.12-2.12.25-.68.69-1.27,1.27-1.7.58-.43,1.27-.67,1.99-.7.96-.04,1.9.3,2.61.96s1.13,1.57,1.17,2.54h0Z"/>
    <g>
      <path id="I" class="cls-13" d="M330.5,404.27c-9.68,0-18.12-3.54-22.51-8.79,1.63,4.71,4.68,8.79,8.71,11.68,4.04,2.89,8.86,4.44,13.8,4.44s9.77-1.55,13.8-4.44c4.03-2.89,7.08-6.97,8.71-11.68-4.4,5.25-12.85,8.79-22.52,8.79Z"/>
      <path id="J" class="cls-13" d="M330.5,370.13c9.68,0,18.13,3.55,22.51,8.79-1.63-4.71-4.68-8.79-8.71-11.68s-8.86-4.44-13.8-4.44-9.77,1.55-13.8,4.44c-4.03,2.89-7.08,6.97-8.71,11.68,4.4-5.24,12.85-8.79,22.52-8.79Z"/>
    </g>
    <path id="K" class="cls-5" d="M317.22,414.47c.04.91-.19,1.82-.66,2.6-.47.78-1.16,1.41-1.98,1.79s-1.73.52-2.63.38-1.73-.54-2.4-1.16-1.14-1.42-1.35-2.31c-.21-.89-.16-1.82.15-2.68.31-.86.87-1.6,1.6-2.14.73-.54,1.61-.85,2.51-.88,1.21-.05,2.39.39,3.29,1.21.89.83,1.42,1.98,1.48,3.2h0Z"/>
    <path id="L" class="cls-11" d="M309.09,368.95c-.53.02-1.06-.11-1.51-.39s-.82-.69-1.04-1.17-.3-1.03-.22-1.56.32-1.03.68-1.42.83-.67,1.34-.8,1.06-.1,1.56.09c.5.18.93.51,1.24.95.76,1.05.68,2.48-.19,3.43-.48.53-1.15.84-1.86.88h0Z"/>
  </g>
  <g id="g4543">
    <ellipse id="path4395" class="cls-15" cx="420.84" cy="247.55" rx="30.35" ry="32.8"/>
    <g id="g4391">
      <g id="patch_2" data-name="patch 2">
        <path id="path329" class="cls-10" d="M420.63,278.47c7.64,0,14.97-3.28,20.37-9.12,5.4-5.84,8.44-13.76,8.44-22.01s-3.03-16.18-8.44-22.01c-5.4-5.84-12.73-9.12-20.37-9.12s-14.97,3.28-20.37,9.12c-5.4,5.84-8.44,13.76-8.44,22.01s3.03,16.18,8.44,22.01c5.4,5.84,12.73,9.12,20.37,9.12Z"/>
      </g>
    </g>
    <g id="matplotlib.axis_1" data-name="matplotlib.axis 1">
      <g id="xtick_1" data-name="xtick 1">
        <g id="line2d_1" data-name="line2d 1">
          <g class="cls-47">
            <path id="path334" class="cls-29" d="M420.63,247.34h28.8"/>
          </g>
        </g>
      </g>
      <g id="xtick_2" data-name="xtick 2">
        <g id="line2d_2" data-name="line2d 2">
          <g class="cls-39">
            <path id="path338" class="cls-29" d="M420.63,247.34l20.37-22.01"/>
          </g>
        </g>
      </g>
      <g id="xtick_3" data-name="xtick 3">
        <g id="line2d_3" data-name="line2d 3">
          <g class="cls-19">
            <path id="path342" class="cls-29" d="M420.63,247.34v-31.13"/>
          </g>
        </g>
      </g>
      <g id="xtick_4" data-name="xtick 4">
        <g id="line2d_4" data-name="line2d 4">
          <g class="cls-49">
            <path id="path346" class="cls-29" d="M420.63,247.34l-20.37-22.01"/>
          </g>
        </g>
      </g>
      <g id="xtick_5" data-name="xtick 5">
        <g id="line2d_5" data-name="line2d 5">
          <g class="cls-40">
            <path id="path350" class="cls-29" d="M420.63,247.34h-28.8"/>
          </g>
        </g>
      </g>
      <g id="xtick_6" data-name="xtick 6">
        <g id="line2d_6" data-name="line2d 6">
          <g class="cls-54">
            <path id="path354" class="cls-29" d="M420.63,247.34l-20.37,22.01"/>
          </g>
        </g>
      </g>
      <g id="xtick_7" data-name="xtick 7">
        <g id="line2d_7" data-name="line2d 7">
          <g class="cls-33">
            <path id="path358" class="cls-29" d="M420.63,247.34v31.13"/>
          </g>
        </g>
      </g>
      <g id="xtick_8" data-name="xtick 8">
        <g id="line2d_8" data-name="line2d 8">
          <g class="cls-37">
            <path id="path362" class="cls-29" d="M420.63,247.34l20.37,22.01"/>
          </g>
        </g>
      </g>
    </g>
    <g id="matplotlib.axis_2" data-name="matplotlib.axis 2">
      <g id="ytick_1" data-name="ytick 1">
        <g id="line2d_9" data-name="line2d 9">
          <g class="cls-50">
            <path id="path367" class="cls-25" d="M423.83,247.34l-.1-.84-.28-.79-.45-.69-.59-.55-.7-.38-.76-.19h-.78s-.75.23-.75.23l-.68.41-.57.58-.42.71-.25.8-.07.84.12.83.3.78.47.67.61.53.71.36.77.16.78-.04.75-.25.67-.43.55-.6.4-.72.23-.81.05-.6h0"/>
          </g>
        </g>
      </g>
      <g id="ytick_2" data-name="ytick 2">
        <g id="line2d_10" data-name="line2d 10">
          <g class="cls-44">
            <path id="path371" class="cls-25" d="M430.23,247.34l-.09-1.44-.28-1.42-.46-1.36-.63-1.28-.79-1.17-.93-1.04-1.06-.89-1.16-.72-1.24-.54-1.3-.35-1.33-.15-1.34.05-1.32.25-1.27.45-1.2.63-1.11.81-1,.97-.86,1.11-.71,1.23-.54,1.32-.37,1.39-.19,1.43v1.45l.19,1.43.37,1.39.54,1.32.71,1.23.86,1.11,1,.97,1.11.81,1.2.63,1.27.45,1.32.25,1.34.05,1.33-.15,1.3-.35,1.24-.54,1.16-.72,1.06-.89.93-1.04.79-1.17.63-1.28.46-1.36.28-1.42.09-1.44h0"/>
          </g>
        </g>
      </g>
      <g id="ytick_3" data-name="ytick 3">
        <g id="line2d_11" data-name="line2d 11">
          <g class="cls-55">
            <path id="path375" class="cls-25" d="M436.63,247.34l-.09-1.81-.26-1.79-.43-1.75-.6-1.69-.76-1.61-.91-1.52-1.05-1.41-1.18-1.28-1.3-1.14-1.4-.99-1.49-.82-1.56-.65-1.62-.47-1.65-.28-1.67-.09-1.67.09-1.65.28-1.62.47-1.56.65-1.49.82-1.4.99-1.3,1.14-1.18,1.28-1.05,1.41-.91,1.52-.76,1.61-.6,1.69-.43,1.75-.26,1.79-.09,1.81.09,1.81.26,1.79.43,1.75.6,1.69.76,1.61.91,1.52,1.05,1.41,1.18,1.28,1.3,1.14,1.4.99,1.49.82,1.56.65,1.62.47,1.65.28,1.67.09,1.67-.09,1.65-.28,1.62-.47,1.56-.65,1.49-.82,1.4-.99,1.3-1.14,1.18-1.28,1.05-1.41.91-1.52.76-1.61.6-1.69.43-1.75.26-1.79.09-1.81h0"/>
          </g>
        </g>
      </g>
      <g id="ytick_4" data-name="ytick 4">
        <g id="line2d_12" data-name="line2d 12">
          <g class="cls-2">
            <path id="path379" class="cls-25" d="M443.03,247.34l-.12-2.53-.37-2.5-.61-2.45-.84-2.37-1.06-2.26-1.28-2.13-1.48-1.97-1.66-1.79-1.82-1.6-1.97-1.38-2.09-1.15-2.19-.91-2.27-.66-2.32-.4-2.34-.13-2.34.13-2.32.4-2.27.66-2.19.91-2.09,1.15-1.97,1.38-1.82,1.6-1.66,1.79-1.48,1.97-1.28,2.13-1.06,2.26-.84,2.37-.61,2.45-.37,2.5-.12,2.53.12,2.53.37,2.5.61,2.45.84,2.37,1.06,2.26,1.28,2.13,1.48,1.97,1.66,1.79,1.82,1.6,1.97,1.38,2.09,1.15,2.19.91,2.27.66,2.32.4,2.34.13,2.34-.13,2.32-.4,2.27-.66,2.19-.91,2.09-1.15,1.97-1.38,1.82-1.6,1.66-1.79,1.48-1.97,1.28-2.13,1.06-2.26.84-2.37.61-2.45.37-2.5.12-2.53h0"/>
          </g>
        </g>
      </g>
    </g>
    <g id="patch_3" data-name="patch 3" class="cls-22">
      <g class="cls-41">
        <path id="path382" class="cls-30" d="M420.63,247.34h0l.06-.02.06-.02.06-.02.06-.02.06-.02.06-.02.06-.02.06-.02.06-.02.06-.02.06-.02.06-.02.06-.02.06-.02.06-.02.06-.02.06-.02.06-.02.06-.02.06-.02.06-.02.06-.02.06-.02.06-.02.06-.02.06-.02.06-.02.06-.02.06-.02.06-.02.06-.02.06-.02.06-.02.06-.02.06-.02.06-.02.06-.02.06-.02.06-.02.06-.02.06-.02.06-.02.06-.02.06-.02.06-.02.06-.02.06-.02.06-.02.06-.02.06-.02.06-.02.06-.02.06-.02.06-.02.06-.02.06-.02.06-.02.06-.02.06-.02.06-.02.06-.02.06-.02.06-.02.06-.02.06-.02.06-.02.06-.02.06-.02.06-.02.06-.02.06-.02.06-.02.06-.02.06-.02.06-.02.06-.02.06-.02.06-.02.06-.02.06-.02.06-.02.06-.02.06-.02.06-.02.06-.02.06-.02.06-.02.06-.02.06-.02.06-.02.06-.02.06-.02.06-.02.06-.02.06-.02.06-.02.06-.02.06-.02.06-.02.06-.02v.02s.01.02.01.02v.02s.01.02.01.02v.02s.01.02.01.02v.02s.01.02.01.02v.02s.01.02.01.02v.02s.01.02.01.02v.02s.01.02.01.02v.02s.01.02.01.02v.02s.01.02.01.02v.02s.01.02.01.02v.02s0,.02,0,.02v.02s0,.02,0,.02v.02s0,.02,0,.02v.02s0,.02,0,.02v.02s0,.02,0,.02v.02s0,.02,0,.02v.02s0,.02,0,.02v.02s0,.02,0,.02v.02s0,.02,0,.02v.02s0,.02,0,.02v.02s0,.02,0,.02v.02s0,.02,0,.02v.02s0,.02,0,.02v.02s0,.02,0,.02v.02s0,.02,0,.02v.02s0,.02,0,.02v.02s0,.02,0,.02v.02s0,.02,0,.02v.02s0,.02,0,.02v.02s0,.02,0,.02v.02s0,.02,0,.02v.02s0,.02,0,.02v.02s0,.02,0,.02v.02s0,.02,0,.02v.02s0,.02,0,.02v.02s0,.02,0,.02v.02s0,.02,0,.02v.02s0,.02,0,.02v.02s0,.02,0,.02v.02s0,.02,0,.02v.02s0,.02,0,.02v.02s0,.02,0,.02v.02s0,.02,0,.02v.02s0,.02,0,.02v.02s0,.02,0,.02v.02s0,.02,0,.02v.02s0,.02,0,.02v.02s0,.02,0,.02v.02s0,.02,0,.02v.02s0,.02,0,.02h-6.4Z"/>
      </g>
    </g>
    <g id="patch_4" data-name="patch 4" class="cls-22">
      <g class="cls-20">
        <path id="path385" class="cls-26" d="M420.63,247.34h0l.07-.19.07-.19.07-.19.07-.19.07-.19.07-.19.07-.19.07-.19.07-.19.07-.19.07-.19.07-.19.07-.19.07-.19.07-.19.07-.19.07-.19.07-.19.07-.19.07-.19.07-.19.07-.19.07-.19.07-.19.07-.19.07-.19.07-.19.07-.19.07-.19.07-.19.07-.19.07-.19.07-.19.07-.19.07-.19.07-.19.07-.19.07-.19.07-.19.07-.19.07-.19.07-.19.07-.19.07-.19.07-.19.07-.19.07-.19.07-.19.07-.19.07-.19.07-.19.07-.19.07-.19.07-.19.07-.19.07-.19.07-.19.07-.19.07-.19.07-.19.07-.19.07-.19.07-.19.07-.19.07-.19.07-.19.07-.19.07-.19.07-.19.07-.19.07-.19.07-.19.07-.19.07-.19.07-.19.07-.19.07-.19.07-.19.07-.19.07-.19.07-.19.07-.19.07-.19.07-.19.07-.19.07-.19.07-.19.07-.19.07-.19.07-.19.07-.19.07-.19.07-.19.07-.19.07-.19.07-.19.07-.19.07-.19.07-.19.07-.19.06.02.06.02.06.02.06.02.06.02.06.02.06.02.06.02.06.02.06.02.06.02.06.03.06.03.06.03.06.03.06.03.06.03.06.03.06.03.06.03.05.03.05.03.05.03.05.03.05.03.05.03.05.03.05.03.05.03.05.03.05.03.05.03.05.03.05.03.05.03.05.03.05.03.05.03.05.03.05.03.05.03.05.03.05.03.05.03.05.03.05.03.05.03.05.03.05.03.05.03.05.03.05.03.05.03.05.03.05.03.05.03.05.03.05.03.05.03.05.03.05.03.05.03.05.03.05.03.05.03.05.03.05.04.05.04.05.04.05.04.05.04.05.04.05.04.05.04.05.04.05.04.05.04.05.04.05.04.05.04.05.04.05.04.05.04.05.04.05.04.05.04.05.04.05.04.05.04.05.04.05.04.05.04.05.04.05.04.05.04.05.04.05.04.05.04.05.04.05.04-.12.16-.12.16-.12.16-.12.16-.12.16-.12.16-.12.16-.12.16-.12.16-.12.16-.12.16-.12.16-.12.16-.12.16-.12.16-.12.16-.12.16-.12.16-.12.16-.12.16-.12.16-.12.16-.12.16-.12.16-.12.16-.12.16-.12.16-.12.16-.12.16-.12.16-.12.16-.12.16-.12.16-.12.16-.12.16-.12.16-.12.16-.12.16-.12.16-.12.16-.12.16-.12.16-.12.16-.12.16-.12.16-.12.16-.12.16-.12.16-.12.16-.12.16-.12.16-.12.16-.12.16-.12.16-.12.16-.12.16-.12.16-.12.16-.12.16-.12.16-.12.16-.12.16-.12.16-.12.16-.12.16-.12.16-.12.16-.12.16-.12.16-.12.16-.12.16-.12.16-.12.16-.12.16-.12.16-.12.16-.12.16-.12.16-.12.16-.12.16-.12.16-.12.16-.12.16-.12.16-.12.16-.12.16-.12.16-.12.16-.12.16-.12.16-.12.16-.12.16-.12.16-.12.16-.12.16-.12.16-.12.16-.12.16-.12.16-.12.16Z"/>
      </g>
    </g>
    <g id="patch_5" data-name="patch 5" class="cls-22">
      <g class="cls-52">
        <path id="path388" class="cls-31" d="M420.63,247.34h0l-.16-.21-.16-.21-.16-.21-.16-.21-.16-.21-.16-.21-.16-.21-.16-.21-.16-.21-.16-.21-.16-.21-.16-.21-.16-.21-.16-.21-.16-.21-.16-.21-.16-.21-.16-.21-.16-.21-.16-.21-.16-.21-.16-.21-.16-.21-.16-.21-.16-.21-.16-.21-.16-.21-.16-.21-.16-.21-.16-.21-.16-.21-.16-.21-.16-.21-.16-.21-.16-.21-.16-.21-.16-.21-.16-.21-.16-.21-.16-.21-.16-.21-.16-.21-.16-.21-.16-.21-.16-.21-.16-.21-.16-.21-.16-.21-.16-.21-.16-.21-.16-.21-.16-.21-.16-.21-.16-.21-.16-.21-.16-.21-.16-.21-.16-.21-.16-.21-.16-.21-.16-.21-.16-.21-.16-.21-.16-.21-.16-.21-.16-.21-.16-.21-.16-.21-.16-.21-.16-.21-.16-.21-.16-.21-.16-.21-.16-.21-.16-.21-.16-.21-.16-.21-.16-.21-.16-.21-.16-.21-.16-.21-.16-.21-.16-.21-.16-.21-.16-.21-.16-.21-.16-.21-.16-.21-.16-.21-.16-.21-.16-.21-.16-.21-.16-.21-.16-.21-.16-.21-.16-.21-.16-.21-.16-.21-.16-.21-.16-.21.09-.08.09-.08.09-.08.09-.08.09-.08.09-.08.09-.08.1-.08.1-.08.1-.08.1-.08.1-.08.1-.08.1-.08.1-.08.1-.08.1-.08.1-.08.1-.07.1-.07.1-.07.1-.07.1-.07.1-.07.1-.07.1-.07.1-.07.1-.07.1-.07.1-.07.1-.07.1-.07.1-.07.1-.07.1-.07.1-.07.1-.07.1-.06.11-.06.11-.06.11-.06.11-.06.11-.06.11-.06.11-.06.11-.06.11-.06.11-.06.11-.06.11-.06.11-.06.11-.06.11-.06.11-.06.11-.06.11-.05.11-.05.11-.05.11-.05.11-.05.11-.05.11-.05.11-.05.11-.05.11-.05.11-.05.11-.05.11-.05.11-.05.11-.05.11-.05.11-.05.11-.05.11-.04.11-.04.11-.04.11-.04.11-.04.11-.04.11-.04.11-.04.11-.04.12-.04.12-.04.12-.04.12-.04.12-.04.12-.04.12-.04.12-.04.12-.03.12-.03.12-.03.12-.03.12-.03.12-.03.12-.03.12-.03.12-.03.12-.03.06.27.06.27.06.27.06.27.06.27.06.27.06.27.06.27.06.27.06.27.06.27.06.27.06.27.06.27.06.27.06.27.06.27.06.27.06.27.06.27.06.27.06.27.06.27.06.27.06.27.06.27.06.27.06.27.06.27.06.27.06.27.06.27.06.27.06.27.06.27.06.27.06.27.06.27.06.27.06.27.06.27.06.27.06.27.06.27.06.27.06.27.06.27.06.27.06.27.06.27.06.27.06.27.06.27.06.27.06.27.06.27.06.27.06.27.06.27.06.27.06.27.06.27.06.27.06.27.06.27.06.27.06.27.06.27.06.27.06.27.06.27.06.27.06.27.06.27.06.27.06.27.06.27.06.27.06.27.06.27.06.27.06.27.06.27.06.27.06.27.06.27.06.27.06.27.06.27.06.27.06.27.06.27.06.27.06.27.06.27.06.27.06.27.06.27.06.27.06.27Z"/>
      </g>
    </g>
    <g id="patch_6" data-name="patch 6" class="cls-22">
      <g class="cls-32">
        <path id="path391" class="cls-27" d="M420.63,247.34h0l-.22.04-.22.04-.22.04-.22.04-.22.04-.22.04-.22.04-.22.04-.22.04-.22.04-.22.04-.22.04-.22.04-.22.04-.22.04-.22.04-.22.04-.22.04-.22.04-.22.04-.22.04-.22.04-.22.04-.22.04-.22.04-.22.04-.22.04-.22.04-.22.04-.22.04-.22.04-.22.04-.22.04-.22.04-.22.04-.22.04-.22.04-.22.04-.22.04-.22.04-.22.04-.22.04-.22.04-.22.04-.22.04-.22.04-.22.04-.22.04-.22.04-.22.04-.22.04-.22.04-.22.04-.22.04-.22.04-.22.04-.22.04-.22.04-.22.04-.22.04-.22.04-.22.04-.22.04-.22.04-.22.04-.22.04-.22.04-.22.04-.22.04-.22.04-.22.04-.22.04-.22.04-.22.04-.22.04-.22.04-.22.04-.22.04-.22.04-.22.04-.22.04-.22.04-.22.04-.22.04-.22.04-.22.04-.22.04-.22.04-.22.04-.22.04-.22.04-.22.04-.22.04-.22.04-.22.04-.22.04-.22.04-.22.04-.22.04-.22.04-.02-.15-.02-.15-.02-.15-.02-.15-.02-.15-.02-.15-.02-.15-.02-.15-.02-.15-.02-.15-.02-.15-.02-.15v-.15s-.03-.15-.03-.15v-.15s-.02-.15-.02-.15v-.15s-.02-.15-.02-.15v-.15s-.02-.15-.02-.15v-.15s-.01-.15-.01-.15v-.15s0-.15,0-.15v-.15s0-.15,0-.15v-.15s0-.15,0-.15v-.15s0-.15,0-.15v-.15s0-.15,0-.15v-.15s0-.15,0-.15v-.15s.01-.15.01-.15v-.15s.01-.15.01-.15v-.15s.02-.15.02-.15v-.15s.02-.15.02-.15v-.15s.03-.15.03-.15v-.15s.03-.15.03-.15l.02-.15.02-.15.02-.15.02-.15.02-.15.02-.15.02-.15.02-.15.02-.15.02-.15.02-.15.03-.15.03-.15.03-.15.03-.15.03-.15.03-.15.03-.15.03-.15.03-.15.03-.15.03-.15.03-.15.04-.15.04-.15.04-.15.04-.15.04-.15.04-.15.04-.15.04-.15.04-.15.04-.14.04-.14.05-.14.05-.14.05-.14.05-.14.05-.14.05-.14.05-.14.05-.14.05-.14.05-.14.05-.14.05-.14.06-.14.06-.14.06-.14.06-.14.06-.14.06-.14.06-.14.06-.14.2.11.2.11.2.11.2.11.2.11.2.11.2.11.2.11.2.11.2.11.2.11.2.11.2.11.2.11.2.11.2.11.2.11.2.11.2.11.2.11.2.11.2.11.2.11.2.11.2.11.2.11.2.11.2.11.2.11.2.11.2.11.2.11.2.11.2.11.2.11.2.11.2.11.2.11.2.11.2.11.2.11.2.11.2.11.2.11.2.11.2.11.2.11.2.11.2.11.2.11.2.11.2.11.2.11.2.11.2.11.2.11.2.11.2.11.2.11.2.11.2.11.2.11.2.11.2.11.2.11.2.11.2.11.2.11.2.11.2.11.2.11.2.11.2.11.2.11.2.11.2.11.2.11.2.11.2.11.2.11.2.11.2.11.2.11.2.11.2.11.2.11.2.11.2.11.2.11.2.11.2.11.2.11.2.11.2.11.2.11.2.11.2.11.2.11.2.11.2.1Z"/>
      </g>
    </g>
    <g id="patch_7" data-name="patch 7">
      <g class="cls-3">
        <path id="path394" class="cls-24" d="M420.63,247.34h0l-.11.08-.11.08-.11.08-.11.08-.11.08-.11.08-.11.08-.11.08-.11.08-.11.08-.11.08-.11.08-.11.08-.11.08-.11.08-.11.08-.11.08-.11.08-.11.08-.11.08-.11.08-.11.08-.11.08-.11.08-.11.08-.11.08-.11.08-.11.08-.11.08-.11.08-.11.08-.11.08-.11.08-.11.08-.11.08-.11.08-.11.08-.11.08-.11.08-.11.08-.11.08-.11.08-.11.08-.11.08-.11.08-.11.08-.11.08-.11.08-.11.08-.11.08-.11.08-.11.08-.11.08-.11.08-.11.08-.11.08-.11.08-.11.08-.11.08-.11.08-.11.08-.11.08-.11.08-.11.08-.11.08-.11.08-.11.08-.11.08-.11.08-.11.08-.11.08-.11.08-.11.08-.11.08-.11.08-.11.08-.11.08-.11.08-.11.08-.11.08-.11.08-.11.08-.11.08-.11.08-.11.08-.11.08-.11.08-.11.08-.11.08-.11.08-.11.08-.11.08-.11.08-.11.08-.11.08-.11.08-.11.08-.11.08-.11.08-.11.08v-.02s-.02-.02-.02-.02v-.02s-.02-.02-.02-.02v-.02s-.02-.02-.02-.02v-.02s-.02-.02-.02-.02v-.02s-.02-.02-.02-.02v-.02s-.02-.02-.02-.02v-.02s-.02-.02-.02-.02v-.02s-.02-.02-.02-.02v-.02s-.02-.02-.02-.02v-.02s-.02-.02-.02-.02v-.02s-.02-.02-.02-.02v-.02s-.02-.02-.02-.02v-.02s-.02-.02-.02-.02v-.02s-.02-.02-.02-.02v-.02s-.02-.02-.02-.02v-.02s-.02-.02-.02-.02v-.02s-.02-.02-.02-.02v-.02s-.02-.02-.02-.02v-.02s-.02-.02-.02-.02v-.02s-.02-.02-.02-.02v-.02s-.02-.02-.02-.02v-.02s-.02-.02-.02-.02v-.02s-.02-.02-.02-.02v-.02s-.02-.02-.02-.02v-.02s-.02-.02-.02-.02v-.02s-.02-.02-.02-.02v-.02s-.02-.02-.02-.02v-.02s-.02-.02-.02-.02v-.02s-.02-.02-.02-.02v-.02s-.02-.02-.02-.02v-.02s-.02-.02-.02-.02v-.02s-.02-.02-.02-.02v-.02s-.02-.02-.02-.02v-.02s-.02-.02-.02-.02v-.02s-.02-.02-.02-.02v-.02s-.02-.02-.02-.02v-.02s-.02-.02-.02-.02v-.02s-.02-.02-.02-.02v-.02s-.02-.02-.02-.02v-.02s-.02-.02-.02-.02v-.02s-.02-.02-.02-.02v-.02s-.02-.02-.02-.02v-.02s-.02-.02-.02-.02v-.02s-.02-.02-.02-.02v-.02s-.02-.02-.02-.02v-.02s-.02-.02-.02-.02v-.02s-.02-.02-.02-.02v-.02s-.02-.02-.02-.02v-.02s-.02-.02-.02-.02v-.02s-.02-.02-.02-.02l.12-.06.12-.06.12-.06.12-.06.12-.06.12-.06.12-.06.12-.06.12-.06.12-.06.12-.06.12-.06.12-.06.12-.06.12-.06.12-.06.12-.06.12-.06.12-.06.12-.06.12-.06.12-.06.12-.06.12-.06.12-.06.12-.06.12-.06.12-.06.12-.06.12-.06.12-.06.12-.06.12-.06.12-.06.12-.06.12-.06.12-.06.12-.06.12-.06.12-.06.12-.06.12-.06.12-.06.12-.06.12-.06.12-.06.12-.06.12-.06.12-.06.12-.06.12-.06.12-.06.12-.06.12-.06.12-.06.12-.06.12-.06.12-.06.12-.06.12-.06.12-.06.12-.06.12-.06.12-.06.12-.06.12-.06.12-.06.12-.06.12-.06.12-.06.12-.06.12-.06.12-.06.12-.06.12-.06.12-.06.12-.06.12-.06.12-.06.12-.06.12-.06.12-.06.12-.06.12-.06.12-.06.12-.06.12-.06.12-.06.12-.06.12-.06.12-.06.12-.06.12-.06.12-.06.12-.06.12-.06.12-.06.12-.06.12-.06.12-.06Z"/>
      </g>
    </g>
    <g id="patch_8" data-name="patch 8" class="cls-22">
      <g class="cls-53">
        <path id="path397" class="cls-23" d="M420.63,247.34h0l.03.17.03.17.03.17.03.17.03.17.03.17.03.17.03.17.03.17.03.17.03.17.03.17.03.17.03.17.03.17.03.17.03.17.03.17.03.17.03.17.03.17.03.17.03.17.03.17.03.17.03.17.03.17.03.17.03.17.03.17.03.17.03.17.03.17.03.17.03.17.03.17.03.17.03.17.03.17.03.17.03.17.03.17.03.17.03.17.03.17.03.17.03.17.03.17.03.17.03.17.03.17.03.17.03.17.03.17.03.17.03.17.03.17.03.17.03.17.03.17.03.17.03.17.03.17.03.17.03.17.03.17.03.17.03.17.03.17.03.17.03.17.03.17.03.17.03.17.03.17.03.17.03.17.03.17.03.17.03.17.03.17.03.17.03.17.03.17.03.17.03.17.03.17.03.17.03.17.03.17.03.17.03.17.03.17.03.17.03.17.03.17.03.17.03.17.03.17.03.17h-.06s-.06.02-.06.02h-.06s-.06.02-.06.02h-.06s-.06.02-.06.02h-.06s-.06.02-.06.02h-.06s-.06.02-.06.02h-.06s-.06.02-.06.02h-.06s-.06.02-.06.02h-.06s-.06.01-.06.01h-.06s-.06.01-.06.01h-.06s-.06.01-.06.01h-.06s-.06.01-.06.01h-.06s-.06.01-.06.01h-.06s-.06,0-.06,0h-.06s-.06,0-.06,0h-.06s-.06,0-.06,0h-.06s-.06,0-.06,0h-.06s-.06,0-.06,0h-.06s-.06,0-.06,0h-.06s-.06,0-.06,0h-.06s-.06,0-.06,0h-.06s-.06,0-.06,0h-.06s-.06,0-.06,0h-.06s-.06,0-.06,0h-.06s-.06,0-.06,0h-.06s-.06,0-.06,0h-.06s-.06,0-.06,0h-.06s-.06,0-.06,0h-.06s-.06,0-.06,0h-.06s-.06,0-.06,0h-.06s-.06,0-.06,0h-.06s-.06,0-.06,0h-.06s-.06-.01-.06-.01h-.06s-.06-.01-.06-.01h-.06s-.06-.01-.06-.01h-.06s-.06-.01-.06-.01h-.06s-.06-.01-.06-.01h-.06s-.06-.02-.06-.02h-.06s-.06-.02-.06-.02h-.06s-.06-.02-.06-.02h-.06s-.06-.02-.06-.02h-.06s-.06-.02-.06-.02h-.06s-.06-.02-.06-.02h-.06s-.06-.02-.06-.02h-.06s-.06-.02-.06-.02h-.06s-.06-.02-.06-.02h-.06s-.06-.03-.06-.03h-.06s-.06-.03-.06-.03h-.06s-.06-.03-.06-.03h-.06s-.06-.03-.06-.03h-.06s-.06-.03-.06-.03l.04-.17.04-.17.04-.17.04-.17.04-.17.04-.17.04-.17.04-.17.04-.17.04-.17.04-.17.04-.17.04-.17.04-.17.04-.17.04-.17.04-.17.04-.17.04-.17.04-.17.04-.17.04-.17.04-.17.04-.17.04-.17.04-.17.04-.17.04-.17.04-.17.04-.17.04-.17.04-.17.04-.17.04-.17.04-.17.04-.17.04-.17.04-.17.04-.17.04-.17.04-.17.04-.17.04-.17.04-.17.04-.17.04-.17.04-.17.04-.17.04-.17.04-.17.04-.17.04-.17.04-.17.04-.17.04-.17.04-.17.04-.17.04-.17.04-.17.04-.17.04-.17.04-.17.04-.17.04-.17.04-.17.04-.17.04-.17.04-.17.04-.17.04-.17.04-.17.04-.17.04-.17.04-.17.04-.17.04-.17.04-.17.04-.17.04-.17.04-.17.04-.17.04-.17.04-.17.04-.17.04-.17.04-.17.04-.17.04-.17.04-.17.04-.17.04-.17.04-.17.04-.17.04-.17.04-.17.04-.17.04-.17.04-.17.04-.17.04-.17Z"/>
      </g>
    </g>
    <g id="patch_9" data-name="patch 9" class="cls-22">
      <g class="cls-51">
        <path id="path400" class="cls-31" d="M420.63,247.34h0l.2.17.2.17.2.17.2.17.2.17.2.17.2.17.2.17.2.17.2.17.2.17.2.17.2.17.2.17.2.17.2.17.2.17.2.17.2.17.2.17.2.17.2.17.2.17.2.17.2.17.2.17.2.17.2.17.2.17.2.17.2.17.2.17.2.17.2.17.2.17.2.17.2.17.2.17.2.17.2.17.2.17.2.17.2.17.2.17.2.17.2.17.2.17.2.17.2.17.2.17.2.17.2.17.2.17.2.17.2.17.2.17.2.17.2.17.2.17.2.17.2.17.2.17.2.17.2.17.2.17.2.17.2.17.2.17.2.17.2.17.2.17.2.17.2.17.2.17.2.17.2.17.2.17.2.17.2.17.2.17.2.17.2.17.2.17.2.17.2.17.2.17.2.17.2.17.2.17.2.17.2.17.2.17.2.17.2.17.2.17.2.17.2.17.2.17.2.17.2.17-.04.05-.04.05-.04.05-.04.05-.04.05-.04.05-.04.05-.04.05-.04.05-.04.05-.04.05-.04.05-.04.05-.04.05-.04.05-.04.05-.04.05-.04.05-.04.05-.04.05-.04.05-.04.05-.04.05-.04.05-.04.05-.04.05-.04.05-.04.05-.04.05-.04.05-.04.05-.04.05-.04.05-.04.05-.04.05-.04.05-.04.05-.04.05-.04.05-.04.05-.04.05-.04.05-.04.05-.04.05-.04.05-.04.05-.04.05-.04.05-.04.05-.04.05-.04.05-.04.05-.04.05-.04.05-.04.05-.04.05-.04.05-.04.05-.04.05-.04.05-.04.05-.04.05-.04.04-.04.04-.04.04-.04.04-.04.04-.04.04-.04.04-.04.04-.04.04-.04.04-.04.04-.04.04-.04.04-.04.04-.05.04-.05.04-.05.04-.05.04-.05.04-.05.04-.05.04-.05.04-.05.04-.05.04-.05.04-.05.04-.05.04-.05.04-.05.04-.05.04-.05.04-.05.04-.05.04-.05.04-.05.04-.05.04-.05.04-.05.04-.16-.22-.16-.22-.16-.22-.16-.22-.16-.22-.16-.22-.16-.22-.16-.22-.16-.22-.16-.22-.16-.22-.16-.22-.16-.22-.16-.22-.16-.22-.16-.22-.16-.22-.16-.22-.16-.22-.16-.22-.16-.22-.16-.22-.16-.22-.16-.22-.16-.22-.16-.22-.16-.22-.16-.22-.16-.22-.16-.22-.16-.22-.16-.22-.16-.22-.16-.22-.16-.22-.16-.22-.16-.22-.16-.22-.16-.22-.16-.22-.16-.22-.16-.22-.16-.22-.16-.22-.16-.22-.16-.22-.16-.22-.16-.22-.16-.22-.16-.22-.16-.22-.16-.22-.16-.22-.16-.22-.16-.22-.16-.22-.16-.22-.16-.22-.16-.22-.16-.22-.16-.22-.16-.22-.16-.22-.16-.22-.16-.22-.16-.22-.16-.22-.16-.22-.16-.22-.16-.22-.16-.22-.16-.22-.16-.22-.16-.22-.16-.22-.16-.22-.16-.22-.16-.22-.16-.22-.16-.22-.16-.22-.16-.22-.16-.22-.16-.22-.16-.22-.16-.22-.16-.22-.16-.22-.16-.22-.16-.22-.16-.22-.16-.22-.16-.22-.16-.22-.16-.22-.16-.22-.16-.22-.16-.22-.16-.22-.16-.22Z"/>
      </g>
    </g>
    <g id="patch_10" data-name="patch 10">
      <path id="path403" class="cls-34" d="M420.63,278.47c7.64,0,14.97-3.28,20.37-9.12,5.4-5.84,8.44-13.76,8.44-22.01s-3.03-16.18-8.44-22.01c-5.4-5.84-12.73-9.12-20.37-9.12s-14.97,3.28-20.37,9.12c-5.4,5.84-8.44,13.76-8.44,22.01s3.03,16.18,8.44,22.01c5.4,5.84,12.73,9.12,20.37,9.12h0Z"/>
    </g>
    <g id="patch_3-1" data-name="patch 3-1">
      <g class="cls-48">
        <path id="path382-9" class="cls-28" d="M420.63,247.34h0l.06-.02.06-.02.06-.02.06-.02.06-.02.06-.02.06-.02.06-.02.06-.02.06-.02.06-.02.06-.02.06-.02.06-.02.06-.02.06-.02.06-.02.06-.02.06-.02.06-.02.06-.02.06-.02.06-.02.06-.02.06-.02.06-.02.06-.02.06-.02.06-.02.06-.02.06-.02.06-.02.06-.02.06-.02.06-.02.06-.02.06-.02.06-.02.06-.02.06-.02.06-.02.06-.02.06-.02.06-.02.06-.02.06-.02.06-.02.06-.02.06-.02.06-.02.06-.02.06-.02.06-.02.06-.02.06-.02.06-.02.06-.02.06-.02.06-.02.06-.02.06-.02.06-.02.06-.02.06-.02.06-.02.06-.02.06-.02.06-.02.06-.02.06-.02.06-.02.06-.02.06-.02.06-.02.06-.02.06-.02.06-.02.06-.02.06-.02.06-.02.06-.02.06-.02.06-.02.06-.02.06-.02.06-.02.06-.02.06-.02.06-.02.06-.02.06-.02.06-.02.06-.02.06-.02.06-.02.06-.02.06-.02.06-.02.06-.02.06-.02v.02s.01.02.01.02v.02s.01.02.01.02v.02s.01.02.01.02v.02s.01.02.01.02v.02s.01.02.01.02v.02s.01.02.01.02v.02s.01.02.01.02v.02s.01.02.01.02v.02s.01.02.01.02v.02s.01.02.01.02v.02s0,.02,0,.02v.02s0,.02,0,.02v.02s0,.02,0,.02v.02s0,.02,0,.02v.02s0,.02,0,.02v.02s0,.02,0,.02v.02s0,.02,0,.02v.02s0,.02,0,.02v.02s0,.02,0,.02v.02s0,.02,0,.02v.02s0,.02,0,.02v.02s0,.02,0,.02v.02s0,.02,0,.02v.02s0,.02,0,.02v.02s0,.02,0,.02v.02s0,.02,0,.02v.02s0,.02,0,.02v.02s0,.02,0,.02v.02s0,.02,0,.02v.02s0,.02,0,.02v.02s0,.02,0,.02v.02s0,.02,0,.02v.02s0,.02,0,.02v.02s0,.02,0,.02v.02s0,.02,0,.02v.02s0,.02,0,.02v.02s0,.02,0,.02v.02s0,.02,0,.02v.02s0,.02,0,.02v.02s0,.02,0,.02v.02s0,.02,0,.02v.02s0,.02,0,.02v.02s0,.02,0,.02v.02s0,.02,0,.02v.02s0,.02,0,.02v.02s0,.02,0,.02v.02s0,.02,0,.02v.02s0,.02,0,.02v.02s0,.02,0,.02v.02s0,.02,0,.02h-6.4Z"/>
      </g>
    </g>
    <g id="patch_4-2" data-name="patch 4-2">
      <g class="cls-1">
        <path id="path385-8" class="cls-28" d="M420.63,247.34h0l.07-.19.07-.19.07-.19.07-.19.07-.19.07-.19.07-.19.07-.19.07-.19.07-.19.07-.19.07-.19.07-.19.07-.19.07-.19.07-.19.07-.19.07-.19.07-.19.07-.19.07-.19.07-.19.07-.19.07-.19.07-.19.07-.19.07-.19.07-.19.07-.19.07-.19.07-.19.07-.19.07-.19.07-.19.07-.19.07-.19.07-.19.07-.19.07-.19.07-.19.07-.19.07-.19.07-.19.07-.19.07-.19.07-.19.07-.19.07-.19.07-.19.07-.19.07-.19.07-.19.07-.19.07-.19.07-.19.07-.19.07-.19.07-.19.07-.19.07-.19.07-.19.07-.19.07-.19.07-.19.07-.19.07-.19.07-.19.07-.19.07-.19.07-.19.07-.19.07-.19.07-.19.07-.19.07-.19.07-.19.07-.19.07-.19.07-.19.07-.19.07-.19.07-.19.07-.19.07-.19.07-.19.07-.19.07-.19.07-.19.07-.19.07-.19.07-.19.07-.19.07-.19.07-.19.07-.19.07-.19.07-.19.07-.19.07-.19.07-.19.06.02.06.02.06.02.06.02.06.02.06.02.06.02.06.02.06.02.06.02.06.02.06.03.06.03.06.03.06.03.06.03.06.03.06.03.06.03.06.03.05.03.05.03.05.03.05.03.05.03.05.03.05.03.05.03.05.03.05.03.05.03.05.03.05.03.05.03.05.03.05.03.05.03.05.03.05.03.05.03.05.03.05.03.05.03.05.03.05.03.05.03.05.03.05.03.05.03.05.03.05.03.05.03.05.03.05.03.05.03.05.03.05.03.05.03.05.03.05.03.05.03.05.03.05.03.05.03.05.03.05.03.05.04.05.04.05.04.05.04.05.04.05.04.05.04.05.04.05.04.05.04.05.04.05.04.05.04.05.04.05.04.05.04.05.04.05.04.05.04.05.04.05.04.05.04.05.04.05.04.05.04.05.04.05.04.05.04.05.04.05.04.05.04.05.04.05.04.05.04-.12.16-.12.16-.12.16-.12.16-.12.16-.12.16-.12.16-.12.16-.12.16-.12.16-.12.16-.12.16-.12.16-.12.16-.12.16-.12.16-.12.16-.12.16-.12.16-.12.16-.12.16-.12.16-.12.16-.12.16-.12.16-.12.16-.12.16-.12.16-.12.16-.12.16-.12.16-.12.16-.12.16-.12.16-.12.16-.12.16-.12.16-.12.16-.12.16-.12.16-.12.16-.12.16-.12.16-.12.16-.12.16-.12.16-.12.16-.12.16-.12.16-.12.16-.12.16-.12.16-.12.16-.12.16-.12.16-.12.16-.12.16-.12.16-.12.16-.12.16-.12.16-.12.16-.12.16-.12.16-.12.16-.12.16-.12.16-.12.16-.12.16-.12.16-.12.16-.12.16-.12.16-.12.16-.12.16-.12.16-.12.16-.12.16-.12.16-.12.16-.12.16-.12.16-.12.16-.12.16-.12.16-.12.16-.12.16-.12.16-.12.16-.12.16-.12.16-.12.16-.12.16-.12.16-.12.16-.12.16-.12.16-.12.16-.12.16-.12.16Z"/>
      </g>
    </g>
    <g id="patch_5-0" data-name="patch 5-0">
      <g class="cls-38">
        <path id="path388-3" class="cls-28" d="M420.63,247.34h0l-.16-.21-.16-.21-.16-.21-.16-.21-.16-.21-.16-.21-.16-.21-.16-.21-.16-.21-.16-.21-.16-.21-.16-.21-.16-.21-.16-.21-.16-.21-.16-.21-.16-.21-.16-.21-.16-.21-.16-.21-.16-.21-.16-.21-.16-.21-.16-.21-.16-.21-.16-.21-.16-.21-.16-.21-.16-.21-.16-.21-.16-.21-.16-.21-.16-.21-.16-.21-.16-.21-.16-.21-.16-.21-.16-.21-.16-.21-.16-.21-.16-.21-.16-.21-.16-.21-.16-.21-.16-.21-.16-.21-.16-.21-.16-.21-.16-.21-.16-.21-.16-.21-.16-.21-.16-.21-.16-.21-.16-.21-.16-.21-.16-.21-.16-.21-.16-.21-.16-.21-.16-.21-.16-.21-.16-.21-.16-.21-.16-.21-.16-.21-.16-.21-.16-.21-.16-.21-.16-.21-.16-.21-.16-.21-.16-.21-.16-.21-.16-.21-.16-.21-.16-.21-.16-.21-.16-.21-.16-.21-.16-.21-.16-.21-.16-.21-.16-.21-.16-.21-.16-.21-.16-.21-.16-.21-.16-.21-.16-.21-.16-.21-.16-.21-.16-.21-.16-.21-.16-.21-.16-.21-.16-.21-.16-.21-.16-.21-.16-.21.09-.08.09-.08.09-.08.09-.08.09-.08.09-.08.09-.08.1-.08.1-.08.1-.08.1-.08.1-.08.1-.08.1-.08.1-.08.1-.08.1-.08.1-.08.1-.07.1-.07.1-.07.1-.07.1-.07.1-.07.1-.07.1-.07.1-.07.1-.07.1-.07.1-.07.1-.07.1-.07.1-.07.1-.07.1-.07.1-.07.1-.07.1-.06.11-.06.11-.06.11-.06.11-.06.11-.06.11-.06.11-.06.11-.06.11-.06.11-.06.11-.06.11-.06.11-.06.11-.06.11-.06.11-.06.11-.06.11-.05.11-.05.11-.05.11-.05.11-.05.11-.05.11-.05.11-.05.11-.05.11-.05.11-.05.11-.05.11-.05.11-.05.11-.05.11-.05.11-.05.11-.05.11-.04.11-.04.11-.04.11-.04.11-.04.11-.04.11-.04.11-.04.11-.04.12-.04.12-.04.12-.04.12-.04.12-.04.12-.04.12-.04.12-.04.12-.03.12-.03.12-.03.12-.03.12-.03.12-.03.12-.03.12-.03.12-.03.12-.03.06.27.06.27.06.27.06.27.06.27.06.27.06.27.06.27.06.27.06.27.06.27.06.27.06.27.06.27.06.27.06.27.06.27.06.27.06.27.06.27.06.27.06.27.06.27.06.27.06.27.06.27.06.27.06.27.06.27.06.27.06.27.06.27.06.27.06.27.06.27.06.27.06.27.06.27.06.27.06.27.06.27.06.27.06.27.06.27.06.27.06.27.06.27.06.27.06.27.06.27.06.27.06.27.06.27.06.27.06.27.06.27.06.27.06.27.06.27.06.27.06.27.06.27.06.27.06.27.06.27.06.27.06.27.06.27.06.27.06.27.06.27.06.27.06.27.06.27.06.27.06.27.06.27.06.27.06.27.06.27.06.27.06.27.06.27.06.27.06.27.06.27.06.27.06.27.06.27.06.27.06.27.06.27.06.27.06.27.06.27.06.27.06.27.06.27.06.27.06.27Z"/>
      </g>
    </g>
    <g id="patch_6-4" data-name="patch 6-4">
      <g class="cls-43">
        <path id="path391-5" class="cls-28" d="M420.63,247.34h0l-.22.04-.22.04-.22.04-.22.04-.22.04-.22.04-.22.04-.22.04-.22.04-.22.04-.22.04-.22.04-.22.04-.22.04-.22.04-.22.04-.22.04-.22.04-.22.04-.22.04-.22.04-.22.04-.22.04-.22.04-.22.04-.22.04-.22.04-.22.04-.22.04-.22.04-.22.04-.22.04-.22.04-.22.04-.22.04-.22.04-.22.04-.22.04-.22.04-.22.04-.22.04-.22.04-.22.04-.22.04-.22.04-.22.04-.22.04-.22.04-.22.04-.22.04-.22.04-.22.04-.22.04-.22.04-.22.04-.22.04-.22.04-.22.04-.22.04-.22.04-.22.04-.22.04-.22.04-.22.04-.22.04-.22.04-.22.04-.22.04-.22.04-.22.04-.22.04-.22.04-.22.04-.22.04-.22.04-.22.04-.22.04-.22.04-.22.04-.22.04-.22.04-.22.04-.22.04-.22.04-.22.04-.22.04-.22.04-.22.04-.22.04-.22.04-.22.04-.22.04-.22.04-.22.04-.22.04-.22.04-.22.04-.22.04-.22.04-.22.04-.02-.15-.02-.15-.02-.15-.02-.15-.02-.15-.02-.15-.02-.15-.02-.15-.02-.15-.02-.15-.02-.15-.02-.15v-.15s-.03-.15-.03-.15v-.15s-.02-.15-.02-.15v-.15s-.02-.15-.02-.15v-.15s-.02-.15-.02-.15v-.15s-.01-.15-.01-.15v-.15s0-.15,0-.15v-.15s0-.15,0-.15v-.15s0-.15,0-.15v-.15s0-.15,0-.15v-.15s0-.15,0-.15v-.15s0-.15,0-.15v-.15s.01-.15.01-.15v-.15s.01-.15.01-.15v-.15s.02-.15.02-.15v-.15s.02-.15.02-.15v-.15s.03-.15.03-.15v-.15s.03-.15.03-.15l.02-.15.02-.15.02-.15.02-.15.02-.15.02-.15.02-.15.02-.15.02-.15.02-.15.02-.15.03-.15.03-.15.03-.15.03-.15.03-.15.03-.15.03-.15.03-.15.03-.15.03-.15.03-.15.03-.15.04-.15.04-.15.04-.15.04-.15.04-.15.04-.15.04-.15.04-.15.04-.15.04-.14.04-.14.05-.14.05-.14.05-.14.05-.14.05-.14.05-.14.05-.14.05-.14.05-.14.05-.14.05-.14.05-.14.06-.14.06-.14.06-.14.06-.14.06-.14.06-.14.06-.14.06-.14.2.11.2.11.2.11.2.11.2.11.2.11.2.11.2.11.2.11.2.11.2.11.2.11.2.11.2.11.2.11.2.11.2.11.2.11.2.11.2.11.2.11.2.11.2.11.2.11.2.11.2.11.2.11.2.11.2.11.2.11.2.11.2.11.2.11.2.11.2.11.2.11.2.11.2.11.2.11.2.11.2.11.2.11.2.11.2.11.2.11.2.11.2.11.2.11.2.11.2.11.2.11.2.11.2.11.2.11.2.11.2.11.2.11.2.11.2.11.2.11.2.11.2.11.2.11.2.11.2.11.2.11.2.11.2.11.2.11.2.11.2.11.2.11.2.11.2.11.2.11.2.11.2.11.2.11.2.11.2.11.2.11.2.11.2.11.2.11.2.11.2.11.2.11.2.11.2.11.2.11.2.11.2.11.2.11.2.11.2.11.2.11.2.11.2.11.2.11.2.1Z"/>
      </g>
    </g>
    <g id="patch_7-2" data-name="patch 7-2" class="cls-22">
      <g class="cls-56">
        <path id="path394-8" class="cls-28" d="M420.63,247.34h0l-.11.08-.11.08-.11.08-.11.08-.11.08-.11.08-.11.08-.11.08-.11.08-.11.08-.11.08-.11.08-.11.08-.11.08-.11.08-.11.08-.11.08-.11.08-.11.08-.11.08-.11.08-.11.08-.11.08-.11.08-.11.08-.11.08-.11.08-.11.08-.11.08-.11.08-.11.08-.11.08-.11.08-.11.08-.11.08-.11.08-.11.08-.11.08-.11.08-.11.08-.11.08-.11.08-.11.08-.11.08-.11.08-.11.08-.11.08-.11.08-.11.08-.11.08-.11.08-.11.08-.11.08-.11.08-.11.08-.11.08-.11.08-.11.08-.11.08-.11.08-.11.08-.11.08-.11.08-.11.08-.11.08-.11.08-.11.08-.11.08-.11.08-.11.08-.11.08-.11.08-.11.08-.11.08-.11.08-.11.08-.11.08-.11.08-.11.08-.11.08-.11.08-.11.08-.11.08-.11.08-.11.08-.11.08-.11.08-.11.08-.11.08-.11.08-.11.08-.11.08-.11.08-.11.08-.11.08-.11.08-.11.08-.11.08-.11.08-.11.08v-.02s-.02-.02-.02-.02v-.02s-.02-.02-.02-.02v-.02s-.02-.02-.02-.02v-.02s-.02-.02-.02-.02v-.02s-.02-.02-.02-.02v-.02s-.02-.02-.02-.02v-.02s-.02-.02-.02-.02v-.02s-.02-.02-.02-.02v-.02s-.02-.02-.02-.02v-.02s-.02-.02-.02-.02v-.02s-.02-.02-.02-.02v-.02s-.02-.02-.02-.02v-.02s-.02-.02-.02-.02v-.02s-.02-.02-.02-.02v-.02s-.02-.02-.02-.02v-.02s-.02-.02-.02-.02v-.02s-.02-.02-.02-.02v-.02s-.02-.02-.02-.02v-.02s-.02-.02-.02-.02v-.02s-.02-.02-.02-.02v-.02s-.02-.02-.02-.02v-.02s-.02-.02-.02-.02v-.02s-.02-.02-.02-.02v-.02s-.02-.02-.02-.02v-.02s-.02-.02-.02-.02v-.02s-.02-.02-.02-.02v-.02s-.02-.02-.02-.02v-.02s-.02-.02-.02-.02v-.02s-.02-.02-.02-.02v-.02s-.02-.02-.02-.02v-.02s-.02-.02-.02-.02v-.02s-.02-.02-.02-.02v-.02s-.02-.02-.02-.02v-.02s-.02-.02-.02-.02v-.02s-.02-.02-.02-.02v-.02s-.02-.02-.02-.02v-.02s-.02-.02-.02-.02v-.02s-.02-.02-.02-.02v-.02s-.02-.02-.02-.02v-.02s-.02-.02-.02-.02v-.02s-.02-.02-.02-.02v-.02s-.02-.02-.02-.02v-.02s-.02-.02-.02-.02v-.02s-.02-.02-.02-.02v-.02s-.02-.02-.02-.02v-.02s-.02-.02-.02-.02v-.02s-.02-.02-.02-.02v-.02s-.02-.02-.02-.02v-.02s-.02-.02-.02-.02v-.02s-.02-.02-.02-.02l.12-.06.12-.06.12-.06.12-.06.12-.06.12-.06.12-.06.12-.06.12-.06.12-.06.12-.06.12-.06.12-.06.12-.06.12-.06.12-.06.12-.06.12-.06.12-.06.12-.06.12-.06.12-.06.12-.06.12-.06.12-.06.12-.06.12-.06.12-.06.12-.06.12-.06.12-.06.12-.06.12-.06.12-.06.12-.06.12-.06.12-.06.12-.06.12-.06.12-.06.12-.06.12-.06.12-.06.12-.06.12-.06.12-.06.12-.06.12-.06.12-.06.12-.06.12-.06.12-.06.12-.06.12-.06.12-.06.12-.06.12-.06.12-.06.12-.06.12-.06.12-.06.12-.06.12-.06.12-.06.12-.06.12-.06.12-.06.12-.06.12-.06.12-.06.12-.06.12-.06.12-.06.12-.06.12-.06.12-.06.12-.06.12-.06.12-.06.12-.06.12-.06.12-.06.12-.06.12-.06.12-.06.12-.06.12-.06.12-.06.12-.06.12-.06.12-.06.12-.06.12-.06.12-.06.12-.06.12-.06.12-.06.12-.06.12-.06.12-.06Z"/>
      </g>
    </g>
    <g id="patch_8-8" data-name="patch 8-8">
      <g class="cls-42">
        <path id="path397-2" class="cls-28" d="M420.63,247.34h0l.03.17.03.17.03.17.03.17.03.17.03.17.03.17.03.17.03.17.03.17.03.17.03.17.03.17.03.17.03.17.03.17.03.17.03.17.03.17.03.17.03.17.03.17.03.17.03.17.03.17.03.17.03.17.03.17.03.17.03.17.03.17.03.17.03.17.03.17.03.17.03.17.03.17.03.17.03.17.03.17.03.17.03.17.03.17.03.17.03.17.03.17.03.17.03.17.03.17.03.17.03.17.03.17.03.17.03.17.03.17.03.17.03.17.03.17.03.17.03.17.03.17.03.17.03.17.03.17.03.17.03.17.03.17.03.17.03.17.03.17.03.17.03.17.03.17.03.17.03.17.03.17.03.17.03.17.03.17.03.17.03.17.03.17.03.17.03.17.03.17.03.17.03.17.03.17.03.17.03.17.03.17.03.17.03.17.03.17.03.17.03.17.03.17.03.17.03.17.03.17h-.06s-.06.02-.06.02h-.06s-.06.02-.06.02h-.06s-.06.02-.06.02h-.06s-.06.02-.06.02h-.06s-.06.02-.06.02h-.06s-.06.02-.06.02h-.06s-.06.02-.06.02h-.06s-.06.01-.06.01h-.06s-.06.01-.06.01h-.06s-.06.01-.06.01h-.06s-.06.01-.06.01h-.06s-.06.01-.06.01h-.06s-.06,0-.06,0h-.06s-.06,0-.06,0h-.06s-.06,0-.06,0h-.06s-.06,0-.06,0h-.06s-.06,0-.06,0h-.06s-.06,0-.06,0h-.06s-.06,0-.06,0h-.06s-.06,0-.06,0h-.06s-.06,0-.06,0h-.06s-.06,0-.06,0h-.06s-.06,0-.06,0h-.06s-.06,0-.06,0h-.06s-.06,0-.06,0h-.06s-.06,0-.06,0h-.06s-.06,0-.06,0h-.06s-.06,0-.06,0h-.06s-.06,0-.06,0h-.06s-.06,0-.06,0h-.06s-.06,0-.06,0h-.06s-.06-.01-.06-.01h-.06s-.06-.01-.06-.01h-.06s-.06-.01-.06-.01h-.06s-.06-.01-.06-.01h-.06s-.06-.01-.06-.01h-.06s-.06-.02-.06-.02h-.06s-.06-.02-.06-.02h-.06s-.06-.02-.06-.02h-.06s-.06-.02-.06-.02h-.06s-.06-.02-.06-.02h-.06s-.06-.02-.06-.02h-.06s-.06-.02-.06-.02h-.06s-.06-.02-.06-.02h-.06s-.06-.02-.06-.02h-.06s-.06-.03-.06-.03h-.06s-.06-.03-.06-.03h-.06s-.06-.03-.06-.03h-.06s-.06-.03-.06-.03h-.06s-.06-.03-.06-.03l.04-.17.04-.17.04-.17.04-.17.04-.17.04-.17.04-.17.04-.17.04-.17.04-.17.04-.17.04-.17.04-.17.04-.17.04-.17.04-.17.04-.17.04-.17.04-.17.04-.17.04-.17.04-.17.04-.17.04-.17.04-.17.04-.17.04-.17.04-.17.04-.17.04-.17.04-.17.04-.17.04-.17.04-.17.04-.17.04-.17.04-.17.04-.17.04-.17.04-.17.04-.17.04-.17.04-.17.04-.17.04-.17.04-.17.04-.17.04-.17.04-.17.04-.17.04-.17.04-.17.04-.17.04-.17.04-.17.04-.17.04-.17.04-.17.04-.17.04-.17.04-.17.04-.17.04-.17.04-.17.04-.17.04-.17.04-.17.04-.17.04-.17.04-.17.04-.17.04-.17.04-.17.04-.17.04-.17.04-.17.04-.17.04-.17.04-.17.04-.17.04-.17.04-.17.04-.17.04-.17.04-.17.04-.17.04-.17.04-.17.04-.17.04-.17.04-.17.04-.17.04-.17.04-.17.04-.17.04-.17.04-.17.04-.17.04-.17.04-.17Z"/>
      </g>
    </g>
    <g id="patch_9-9" data-name="patch 9-9">
      <g class="cls-21">
        <path id="path400-2" class="cls-28" d="M420.63,247.34h0l.2.17.2.17.2.17.2.17.2.17.2.17.2.17.2.17.2.17.2.17.2.17.2.17.2.17.2.17.2.17.2.17.2.17.2.17.2.17.2.17.2.17.2.17.2.17.2.17.2.17.2.17.2.17.2.17.2.17.2.17.2.17.2.17.2.17.2.17.2.17.2.17.2.17.2.17.2.17.2.17.2.17.2.17.2.17.2.17.2.17.2.17.2.17.2.17.2.17.2.17.2.17.2.17.2.17.2.17.2.17.2.17.2.17.2.17.2.17.2.17.2.17.2.17.2.17.2.17.2.17.2.17.2.17.2.17.2.17.2.17.2.17.2.17.2.17.2.17.2.17.2.17.2.17.2.17.2.17.2.17.2.17.2.17.2.17.2.17.2.17.2.17.2.17.2.17.2.17.2.17.2.17.2.17.2.17.2.17.2.17.2.17.2.17.2.17.2.17.2.17-.04.05-.04.05-.04.05-.04.05-.04.05-.04.05-.04.05-.04.05-.04.05-.04.05-.04.05-.04.05-.04.05-.04.05-.04.05-.04.05-.04.05-.04.05-.04.05-.04.05-.04.05-.04.05-.04.05-.04.05-.04.05-.04.05-.04.05-.04.05-.04.05-.04.05-.04.05-.04.05-.04.05-.04.05-.04.05-.04.05-.04.05-.04.05-.04.05-.04.05-.04.05-.04.05-.04.05-.04.05-.04.05-.04.05-.04.05-.04.05-.04.05-.04.05-.04.05-.04.05-.04.05-.04.05-.04.05-.04.05-.04.05-.04.05-.04.05-.04.05-.04.05-.04.05-.04.04-.04.04-.04.04-.04.04-.04.04-.04.04-.04.04-.04.04-.04.04-.04.04-.04.04-.04.04-.04.04-.04.04-.05.04-.05.04-.05.04-.05.04-.05.04-.05.04-.05.04-.05.04-.05.04-.05.04-.05.04-.05.04-.05.04-.05.04-.05.04-.05.04-.05.04-.05.04-.05.04-.05.04-.05.04-.05.04-.05.04-.05.04-.16-.22-.16-.22-.16-.22-.16-.22-.16-.22-.16-.22-.16-.22-.16-.22-.16-.22-.16-.22-.16-.22-.16-.22-.16-.22-.16-.22-.16-.22-.16-.22-.16-.22-.16-.22-.16-.22-.16-.22-.16-.22-.16-.22-.16-.22-.16-.22-.16-.22-.16-.22-.16-.22-.16-.22-.16-.22-.16-.22-.16-.22-.16-.22-.16-.22-.16-.22-.16-.22-.16-.22-.16-.22-.16-.22-.16-.22-.16-.22-.16-.22-.16-.22-.16-.22-.16-.22-.16-.22-.16-.22-.16-.22-.16-.22-.16-.22-.16-.22-.16-.22-.16-.22-.16-.22-.16-.22-.16-.22-.16-.22-.16-.22-.16-.22-.16-.22-.16-.22-.16-.22-.16-.22-.16-.22-.16-.22-.16-.22-.16-.22-.16-.22-.16-.22-.16-.22-.16-.22-.16-.22-.16-.22-.16-.22-.16-.22-.16-.22-.16-.22-.16-.22-.16-.22-.16-.22-.16-.22-.16-.22-.16-.22-.16-.22-.16-.22-.16-.22-.16-.22-.16-.22-.16-.22-.16-.22-.16-.22-.16-.22-.16-.22-.16-.22-.16-.22-.16-.22-.16-.22-.16-.22-.16-.22-.16-.22-.16-.22Z"/>
      </g>
    </g>
  </g>
  <g>
    <path class="cls-15" d="M184.81,120.3c-18.05,0-32.68,14.63-32.68,32.68,0,18.05,14.63,32.68,32.68,32.68,17.89,0,32.45-14.38,32.68-32.27v-.42s0-.42,0-.42c-.23-17.89-14.79-32.27-32.68-32.27h0Z"/>
    <g>
      <path class="cls-46" d="M177.35,139.06c.7,0,1.26-.56,1.26-1.26s-.56-1.26-1.26-1.26-1.26.56-1.26,1.26.56,1.26,1.26,1.26h0ZM174.64,140.96c.67,0,1.22-.55,1.22-1.22s-.55-1.22-1.22-1.22-1.22.55-1.22,1.22.55,1.22,1.22,1.22ZM172.03,142.17c.63,0,1.16-.5,1.17-1.13,0-.63-.5-1.16-1.13-1.17-.01,0-.02,0-.03,0-.63,0-1.15.51-1.15,1.15s.51,1.15,1.15,1.15h0ZM179.63,137.56c.72.01,1.3-.56,1.31-1.28.01-.72-.56-1.3-1.28-1.31-.01,0-.02,0-.04,0-.72.01-1.28.61-1.27,1.32.01.7.57,1.26,1.27,1.27h0ZM170.07,139.44c.48,0,.87-.39.87-.87s-.39-.87-.87-.87-.87.39-.87.87.39.87.87.87ZM167.92,144.21c.57,0,1.04-.46,1.04-1.03s-.46-1.04-1.03-1.04h0c-.57,0-1.03.46-1.03,1.04,0,.57.46,1.03,1.03,1.03ZM169.24,136.02c.69,0,1.25-.56,1.25-1.25,0-.69-.56-1.25-1.25-1.25h0c-.69,0-1.25.56-1.25,1.25,0,.69.56,1.25,1.25,1.25ZM172.6,138.35c.53.01.97-.41.99-.94.01-.53-.41-.97-.94-.99-.01,0-.03,0-.04,0-.53.01-.95.45-.94.99.01.52.43.93.94.94ZM189.23,135.48c.62,0,1.13-.5,1.13-1.13s-.5-1.13-1.13-1.13-1.13.5-1.13,1.13.5,1.13,1.13,1.13ZM165.58,141.45c.38,0,.68-.31.68-.68s-.31-.68-.68-.68-.68.31-.68.68.31.68.68.68h0ZM167.85,140.81c.45.01.82-.34.83-.79.01-.45-.34-.82-.79-.83-.01,0-.03,0-.04,0-.45,0-.8.38-.8.83,0,.44.36.79.8.8h0ZM163.71,138.24c.59,0,1.08-.46,1.09-1.06s-.46-1.08-1.06-1.09c-.01,0-.02,0-.03,0-.59,0-1.07.5-1.06,1.09,0,.58.48,1.05,1.06,1.06ZM167.94,137.77c.31,0,.57-.24.57-.55,0-.31-.24-.57-.55-.57,0,0-.02,0-.02,0-.31,0-.56.26-.55.57,0,.3.25.54.55.55ZM175.45,136.89c.58,0,1.05-.47,1.05-1.05s-.47-1.05-1.05-1.05-1.05.47-1.05,1.05.47,1.05,1.05,1.05ZM183.4,137.5c.5,0,.91-.39.92-.89,0-.5-.39-.91-.89-.92-.01,0-.02,0-.03,0-.5.01-.89.43-.88.92.01.48.4.87.88.88h0ZM185.05,131.86c.33,0,.59-.26.59-.59s-.26-.59-.59-.59-.59.26-.59.59.26.59.59.59ZM186.97,135.27c.55,0,.99-.44.99-.99s-.44-.99-.99-.99h0c-.55,0-.99.44-.99.99,0,.55.44.99.99.99ZM177.1,134.69c.56,0,1.02-.45,1.02-1.01,0-.56-.45-1.02-1.01-1.02h0c-.56,0-1.01.45-1.01,1.02,0,.56.45,1.01,1.01,1.01ZM164.39,144.44c.45,0,.82-.37.82-.82s-.37-.82-.82-.82h0c-.45,0-.82.37-.82.82,0,.45.37.82.82.82Z"/>
      <path class="cls-46" d="M191.52,135.69c.69,0,1.25-.56,1.25-1.25s-.56-1.25-1.25-1.25-1.25.56-1.25,1.25.56,1.25,1.25,1.25ZM179.41,134.84c.64,0,1.15-.52,1.15-1.15s-.52-1.15-1.15-1.15-1.15.52-1.15,1.15.52,1.15,1.15,1.15h0ZM166.04,135.77c.59,0,1.07-.48,1.07-1.07s-.48-1.07-1.07-1.07h0c-.59,0-1.07.48-1.07,1.07s.48,1.07,1.07,1.07ZM171.98,133.01c.68,0,1.23-.55,1.23-1.23,0-.68-.55-1.23-1.23-1.23h0c-.68,0-1.23.55-1.23,1.23,0,.68.55,1.23,1.23,1.23ZM195.13,134.68c.42,0,.76-.34.76-.76s-.34-.76-.76-.76h0c-.42,0-.76.34-.76.76s.34.76.76.76h0ZM168.58,131.56c.54,0,.98-.42.99-.95,0-.54-.42-.98-.95-.99-.01,0-.02,0-.03,0-.54,0-.96.45-.95.99,0,.52.43.95.95.95h0ZM172.95,135.91c.46,0,.83-.37.83-.83s-.37-.83-.83-.83-.83.37-.83.83.37.83.83.83h0ZM174.93,134.12c.46,0,.84-.36.85-.82,0-.46-.36-.84-.82-.85,0,0-.02,0-.03,0-.46,0-.83.39-.82.85,0,.45.37.82.82.82ZM161.98,136.24c.47,0,.84-.38.84-.84,0-.47-.38-.84-.84-.84h0c-.47,0-.84.38-.84.84,0,.47.38.84.84.84ZM164.31,132.96c.43,0,.77-.35.77-.77s-.35-.77-.77-.77-.77.35-.77.77.35.77.77.77h0ZM182.17,135.37c.36,0,.65-.29.65-.65s-.29-.65-.65-.65h0c-.36,0-.65.29-.65.65,0,.36.29.65.65.65ZM161.39,140.52c.59,0,1.07-.48,1.07-1.07s-.48-1.07-1.07-1.07-1.07.48-1.07,1.07.48,1.07,1.07,1.07h0ZM158.99,138.71c.45,0,.81-.35.82-.79s-.35-.81-.79-.82c0,0-.02,0-.03,0-.45,0-.8.38-.79.82,0,.43.36.78.79.79ZM184.38,135.18c.45,0,.81-.36.81-.81s-.36-.81-.81-.81h0c-.45,0-.81.36-.81.81,0,.45.36.81.81.81ZM165.94,139.39c.69,0,1.25-.56,1.25-1.25s-.56-1.25-1.25-1.25-1.25.56-1.25,1.25.56,1.25,1.25,1.25h0Z"/>
      <path class="cls-46" d="M193.49,133.7c.69.01,1.26-.54,1.27-1.24.01-.69-.54-1.26-1.24-1.27-.01,0-.02,0-.04,0-.69.01-1.25.58-1.24,1.27,0,.68.56,1.23,1.24,1.24ZM162.05,145.52c.4,0,.73-.33.73-.73s-.33-.73-.73-.73-.73.33-.73.73.33.73.73.73ZM180.23,131.32c.55,0,1.01-.43,1.02-.98,0-.55-.43-1.01-.98-1.02-.01,0-.02,0-.03,0-.55,0-.99.46-.98,1.02,0,.54.44.98.98.98ZM201.01,132.7c.56,0,1.02-.46,1.02-1.02s-.46-1.02-1.02-1.02-1.02.46-1.02,1.02.46,1.02,1.02,1.02ZM187.42,132.18c.45,0,.81-.36.81-.81s-.36-.81-.81-.81-.81.36-.81.81.36.81.81.81h0ZM169.68,142.92c.59,0,1.06-.47,1.06-1.06s-.47-1.06-1.06-1.06h0c-.59,0-1.06.47-1.06,1.06s.47,1.06,1.06,1.06ZM190.17,132.53c.56,0,1.02-.45,1.02-1.02s-.45-1.02-1.02-1.02-1.02.45-1.02,1.02.45,1.02,1.02,1.02ZM197.37,133.52c.46,0,.84-.38.84-.84s-.38-.84-.84-.84-.84.38-.84.84.38.84.84.84ZM205.31,135.35c.42,0,.76-.34.76-.76s-.34-.76-.76-.76-.76.34-.76.76.34.76.76.76h0ZM176.92,129.77c.36,0,.65-.29.65-.65,0-.36-.29-.65-.65-.65h0c-.36,0-.65.29-.65.65,0,.36.29.65.65.65ZM182.87,127.98c.53,0,.96-.43.96-.96s-.43-.96-.96-.96h0c-.53,0-.96.43-.96.96s.43.96.96.96ZM205.14,133.11c.7,0,1.26-.56,1.26-1.26s-.56-1.26-1.26-1.26-1.26.56-1.26,1.26.56,1.26,1.26,1.26h0ZM181.42,133.62c.66,0,1.19-.53,1.19-1.19s-.53-1.19-1.19-1.19-1.19.53-1.19,1.19.53,1.19,1.19,1.19ZM185.83,129.16c.66,0,1.19-.53,1.19-1.19s-.53-1.19-1.19-1.19-1.19.53-1.19,1.19.53,1.19,1.19,1.19h0ZM196.14,130.61c.68,0,1.24-.53,1.25-1.21s-.53-1.24-1.21-1.25c-.01,0-.02,0-.04,0-.68,0-1.22.57-1.21,1.25,0,.67.55,1.2,1.21,1.21ZM208.89,138.35c.64.01,1.18-.5,1.19-1.14.01-.64-.5-1.18-1.14-1.19-.02,0-.03,0-.05,0-.64.01-1.16.55-1.14,1.19.01.62.52,1.13,1.14,1.14ZM182.6,124.23c.37,0,.67-.3.67-.67s-.3-.67-.67-.67-.67.3-.67.67.3.67.67.67h0Z"/>
      <path class="cls-46" d="M193.23,131.3c.62,0,1.12-.5,1.12-1.12s-.5-1.12-1.12-1.12c-.62,0-1.11.52-1.1,1.14,0,.6.5,1.09,1.1,1.1h0ZM191.73,129.15c.5,0,.9-.4.9-.9,0-.5-.4-.9-.9-.9h0c-.5,0-.9.4-.9.9,0,.5.4.9.9.9ZM187.2,127.19c.64,0,1.16-.52,1.16-1.16,0-.64-.52-1.16-1.16-1.16h0c-.64,0-1.16.52-1.16,1.16,0,.64.52,1.16,1.16,1.16ZM174.43,131.91c.72,0,1.3-.58,1.3-1.3s-.58-1.3-1.3-1.3h0c-.72,0-1.3.58-1.3,1.3,0,.72.58,1.3,1.3,1.3ZM166.42,130c.39,0,.71-.3.72-.69s-.3-.71-.69-.72c0,0-.02,0-.03,0-.39,0-.7.33-.69.72,0,.38.31.69.69.69ZM169.78,129.52c.51,0,.92-.41.92-.92s-.41-.92-.92-.92-.92.41-.92.92.41.92.92.92ZM200.57,135.07c.62,0,1.14-.49,1.15-1.11,0-.62-.49-1.14-1.11-1.15-.01,0-.02,0-.03,0-.62,0-1.13.51-1.13,1.13,0,.62.51,1.13,1.13,1.13h0ZM188.18,129.12c.35,0,.63-.28.63-.63s-.28-.63-.63-.63h0c-.35,0-.63.28-.63.63,0,.35.28.63.63.63ZM174.86,129.25c.66,0,1.19-.53,1.19-1.19,0-.66-.53-1.19-1.19-1.19h0c-.66,0-1.19.53-1.19,1.19,0,.66.53,1.19,1.19,1.19ZM157.4,143.83c.57,0,1.03-.46,1.03-1.03,0-.57-.46-1.03-1.03-1.03h0c-.57,0-1.03.46-1.03,1.03,0,.57.46,1.03,1.03,1.03ZM160.16,144.19c.66,0,1.2-.54,1.2-1.2,0-.66-.54-1.2-1.2-1.2h0c-.66,0-1.2.54-1.2,1.2,0,.66.54,1.2,1.2,1.2ZM169.87,133.59c.64,0,1.16-.52,1.16-1.16s-.52-1.16-1.16-1.16h0c-.64,0-1.16.52-1.16,1.16s.52,1.16,1.16,1.16h0ZM157.74,141.25c.5,0,.9-.4.9-.9,0-.5-.4-.9-.9-.9h0c-.5,0-.9.4-.9.9,0,.49.4.89.9.9ZM193.88,128.24c.54,0,.98-.44.98-.98s-.44-.98-.98-.98-.98.44-.98.98.44.98.98.98h0ZM166.58,132.36c.49,0,.89-.4.89-.89s-.4-.89-.89-.89-.89.4-.89.89.4.89.89.89h0Z"/>
      <path class="cls-46" d="M162.25,143.11c.69,0,1.25-.56,1.25-1.25s-.56-1.25-1.25-1.25-1.25.56-1.25,1.25.56,1.25,1.25,1.25ZM202.94,134.59c.68,0,1.23-.53,1.24-1.21,0-.68-.53-1.23-1.21-1.24-.01,0-.02,0-.04,0-.68,0-1.23.55-1.23,1.23s.55,1.23,1.23,1.23h0ZM207.37,134.45c.47,0,.85-.36.86-.83,0-.47-.36-.85-.83-.86,0,0-.02,0-.03,0-.47,0-.84.39-.83.86,0,.45.37.82.83.83ZM178.2,132.36c.52,0,.94-.42.94-.94s-.42-.94-.94-.94c-.52,0-.94.42-.94.94,0,.52.42.94.94.94h0ZM198.83,131.3c.43,0,.79-.34.8-.77,0-.43-.34-.79-.77-.8,0,0-.02,0-.03,0-.43,0-.78.37-.77.8,0,.42.35.76.77.77ZM198.49,129.33c.71,0,1.28-.57,1.28-1.28s-.57-1.28-1.28-1.28h0c-.71,0-1.28.58-1.28,1.28,0,.71.57,1.28,1.28,1.28ZM182.67,131.52c.63,0,1.15-.51,1.15-1.15s-.51-1.15-1.15-1.15-1.15.51-1.15,1.15.51,1.15,1.15,1.15h0ZM206.92,137.07c.54,0,.98-.44.98-.98s-.44-.98-.98-.98-.98.44-.98.98.44.98.98.98ZM159.92,145.95c.32,0,.58-.26.58-.58,0-.32-.26-.58-.58-.58h0c-.32,0-.58.26-.58.58,0,.32.26.58.58.58ZM172.05,129.94c.6,0,1.08-.48,1.08-1.08,0-.6-.48-1.08-1.08-1.08h0c-.6,0-1.08.48-1.08,1.08,0,.6.48,1.08,1.08,1.08ZM179.92,128.19c.43,0,.78-.33.78-.76,0-.43-.33-.78-.76-.78,0,0-.02,0-.03,0-.43,0-.76.36-.76.78,0,.41.34.75.76.76ZM202.27,130.56c.54,0,.97-.43.97-.97s-.43-.97-.97-.97-.97.43-.97.97.43.97.97.97ZM177.77,126.63c.67,0,1.2-.54,1.2-1.2s-.54-1.2-1.2-1.2-1.2.54-1.2,1.2.54,1.2,1.2,1.2h0Z"/>
      <path class="cls-46" d="M196.67,127.78c.62,0,1.11-.5,1.11-1.11s-.5-1.11-1.11-1.11-1.11.5-1.11,1.11.5,1.11,1.11,1.11h0ZM172.34,126.6c.49,0,.89-.4.89-.89s-.4-.89-.89-.89h0c-.49,0-.89.4-.89.89,0,.49.4.89.89.89ZM174.48,125.91c.54,0,.98-.44.98-.98s-.44-.98-.98-.98-.98.44-.98.98.44.98.98.98ZM189.66,124.67c.64,0,1.16-.52,1.16-1.15,0-.64-.52-1.16-1.15-1.16h0c-.64,0-1.16.52-1.15,1.16,0,.64.52,1.15,1.15,1.15ZM185.02,124.92c.5,0,.9-.4.9-.9s-.4-.9-.9-.9-.9.4-.9.9.4.9.9.9ZM191.97,126.01c.38,0,.69-.29.7-.67,0-.38-.29-.69-.67-.7,0,0-.02,0-.03,0-.38,0-.68.32-.67.7,0,.37.3.67.67.67Z"/>
      <path class="cls-46" d="M189.67,127.07c.7,0,1.28-.57,1.28-1.27,0-.7-.57-1.28-1.27-1.28h0c-.7,0-1.27.57-1.27,1.27s.57,1.27,1.27,1.27h0ZM194.73,125.83c.49,0,.88-.39.88-.88,0-.49-.39-.88-.88-.88h0c-.49,0-.88.39-.88.88,0,.49.39.88.88.88ZM155.2,147.32c.61,0,1.11-.5,1.11-1.11s-.5-1.11-1.11-1.11-1.11.5-1.11,1.11.5,1.11,1.11,1.11ZM180.31,125.76c.33,0,.6-.27.6-.6s-.27-.6-.6-.6-.6.27-.6.6.27.6.6.6ZM200.78,128.48c.4,0,.72-.32.72-.72s-.32-.72-.72-.72c-.4,0-.72.32-.72.72,0,.4.32.72.72.72h0ZM187.34,124.89c.57,0,1.04-.47,1.04-1.04,0-.57-.47-1.04-1.04-1.04h0c-.57,0-1.04.47-1.04,1.04,0,.57.47,1.04,1.04,1.04ZM163.59,140.68c.66,0,1.2-.54,1.2-1.2s-.54-1.2-1.2-1.2-1.2.54-1.2,1.2.54,1.2,1.2,1.2Z"/>
    </g>
    <path class="cls-15" d="M196.72,135.02l-1.24-.03-1.24.03-1.24.09-1.24.14-1.23.2-1.23.25-1.23.3-1.23.34-1.23.39-1.23.42-1.22.46-1.22.48-1.22.51-1.22.53-1.22.54-1.21.55-2.42,1.1-1.21.55-1.21.54-1.21.52-1.21.51-1.2.49-1.2.47-1.2.45-1.2.43-1.2.4-1.2.38-1.2.35-1.2.33-1.2.3-1.2.28-1.2.26-1.2.23-1.2.21-1.32.21-.06.4c-.39,2.71-.44,5.47-.13,8.19l.08.75,1.74-.77,1.21-.55,2.42-1.1,1.21-.55,1.21-.54,1.21-.52,1.2-.5,1.2-.48,1.2-.45,1.2-.41,1.2-.38,1.19-.33,1.19-.29,1.19-.24,1.19-.19,1.19-.14,1.19-.08,1.19-.03,1.19.03,1.19.08,1.19.14,1.19.19,1.19.24,1.19.29,1.19.33,1.19.38,1.2.41,1.2.45,1.2.48,1.2.5,1.2.52,1.21.53,1.21.54,2.42,1.1,1.21.55,1.21.54,1.22.53,1.22.51,1.22.5,1.22.48,1.22.46,1.22.43,1.22.41,1.22.38,1.22.36,1.22.33,1.22.31,1.22.28,1.72.37.14-.49c.81-2.78,1.24-5.66,1.28-8.56v-.4s0-.41,0-.41v-.44c-.11-3.93-.94-7.8-2.44-11.43l-.11-.26-.2-.46-1.25-.56-1.21-.54-1.22-.52-1.22-.51-1.22-.48-1.22-.46-1.22-.42-1.23-.39-1.23-.34-1.23-.3-1.23-.25-1.23-.2-1.23-.14-1.24-.09ZM195.47,135.54l1.21.03,1.21.08,1.21.14,1.21.19,1.21.25,1.21.29,1.21.34,1.21.38,1.21.42,1.21.45,1.21.48,1.21.5,1.21.52,1.21.54,1.05.47c1.62,3.71,2.5,7.7,2.61,11.75v.43s.01.4.01.4v.4c-.04,2.85-.46,5.68-1.26,8.41l-1.21-.26-1.21-.28-1.21-.31-1.21-.33-1.21-.36-1.21-.38-1.21-.41-1.21-.43-1.21-.45-1.21-.48-1.21-.49-1.21-.51-1.21-.53-1.21-.54-1.21-.55-2.42-1.1-1.21-.55-1.21-.54-1.21-.52-1.21-.5-1.21-.48-1.21-.45-1.21-.42-1.21-.38-1.21-.34-1.21-.29-1.21-.25-1.21-.19-1.21-.14-1.21-.08-1.21-.03-1.21.03-1.21.08-1.21.14-1.21.19-1.21.25-1.21.29-1.21.34-1.21.38-1.21.42-1.21.45-1.21.48-1.21.5-1.21.52-1.21.54-1.21.55-2.42,1.1-1.21.55-1.05.47c-.3-2.68-.26-5.38.13-8.05l.93-.15,1.21-.21,1.21-.23,1.21-.26,1.21-.28,1.21-.31,1.21-.33,1.21-.36,1.21-.38,1.21-.41,1.21-.43,1.21-.45,1.21-.48,1.21-.49,1.21-.51,1.21-.53,1.21-.54,1.21-.55,2.42-1.1,1.21-.55,1.21-.54,1.21-.52,1.21-.5,1.21-.48,1.21-.45,1.21-.42,1.21-.38,1.21-.34,1.21-.29,1.21-.25,1.21-.19,1.21-.14,1.21-.08,1.21-.03Z"/>
    <path class="cls-45" d="M195.47,135.41l1.22.03,1.22.09,1.22.14,1.22.19,1.22.25,1.22.3,1.22.34,1.21.38,1.21.42,1.22.45,1.21.48,1.21.5,1.21.52,1.21.54,1.1.5c1.66,3.79,2.56,7.87,2.64,12.01v.27s0,.4,0,.4v.4c-.04,2.9-.47,5.78-1.3,8.56l-1.33-.28-1.21-.28-1.21-.31-1.21-.33-1.21-.36-1.21-.38-1.21-.41-1.21-.43-1.21-.45-1.21-.48-1.21-.5-1.21-.51-1.21-.53-1.21-.54-1.21-.55-2.42-1.1-1.21-.55-1.21-.54-1.21-.52-1.21-.5-1.21-.48-1.21-.45-1.21-.42-1.21-.38-1.21-.34-1.21-.29-1.21-.24-1.21-.19-1.2-.14-1.21-.08-1.2-.03-1.2.03-1.2.08-1.21.14-1.21.19-1.21.24-1.21.29-1.21.34-1.21.38-1.21.42-1.21.45-1.21.48-1.21.5-1.21.52-1.21.54-1.21.55-2.42,1.1-1.21.55-1.22.54c-.33-2.78-.29-5.59.12-8.36l1.02-.16,1.21-.21,1.21-.23,1.21-.26,1.21-.28,1.21-.31,1.21-.33,1.21-.36,1.21-.38,1.21-.41,1.21-.43,1.21-.45,1.21-.47,1.21-.49,1.21-.51,1.21-.53,1.21-.54,1.21-.55,2.42-1.1,1.21-.55,1.21-.54,1.21-.52,1.21-.5,1.21-.48,1.21-.45,1.21-.42,1.21-.38,1.22-.34,1.22-.3,1.22-.25,1.22-.2,1.22-.14,1.22-.09,1.22-.03Z"/>
    <path class="cls-17" d="M176.1,150.07l1.21.03,1.21.08,1.21.14,1.21.19,1.21.25,1.21.29,1.21.34,1.21.38,1.21.42,1.21.45,1.21.48,1.21.5,1.21.52,1.21.54,1.21.55,1.21.55,1.21.55,1.21.55,1.21.54,1.21.53,1.21.51,1.21.49,1.21.48,1.21.45,1.21.43,1.21.41,1.21.38,1.21.36,1.21.33,1.21.31,1.21.28,1.04.22c-2.78,8.93-9.39,16.17-18.03,19.75-16.09,6.66-34.53-.98-41.19-17.06-1.06-2.55-1.77-5.23-2.13-7.96l.98-.44,1.21-.55,1.21-.55,1.21-.55,1.21-.55,1.21-.54,1.21-.52,1.21-.5,1.21-.48,1.21-.45,1.21-.42,1.21-.38,1.21-.34,1.21-.29,1.21-.25,1.21-.19,1.21-.14,1.21-.08,1.21-.03Z"/>
    <path class="cls-8" d="M178.52,158.23v4.06h7.27v5.61h7.27v3.84h7.27v1.62h7.27v1.42c-8.97,9.58-22.94,12.6-35.07,7.57-6.77-2.8-12.35-7.88-15.79-14.36v-3.78h7.27v-5.06h7.27v-.91h7.27Z"/>
    <path class="cls-15" d="M178.77,157.98v4.06h7.27v5.61h7.27v3.84h7.27v1.62h7.27v1.39c-.16.18-.33.36-.5.53v-1.43h-6.77v6.78c-.16.1-.33.19-.5.29v-8.69h-6.77s0,11.53,0,11.53c-.17.05-.33.09-.5.14v-15.5h-6.77v16.56c-.17,0-.33.01-.5.02v-22.19h-6.77v21.66c-.17-.03-.33-.06-.5-.1v-25.63s-6.77,0-6.77,0v.42h0v23.01c-.17-.08-.33-.15-.5-.23v-22.28s-6.77,0-6.77,0v4.56h0v13.35c-.17-.14-.33-.28-.5-.43v-12.43h-6.77v3.99c-.17-.31-.34-.62-.5-.94v-3.55h7.27v-5.06h7.27v-.91h7.76Z"/>
    <path class="cls-8" d="M184.57,119.67c18.36,0,33.31,14.76,33.55,33.12v.43s0,.43,0,.43c-.23,18.36-15.18,33.12-33.55,33.12-18.53,0-33.55-15.02-33.55-33.55,0-18.53,15.02-33.55,33.55-33.55h0ZM184.57,120.77c-17.92,0-32.45,14.53-32.45,32.45,0,17.92,14.53,32.45,32.45,32.45,17.76,0,32.22-14.28,32.44-32.03v-.41s0-.41,0-.41c-.23-17.76-14.69-32.03-32.44-32.03h0Z"/>
  </g>
  <circle class="cls-18" cx="283.56" cy="145.38" r="6.15"/>
  <circle class="cls-18" cx="113.5" cy="238.96" r="6.15"/>
  <circle class="cls-18" cx="244.47" cy="388.48" r="6.15"/>
  <circle class="cls-18" cx="435.28" cy="325.42" r="6.15"/>
  <g>
    <rect class="cls-36" x="167.28" y="220.3" width="39.74" height="6.23"/>
    <rect class="cls-36" x="167.28" y="235.25" width="39.74" height="6.23"/>
    <rect class="cls-18" x="213.85" y="220.3" width="70.27" height="6.23"/>
    <rect class="cls-18" x="167.28" y="205" width="39.74" height="6.23"/>
    <rect class="cls-18" x="213.85" y="205" width="70.27" height="6.23"/>
    <rect class="cls-18" x="213.85" y="235.25" width="70.27" height="6.23"/>
    <rect class="cls-18" x="213.85" y="250.2" width="70.27" height="6.23"/>
    <rect class="cls-18" x="213.85" y="265.15" width="70.27" height="6.23"/>
    <rect class="cls-18" x="213.85" y="280.1" width="70.27" height="6.23"/>
    <rect class="cls-18" x="295.37" y="220.3" width="70.27" height="6.23"/>
    <rect class="cls-18" x="295.37" y="205" width="32.28" height="6.23"/>
    <rect class="cls-18" x="333.62" y="205" width="32.03" height="6.23"/>
    <rect class="cls-36" x="295.37" y="249.78" width="32.28" height="6.23"/>
    <rect class="cls-18" x="333.62" y="249.78" width="32.03" height="6.23"/>
    <rect class="cls-18" x="295.37" y="265.15" width="32.28" height="6.23"/>
    <rect class="cls-18" x="333.62" y="265.15" width="32.03" height="6.23"/>
    <rect class="cls-36" x="295.37" y="280.1" width="32.28" height="6.23"/>
    <rect class="cls-18" x="333.62" y="280.1" width="32.03" height="6.23"/>
    <rect class="cls-18" x="295.37" y="235.25" width="70.27" height="6.23"/>
    <rect class="cls-18" x="295.37" y="299.37" width="70.27" height="6.23"/>
    <rect class="cls-18" x="295.37" y="314.19" width="70.27" height="6.23"/>
    <rect class="cls-36" x="167.28" y="314.19" width="116.85" height="6.23"/>
    <rect class="cls-36" x="167.28" y="299.37" width="116.85" height="6.23"/>
  </g>
</svg>