<?xml version="1.0" encoding="UTF-8"?>
<svg xmlns="http://www.w3.org/2000/svg" xmlns:xlink="http://www.w3.org/1999/xlink" viewBox="0 0 540 540">
  <defs>
    <style>
      .cls-1 {
        stroke-width: .75px;
      }

      .cls-1, .cls-2, .cls-3, .cls-4, .cls-5, .cls-6, .cls-7, .cls-8, .cls-9, .cls-10, .cls-11, .cls-12, .cls-13, .cls-14, .cls-15, .cls-16, .cls-17, .cls-18, .cls-19, .cls-20, .cls-21, .cls-22, .cls-23, .cls-24, .cls-25, .cls-26, .cls-27 {
        stroke-linejoin: round;
      }

      .cls-1, .cls-2, .cls-3, .cls-4, .cls-5, .cls-6, .cls-7, .cls-8, .cls-9, .cls-11, .cls-12, .cls-13, .cls-14, .cls-15, .cls-16, .cls-17, .cls-18, .cls-19, .cls-20, .cls-21, .cls-22, .cls-23, .cls-24, .cls-25, .cls-26, .cls-27 {
        stroke-linecap: round;
      }

      .cls-1, .cls-28, .cls-13, .cls-19 {
        fill: #ca6e15;
        stroke: #b05418;
      }

      .cls-29 {
        clip-path: url(#clippath-20);
      }

      .cls-30, .cls-3, .cls-6, .cls-7, .cls-31, .cls-9, .cls-11, .cls-15, .cls-18, .cls-20, .cls-21, .cls-32, .cls-33 {
        fill: #fccf8c;
      }

      .cls-2 {
        stroke-width: 3px;
      }

      .cls-2, .cls-34, .cls-35, .cls-36, .cls-37, .cls-4, .cls-5, .cls-38, .cls-8, .cls-39, .cls-40, .cls-31, .cls-9, .cls-10, .cls-12, .cls-16, .cls-17, .cls-18, .cls-41, .cls-21, .cls-42, .cls-22, .cls-43, .cls-23, .cls-24, .cls-25, .cls-33 {
        stroke: #2d2d2d;
      }

      .cls-2, .cls-35, .cls-36, .cls-37, .cls-4, .cls-5, .cls-38, .cls-44, .cls-45, .cls-12, .cls-14, .cls-16, .cls-22, .cls-43, .cls-24, .cls-46, .cls-26, .cls-27 {
        fill: none;
      }

      .cls-47 {
        clip-path: url(#clippath-11);
      }

      .cls-34, .cls-48, .cls-49, .cls-25 {
        fill: #f9b860;
      }

      .cls-34, .cls-35, .cls-36, .cls-50, .cls-51, .cls-37, .cls-28, .cls-38, .cls-44, .cls-39, .cls-40, .cls-31, .cls-45, .cls-41, .cls-42, .cls-43, .cls-46, .cls-33 {
        stroke-miterlimit: 10;
      }

      .cls-52 {
        clip-path: url(#clippath-16);
      }

      .cls-53, .cls-54 {
        fill: #eff7f3;
      }

      .cls-3 {
        clip-path: url(#clippath);
      }

      .cls-3, .cls-6, .cls-7, .cls-11, .cls-15, .cls-20, .cls-26, .cls-27 {
        stroke: #ca6e15;
      }

      .cls-54, .cls-55, .cls-56, .cls-57, .cls-58, .cls-49, .cls-59, .cls-60, .cls-61, .cls-62, .cls-63, .cls-64, .cls-32 {
        stroke-width: 0px;
      }

      .cls-35 {
        stroke-width: 6.54px;
      }

      .cls-36 {
        stroke-width: 2.12px;
      }

      .cls-50 {
        stroke: #0d7f53;
      }

      .cls-50, .cls-51, .cls-40, .cls-17, .cls-61 {
        fill: #2d2d2d;
      }

      .cls-55, .cls-8, .cls-65, .cls-42 {
        fill: #ffecb0;
      }

      .cls-51 {
        stroke: #eff7f3;
        stroke-width: .47px;
      }

      .cls-37 {
        stroke-width: 2.84px;
      }

      .cls-56 {
        fill: #0d4733;
      }

      .cls-28 {
        stroke-width: .75px;
      }

      .cls-5, .cls-16 {
        stroke-width: 1.27px;
      }

      .cls-38 {
        stroke-width: 8px;
      }

      .cls-66 {
        clip-path: url(#clippath-13);
      }

      .cls-44 {
        stroke: #bfbfbf;
      }

      .cls-7, .cls-26 {
        stroke-width: .46px;
      }

      .cls-67 {
        clip-path: url(#clippath-25);
      }

      .cls-68 {
        clip-path: url(#clippath-15);
      }

      .cls-69 {
        clip-path: url(#clippath-6);
      }

      .cls-70, .cls-39, .cls-59 {
        fill: #0d7f53;
      }

      .cls-71 {
        clip-path: url(#clippath-26);
      }

      .cls-57 {
        fill: #4a79e7;
      }

      .cls-72 {
        clip-path: url(#clippath-7);
      }

      .cls-73 {
        clip-path: url(#clippath-21);
      }

      .cls-58 {
        fill: #b05418;
      }

      .cls-74 {
        clip-path: url(#clippath-4);
      }

      .cls-31 {
        stroke-width: 1.04px;
      }

      .cls-75 {
        clip-path: url(#clippath-27);
      }

      .cls-45 {
        stroke: #f6f6f6;
      }

      .cls-76 {
        clip-path: url(#clippath-12);
      }

      .cls-9, .cls-22 {
        stroke-width: .6px;
      }

      .cls-10 {
        fill: #12100b;
        stroke-width: .34px;
      }

      .cls-11 {
        clip-path: url(#clippath-2);
      }

      .cls-12 {
        stroke-width: 4px;
      }

      .cls-13 {
        stroke-width: .78px;
      }

      .cls-77 {
        clip-path: url(#clippath-24);
      }

      .cls-14 {
        stroke: #293ca4;
      }

      .cls-15 {
        stroke-width: .43px;
      }

      .cls-60 {
        fill: #e09a39;
      }

      .cls-16 {
        opacity: .3;
      }

      .cls-78 {
        clip-path: url(#clippath-22);
      }

      .cls-79 {
        clip-path: url(#clippath-9);
      }

      .cls-41, .cls-64, .cls-80 {
        fill: #ba761a;
      }

      .cls-81 {
        clip-path: url(#clippath-19);
      }

      .cls-82 {
        clip-path: url(#clippath-3);
      }

      .cls-20 {
        clip-path: url(#clippath-1);
      }

      .cls-62 {
        fill: #bfbfbf;
      }

      .cls-83 {
        clip-path: url(#clippath-8);
      }

      .cls-84 {
        clip-path: url(#clippath-29);
      }

      .cls-85 {
        clip-path: url(#clippath-18);
      }

      .cls-86 {
        clip-path: url(#clippath-14);
      }

      .cls-87 {
        clip-path: url(#clippath-17);
      }

      .cls-88 {
        clip-path: url(#clippath-5);
      }

      .cls-63 {
        fill: #d7eadd;
      }

      .cls-21, .cls-23 {
        stroke-width: .69px;
      }

      .cls-89 {
        clip-path: url(#clippath-10);
      }

      .cls-90 {
        clip-path: url(#clippath-23);
      }

      .cls-23 {
        fill: #fff;
      }

      .cls-24 {
        stroke-width: .75px;
      }

      .cls-46 {
        stroke: #f9b860;
      }

      .cls-91 {
        clip-path: url(#clippath-28);
      }
    </style>
    <clipPath id="clippath">
      <path class="cls-6" d="M369.53,240.88"/>
    </clipPath>
    <clipPath id="clippath-1">
      <path class="cls-3" d="M368.23,219.68h1.02s1.7.03,1.7.03h0s35.86,2.86,35.86,2.86l23.43-36.9,1.34,1.62c2.93-4.78,7.8-8.09,12.78-5.37,4.98,2.72,8.26.74,5.82,5.79h.01s-.26.48-.26.48h0s0,0,0,0l-25.99,47.62c-1.81,3.34-5.36,5.59-9.42,5.55"/>
    </clipPath>
    <clipPath id="clippath-2">
      <path class="cls-20" d="M338.28,227.28"/>
    </clipPath>
    <clipPath id="clippath-3">
      <path class="cls-11" d="M331.97,235.44"/>
    </clipPath>
    <clipPath id="clippath-4">
      <path class="cls-6" d="M462.59,209.03c2.95,4.84,6.78,4.78,2.14,7.93h0s-.46.29-.46.29h0s0,0,0,0l-46.34,28.22c-3.24,1.98-7.44,2.15-10.93.08l-38.73-22.92h0s-3.52-2.09-3.52-2.09c-1.66-.98-3.53-1.54-5.46-1.62-1.59-.07-3.38-.25-5.32-.64-3.21-.65-5.84-1.66-7.78-2.57-1.25.16-2.7.26-4.33.21-2.07-.06-3.88-.35-5.35-.69-.09-.06-1.94-1.47-1.7-3.79.14-1.33.88-2.23,1.46-2.73.36-.32.83-.49,1.31-.48.71.01,1.43.03,2.15.06-1.3-.41-2.49-.84-3.54-1.28-2.16-.44-3.57-2.57-3.14-4.73.45-2.22,2.65-3.64,4.87-3.11l.56-.05c.15-.07.31-.15.46-.22-1.01-1.31-1.16-3.18-.17-4.67,1.18-1.78,3.59-2.27,5.45-1.2l3.81,2.19c.14-.05.27-.1.41-.14,3.41-1.15,6.64-2.02,9.62-2.67,1.36-.3,2.79-.19,4.07.36s2.86,1.38,4.41,2.55c.93.71,1.73,1.43,2.4,2.13,1.39,1.44,2.95,2.71,4.67,3.73l4.15,2.45.88.52h0l1.46.87h0s32.22,19.07,32.22,19.07"/>
    </clipPath>
    <clipPath id="clippath-5">
      <path class="cls-6" d="M339.32,170.83h8.59v28.93c0,2.37-1.92,4.29-4.29,4.29h0c-2.37,0-4.29-1.92-4.29-4.29v-28.93h0Z" transform="translate(688.4 2.19) rotate(123.14)"/>
    </clipPath>
    <clipPath id="clippath-6">
      <path class="cls-39" d="M426.95,420.07h40.36l.39-23.83,3.46,23.83h44.81s-12.56-162.37-14.03-166.1-77.54,4.35-77.54,4.35l2.54,161.75Z"/>
    </clipPath>
    <clipPath id="clippath-7">
      <path class="cls-34" d="M501.69,260.46c.91-7.41,1.39-14.91,1.27-22.38-.05-3-2.82-26.52-1.95-26.91,11.09-4.88,21.29-6,22.86-2.47l-5.94-14.56c-3.37-8.25-9.95-14.83-18.28-18.01-1.13-.43-2.25-.82-3.33-1.16,0,0-.01,0-.02,0-19.54-5.71-43.56-11.18-61.72,1.5-2.99,2.09-5.95,4.49-7.73,7.72-.02.03.02-.04,0,0-.02.04-.04.07-.06.11-2.15,3.97-3.2,8.45-3.18,12.96.08,23.11-.01,50.13-.01,73.3,0-.52,30.38-3.17,32.84-3.46,15.14-1.77,30.23-3.98,45.25-6.64Z"/>
    </clipPath>
    <clipPath id="clippath-8">
      <path class="cls-33" d="M448.67,184.93c4.36,2.99,12.22,1.39,17.54-3.58,5.32-4.97,6.1-11.41,1.73-14.4s-12.22-1.39-17.54,3.58c-5.32,4.97-6.1,11.41-1.73,14.4Z"/>
    </clipPath>
    <clipPath id="clippath-9">
      <path class="cls-18" d="M469.51,172.1c-1.64-10.72-3.08-10.77-3.38-21.81l-21.28.59,4.81,28.4"/>
    </clipPath>
    <clipPath id="clippath-10">
      <path class="cls-33" d="M451.5,129.14c7.24-.51,13.6,4.37,14.11,11.61.77-.26,1.61-.36,2.47-.26,3.1.37,5.32,3.17,4.95,6.28-.22,1.84-1.47,3.53-3.09,4.39-.8.42-1.72.64-2.62.55-.48-.05-.9-.33-1.36-.39-.39-.06-.34-.07-.42.39-.19,1.03-.17,2.08-.38,3.11-.82,4.01-3.09,7.98-6.61,10.18-1.34.84-2.86,1.37-4.43,1.48-7.24.51-13.52-4.95-14.03-12.19l-.78-11.11c-.51-7.24,4.95-13.52,12.19-14.03Z"/>
    </clipPath>
    <clipPath id="clippath-11">
      <path class="cls-25" d="M436.41,422.4c10.11,4.07,29.38-4.83,29.38-4.83,0,0,2.28,13.47,1.87,23.19,0,0,5.15,10.61,2.98,25.35-.2,1.35-1.35,2.35-2.71,2.36l-73.3.54c-1.32,0-2.48-.9-2.78-2.19l-1.89-8.18c-.44-1.9.31-3.87,1.9-5,4.82-3.41,15.94-10.3,30.19-12.82l-1.56-22.36c.72-1.02,3.09-4.09,7.52-5.51,4.38-1.4,8.06-.31,9.24.1l-.84,9.34Z"/>
    </clipPath>
    <clipPath id="clippath-12">
      <path class="cls-25" d="M485.22,422.4c10.11,4.07,29.38-4.83,29.38-4.83,0,0,2.28,13.47,1.87,23.19,0,0,5.15,10.61,2.98,25.35-.2,1.35-1.35,2.35-2.71,2.36l-73.3.54c-1.32,0-2.48-.9-2.78-2.19l-1.89-8.18c-.44-1.9.31-3.87,1.9-5,4.82-3.41,15.94-10.3,30.19-12.82l-1.56-22.36c.72-1.02,3.09-4.09,7.52-5.51,4.38-1.4,8.06-.31,9.24.1l-.84,9.34Z"/>
    </clipPath>
    <clipPath id="clippath-13">
      <path class="cls-6" d="M486.67,223.01l7.18,28.02-37.04,5.42h0s-1.68.25-1.68.25l-1.01.15-4.88.71c-1.95.28-3.92.26-5.87.02-.96-.12-2.04-.18-3.21-.14-1.95.06-3.65.39-5.04.79-1.34.38-2.51,1.18-3.38,2.27-1.9,2.38-3.88,5.08-5.81,8.13-.08.12-.15.25-.23.37l-4.27.68c-2.1.33-3.72,2.18-3.55,4.29.14,1.82,1.44,3.21,3.08,3.6-.07.15-.15.31-.22.46-.14.13-.27.26-.4.39-2.06.98-2.88,3.47-1.83,5.48,1.02,1.95,3.46,2.73,5.41,1.71,1.09-.32,2.29-.73,3.56-1.23-.58.44-1.16.87-1.72,1.31-.38.29-.63.71-.71,1.19-.13.75-.15,1.93.58,3.05,1.27,1.95,3.6,1.88,3.71,1.88,1.35-.66.37-3.19,2.02-4.44,1.29-.98,4.94-.36,5.81-1.27,2.08-.51,4.76-1.37,7.67-2.88,1.79-.93,3.32-1.93,4.61-2.89,1.53-1.14,3.35-1.85,5.24-2.13l4.01-.59h0s44.53-6.51,44.53-6.51c11.63-2.43,19.37-13.48,17.69-25.24l-8.97-34.05"/>
    </clipPath>
    <clipPath id="clippath-14">
      <path class="cls-6" d="M465.57,255.17c-4.88.71-11.51.13-11.51.13-3.8-.38-7.61-.66-11.42-.85s-7.39-.49-11.03-.14c-2.55.24-5.07.7-7.57,1.22l-9.25,1.92-3.69.77c-2.27.47-3.72,2.69-3.25,4.96.42,2.01,2.2,3.37,4.18,3.33-1.79.77-2.85,2.72-2.44,4.7.4,1.92,2.06,3.25,3.93,3.32-1.62.84-2.57,2.68-2.18,4.56.47,2.27,2.69,3.72,4.96,3.25l16.26-3.38s0-.04,0,0l-16.26,3.38c-2.27.47-3.71,2.81-3.23,5.08.47,2.27,2.69,3.72,4.96,3.25,6.96-1.44,13.72-2.76,20.68-4.19,4.27-.88,8.8-2.25,12.57-4.11,0,0,11.8-5.35,17.02-6.2"/>
    </clipPath>
    <clipPath id="clippath-15">
      <path class="cls-54" d="M78.31,457.07h-14.91v-117.89c0-3.73,3.02-6.76,6.76-6.76h1.4c3.73,0,6.76,3.02,6.76,6.76v117.89Z"/>
    </clipPath>
    <clipPath id="clippath-16">
      <rect class="cls-54" x="30.95" y="315.55" width="71.43" height="24.15" rx="9.39" ry="9.39"/>
    </clipPath>
    <clipPath id="clippath-17">
      <path class="cls-41" d="M162.72,290.08c-4.32-.68-8.82-.95-13.16-1.25-5.01-.34-10.02-1.02-15.01-1.52-5.92-.58-11.84-1.17-17.76-1.75s-11.85-1.17-17.77-1.75c-5.02-.49-10.04-.99-15.07-1.48-3.22-.32-6.44-.63-9.66-.95-.24-.02-1.95.01-2.09-.21,0,0-.88-.09-.88-.06-9.24-.45-17.3,6.43-18.21,15.74-.92,9.31,5.65,17.62,14.79,19.01l89.94,8.86v-.14c1.56.45,3.19.7,4.89.7,9.73,0,17.63-7.89,17.63-17.63,0-4.42-1.78-8.78-4.87-11.93s-7.38-4.7-11.64-5.45l-.13-.02c-.33-.06-.66-.11-.99-.16Z"/>
    </clipPath>
    <clipPath id="clippath-18">
      <polygon class="cls-33" points="183.5 416.02 189.32 435.21 160.61 442.8 154.14 417.7 183.5 416.02"/>
    </clipPath>
    <clipPath id="clippath-19">
      <path class="cls-41" d="M153.52,433.01l-24.66-76.72-78.03-32.69h0s0,0,0,0l-.82-.34v-.02c-8.33-3.99-12.16-13.87-8.55-22.5,3.61-8.62,13.34-12.83,22.04-9.68v-.02s83.29,34.89,83.29,34.89c2.89,1.19,7.84,3.29,9.81,6l34.66,95.82c-2.63.02-2.29-5.68-20.63-3.25-9.1,1.2-16.29,6.05-17.11,8.51Z"/>
    </clipPath>
    <clipPath id="clippath-20">
      <polygon class="cls-33" points="133.61 396.07 123.02 413.1 98.38 396.53 112.97 375.11 133.61 396.07"/>
    </clipPath>
    <clipPath id="clippath-21">
      <path class="cls-41" d="M175.48,295.72c10.64,9.89,7.01,23.55,2.47,31.21l-46.6,77.44c-2.07-3.1-6.46-8.77-14.07-13.03-6.38-3.57-12.32-4.63-15.86-4.98l50.59-83.4"/>
    </clipPath>
    <clipPath id="clippath-22">
      <path class="cls-8" d="M93.86,251.57c-.12.22-.25.43-.36.63,0,0,12.52,28.57,14.93,35.79-9.15-3.51-14.89-8.11-32.23-6.37-21.9,2.19-35.39,11.84-44.85,19.26-3.21-13.36-8.86-33.1-9.34-45.75-.48-12.81-2.38-17.59,1.06-25.81,1.68-4.02,3.7-7.02,6.3-9.78,6.11-6.47,16.6-8.93,24.52-10.93,1-1.72,2.44-3.1,4.25-3.94,4.18-1.95,9.23-.51,12.95,3.2,1.65.3,3.29.68,4.86,1.1,6,1.6,11.12,5.54,14.11,10.98,2.1,3.83,4.32,9.11,5.97,16.18,1.22,5.23.48,10.75-2.15,15.43Z"/>
    </clipPath>
    <clipPath id="clippath-23">
      <path class="cls-18" d="M117.85,244.37c1.85-1.4,2.14-4.13.75-5.98-1.4-1.85-4.03-2.21-5.87-.82-5.67,4.28-11.21,8.37-16.89,12.65-3.48,2.62-6.99,5.81-9.59,9.1,0,0-5.1,4.59-9.3,7.81l-2.1,1.54s0,0,0,0h0l-17.67,12.97c-.55-12.25-1.09-24.5-1.64-36.75-.3-6.73-.98-14.26-6.11-18.62-2.7-2.29-6.41-3.33-9.91-2.79-3.5.54-6.72,2.64-8.65,5.61-2.88,4.44-2.73,10.13-2.47,15.41.65,13.44,1.31,26.88,1.96,40.32.38,7.81.76,15.65,2.12,23.36.3,1.7.54,3.04,1.49,4.47.83,1.24,1.75,2.36,2.92,3.3,3.23,2.59,7.78,3.12,11.7,2.02.09-.02.18-.05.26-.08,3.64-1.11,6.59-3.81,9.72-5.85,3.03-1.97,5.94-4.14,8.89-6.21,6.62-4.63,13.23-9.28,19.82-13.94,4.1-2.74,8.25-5.84,8.25-5.84,3.59-1.29,6.94-3.74,10.46-5.2,3.37-1.4,6.89-2.73,10.03-4.6,2.2-1.31,4.28-2.81,6.32-4.35l7.54-5.7c1-.76,2-1.51,3-2.27,1.85-1.4,2.21-4.03.82-5.87-1.24-1.63-3.43-2.1-5.2-1.22,1.28-1.46,1.41-3.67.19-5.29-1.18-1.57-3.25-2.05-4.98-1.32,1.11-1.46,1.18-3.52.02-5.05-1.4-1.85-4.03-2.21-5.87-.82l-13.97,10.56"/>
    </clipPath>
    <clipPath id="clippath-24">
      <path class="cls-55" d="M21.86,232.75c-6.22,15.96-1.57,30.27-.41,33.35-.4-5.21,8.87-10.16,20.7-11.06s21.91,2.58,22.14,7.8c-.24-5.34,1.75-19.12-5.66-33.21-3.14-7.51-10.63-12.27-18.62-11.88-8.42.41-14.75,6.73-18.15,15Z"/>
    </clipPath>
    <clipPath id="clippath-25">
      <ellipse class="cls-33" cx="68.39" cy="215.03" rx="9.54" ry="13.57" transform="translate(-140.15 128.86) rotate(-49.91)"/>
    </clipPath>
    <clipPath id="clippath-26">
      <path class="cls-18" d="M57.17,210.48c-.1-9.34,1.11-9.58-.17-19l18.17-2.47-.13,24.8"/>
    </clipPath>
    <clipPath id="clippath-27">
      <path class="cls-33" d="M66.48,171.47h0c-6.22.58-10.8,6.09-10.22,12.32l.1,1.04c-.69-.11-1.42-.09-2.13.12-2.58.74-4.08,3.44-3.33,6.02.74,2.58,3.44,4.08,6.02,3.33.12-.03.73-.6.89-.72.98,5.78,5.73,10.52,11.66,9.97h0c6.22-.58,10.8-6.09,10.22-12.32l-.89-9.55c-.58-6.22-6.09-10.8-12.32-10.22Z"/>
    </clipPath>
    <clipPath id="clippath-28">
      <path class="cls-8" d="M183.83,433.29c-8.88,6.33-29.69,2.19-29.69,2.19,0,0,.95,13.63,3.62,22.98,0,0-2.52,11.52,3.05,25.35.51,1.26,1.86,1.97,3.18,1.66l71.38-16.66c1.29-.3,2.2-1.46,2.19-2.78l-.08-8.39c-.02-1.95-1.21-3.69-3.02-4.41-5.48-2.18-17.91-6.27-32.35-5.38l-3.73-22.1c-.94-.82-3.96-3.25-8.6-3.59-4.59-.33-7.91,1.59-8.96,2.26l3.01,8.88Z"/>
    </clipPath>
    <clipPath id="clippath-29">
      <path class="cls-8" d="M121.12,407.79c-10.87-.88-24.13-17.44-24.13-17.44,0,0-8.06,11.04-12.03,19.91,0,0-9.35,7.2-13.99,21.35-.42,1.29.16,2.7,1.37,3.32l65.34,33.22c1.18.6,2.62.3,3.46-.72l5.34-6.47c1.24-1.5,1.45-3.6.53-5.32-2.79-5.2-9.66-16.33-21.28-24.95l11.38-19.31c-.19-1.23-.94-5.04-4.27-8.29-3.29-3.21-7.08-3.88-8.31-4.04l-3.42,8.73Z"/>
    </clipPath>
  </defs>
  <g id="Layer_1" data-name="Layer 1">
    <circle class="cls-63" cx="270" cy="270" r="201.87"/>
  </g>
  <g id="Layer_2" data-name="Layer 2">
    <g>
      <g>
        <path class="cls-60" d="M463.1,91.74v9.5H76.73v-9.5c0-6.61,5.35-11.96,11.96-11.96h362.44c6.61,0,11.96,5.35,11.96,11.96Z"/>
        <circle class="cls-61" cx="426.54" cy="90.88" r="3.65"/>
        <circle class="cls-61" cx="437.01" cy="90.88" r="3.65"/>
        <circle class="cls-61" cx="447.48" cy="90.88" r="3.65"/>
      </g>
      <path class="cls-63" d="M463.1,101.51v320.49c0,9.64-5.35,17.45-11.96,17.45H88.7c-6.61,0-11.96-7.8-11.96-17.45V101.51h386.37Z"/>
      <g>
        <path class="cls-61" d="M446.84,77.23c6.61,0,11.96,5.35,11.96,11.96v9.5H72.43v-9.5c0-6.61,5.35-11.96,11.96-11.96h362.44M446.84,76.23H84.4c-7.15,0-12.96,5.82-12.96,12.96v9.5c0,.55.45,1,1,1h386.37c.55,0,1-.45,1-1v-9.5c0-7.15-5.82-12.96-12.96-12.96h0Z"/>
        <path class="cls-61" d="M458.8,99.66v319.82c0,9.62-5.35,17.41-11.96,17.41H84.4c-6.61,0-11.96-7.79-11.96-17.41V99.66h386.37M458.8,98.66H72.43c-.55,0-1,.45-1,1v319.82c0,10.15,5.81,18.41,12.96,18.41h362.44c7.15,0,12.96-8.26,12.96-18.41V99.66c0-.55-.45-1-1-1h0Z"/>
      </g>
      <g>
        <g>
          <line class="cls-16" x1="242.74" y1="299.69" x2="435.9" y2="299.69"/>
          <line class="cls-16" x1="242.74" y1="323.78" x2="435.9" y2="323.78"/>
          <line class="cls-16" x1="242.74" y1="347.86" x2="435.9" y2="347.86"/>
          <line class="cls-16" x1="242.74" y1="371.95" x2="435.9" y2="371.95"/>
          <polyline class="cls-5" points="236.07 284.37 236.07 395.93 435.9 395.93"/>
        </g>
        <rect class="cls-59" x="252.56" y="310.24" width="18.56" height="85.7"/>
        <rect class="cls-60" x="282.39" y="353.09" width="18.56" height="42.85"/>
        <rect class="cls-60" x="312.23" y="293.26" width="18.56" height="102.68"/>
        <rect class="cls-59" x="342.06" y="329.98" width="18.56" height="65.95"/>
        <rect class="cls-60" x="371.9" y="377.38" width="18.56" height="18.56"/>
        <rect class="cls-60" x="401.73" y="343.81" width="18.56" height="52.12"/>
      </g>
      <g>
        <circle class="cls-60" cx="268.44" cy="196.72" r="44.33"/>
        <circle class="cls-59" cx="268.44" cy="196.72" r="44.33"/>
        <path class="cls-59" d="M292.31,159.37l-23.87,37.35,39.02-21.05c-1.37-2.49-3.22-5.7-6.1-8.86-3.17-3.47-6.52-5.79-9.05-7.44Z"/>
        <path class="cls-56" d="M268.44,196.72l33.13,29.45c3.59-2.91,7.83-9.58,10.11-18.96,3.77-15.49-2.09-28.62-4.22-31.54-13.01,7.02-26.01,14.04-39.02,21.05Z"/>
      </g>
      <g>
        <g>
          <path class="cls-55" d="M420.96,89.16v4.31h-175.4v-4.31c0-3,2.43-5.43,5.43-5.43h164.54c3,0,5.43,2.43,5.43,5.43Z"/>
          <path class="cls-60" d="M420.96,93.47v99.78c0,3-2.43,5.43-5.43,5.43h-164.54c-3,0-5.43-2.43-5.43-5.43v-99.78h175.4Z"/>
          <circle class="cls-61" cx="404.36" cy="88.77" r="1.66"/>
          <circle class="cls-61" cx="409.12" cy="88.77" r="1.66"/>
          <circle class="cls-61" cx="413.87" cy="88.77" r="1.66"/>
        </g>
        <g>
          <path class="cls-61" d="M413.23,82.13c3,0,5.43,2.43,5.43,5.43v4.31h-175.4v-4.31c0-3,2.43-5.43,5.43-5.43h164.54M413.23,81.52h-164.54c-3.33,0-6.04,2.71-6.04,6.04v4.92h176.61v-4.92c0-3.33-2.71-6.04-6.04-6.04h0Z"/>
          <path class="cls-61" d="M418.67,92.39v99.29c0,2.99-2.43,5.4-5.43,5.4h-164.54c-3,0-5.43-2.42-5.43-5.4v-99.29h175.4M419.27,91.79h-176.61v99.89c0,3.31,2.71,6.01,6.04,6.01h164.54c3.33,0,6.04-2.7,6.04-6.01v-99.89h0Z"/>
        </g>
        <g>
          <g>
            <polygon class="cls-55" points="273.09 147.12 387.79 147.12 387.55 120.24 369.44 123.22 341.99 114.17 315.04 123.06 304.58 110.04 289.88 113.77 273.09 131.09 273.09 147.12"/>
            <polyline class="cls-43" points="272.82 131.42 289.88 113.77 304.58 110.04 314.95 123.16 341.99 114.17 369.42 123.24 387.79 120.32"/>
            <circle class="cls-64" cx="289.77" cy="113.81" r="1.07"/>
            <circle class="cls-64" cx="304.58" cy="110.04" r="1.07"/>
            <circle class="cls-64" cx="273.09" cy="131.09" r="1.07"/>
            <circle class="cls-64" cx="315.04" cy="123.06" r="1.07"/>
            <circle class="cls-64" cx="341.95" cy="114.44" r="1.07"/>
            <circle class="cls-64" cx="369.44" cy="123.22" r="1.07"/>
            <circle class="cls-64" cx="387.79" cy="120.1" r="1.07"/>
          </g>
          <rect class="cls-54" x="268.61" y="158.78" width="110.71" height="7.11" rx="3.56" ry="3.56"/>
          <rect class="cls-54" x="268.61" y="171.9" width="110.71" height="7.11" rx="3.56" ry="3.56"/>
          <rect class="cls-60" x="269.62" y="172.87" width="72.35" height="5.17" rx="2.59" ry="2.59"/>
          <rect class="cls-59" x="269.62" y="159.74" width="43.92" height="5.17" rx="2.59" ry="2.59"/>
          <g>
            <polygon class="cls-55" points="387.79 140.4 387.79 147.12 273.09 147.12 273.09 134.03 288.83 139.03 314.95 132.43 359.98 141.13 387.79 140.4"/>
            <polyline class="cls-43" points="272.82 133.93 288.83 139.03 314.95 132.43 360.49 141.13 387.79 140.32"/>
            <circle class="cls-64" cx="359.98" cy="141.13" r="1.07"/>
            <circle class="cls-64" cx="315.04" cy="132.16" r="1.07"/>
            <circle class="cls-64" cx="273.09" cy="134.03" r="1.07"/>
            <circle class="cls-64" cx="288.69" cy="139.03" r="1.07"/>
            <circle class="cls-64" cx="387.79" cy="140.4" r="1.07"/>
          </g>
          <polyline class="cls-24" points="268.22 119.03 268.22 147.12 393 147.12"/>
        </g>
      </g>
      <g>
        <rect class="cls-6" x="429.23" y="413.55" width="31.72" height="23.94"/>
        <rect class="cls-6" x="479.31" y="413.55" width="31.72" height="23.94"/>
        <ellipse class="cls-17" cx="424.42" cy="217.52" rx="7.06" ry="22.2" transform="translate(-.65 433.76) rotate(-54.1)"/>
        <g>
          <g>
            <path class="cls-30" d="M369.53,240.88"/>
            <path class="cls-30" d="M368.23,219.68h1.02s1.7.03,1.7.03h0s35.86,2.86,35.86,2.86l23.43-36.9,1.34,1.62c2.93-4.78,7.8-8.09,12.78-5.37,4.98,2.72,8.26.74,5.82,5.79h.01s-.26.48-.26.48h0s0,0,0,0l-25.99,47.62c-1.81,3.34-5.36,5.59-9.42,5.55"/>
            <path class="cls-30" d="M338.28,227.28"/>
            <path class="cls-30" d="M331.97,235.44"/>
            <g class="cls-82">
              <path class="cls-61" d="M434.71,198.88c-6.33,13.08-13.69,25.65-21.99,37.58-2.13,3.05-.66,8.01,2.54,9.7,3.62,1.92,7.43.71,9.7-2.54,8.31-11.93,15.66-24.49,21.99-37.58.84-1.74,1.24-3.55.71-5.46-.45-1.65-1.73-3.43-3.26-4.24-3.18-1.68-7.98-1.02-9.7,2.54h0Z"/>
              <path class="cls-17" d="M412.11,207.02s15.58,2.51,17.67,4.85,5.86-12.39,5.86-12.39l-14.72-6.79-9.64,14.33"/>
            </g>
            <path class="cls-27" d="M369.53,240.88"/>
            <path class="cls-27" d="M368.23,219.68h1.02s1.7.03,1.7.03h0s35.86,2.86,35.86,2.86l23.43-36.9,1.34,1.62c2.93-4.78,7.8-8.09,12.78-5.37,4.98,2.72,8.26.74,5.82,5.79h.01s-.26.48-.26.48h0s0,0,0,0l-25.99,47.62c-1.81,3.34-5.36,5.59-9.42,5.55"/>
            <path class="cls-27" d="M338.28,227.28"/>
            <path class="cls-27" d="M331.97,235.44"/>
          </g>
          <path class="cls-27" d="M355.57,205.36c1.69-.19,3.38-.33,5.08-.42"/>
          <line class="cls-6" x1="408.39" y1="220.09" x2="406.82" y2="223.55"/>
          <path class="cls-27" d="M423.96,235.8c-1.81,3.34-5.36,5.59-9.42,5.55"/>
        </g>
        <g>
          <g>
            <path class="cls-30" d="M462.59,209.03c2.95,4.84,6.78,4.78,2.14,7.93h0s-.46.29-.46.29h0s0,0,0,0l-46.34,28.22c-3.24,1.98-7.44,2.15-10.93.08l-38.73-22.92h0s-3.52-2.09-3.52-2.09c-1.66-.98-3.53-1.54-5.46-1.62-1.59-.07-3.38-.25-5.32-.64-3.21-.65-5.84-1.66-7.78-2.57-1.25.16-2.7.26-4.33.21-2.07-.06-3.88-.35-5.35-.69-.09-.06-1.94-1.47-1.7-3.79.14-1.33.88-2.23,1.46-2.73.36-.32.83-.49,1.31-.48.71.01,1.43.03,2.15.06-1.3-.41-2.49-.84-3.54-1.28-2.16-.44-3.57-2.57-3.14-4.73.45-2.22,2.65-3.64,4.87-3.11l.56-.05c.15-.07.31-.15.46-.22-1.01-1.31-1.16-3.18-.17-4.67,1.18-1.78,3.59-2.27,5.45-1.2l3.81,2.19c.14-.05.27-.1.41-.14,3.41-1.15,6.64-2.02,9.62-2.67,1.36-.3,2.79-.19,4.07.36s2.86,1.38,4.41,2.55c.93.71,1.73,1.43,2.4,2.13,1.39,1.44,2.95,2.71,4.67,3.73l4.15,2.45.88.52h0l1.46.87h0s32.22,19.07,32.22,19.07"/>
            <g class="cls-74">
              <path class="cls-61" d="M445.66,218.93c-12.03,8.16-24.69,15.36-37.85,21.53-1.53.71-2.83,2.67-3.26,4.24-.47,1.7-.26,3.96.71,5.46,2.24,3.47,6.1,4.23,9.7,2.54,13.16-6.17,25.82-13.37,37.85-21.53,3.06-2.08,4.72-6.33,2.54-9.7-1.97-3.05-6.42-4.77-9.7-2.54h0Z"/>
              <path class="cls-61" d="M415.88,237.89c-7.87-3.72-15.63-7.69-23.25-11.91-3.68-2.04-7.29-4.19-10.95-6.26-3.88-2.19-8-4.21-12.37-5.17-3.62-.79-7.84,1.08-8.72,4.95-.82,3.58,1.08,7.88,4.95,8.72,1,.22,1.98.48,2.95.81.41.14.82.3,1.23.45.7.28.54.21-.48-.22.27.12.53.24.8.36,1.73.8,3.41,1.71,5.06,2.66,3.6,2.06,7.17,4.16,10.79,6.16,7.48,4.13,15.1,8.02,22.83,11.68,1.76.83,3.53,1.25,5.46.71,1.65-.45,3.43-1.73,4.24-3.26,1.67-3.15,1.04-8.01-2.54-9.7h0Z"/>
              <path class="cls-61" d="M349.42,218.15c3.1.82,6.32,1.24,9.5,1.5s6.15.34,9.2-.03c1.39-.17,2.59-1.07,2.59-2.59,0-1.27-1.19-2.77-2.59-2.59-2.95.36-5.96.28-8.91.06-.76-.06-1.51-.13-2.26-.21-.23-.03-.47-.05-.7-.08-.05,0-.54-.07-.34-.04,0,0-.63-.09-.87-.13-1.42-.22-2.84-.5-4.23-.87s-2.82.45-3.19,1.81.45,2.83,1.81,3.19h0Z"/>
              <path class="cls-61" d="M348.28,215.17c-.18-.02-.37-.02-.55,0-.4.05-.82.08-1.2.22-.34.08-.63.24-.88.46-.28.18-.51.43-.67.73-.19.3-.29.62-.31.96-.08.34-.06.69.05,1.03l.26.62c.23.39.54.7.93.93l.62.26c.46.12.92.12,1.38,0,.16-.06.32-.1.48-.12l-.69.09c.19-.03.38-.03.58,0,.36.01.69-.06,1-.22.32-.1.6-.28.83-.54.25-.24.43-.51.54-.83.16-.31.24-.64.22-1l-.09-.69c-.12-.44-.35-.82-.67-1.14l-.53-.41c-.4-.23-.84-.35-1.31-.35h0Z"/>
              <path class="cls-43" d="M347.81,213.69c-1.9.92-4.05,1.21-6.15,1.17s-4.19-.43-6.26-.81"/>
              <path class="cls-43" d="M348.53,214.68c-4.6,1.22-10.11.83-14.78-.09"/>
              <path class="cls-17" d="M422.09,214.63s12.23,9.98,12.87,13.04,11.27-7.8,11.27-7.8l-9.35-13.25-15.52,7.58"/>
            </g>
            <path class="cls-27" d="M462.59,209.03c2.95,4.84,6.78,4.78,2.14,7.93h0s-.46.29-.46.29h0s0,0,0,0l-46.34,28.22c-3.24,1.98-7.44,2.15-10.93.08l-38.73-22.92h0s-3.52-2.09-3.52-2.09c-1.66-.98-3.53-1.54-5.46-1.62-1.59-.07-3.38-.25-5.32-.64-3.21-.65-5.84-1.66-7.78-2.57-1.25.16-2.7.26-4.33.21-2.07-.06-3.88-.35-5.35-.69-.09-.06-1.94-1.47-1.7-3.79.14-1.33.88-2.23,1.46-2.73.36-.32.83-.49,1.31-.48.71.01,1.43.03,2.15.06-1.3-.41-2.49-.84-3.54-1.28-2.16-.44-3.57-2.57-3.14-4.73.45-2.22,2.65-3.64,4.87-3.11l.56-.05c.15-.07.31-.15.46-.22-1.01-1.31-1.16-3.18-.17-4.67,1.18-1.78,3.59-2.27,5.45-1.2l3.81,2.19c.14-.05.27-.1.41-.14,3.41-1.15,6.64-2.02,9.62-2.67,1.36-.3,2.79-.19,4.07.36s2.86,1.38,4.41,2.55c.93.71,1.73,1.43,2.4,2.13,1.39,1.44,2.95,2.71,4.67,3.73l4.15,2.45.88.52h0l1.46.87h0s32.22,19.07,32.22,19.07"/>
          </g>
          <g>
            <path class="cls-30" d="M339.32,170.83h8.59v28.93c0,2.37-1.92,4.29-4.29,4.29h0c-2.37,0-4.29-1.92-4.29-4.29v-28.93h0Z" transform="translate(688.4 2.19) rotate(123.14)"/>
            <g class="cls-88">
              <path class="cls-27" d="M373.97,184.89c1.56.68,3.09,1.4,4.61,2.18"/>
              <path class="cls-61" d="M356.87,191.77c-2.96-.03-6,.22-8.63,1.68-.79.44-1.12,1.59-.62,2.37s1.52,1.09,2.37.62c.15-.09.31-.17.47-.25.04-.02.51-.23.27-.13s.24-.09.28-.1c.17-.06.33-.11.5-.17.59-.18,1.2-.3,1.81-.4.2-.03.18-.03-.06,0,.07,0,.13-.02.2-.02.16-.02.31-.03.47-.05.31-.03.62-.05.94-.06.67-.03,1.34-.04,2.01-.03.9,0,1.77-.8,1.73-1.73s-.76-1.72-1.73-1.73h0Z"/>
            </g>
            <path class="cls-27" d="M339.32,170.83h8.59v28.93c0,2.37-1.92,4.29-4.29,4.29h0c-2.37,0-4.29-1.92-4.29-4.29v-28.93h0Z" transform="translate(688.4 2.19) rotate(123.14)"/>
          </g>
          <polygon class="cls-61" points="351.41 192.78 330.01 178.04 329.09 179.84 329.09 181.45 329.76 183.15 333.09 185.7 347.79 195.3 351.69 195.29 351.41 192.78"/>
          <path class="cls-27" d="M339.32,170.83h8.59v28.93c0,2.37-1.92,4.29-4.29,4.29h0c-2.37,0-4.29-1.92-4.29-4.29v-28.93h0Z" transform="translate(688.4 2.19) rotate(123.14)"/>
          <line class="cls-6" x1="412.33" y1="224.08" x2="409.23" y2="226.29"/>
          <path class="cls-6" d="M361.55,210.36s-3.22-2.37-6.78-5.97"/>
          <path class="cls-61" d="M349.68,207.87s-5.47.32-7.95-.65c-2.47-.97-6.93-2.61-8.73-4.54l.49,2.34,1.22,1.29,2.95,1.28,5.02,1.63,2.17.49,2.44.2,1.79-.73.59-1.31Z"/>
          <path class="cls-6" d="M357.75,200.17l-15.96,4.24-4.33,1.13c-1.21.06-2.32-.62-2.78-1.7-.03-.08-.07-.16-.09-.24-.39-1.21.22-2.53,1.34-3.14,4.79-2.64,8.88-4.23,11.87-5.16,5.97-1.84,10.27-2.9,10.27-2.9.78-.12,2.02-.2,3.48.14,1.89.45,3.19,1.4,3.84,1.95"/>
          <path class="cls-6" d="M346.2,215.71l.86-.58c1.76-1.19,2.26-3.56,1.14-5.37h0"/>
          <path class="cls-6" d="M352.12,201.67h0c0,1.58-1.12,2.94-2.68,3.23l-.52.1"/>
          <path class="cls-6" d="M335.56,199.69h2.51c.93,0,1.68.75,1.68,1.68h0c0,.93-.75,1.68-1.68,1.68h-2.51v-3.35h0Z" transform="translate(728.09 247.42) rotate(155.92)"/>
          <line class="cls-6" x1="355.99" y1="207.86" x2="353.08" y2="207.86"/>
          <path class="cls-61" d="M344.74,213.82s3.48-1.37,3.95-1.97-.3,1.77-.3,1.77l-.53.78-1.55,1.23-.87-.39-.69-1.42Z"/>
          <path class="cls-27" d="M339.74,208.28s7.21,2.68,9.06,1.17c1.85-1.5.87-5.41-2.55-6.23"/>
          <path class="cls-27" d="M417.94,245.47c-3.24,1.98-7.44,2.15-10.93.08l-38.73-22.92h0s-3.52-2.09-3.52-2.09c-1.66-.98-3.53-1.54-5.46-1.62-1.59-.07-3.38-.25-5.32-.64-3.21-.65-5.84-1.66-7.78-2.57-1.25.16-2.7.26-4.33.21-2.07-.06-3.88-.35-5.35-.69-.09-.06-1.94-1.47-1.7-3.79.14-1.33.88-2.23,1.46-2.73.36-.32.83-.49,1.31-.48.71.01,1.43.03,2.15.06-1.3-.41-2.49-.84-3.54-1.28-2.16-.44-3.57-2.57-3.14-4.73.45-2.22,2.65-3.64,4.87-3.11l.56-.05c.15-.07.31-.15.46-.22-1.01-1.31-1.16-3.18-.17-4.67,1.18-1.78,3.59-2.27,5.45-1.2l3.81,2.19c.14-.05.27-.1.41-.14,3.41-1.15,6.64-2.02,9.62-2.67,1.36-.3,2.79-.19,4.07.36s2.86,1.38,4.41,2.55c.93.71,1.73,1.43,2.4,2.13,1.39,1.44,2.95,2.71,4.67,3.73l4.15,2.45.88.52h0l1.46.87h0s32.22,19.07,32.22,19.07"/>
        </g>
        <path class="cls-34" d="M406.43,204.5s17.53-24.27,30.25-26.57c12.72-2.3,10.66,49.53,10.66,49.53-2.3-3.88-8.92-13.86-21.86-19.36-7.74-3.29-14.75-3.7-19.05-3.6Z"/>
        <g>
          <path class="cls-70" d="M426.95,420.07h40.36l.39-23.83,3.46,23.83h44.81s-12.56-162.37-14.03-166.1-77.54,4.35-77.54,4.35l2.54,161.75Z"/>
          <g class="cls-69">
            <path class="cls-50" d="M420.52,275.43c.81,0,86.73-4.72,90.23-9.36s-2.7-17.71-2.7-17.71l-81.1,12.41-6.43,14.65Z"/>
            <path class="cls-50" d="M484.81,248.37l21.7,186.91,52.7-9.77s-14.84-193.39-16.81-195.61-57.58,18.47-57.58,18.47Z"/>
          </g>
          <path class="cls-43" d="M426.95,420.07h40.36l.39-23.83,3.46,23.83h44.81s-12.56-162.37-14.03-166.1-77.54,4.35-77.54,4.35l2.54,161.75Z"/>
        </g>
        <g>
          <path class="cls-48" d="M501.69,260.46c.91-7.41,1.39-14.91,1.27-22.38-.05-3-2.82-26.52-1.95-26.91,11.09-4.88,21.29-6,22.86-2.47l-5.94-14.56c-3.37-8.25-9.95-14.83-18.28-18.01-1.13-.43-2.25-.82-3.33-1.16,0,0-.01,0-.02,0-19.54-5.71-43.56-11.18-61.72,1.5-2.99,2.09-5.95,4.49-7.73,7.72-.02.03.02-.04,0,0-.02.04-.04.07-.06.11-2.15,3.97-3.2,8.45-3.18,12.96.08,23.11-.01,50.13-.01,73.3,0-.52,30.38-3.17,32.84-3.46,15.14-1.77,30.23-3.98,45.25-6.64Z"/>
          <g class="cls-72">
            <path class="cls-57" d="M486.92,255.94c.85,1.58,1.61,3.2,2.32,4.85l-2.26-5.34c1.57,3.73,2.83,7.58,4.13,11.41,1.87,5.52,4,10.95,6.45,16.25,1.41,2.61,3.33,4.7,5.76,6.28,2.16,1.98,4.7,3.31,7.61,4,2.97.93,5.95,1.07,8.92.4,2.98-.14,5.75-1.02,8.32-2.65,4.78-3.08,8.98-7.66,10.28-13.37l.8-5.95c-.01-4.04-1.03-7.8-3.05-11.29-.31-.68-.62-1.36-.91-2.05l2.26,5.34c-1.78-4.22-3.17-8.58-4.65-12.91-2.05-5.98-4.34-11.97-7.33-17.55-1.41-2.61-3.33-4.7-5.76-6.28-2.16-1.98-4.7-3.31-7.61-4-2.97-.93-5.95-1.07-8.92-.4-2.98.14-5.75,1.02-8.32,2.65-4.78,3.08-8.98,7.66-10.28,13.37l-.8,5.95c.01,4.04,1.03,7.8,3.05,11.29h0Z"/>
            <path class="cls-61" d="M471.81,231.28c.6,4.27,2.48,8.2,4.19,12.11,1,2.28,2.22,4.44,3.59,6.52,3.39,5.15,7.44,9.83,11.21,14.69l-3.5-4.53c.7.91,1.4,1.84,1.98,2.84,1.41,2.61,3.33,4.7,5.76,6.28,2.16,1.98,4.7,3.31,7.61,4,2.97.93,5.95,1.07,8.92.4,2.98-.14,5.75-1.02,8.32-2.65,4.78-3.08,8.98-7.66,10.28-13.37s.81-11.9-2.26-17.24c-1.64-2.85-3.97-5.46-5.96-7.99-1.25-1.59-2.53-3.15-3.77-4.75l3.5,4.53c-2.76-3.57-5.32-7.32-7.11-11.47l2.26,5.34c-.89-2.13-1.55-4.32-1.86-6.6-.69-2.91-2.03-5.45-4-7.61-1.58-2.44-3.67-4.36-6.28-5.76-2.57-1.63-5.34-2.52-8.32-2.65-2.97-.67-5.95-.53-8.92.4-5.41,1.75-10.64,5.11-13.37,10.28l-2.26,5.34c-1.07,3.96-1.07,7.93,0,11.89h0Z"/>
          </g>
          <path class="cls-43" d="M501.69,260.46c.91-7.41,1.39-14.91,1.27-22.38-.05-3-2.82-26.52-1.95-26.91,11.09-4.88,21.29-6,22.86-2.47l-5.94-14.56c-3.37-8.25-9.95-14.83-18.28-18.01-1.13-.43-2.25-.82-3.33-1.16,0,0-.01,0-.02,0-19.54-5.71-43.56-11.18-61.72,1.5-2.99,2.09-5.95,4.49-7.73,7.72-.02.03.02-.04,0,0-.02.04-.04.07-.06.11-2.15,3.97-3.2,8.45-3.18,12.96.08,23.11-.01,50.13-.01,73.3,0-.52,30.38-3.17,32.84-3.46,15.14-1.77,30.23-3.98,45.25-6.64Z"/>
        </g>
        <ellipse class="cls-17" cx="503.6" cy="217.75" rx="22.2" ry="7.06" transform="translate(-45.02 224) rotate(-24.04)"/>
        <path class="cls-49" d="M471.27,187.55c.72,1.93,3.99,22.01,3.99,22.01,1.12,3.16,2.16,6.83,4.11,10.54,1.3,2.47,2.64,4.7,3.95,6.69-.09-.5-.17-1.3.05-2.24.38-1.6,1.4-2.57,1.8-2.92.29-.32.7-.74,1.2-1.23.71-.7,1.64-1.56,2.51-2.2,1.75-1.29,4.56-3.14,5.57-3.71s4.74-2.51,5.33-2.76c.59-.25,3.99-1.7,4.64-1.95.65-.25,3.78-1.31,4.61-1.55.83-.23,4.32-1.33,6.27-1.5,1.95-.18,2.32-.31,2.32-.31l-5.58-15.34-8.58-11.91-4.91-3.41-4.24-1.34-4.82-1.29-8.13.47-10.09,13.95Z"/>
        <path class="cls-4" d="M486.67,172.5s5.9,1.14,13.02,3.65c8.4,2.96,14.88,9.76,18.24,18l5.94,14.56c-1.59-3.56-11.95-2.4-23.15,2.6-11.2,4.99-18.99,11.93-17.4,15.49,0,0-9.58-15.46-10.61-24.13"/>
        <g>
          <path class="cls-30" d="M448.67,184.93c4.36,2.99,12.22,1.39,17.54-3.58,5.32-4.97,6.1-11.41,1.73-14.4s-12.22-1.39-17.54,3.58c-5.32,4.97-6.1,11.41-1.73,14.4Z"/>
          <g class="cls-83">
            <path class="cls-61" d="M464.3,171.83c.08-.6.12-.79-.04-.09-.07.3-.15.6-.24.9-.03.09-.28.65-.25.7.27-.6.32-.73.16-.38-.05.11-.11.23-.16.34-.28.56-.6,1.1-.94,1.62-.07.11-.14.21-.21.31-.22.31-.14.21.24-.29-.02,0-.44.53-.48.58-.41.47-.86.92-1.32,1.35-.23.22-.47.43-.72.63-.1.08-.19.16-.29.24-.29.24-.19.16.3-.22.08.13-2.74,1.79-3.01,1.94-.49.27-1,.53-1.51.77-.28.14-.57.26-.86.39-.65.31,1.18-.46.02-.01s-2.25.83-3.4,1.18c-2.35.72-4.75,1.26-7.16,1.77-2.65.56-4.44,3.82-3.61,6.36.91,2.8,3.52,4.21,6.36,3.61,5.64-1.19,11.38-2.7,16.35-5.72,2.56-1.56,5.01-3.5,6.86-5.87,2.4-3.07,3.74-6.27,4.25-10.13.16-1.21-.69-2.84-1.52-3.66-.9-.9-2.37-1.57-3.66-1.52s-2.73.5-3.66,1.52c-.99,1.08-1.33,2.22-1.52,3.66h0Z"/>
          </g>
          <path class="cls-43" d="M448.67,184.93c4.36,2.99,12.22,1.39,17.54-3.58,5.32-4.97,6.1-11.41,1.73-14.4s-12.22-1.39-17.54,3.58c-5.32,4.97-6.1,11.41-1.73,14.4Z"/>
        </g>
        <g>
          <path class="cls-30" d="M469.51,172.1c-1.64-10.72-3.08-10.77-3.38-21.81l-21.28.59,4.81,28.4"/>
          <g class="cls-79">
            <path class="cls-62" d="M504.91,97.79c-1.83,4.85-3.88,9.61-6.13,14.27-.57,1.18,1.2,2.23,1.77,1.04,2.33-4.83,4.44-9.75,6.34-14.76.47-1.24-1.52-1.77-1.98-.55h0Z"/>
            <path class="cls-61" d="M460.39,156.15c1.06,2.78,1.6,5.73,2.01,8.67l-.22-1.64c.37,2.74.59,5.5.8,8.26.12,1.65.6,3.15,1.8,4.36,1.07,1.07,2.82,1.87,4.36,1.8s3.25-.59,4.36-1.8,1.93-2.74,1.8-4.36c-.26-3.41-.58-6.8-1.06-10.18-.4-2.85-.94-5.7-1.97-8.39-.59-1.54-1.36-2.82-2.83-3.68-1.32-.77-3.27-1.1-4.75-.62s-2.93,1.41-3.68,2.83-1.2,3.22-.62,4.75h0Z"/>
            <path class="cls-61" d="M448.23,167.97c2.14,1.63,4.94,1.61,7.47,1.26,1.92-.27,3.82-.76,5.63-1.46,4.06-1.59,7.8-4.11,9.87-8.06.84-1.59.46-3.81-1.23-4.71-1.59-.84-3.82-.47-4.71,1.23-.18.35-.38.69-.59,1.02-.12.18-.25.35-.37.53.14-.21.32-.38.06-.09-.53.58-1.07,1.12-1.67,1.63-.64.54.38-.24-.03.02-.15.09-.29.2-.43.3-.33.22-.67.43-1.01.62-.39.22-.78.42-1.18.62-.16.08-.33.15-.49.22.41-.2.31-.12-.05.02-1.5.59-3.07,1.01-4.65,1.31-.18.03-.37.06-.55.09-.41.08.59-.04-.08,0-.43.02-.86.05-1.29.03-.1,0-.68-.11-.24,0,.5.11-.25-.09-.35-.11-.4-.1-.14-.12.06.04-.22-.16-.47-.29-.69-.46-1.44-1.1-3.91-.27-4.71,1.23-.96,1.82-.3,3.54,1.23,4.71h0Z"/>
          </g>
          <path class="cls-4" d="M469.51,172.1c-1.64-10.72-3.08-10.77-3.38-21.81l-21.28.59,4.81,28.4"/>
        </g>
        <ellipse class="cls-13" cx="442.49" cy="144.59" rx="7.39" ry="8.14"/>
        <g>
          <path class="cls-30" d="M451.5,129.14c7.24-.51,13.6,4.37,14.11,11.61.77-.26,1.61-.36,2.47-.26,3.1.37,5.32,3.17,4.95,6.28-.22,1.84-1.47,3.53-3.09,4.39-.8.42-1.72.64-2.62.55-.48-.05-.9-.33-1.36-.39-.39-.06-.34-.07-.42.39-.19,1.03-.17,2.08-.38,3.11-.82,4.01-3.09,7.98-6.61,10.18-1.34.84-2.86,1.37-4.43,1.48-7.24.51-13.52-4.95-14.03-12.19l-.78-11.11c-.51-7.24,4.95-13.52,12.19-14.03Z"/>
          <g class="cls-89">
            <path class="cls-44" d="M462.6,96.54c3.88-1.61,7.63-3.55,11.17-5.8"/>
            <line class="cls-9" x1="466.27" y1="144.59" x2="470.13" y2="147.54"/>
            <line class="cls-9" x1="468.99" y1="144.55" x2="466.7" y2="147.62"/>
          </g>
          <path class="cls-43" d="M451.5,129.14c7.24-.51,13.6,4.37,14.11,11.61.77-.26,1.61-.36,2.47-.26,3.1.37,5.32,3.17,4.95,6.28-.22,1.84-1.47,3.53-3.09,4.39-.8.42-1.72.64-2.62.55-.48-.05-.9-.33-1.36-.39-.39-.06-.34-.07-.42.39-.19,1.03-.17,2.08-.38,3.11-.82,4.01-3.09,7.98-6.61,10.18-1.34.84-2.86,1.37-4.43,1.48-7.24.51-13.52-4.95-14.03-12.19l-.78-11.11c-.51-7.24,4.95-13.52,12.19-14.03Z"/>
        </g>
        <path class="cls-22" d="M446.9,144.36s-2.58-2.11-4.42-.52"/>
        <path class="cls-22" d="M455.25,144.29s-2.58-2.11-4.42-.52"/>
        <path class="cls-9" d="M449.37,150.17c.01.1-2.12,2.06-2.13,2.89,0,.45.39.29.83.22l1.86-.31"/>
        <ellipse class="cls-61" cx="444.37" cy="147.37" rx="1.57" ry=".79" transform="translate(276.23 584.3) rotate(-87.3)"/>
        <ellipse class="cls-61" cx="452.78" cy="147.21" rx=".79" ry="1.57" transform="translate(-.72 2.25) rotate(-.28)"/>
        <path class="cls-22" d="M450.8,157.87c.24,1.13,1.5,1.85,2.74,1.56,1.24-.28,2-1.46,1.66-2.57"/>
        <path class="cls-19" d="M463.75,133.56s-4.64-.28-8.5-5.01"/>
        <path class="cls-19" d="M447.24,124.77s-1.03,5.81-4.75,7.31"/>
        <path class="cls-35" d="M466.04,169.01s.72,8.18-4.85,12.15"/>
        <polygon class="cls-61" points="469.05 406.49 463.92 286.75 460.21 291.19 467.31 405.47 469.05 406.49"/>
        <path class="cls-49" d="M471.27,187.55c.72,1.93,3.99,22.01,3.99,22.01,1.12,3.16,2.16,6.83,4.11,10.54,1.3,2.47,2.64,4.7,3.95,6.69-.09-.5-.17-1.3.05-2.24.38-1.6,1.4-2.57,1.8-2.92.29-.32.7-.74,1.2-1.23.71-.7,1.64-1.56,2.51-2.2,1.75-1.29,4.56-3.14,5.57-3.71s4.74-2.51,5.33-2.76c.59-.25,3.99-1.7,4.64-1.95.65-.25,3.78-1.31,4.61-1.55.83-.23,4.32-1.33,6.27-1.5,1.95-.18,2.32-.31,2.32-.31l-5.58-15.34-8.58-11.91-4.91-3.41-4.24-1.34-4.82-1.29-8.13.47-10.09,13.95Z"/>
        <path class="cls-61" d="M468.64,176.77s20.2,1.82,27.26,6.33,13.85,19.24,13.85,19.24l2.68,4.89s8.62-2.17,11.22,1.1l-2.99-7.47-3.65-8.75s-2.19-3.99-3.43-5.43c-1.24-1.44-4.32-5.2-5.88-6.15s-5.62-3.51-8.03-4.39c-2.41-.88-10.35-2.83-12.17-3.44s-18.01-3.69-18.01-3.69l-1.22,5.67.36,2.09Z"/>
        <path class="cls-4" d="M486.67,172.5s5.9,1.14,13.02,3.65c8.4,2.96,14.88,9.76,18.24,18l5.94,14.56c-1.59-3.56-11.95-2.4-23.15,2.6-11.2,4.99-18.99,11.93-17.4,15.49,0,0-9.58-15.46-10.61-24.13"/>
        <g>
          <g>
            <path class="cls-48" d="M436.41,422.4c10.11,4.07,29.38-4.83,29.38-4.83,0,0,2.28,13.47,1.87,23.19,0,0,5.15,10.61,2.98,25.35-.2,1.35-1.35,2.35-2.71,2.36l-73.3.54c-1.32,0-2.48-.9-2.78-2.19l-1.89-8.18c-.44-1.9.31-3.87,1.9-5,4.82-3.41,15.94-10.3,30.19-12.82l-1.56-22.36c.72-1.02,3.09-4.09,7.52-5.51,4.38-1.4,8.06-.31,9.24.1l-.84,9.34Z"/>
            <g class="cls-47">
              <path class="cls-14" d="M341.74,483.14c11.74,9.1,23.94,17.6,36.54,25.46"/>
              <path class="cls-61" d="M459.17,420.46c.18,3.8.36,7.59.54,11.39.19,4,.03,8.21,1.61,11.96.35.82.76,1.59,1.17,2.38.02.04.53,1.21.25.48.16.42.3.85.42,1.29.49,1.69.84,3.45,1.15,5.18.07.39.13.77.19,1.16.17,1.04,0-.32.09.65s.17,1.86.2,2.8,0,1.86-.07,2.78c0,.11-.16,1.26-.08.77.03-.3.01-.2-.07.31-.06.31-.12.61-.2.91-.53,2.32.71,5.05,3.19,5.62,2.32.53,5.05-.7,5.62-3.19.96-4.21.83-8.37.2-12.61-.56-3.76-1.33-7.55-3.1-10.94-.16-.3-.31-.62-.48-.91-.49-.82.05.46-.21-.46-.12-.44-.24-.87-.34-1.31-.24-1.01-.02.37-.08-.59-.12-1.93-.2-3.85-.3-5.78-.19-3.96-.37-7.92-.56-11.89-.11-2.38-2.02-4.68-4.56-4.56-2.38.11-4.68,2.01-4.56,4.56h0Z"/>
            </g>
            <path class="cls-4" d="M436.41,422.4c10.11,4.07,29.38-4.83,29.38-4.83,0,0,2.28,13.47,1.87,23.19,0,0,5.15,10.61,2.98,25.35-.2,1.35-1.35,2.35-2.71,2.36l-73.3.54c-1.32,0-2.48-.9-2.78-2.19l-1.89-8.18c-.44-1.9.31-3.87,1.9-5,4.82-3.41,15.94-10.3,30.19-12.82l-1.56-22.36c.72-1.02,3.09-4.09,7.52-5.51,4.38-1.4,8.06-.31,9.24.1l-.84,9.34Z"/>
          </g>
          <path class="cls-4" d="M466.89,425.66c-4.22,1.48-9.23,2.97-15.66,3.76-5.86.72-11.04.66-15.23.34"/>
          <path class="cls-4" d="M467.31,433.09c-4.22,1.48-10.21,3.08-16.64,3.87-5.86.72-11.99.6-16.18.27"/>
          <path class="cls-40" d="M394.62,469.01l73.3-.54c1.36-.01,2.51-1.01,2.71-2.36.39-2.61.54-5.09.53-7.4,0,0-75.82,3.52-80.72,2.05l1.4,6.06c.3,1.29,1.45,2.2,2.78,2.19Z"/>
          <path class="cls-25" d="M390.44,460.76l-.49-2.12c-.44-1.9.31-3.87,1.9-5,4.81-3.41,15.94-10.29,30.18-12.82l-1.56-22.35c.72-1.02,3.09-4.09,7.52-5.51,4.38-1.4,8.07-.31,9.25.1-.28,3.12-.56,6.23-.84,9.34-.47,5.22-.94,10.44-1.41,15.66-.28,3.1-2.28,9.05-5.23,10.06-11.12,3.82-16.95,5.35-29.8,7.52"/>
        </g>
        <g>
          <g>
            <path class="cls-48" d="M485.22,422.4c10.11,4.07,29.38-4.83,29.38-4.83,0,0,2.28,13.47,1.87,23.19,0,0,5.15,10.61,2.98,25.35-.2,1.35-1.35,2.35-2.71,2.36l-73.3.54c-1.32,0-2.48-.9-2.78-2.19l-1.89-8.18c-.44-1.9.31-3.87,1.9-5,4.82-3.41,15.94-10.3,30.19-12.82l-1.56-22.36c.72-1.02,3.09-4.09,7.52-5.51,4.38-1.4,8.06-.31,9.24.1l-.84,9.34Z"/>
            <g class="cls-76">
              <path class="cls-14" d="M390.56,483.14c11.74,9.1,23.94,17.6,36.54,25.46"/>
              <path class="cls-61" d="M507.99,420.46c.18,3.8.36,7.59.54,11.39.19,4,.03,8.21,1.61,11.96.35.82.76,1.59,1.17,2.38.02.04.53,1.21.25.48.16.42.3.85.42,1.29.49,1.69.84,3.45,1.15,5.18.07.39.13.77.19,1.16.17,1.04,0-.32.09.65s.17,1.86.2,2.8,0,1.86-.07,2.78c0,.11-.16,1.26-.08.77.03-.3.01-.2-.07.31-.06.31-.12.61-.2.91-.53,2.32.71,5.05,3.19,5.62,2.32.53,5.05-.7,5.62-3.19.96-4.21.83-8.37.2-12.61-.56-3.76-1.33-7.55-3.1-10.94-.16-.3-.31-.62-.48-.91-.49-.82.05.46-.21-.46-.12-.44-.24-.87-.34-1.31-.24-1.01-.02.37-.08-.59-.12-1.93-.2-3.85-.3-5.78-.19-3.96-.37-7.92-.56-11.89-.11-2.38-2.02-4.68-4.56-4.56-2.38.11-4.68,2.01-4.56,4.56h0Z"/>
            </g>
            <path class="cls-4" d="M485.22,422.4c10.11,4.07,29.38-4.83,29.38-4.83,0,0,2.28,13.47,1.87,23.19,0,0,5.15,10.61,2.98,25.35-.2,1.35-1.35,2.35-2.71,2.36l-73.3.54c-1.32,0-2.48-.9-2.78-2.19l-1.89-8.18c-.44-1.9.31-3.87,1.9-5,4.82-3.41,15.94-10.3,30.19-12.82l-1.56-22.36c.72-1.02,3.09-4.09,7.52-5.51,4.38-1.4,8.06-.31,9.24.1l-.84,9.34Z"/>
          </g>
          <path class="cls-4" d="M515.71,425.66c-4.22,1.48-9.23,2.97-15.66,3.76-5.86.72-11.04.66-15.23.34"/>
          <path class="cls-4" d="M516.13,433.09c-4.22,1.48-10.21,3.08-16.64,3.87-5.86.72-11.99.6-16.18.27"/>
          <path class="cls-40" d="M443.44,469.01l73.3-.54c1.36-.01,2.51-1.01,2.71-2.36.39-2.61.54-5.09.53-7.4,0,0-75.82,3.52-80.72,2.05l1.4,6.06c.3,1.29,1.45,2.2,2.78,2.19Z"/>
          <path class="cls-25" d="M439.26,460.76l-.49-2.12c-.44-1.9.31-3.87,1.9-5,4.81-3.41,15.94-10.29,30.18-12.82l-1.56-22.35c.72-1.02,3.09-4.09,7.52-5.51,4.38-1.4,8.07-.31,9.25.1-.28,3.12-.56,6.23-.84,9.34-.47,5.22-.94,10.44-1.41,15.66-.28,3.1-2.28,9.05-5.23,10.06-11.12,3.82-16.95,5.35-29.8,7.52"/>
        </g>
        <g>
          <g>
            <path class="cls-30" d="M486.67,223.01l7.18,28.02-37.04,5.42h0s-1.68.25-1.68.25l-1.01.15-4.88.71c-1.95.28-3.92.26-5.87.02-.96-.12-2.04-.18-3.21-.14-1.95.06-3.65.39-5.04.79-1.34.38-2.51,1.18-3.38,2.27-1.9,2.38-3.88,5.08-5.81,8.13-.08.12-.15.25-.23.37l-4.27.68c-2.1.33-3.72,2.18-3.55,4.29.14,1.82,1.44,3.21,3.08,3.6-.07.15-.15.31-.22.46-.14.13-.27.26-.4.39-2.06.98-2.88,3.47-1.83,5.48,1.02,1.95,3.46,2.73,5.41,1.71,1.09-.32,2.29-.73,3.56-1.23-.58.44-1.16.87-1.72,1.31-.38.29-.63.71-.71,1.19-.13.75-.15,1.93.58,3.05,1.27,1.95,3.6,1.88,3.71,1.88,1.35-.66.37-3.19,2.02-4.44,1.29-.98,4.94-.36,5.81-1.27,2.08-.51,4.76-1.37,7.67-2.88,1.79-.93,3.32-1.93,4.61-2.89,1.53-1.14,3.35-1.85,5.24-2.13l4.01-.59h0s44.53-6.51,44.53-6.51c11.63-2.43,19.37-13.48,17.69-25.24l-8.97-34.05"/>
            <g class="cls-66">
              <path class="cls-61" d="M505.72,203.34c-1.49,5.11-.3,10.69,1.15,15.66,1.54,5.29,3.53,10.45,5.07,15.74.91,3.13,1.66,6.3,2.1,9.52l-.25-1.89c.37,2.88.47,5.79.09,8.68l.25-1.89c-.23,1.67-.62,3.31-1.2,4.89-.07.19-.19.41-.23.61,0,.02.79-1.79.41-.97-.19.4-.37.8-.58,1.19-.42.8-.9,1.57-1.42,2.31-.89,1.26,1.04-1.23.17-.2-.31.37-.62.74-.95,1.09-.65.71-1.35,1.37-2.08,2-.2.17-.41.34-.61.51-.9.76.4-.21.54-.41-.26.37-.99.72-1.38.97-1,.67-2.04,1.27-3.1,1.84-3.27,1.76-4.57,6.56-2.54,9.7,2.14,3.32,6.2,4.43,9.7,2.54,5.31-2.86,10.07-6.86,13.24-12.03,2.76-4.5,4.03-9.76,4.19-15,.29-9.28-2.91-18.31-5.82-26.97-1.34-4-2.76-8.05-3.33-12.25l.25,1.89c-.18-1.4-.24-2.81-.06-4.21l-.25,1.89c.07-.49.17-.97.31-1.44,1.04-3.56-1.26-7.88-4.95-8.72s-7.61,1.14-8.72,4.95h0Z"/>
              <path class="cls-61" d="M510.99,260.72c-9.05,2.21-18,4.81-27.14,6.63-6.59,1.32-13.28,2.07-19.85,3.49-3.57.77-7.12,1.7-10.4,3.34s-4.53,6.63-2.54,9.7c2.19,3.4,6.15,4.33,9.7,2.54.31-.16,1.24-.55-.07,0s-.3.13.04,0c.64-.24,1.28-.44,1.93-.64,1.47-.44,2.96-.8,4.45-1.13,3.11-.69,6.24-1.25,9.38-1.76,7.73-1.26,15.36-2.68,22.96-4.6,5.11-1.29,10.2-2.66,15.32-3.91,3.61-.88,6.11-5.15,4.95-8.72-1.21-3.74-4.86-5.9-8.72-4.95h0Z"/>
              <path class="cls-61" d="M438.76,284.15s-.08.05-.12.08c-.21.15-.42.32-.63.48-.07.06-.14.12-.2.19-.03.03-.06.07-.09.1-.17.2-.33.42-.48.62-.06.07-.11.15-.15.23-.19.3-.29.62-.31.96-.08.34-.06.69.05,1.03.08.34.24.63.46.88.18.28.43.51.73.67l.62.26c.46.12.92.12,1.38,0l.62-.26c.39-.23.7-.54.93-.93.05-.08.1-.16.16-.24l-.41.53c.11-.15.24-.28.39-.39l-.53.41c.06-.05.13-.09.2-.14.3-.16.55-.39.73-.67.23-.25.38-.54.46-.88.11-.34.12-.69.05-1.03-.02-.35-.12-.67-.31-.96l-.41-.53c-.32-.32-.71-.54-1.14-.67l-.69-.09c-.47,0-.9.12-1.31.35h0Z"/>
              <path class="cls-43" d="M437.14,283.51c-.9,1.91-2.38,3.49-4.05,4.77-1.67,1.29-3.53,2.3-5.38,3.31"/>
              <path class="cls-43" d="M438.33,283.83c-2.82,3.84-7.34,7-11.55,9.22"/>
            </g>
            <path class="cls-27" d="M486.67,223.01l7.18,28.02-37.04,5.42h0s-1.68.25-1.68.25l-1.01.15-4.88.71c-1.95.28-3.92.26-5.87.02-.96-.12-2.04-.18-3.21-.14-1.95.06-3.65.39-5.04.79-1.34.38-2.51,1.18-3.38,2.27-1.9,2.38-3.88,5.08-5.81,8.13-.08.12-.15.25-.23.37l-4.27.68c-2.1.33-3.72,2.18-3.55,4.29.14,1.82,1.44,3.21,3.08,3.6-.07.15-.15.31-.22.46-.14.13-.27.26-.4.39-2.06.98-2.88,3.47-1.83,5.48,1.02,1.95,3.46,2.73,5.41,1.71,1.09-.32,2.29-.73,3.56-1.23-.58.44-1.16.87-1.72,1.31-.38.29-.63.71-.71,1.19-.13.75-.15,1.93.58,3.05,1.27,1.95,3.6,1.88,3.71,1.88,1.35-.66.37-3.19,2.02-4.44,1.29-.98,4.94-.36,5.81-1.27,2.08-.51,4.76-1.37,7.67-2.88,1.79-.93,3.32-1.93,4.61-2.89,1.53-1.14,3.35-1.85,5.24-2.13l4.01-.59h0s44.53-6.51,44.53-6.51c11.63-2.43,19.37-13.48,17.69-25.24l-8.97-34.05"/>
          </g>
          <line class="cls-6" x1="493.86" y1="251.04" x2="494.95" y2="255.31"/>
          <path class="cls-6" d="M445.74,272.29s-4,.18-9.02-.38"/>
          <path class="cls-61" d="M434.94,277.81s-4.06,3.69-6.59,4.49c-2.53.8-7.04,2.33-9.64,1.95l1.85,1.51,1.76.23,3.1-.86,4.93-1.89,2-.98,2.03-1.37.93-1.69-.36-1.39Z"/>
          <path class="cls-6" d="M437.17,286.09l.3-.99c.62-2.03-.48-4.19-2.49-4.89h0"/>
          <path class="cls-6" d="M432.94,271.45h0c1,1.23.97,2.99-.06,4.19l-.34.4"/>
          <path class="cls-6" d="M419.41,278.63h2.51c.93,0,1.68.75,1.68,1.68h0c0,.93-.75,1.68-1.68,1.68h-2.51v-3.35h0Z" transform="translate(918.78 374.99) rotate(157.15)"/>
          <line class="cls-6" x1="439.85" y1="273.83" x2="437.58" y2="275.67"/>
          <path class="cls-61" d="M434.84,285.55s1.85-3.26,1.83-4.01.88,1.57.88,1.57l.08.94-.43,1.94-.93.24-1.43-.67Z"/>
          <path class="cls-27" d="M427.47,284.38s7.29-2.45,7.78-4.78-2.72-4.75-5.9-3.24"/>
        </g>
        <g>
          <rect class="cls-10" x="376.3" y="223.99" width="52.6" height="72.52" rx="3.46" ry="3.46" transform="translate(-44.49 87.26) rotate(-11.73)"/>
          <path class="cls-49" d="M409.38,253.07c-.1.11-1.9,1.69-1.37,4.24.61,2.95,3.42,3.46,3.51,3.47,0,.07-.11,1.52-.78,3.11-.6,1.4-1.23,2.81-2.59,3.09s-1.86-.43-3.43-.11-1.9,1.24-3.13,1.5-2.34-.7-3.62-1.89c-1.49-1.4-2.95-3.75-3.45-6.16-.8-3.87,1.29-6.44,3.76-6.96,1.32-.27,2.59.36,3.42.19s1.82-1.33,3.32-1.64c.57-.12,2.62-.49,4.36,1.16h0ZM403.97,250.43c.47-.86.69-1.97.48-2.99-.03-.14-.07-.28-.12-.39-1,.25-2.07,1.13-2.61,2.12-.43.76-.75,1.89-.54,2.92.03.16.09.31.11.35.07,0,.17,0,.28-.03.9-.19,1.91-1.03,2.4-1.98h0Z"/>
        </g>
        <path class="cls-28" d="M429.36,123.31c-.72-.28-1.49.27-1.45,1.04.11,2.13.6,4.23,1.39,6.22,1.58,3.95,4.07,7.22,8.17,8.68,3.23,1.15,6.85,1.78,10.27,1.8.42,0,4.47-.46,6.76-.8.95-.14,1.88.36,2.28,1.24,1.13,2.49,2.26,4.98,3.4,7.47.88.31,1.87.8,2.78.89-.62-2.68-.77-5.49,1.82-7.33,2.27-1.61,5.74-1.2,7.57.89,2.53-1.12,4.46-3.52,5.01-6.24.66-3.27-.74-7.17-3.67-8.94-1.08-.65-2.36-.94-3.44-1.6-1.51-.92-2.01-2.31-2.83-3.77-1.73-3.06-4.94-5.1-8.34-5.98-3.61-.93-9.15-1.35-12.29,1.01-2.9,2.18-4.74,5.27-8.08,6.98-.72.37-1.49.68-2.3.72-1.07.06-2.1-.34-3.09-.73-1.31-.52-2.63-1.04-3.94-1.56Z"/>
        <path class="cls-1" d="M435.1,129.82s9.06,1.7,13.48-3"/>
        <path class="cls-1" d="M447.47,132.99s6.4-1.09,8.71-6.7"/>
        <path class="cls-1" d="M467.23,131.05s2.48.72,4.05,4.11"/>
        <g>
          <path class="cls-30" d="M465.57,255.17c-4.88.71-11.51.13-11.51.13-3.8-.38-7.61-.66-11.42-.85s-7.39-.49-11.03-.14c-2.55.24-5.07.7-7.57,1.22l-9.25,1.92-3.69.77c-2.27.47-3.72,2.69-3.25,4.96.42,2.01,2.2,3.37,4.18,3.33-1.79.77-2.85,2.72-2.44,4.7.4,1.92,2.06,3.25,3.93,3.32-1.62.84-2.57,2.68-2.18,4.56.47,2.27,2.69,3.72,4.96,3.25l16.26-3.38s0-.04,0,0l-16.26,3.38c-2.27.47-3.71,2.81-3.23,5.08.47,2.27,2.69,3.72,4.96,3.25,6.96-1.44,13.72-2.76,20.68-4.19,4.27-.88,8.8-2.25,12.57-4.11,0,0,11.8-5.35,17.02-6.2"/>
          <g class="cls-86">
            <path class="cls-38" d="M407.76,290.11s57.1-7.23,60.54-17.22"/>
          </g>
          <path class="cls-27" d="M465.57,255.17c-4.88.71-11.51.13-11.51.13-3.8-.38-7.61-.66-11.42-.85s-7.39-.49-11.03-.14c-2.55.24-5.07.7-7.57,1.22l-9.25,1.92-3.69.77c-2.27.47-3.72,2.69-3.25,4.96.42,2.01,2.2,3.37,4.18,3.33-1.79.77-2.85,2.72-2.44,4.7.4,1.92,2.06,3.25,3.93,3.32-1.62.84-2.57,2.68-2.18,4.56.47,2.27,2.69,3.72,4.96,3.25l16.26-3.38s0-.04,0,0l-16.26,3.38c-2.27.47-3.71,2.81-3.23,5.08.47,2.27,2.69,3.72,4.96,3.25,6.96-1.44,13.72-2.76,20.68-4.19,4.27-.88,8.8-2.25,12.57-4.11,0,0,11.8-5.35,17.02-6.2"/>
        </g>
        <path class="cls-15" d="M415.19,284.58h2.78c1.16,0,2.1.94,2.1,2.1v.27c0,1.16-.94,2.1-2.1,2.1h-2.78v-4.47h0Z" transform="translate(884.84 482.76) rotate(168.27)"/>
        <path class="cls-26" d="M436.59,280.9c.22.17.76.65.98,1.47.36,1.34-.49,2.42-.59,2.54"/>
        <path class="cls-61" d="M432.27,279.02l-15.96,3.33c-1.39.29-4.07-.34-4.36-1.73l-.6-1.52,23.49-4.49-.04,2.24c-.42,1.11-1.37,1.93-2.54,2.18Z"/>
        <path class="cls-61" d="M430.68,271.18l-15.96,3.33c-1.39.29-4.07-.34-4.36-1.73l-.6-.66,23.91-4.57-.45,1.47c-.42,1.11-1.37,1.93-2.54,2.18Z"/>
        <path class="cls-61" d="M428.86,263.12l-15.96,3.33c-1.39.29-4.07-.34-4.36-1.73l-.25-.64,23.45-4.55-.34,1.42c-.42,1.11-1.37,1.93-2.54,2.18Z"/>
        <path class="cls-26" d="M433.96,273.64c.22.17.76.65.98,1.47.36,1.34-.49,2.42-.59,2.54"/>
        <path class="cls-26" d="M409.6,271.21c.4,1.92,2.06,3.25,3.93,3.32-1.62.84-2.57,2.68-2.18,4.56.47,2.27,2.69,3.72,4.96,3.25l16.26-3.38"/>
        <path class="cls-15" d="M413.16,276.14h2.78c1.16,0,2.1.94,2.1,2.1v.27c0,1.16-.94,2.1-2.1,2.1h-2.78v-4.47h0Z" transform="translate(879.1 466.46) rotate(168.27)"/>
        <path class="cls-26" d="M432.83,264.75c.22.17.76.65.98,1.47.36,1.34-.49,2.42-.59,2.54"/>
        <path class="cls-26" d="M430.9,256.64c.22.17.76.65.98,1.47.36,1.34-.49,2.42-.59,2.54"/>
        <line class="cls-7" x1="413.53" y1="274.54" x2="431.74" y2="271.21"/>
        <line class="cls-7" x1="412.03" y1="266.51" x2="430.45" y2="262.99"/>
        <path class="cls-26" d="M414.8,257.46l-3.69.77c-2.27.47-3.72,2.69-3.25,4.96.42,2.01,2.2,3.37,4.18,3.33-1.79.77-2.85,2.72-2.44,4.7"/>
        <path class="cls-15" d="M409.43,259.97h2.78c1.16,0,2.1.94,2.1,2.1v.27c0,1.16-.94,2.1-2.1,2.1h-2.78v-4.47h0Z" transform="translate(868.44 435.22) rotate(168.27)"/>
        <path class="cls-15" d="M411.35,268.15h2.78c1.16,0,2.1.94,2.1,2.1v.27c0,1.16-.94,2.1-2.1,2.1h-2.78v-4.47h0Z" transform="translate(873.89 451.03) rotate(168.27)"/>
        <path class="cls-12" d="M464.98,272.87s5.81-1.82,9.24-1.26"/>
        <path class="cls-2" d="M464.63,272.87s-1.39,2.1-5.48,3.6"/>
        <path class="cls-37" d="M468,273.92s.28,1.63.28,1.63"/>
      </g>
      <g>
        <rect class="cls-54" x="106.77" y="286.91" width="88.8" height="7.51" rx="3.75" ry="3.75"/>
        <rect class="cls-54" x="106.77" y="306.71" width="88.8" height="7.51" rx="3.75" ry="3.75"/>
        <rect class="cls-54" x="106.77" y="326.5" width="88.8" height="7.51" rx="3.75" ry="3.75"/>
        <rect class="cls-54" x="106.77" y="346.3" width="48.84" height="7.51" rx="3.75" ry="3.75"/>
        <rect class="cls-54" x="106.77" y="366.1" width="48.84" height="7.51" rx="3.75" ry="3.75"/>
        <rect class="cls-54" x="106.77" y="385.89" width="88.8" height="7.51" rx="3.75" ry="3.75"/>
      </g>
      <g>
        <path class="cls-59" d="M149.73,136.72l.47,44.32,21.13-38.98c-2.51-1.34-5.82-3-9.95-4.07-4.55-1.17-8.62-1.28-11.64-1.27Z"/>
        <path class="cls-59" d="M152.08,200.15l51.07,2.97c.2,3.63.79,20.94-12.13,35.99-13.96,16.26-33.04,17.46-36.28,17.61-.89-18.85-1.78-37.71-2.66-56.56Z"/>
        <g>
          <path class="cls-60" d="M190.93,195.66c0-16.72-9.26-31.27-22.92-38.82l-20.94,38.62,43.8,2.54c.04-.78.06-1.56.06-2.35Z"/>
          <path class="cls-60" d="M147.07,195.46l-.46-44.13s0,0,0,0c-24.48,0-44.33,19.85-44.33,44.33s19.85,44.33,44.33,44.33c.86,0,1.71-.03,2.56-.08-.7-14.82-1.4-29.63-2.09-44.45Z"/>
        </g>
      </g>
      <g>
        <g>
          <path class="cls-53" d="M78.31,457.07h-14.91v-117.89c0-3.73,3.02-6.76,6.76-6.76h1.4c3.73,0,6.76,3.02,6.76,6.76v117.89Z"/>
          <g class="cls-68">
            <path class="cls-51" d="M70.79,334.63l-.61,150.91s-42.89-20.9-40.15-36.94,19.74-104.09,19.74-104.09l21.02-9.87Z"/>
          </g>
        </g>
        <path class="cls-61" d="M71.56,332.42c3.73,0,6.76,3.02,6.76,6.76v117.89h-14.91v-117.89c0-3.73,3.02-6.76,6.76-6.76h1.4M71.56,331.32h-1.4c-4.33,0-7.86,3.53-7.86,7.86v118.99h17.12v-118.99c0-4.33-3.53-7.86-7.86-7.86h0Z"/>
        <g>
          <rect class="cls-53" x="30.95" y="315.55" width="71.43" height="24.15" rx="9.39" ry="9.39"/>
          <g class="cls-52">
            <path class="cls-51" d="M33.96,312.66s20.25,29.75,49.64,29.04c23.71-.58-71.44,19.82-71.44,19.82,0,0-11.74-48.77-8.22-49.95s30.02,1.09,30.02,1.09"/>
          </g>
        </g>
        <path class="cls-61" d="M92.98,315.55c5.19,0,9.39,4.21,9.39,9.39v5.37c0,5.19-4.21,9.39-9.39,9.39h-52.64c-5.19,0-9.39-4.21-9.39-9.39v-5.37c0-5.19,4.21-9.39,9.39-9.39h52.64M92.98,314.55h-52.64c-5.73,0-10.39,4.66-10.39,10.39v5.37c0,5.73,4.66,10.39,10.39,10.39h52.64c5.73,0,10.39-4.66,10.39-10.39v-5.37c0-5.73-4.66-10.39-10.39-10.39h0Z"/>
        <g>
          <g>
            <path class="cls-42" d="M142.77,264.23l-33.14,4.84c-1.48.22-2.73-.81-2.79-2.3l-1.98-52.28c-.06-1.55,1.13-2.86,2.65-2.92l34-1.28c1.33-.05,2.42,1.08,2.45,2.52l1.07,48.57c.03,1.38-.99,2.66-2.28,2.85Z"/>
            <path class="cls-49" d="M131.67,234.22c-.08.08-1.56,1.1-1.5,3.09.06,2.3,1.99,2.93,2.05,2.94,0,.05-.27,1.14-.94,2.28-.6,1.01-1.23,2.03-2.22,2.13s-1.28-.48-2.44-.36-1.53.79-2.46.89-1.62-.73-2.4-1.75c-.92-1.2-1.69-3.15-1.75-5.06-.1-3.07,1.78-4.86,3.66-5.02.99-.08,1.84.53,2.46.48s1.48-.84,2.6-.93c.42-.03,1.93-.12,2.96,1.3h0ZM128.14,231.67c.44-.61.75-1.44.72-2.24,0-.11-.02-.22-.04-.31-.75.08-1.63.65-2.15,1.35-.41.54-.78,1.37-.76,2.19,0,.12.03.24.04.28.05,0,.13.01.2,0,.68-.05,1.51-.6,1.98-1.28h0Z"/>
          </g>
          <polygon class="cls-31" points="108.14 277.62 100.46 236.73 83.6 239.9 92.25 285.94 97 285.04 94.97 293.31 150.61 307 155 289.15 108.14 277.62"/>
          <path class="cls-8" d="M82.41,211.83s17.53,7.21,21.62,27.5c0,0-7.43-.54-9.98,3.06"/>
          <g>
            <g>
              <path class="cls-80" d="M162.72,290.08c-4.32-.68-8.82-.95-13.16-1.25-5.01-.34-10.02-1.02-15.01-1.52-5.92-.58-11.84-1.17-17.76-1.75s-11.85-1.17-17.77-1.75c-5.02-.49-10.04-.99-15.07-1.48-3.22-.32-6.44-.63-9.66-.95-.24-.02-1.95.01-2.09-.21,0,0-.88-.09-.88-.06-9.24-.45-17.3,6.43-18.21,15.74-.92,9.31,5.65,17.62,14.79,19.01l89.94,8.86v-.14c1.56.45,3.19.7,4.89.7,9.73,0,17.63-7.89,17.63-17.63,0-4.42-1.78-8.78-4.87-11.93s-7.38-4.7-11.64-5.45l-.13-.02c-.33-.06-.66-.11-.99-.16Z"/>
              <g class="cls-87">
                <path class="cls-61" d="M72.67,305.32l64.15,16.89-2.83,7.61-61.69-23.38.37-1.13M66.09,293.25l-6.26,19.17,80.02,30.33,10.17-27.39-83.94-22.11h0Z"/>
              </g>
              <path class="cls-43" d="M162.72,290.08c-4.32-.68-8.82-.95-13.16-1.25-5.01-.34-10.02-1.02-15.01-1.52-5.92-.58-11.84-1.17-17.76-1.75s-11.85-1.17-17.77-1.75c-5.02-.49-10.04-.99-15.07-1.48-3.22-.32-6.44-.63-9.66-.95-.24-.02-1.95.01-2.09-.21,0,0-.88-.09-.88-.06-9.24-.45-17.3,6.43-18.21,15.74-.92,9.31,5.65,17.62,14.79,19.01l89.94,8.86v-.14c1.56.45,3.19.7,4.89.7,9.73,0,17.63-7.89,17.63-17.63,0-4.42-1.78-8.78-4.87-11.93s-7.38-4.7-11.64-5.45l-.13-.02c-.33-.06-.66-.11-.99-.16Z"/>
            </g>
            <g>
              <polygon class="cls-30" points="183.5 416.02 189.32 435.21 160.61 442.8 154.14 417.7 183.5 416.02"/>
              <g class="cls-85">
                <path class="cls-43" d="M320.54,426.96c-1.94,10.26-8.71,19.41-9.08,29.85"/>
                <path class="cls-61" d="M159.37,432.12c2.28-1.42,4.57-2.83,6.92-4.13,1.14-.63,2.3-1.23,3.47-1.78.28-.13.56-.26.83-.38,1.33-.61-.58.21.21-.1.64-.25,1.28-.51,1.93-.73,1.2-.42,2.43-.77,3.67-1.05.6-.13,1.38-.41,1.99-.38-.45-.02-.68.07-.07.02.3-.03.59-.06.89-.08,1.34-.09,2.67-.06,4.01.06.71.06.23-.12-.09-.01.19-.06.68.12.87.16.73.15,1.44.36,2.15.58,2.64.85,5.91-1,6.52-3.7.66-2.91-.88-5.61-3.7-6.52-12.51-4.04-24.61,2.46-34.96,8.89-2.36,1.46-3.48,4.81-1.9,7.26s4.74,3.47,7.26,1.9h0Z"/>
              </g>
              <polygon class="cls-43" points="183.5 416.02 189.32 435.21 160.61 442.8 154.14 417.7 183.5 416.02"/>
            </g>
            <g>
              <path class="cls-80" d="M153.52,433.01l-24.66-76.72-78.03-32.69h0s0,0,0,0l-.82-.34v-.02c-8.33-3.99-12.16-13.87-8.55-22.5,3.61-8.62,13.34-12.83,22.04-9.68v-.02s83.29,34.89,83.29,34.89c2.89,1.19,7.84,3.29,9.81,6l34.66,95.82c-2.63.02-2.29-5.68-20.63-3.25-9.1,1.2-16.29,6.05-17.11,8.51Z"/>
              <g class="cls-81">
                <path class="cls-45" d="M63.2,100.55c-2.64-.66-5.27-1.32-7.91-1.97"/>
                <path class="cls-61" d="M128.98,345.88c-14.54-6.61-29.48-12.27-44.19-18.46l1.79.76c-16.76-7.07-33.46-14.89-48.03-25.93-.21-.16-.41-.31-.62-.47,1.89,1.42.68.53.3.22-.46-.36-.91-.72-1.36-1.09-.95-.77-1.89-1.56-2.81-2.36-1.94-1.68-3.83-3.44-5.65-5.25-2.78-2.77-7.86-2.99-10.61,0s-2.97,7.65,0,10.61c9.87,9.84,21.57,17.78,33.81,24.37s25.83,12.3,39.07,17.69c7.24,2.95,14.5,5.85,21.7,8.89l-1.79-.76c3.62,1.53,7.23,3.1,10.81,4.73,1.89.86,3.7,1.33,5.78.76,1.74-.48,3.63-1.82,4.48-3.45,1.74-3.29,1.12-8.53-2.69-10.26h0Z"/>
                <path class="cls-61" d="M122.28,358.81c.23.24.56.8.86.95-.72-.96-.85-1.13-.39-.5l.25.35c.53.77,1,1.57,1.43,2.4.86,1.62,1.58,3.3,2.3,4.99l-.76-1.79c6.52,15.48,9.98,32,12.22,48.6l-.27-1.99c1.01,7.58,1.79,15.19,2.49,22.81.19,2.03.71,3.82,2.2,5.3,1.3,1.3,3.44,2.28,5.3,2.2,3.76-.17,7.88-3.32,7.5-7.5-2.09-22.75-4.68-45.88-12.63-67.46-2.43-6.61-4.94-13.77-9.9-18.96-2.72-2.84-7.91-2.94-10.61,0s-2.9,7.57,0,10.61h0Z"/>
                <path class="cls-45" d="M275.7,534.75c-5.68,2.27-10.55,6.53-13.54,11.87"/>
              </g>
              <path class="cls-43" d="M153.52,433.01l-24.66-76.72-78.03-32.69h0s0,0,0,0l-.82-.34v-.02c-8.33-3.99-12.16-13.87-8.55-22.5,3.61-8.62,13.34-12.83,22.04-9.68v-.02s83.29,34.89,83.29,34.89c2.89,1.19,7.84,3.29,9.81,6l34.66,95.82c-2.63.02-2.29-5.68-20.63-3.25-9.1,1.2-16.29,6.05-17.11,8.51Z"/>
            </g>
            <g>
              <polygon class="cls-30" points="133.61 396.07 123.02 413.1 98.38 396.53 112.97 375.11 133.61 396.07"/>
              <g class="cls-29">
                <path class="cls-43" d="M215.78,506.28c-9,5.31-20.34,6.26-28.43,12.87"/>
                <path class="cls-61" d="M103.43,391.02c1.24,0,2.47.05,3.7.14.7.05,1.39.11,2.09.18.36.04.72.08,1.08.12s1.46.33.05,0c2.82.66,5.65.96,8.4,1.98l.31.12c.53.21.4.16-.39-.17.22.17.57.26.82.39.64.33,1.26.7,1.87,1.08.67.42,1.32.88,1.97,1.34.89.63-.72-.64.18.14.3.26.61.51.9.77.59.53,1.15,1.08,1.69,1.66.22.24.44.48.65.73.13.15.25.3.38.45-.38-.51-.46-.61-.23-.3.95,1.35,1.78,2.72,2.43,4.24,1.1,2.56,5.05,3.32,7.26,1.9,2.66-1.71,3.08-4.52,1.9-7.26-2.96-6.87-9.45-12.37-16.32-15.1-2.88-1.14-5.94-1.77-9-2.21-3.23-.47-6.48-.81-9.74-.82-2.77,0-5.43,2.45-5.3,5.3s2.33,5.29,5.3,5.3h0Z"/>
              </g>
              <polygon class="cls-43" points="133.61 396.07 123.02 413.1 98.38 396.53 112.97 375.11 133.61 396.07"/>
            </g>
            <g>
              <path class="cls-80" d="M175.48,295.72c10.64,9.89,7.01,23.55,2.47,31.21l-46.6,77.44c-2.07-3.1-6.46-8.77-14.07-13.03-6.38-3.57-12.32-4.63-15.86-4.98l50.59-83.4"/>
              <g class="cls-73">
                <path class="cls-45" d="M161.49,256.24c-1.27,1.99-2.03,4.3-2.21,6.66"/>
                <path class="cls-61" d="M143.2,316.07c-12.2,22.66-27.42,43.5-42.57,64.25-1.03,1.41-2.07,2.82-3.12,4.22-.23.3-.46.6-.69.91-.24.31-.18.24.16-.21-.19.24-.37.48-.56.72-.52.66-1.04,1.31-1.57,1.96-2.26,2.76-4.66,5.4-7.27,7.84-2.1,1.96-2.13,5.8,0,7.75,2.25,2.06,5.51,2.1,7.75,0,4.9-4.58,9.02-9.89,13.01-15.27s7.52-10.29,11.25-15.46c7.59-10.53,15.05-21.17,21.96-32.16,3.91-6.22,7.64-12.55,11.12-19.02,1.36-2.52.71-6.09-1.97-7.5s-6.05-.73-7.5,1.97h0Z"/>
                <path class="cls-61" d="M153.57,316.71c-.5-2.57-1.83-4.96-3.22-7.15-1.45-2.31-3.07-4.5-4.75-6.65-.8-1.03-2.64-1.61-3.88-1.61-1.34,0-2.95.6-3.88,1.61s-1.67,2.42-1.61,3.88l.2,1.46c.26.93.73,1.74,1.41,2.42l.13.17-.86-1.11c1.1,1.42,2.15,2.89,3.13,4.39s1.89,2.94,2.58,4.53l-.55-1.31c.31.74.55,1.5.71,2.29.25,1.29,1.42,2.63,2.52,3.28,1.18.69,2.91.98,4.22.55s2.61-1.25,3.28-2.52c.72-1.36.84-2.71.55-4.22h0Z"/>
              </g>
              <path class="cls-43" d="M175.48,295.72c10.64,9.89,7.01,23.55,2.47,31.21l-46.6,77.44c-2.07-3.1-6.46-8.77-14.07-13.03-6.38-3.57-12.32-4.63-15.86-4.98l50.59-83.4"/>
            </g>
            <g>
              <path class="cls-65" d="M93.86,251.57c-.12.22-.25.43-.36.63,0,0,12.52,28.57,14.93,35.79-9.15-3.51-14.89-8.11-32.23-6.37-21.9,2.19-35.39,11.84-44.85,19.26-3.21-13.36-8.86-33.1-9.34-45.75-.48-12.81-2.38-17.59,1.06-25.81,1.68-4.02,3.7-7.02,6.3-9.78,6.11-6.47,16.6-8.93,24.52-10.93,1-1.72,2.44-3.1,4.25-3.94,4.18-1.95,9.23-.51,12.95,3.2,1.65.3,3.29.68,4.86,1.1,6,1.6,11.12,5.54,14.11,10.98,2.1,3.83,4.32,9.11,5.97,16.18,1.22,5.23.48,10.75-2.15,15.43Z"/>
              <g class="cls-78">
                <path class="cls-4" d="M19.07,203.7L.39,223.56"/>
                <path class="cls-61" d="M44.35,206.39c-13.44,6.46-24.83,17.15-32.28,30.06-1.39,2.4-.64,5.91,1.9,7.26s5.78.66,7.26-1.9c.86-1.49,1.77-2.95,2.73-4.37.52-.77,1.06-1.52,1.61-2.27.24-.32.47-.64.72-.95-.85,1.05.02-.01.15-.17,2.15-2.68,4.5-5.2,7.02-7.54,1.26-1.17,2.56-2.29,3.91-3.36.17-.13,1.2-1.02.18-.15.3-.26.63-.48.95-.71.75-.55,1.5-1.08,2.27-1.6,2.85-1.93,5.84-3.63,8.94-5.12,2.51-1.2,3.37-4.98,1.9-7.26-1.66-2.57-4.57-3.19-7.26-1.9h0Z"/>
                <path class="cls-4" d="M29.82,171.7c-5.08,3.14-10.6,5.57-16.35,7.21"/>
                <path class="cls-61" d="M49.44,235.73c1.17,2.06,2.25,4.17,3.18,6.35-.37-.86,0,0,.14.38.22.55.42,1.11.62,1.67.39,1.11.75,2.24,1.06,3.38.27.99.51,2,.71,3.01.11.58.21,1.16.31,1.73.09.61.09.58,0-.1.04.29.07.58.1.87.22,2.19.24,4.4.05,6.59-.02.23-.28,2.16-.09.89-.09.62-.19,1.23-.3,1.85-.18,1.08-.38,2.15-.56,3.23-.42,2.64-.77,5.29-.69,7.97.16,5.24,1.42,10.39,3.11,15.33.89,2.62,3.69,4.62,6.52,3.7,2.6-.84,4.66-3.71,3.7-6.52-.82-2.41-1.56-4.85-2.08-7.34-.13-.62-.25-1.24-.35-1.87-.05-.31-.1-.63-.15-.94.09.63.09.63.02,0-.08-1.1-.17-2.2-.17-3.31,0-1.26.09-2.51.24-3.76-.15,1.29.12-.68.15-.9.1-.62.21-1.23.32-1.84.45-2.58.89-5.18,1.01-7.8.47-9.8-2.91-19.5-7.69-27.92-1.37-2.41-4.87-3.44-7.26-1.9s-3.37,4.67-1.9,7.26h0Z"/>
              </g>
              <path class="cls-4" d="M93.86,251.57c-.12.22-.25.43-.36.63,0,0,12.52,28.57,14.93,35.79-9.15-3.51-14.89-8.11-32.23-6.37-21.9,2.19-35.39,11.84-44.85,19.26-3.21-13.36-8.86-33.1-9.34-45.75-.48-12.81-2.38-17.59,1.06-25.81,1.68-4.02,3.7-7.02,6.3-9.78,6.11-6.47,16.6-8.93,24.52-10.93,1-1.72,2.44-3.1,4.25-3.94,4.18-1.95,9.23-.51,12.95,3.2,1.65.3,3.29.68,4.86,1.1,6,1.6,11.12,5.54,14.11,10.98,2.1,3.83,4.32,9.11,5.97,16.18,1.22,5.23.48,10.75-2.15,15.43Z"/>
            </g>
            <ellipse class="cls-40" cx="42.88" cy="264.47" rx="21.48" ry="9.46" transform="translate(-19.97 4.02) rotate(-4.36)"/>
            <path class="cls-61" d="M88.05,248.33s-3.78,1.74-5.34,6.22,5.39,6.52,6.63,13.66c0,0-2.38-3.64-5.92-5.08s-5.57-8.15-3.23-10.73c1.63-1.8,7.86-4.07,7.86-4.07Z"/>
            <g>
              <polygon class="cls-32" points="114.98 244.58 98.39 255.08 104.12 261.05 114.93 254.1 114.98 244.58"/>
              <g>
                <path class="cls-30" d="M117.85,244.37c1.85-1.4,2.14-4.13.75-5.98-1.4-1.85-4.03-2.21-5.87-.82-5.67,4.28-11.21,8.37-16.89,12.65-3.48,2.62-6.99,5.81-9.59,9.1,0,0-5.1,4.59-9.3,7.81l-2.1,1.54s0,0,0,0h0l-17.67,12.97c-.55-12.25-1.09-24.5-1.64-36.75-.3-6.73-.98-14.26-6.11-18.62-2.7-2.29-6.41-3.33-9.91-2.79-3.5.54-6.72,2.64-8.65,5.61-2.88,4.44-2.73,10.13-2.47,15.41.65,13.44,1.31,26.88,1.96,40.32.38,7.81.76,15.65,2.12,23.36.3,1.7.54,3.04,1.49,4.47.83,1.24,1.75,2.36,2.92,3.3,3.23,2.59,7.78,3.12,11.7,2.02.09-.02.18-.05.26-.08,3.64-1.11,6.59-3.81,9.72-5.85,3.03-1.97,5.94-4.14,8.89-6.21,6.62-4.63,13.23-9.28,19.82-13.94,4.1-2.74,8.25-5.84,8.25-5.84,3.59-1.29,6.94-3.74,10.46-5.2,3.37-1.4,6.89-2.73,10.03-4.6,2.2-1.31,4.28-2.81,6.32-4.35l7.54-5.7c1-.76,2-1.51,3-2.27,1.85-1.4,2.21-4.03.82-5.87-1.24-1.63-3.43-2.1-5.2-1.22,1.28-1.46,1.41-3.67.19-5.29-1.18-1.57-3.25-2.05-4.98-1.32,1.11-1.46,1.18-3.52.02-5.05-1.4-1.85-4.03-2.21-5.87-.82l-13.97,10.56"/>
                <g class="cls-90">
                  <path class="cls-61" d="M40.02,217.76l4.18,78.61c.55,5.14,6.09,8.13,10.69,5.77,23.35-11.99,82.71-43.04,100.11-57.56,21.83-18.21-22.52,116.95-22.52,116.95,0,0-173.6.92-172.43-.01S-14.52,229.13-14.52,229.13l54.53-11.37Z"/>
                </g>
                <path class="cls-4" d="M117.85,244.37c1.85-1.4,2.14-4.13.75-5.98-1.4-1.85-4.03-2.21-5.87-.82-5.67,4.28-11.21,8.37-16.89,12.65-3.48,2.62-6.99,5.81-9.59,9.1,0,0-5.1,4.59-9.3,7.81l-2.1,1.54s0,0,0,0h0l-17.67,12.97c-.55-12.25-1.09-24.5-1.64-36.75-.3-6.73-.98-14.26-6.11-18.62-2.7-2.29-6.41-3.33-9.91-2.79-3.5.54-6.72,2.64-8.65,5.61-2.88,4.44-2.73,10.13-2.47,15.41.65,13.44,1.31,26.88,1.96,40.32.38,7.81.76,15.65,2.12,23.36.3,1.7.54,3.04,1.49,4.47.83,1.24,1.75,2.36,2.92,3.3,3.23,2.59,7.78,3.12,11.7,2.02.09-.02.18-.05.26-.08,3.64-1.11,6.59-3.81,9.72-5.85,3.03-1.97,5.94-4.14,8.89-6.21,6.62-4.63,13.23-9.28,19.82-13.94,4.1-2.74,8.25-5.84,8.25-5.84,3.59-1.29,6.94-3.74,10.46-5.2,3.37-1.4,6.89-2.73,10.03-4.6,2.2-1.31,4.28-2.81,6.32-4.35l7.54-5.7c1-.76,2-1.51,3-2.27,1.85-1.4,2.21-4.03.82-5.87-1.24-1.63-3.43-2.1-5.2-1.22,1.28-1.46,1.41-3.67.19-5.29-1.18-1.57-3.25-2.05-4.98-1.32,1.11-1.46,1.18-3.52.02-5.05-1.4-1.85-4.03-2.21-5.87-.82l-13.97,10.56"/>
              </g>
              <path class="cls-4" d="M98.94,255.62c-.27-.04-.99-.18-1.58-.78-.98-.99-.78-2.34-.76-2.5"/>
              <path class="cls-4" d="M104.84,260.61c-.27-.04-.99-.18-1.58-.78-.98-.99-.78-2.34-.76-2.5"/>
              <path class="cls-4" d="M110.24,267.76c-.27-.04-.99-.18-1.58-.78-.98-.99-.78-2.34-.76-2.5"/>
              <path class="cls-4" d="M115.96,273.84c-.27-.04-.99-.18-1.58-.78-.98-.99-.78-2.34-.76-2.5"/>
              <path class="cls-18" d="M117.75,245.43h2.78c1.16,0,2.1.94,2.1,2.1v.27c0,1.16-.94,2.1-2.1,2.1h-2.78v-4.47h0Z" transform="translate(-125.06 122.62) rotate(-37.1)"/>
              <path class="cls-18" d="M112.54,238.71h2.78c1.16,0,2.1.94,2.1,2.1v.27c0,1.16-.94,2.1-2.1,2.1h-2.78v-4.47h0Z" transform="translate(-122.06 118.11) rotate(-37.1)"/>
              <path class="cls-18" d="M122.81,251.87h2.78c1.16,0,2.1.94,2.1,2.1v.27c0,1.16-.94,2.1-2.1,2.1h-2.78v-4.47h0Z" transform="translate(-127.92 126.97) rotate(-37.1)"/>
              <path class="cls-18" d="M127.85,258.47h2.78c1.16,0,2.1.94,2.1,2.1v.27c0,1.16-.94,2.1-2.1,2.1h-2.78v-4.47h0Z" transform="translate(-130.88 131.35) rotate(-37.1)"/>
              <line class="cls-18" x1="123.71" y1="250.24" x2="108.43" y2="262.01"/>
              <line class="cls-18" x1="128.5" y1="256.85" x2="115.69" y2="266.11"/>
            </g>
            <g>
              <path class="cls-65" d="M21.86,232.75c-6.22,15.96-1.57,30.27-.41,33.35-.4-5.21,8.87-10.16,20.7-11.06s21.91,2.58,22.14,7.8c-.24-5.34,1.75-19.12-5.66-33.21-3.14-7.51-10.63-12.27-18.62-11.88-8.42.41-14.75,6.73-18.15,15Z"/>
              <g class="cls-77">
                <path class="cls-46" d="M33.41,132.89c-1.97,9.5-3.42,19.11-4.33,28.77"/>
                <path class="cls-43" d="M61.99,129.19c-.49,1.59-.98,3.17-1.47,4.76"/>
                <path class="cls-61" d="M22.05,225.17c-3.5,18.67-6.94,38.13-1.78,56.84.74,2.67,3.8,4.59,6.52,3.7s4.49-3.66,3.7-6.52c-.6-2.18-1.09-4.39-1.47-6.62-.09-.54-.17-1.07-.25-1.61.19,1.29-.08-.67-.1-.9-.12-1.08-.21-2.16-.28-3.25-.29-4.36-.22-8.74.09-13.09.15-2.2.37-4.39.63-6.58.07-.63.15-1.25.23-1.88.15-1.18-.12.82.06-.47.16-1.1.32-2.19.49-3.29.7-4.52,1.54-9.02,2.38-13.52.51-2.72-.75-5.85-3.7-6.52-2.61-.59-5.98.79-6.52,3.7h0Z"/>
                <path class="cls-61" d="M40.33,208.19c-12.23,6.28-21.24,16.91-31.05,26.23-1.35,1.28-2.72,2.54-4.12,3.76-.7.61-1.41,1.21-2.12,1.8-.36.29-.72.59-1.08.87-.16.12-.31.24-.47.37-.59.47,1.01-.77-.03.02-1.15.87-2.04,1.73-2.44,3.17-.35,1.27-.19,2.96.53,4.09,1.41,2.18,4.89,3.69,7.26,1.9,10.92-8.27,19.57-18.99,30.21-27.57.47-.38-.29.21-.3.23.09-.17.47-.36.63-.47.37-.27.74-.54,1.11-.81.74-.53,1.5-1.05,2.27-1.55,1.6-1.04,3.25-2,4.95-2.87,2.47-1.27,3.4-4.94,1.9-7.26-1.63-2.52-4.61-3.26-7.26-1.9h0Z"/>
                <path class="cls-61" d="M27.15,217.36c-3.47,4.05-6.02,8.91-6.94,14.19-.25,1.44-.23,2.78.53,4.09.64,1.1,1.91,2.15,3.17,2.44,1.36.31,2.88.24,4.09-.53,1.1-.71,2.21-1.83,2.44-3.17.32-1.82.83-3.6,1.54-5.31l-.53,1.27c.82-1.95,1.88-3.78,3.16-5.47l-.83,1.07c.28-.37.57-.72.87-1.07.93-1.09,1.55-2.28,1.55-3.75,0-1.3-.58-2.85-1.55-3.75s-2.34-1.62-3.75-1.55-2.84.49-3.75,1.55h0Z"/>
              </g>
            </g>
            <path class="cls-43" d="M21.86,232.75c-6.22,15.96-1.57,30.27-.41,33.35-.4-5.21,8.87-10.16,20.7-11.06s21.74,2.59,22.14,7.8c.49-3.7,1.89-8.29.08-16.84"/>
            <path class="cls-43" d="M24.59,226.11c-1.14,2.32-2.29,5.06-3.29,8.2-1.22,3.81-1.91,7.3-2.31,10.27"/>
            <path class="cls-61" d="M45.77,216.63l-12.49,1.24-7.91,7.31-2.61,5.58c-.42,1.13-.84,2.26-1.26,3.38-.43,1.51-.85,3.02-1.28,4.53l6.04,1.1,5.72-10.16c.22-.77.92-2.36,1.66-3.46.51-.76,2.46-2.25,2.93-2.68,3.41-2.19,5.42-3.49,8.83-5.68l4.36-4.25-3.99,3.09Z"/>
            <g>
              <path class="cls-42" d="M64.23,174.92c-1.95-.55-3.91-.65-5.79-.37l1.32-5.99-5.25-2.96c-6.03,2.51-9.88,9.09-9.05,15.57l1.14,8.1c.05.65.14,1.29.27,1.92v.05s0,0,0,0c1.05,4.88,4.7,9.02,9.83,10.46,7.39,2.08,15.07-2.23,17.15-9.63s-2.23-15.07-9.63-17.15Z"/>
              <g>
                <ellipse class="cls-30" cx="68.39" cy="215.03" rx="9.54" ry="13.57" transform="translate(-140.15 128.86) rotate(-49.91)"/>
                <g class="cls-67">
                  <path class="cls-61" d="M52.47,213.45c1.17,4.95,4.01,9.34,7.55,12.94,1.64,1.66,3.44,3.13,5.26,4.58,2.25,1.8,4.5,3.55,7.38,4.2,2.7.61,5.87-.83,6.52-3.7.61-2.7-.81-5.87-3.7-6.52-.24-.05-.48-.11-.71-.19-.97-.31.18.21.32.16-.21.07-1.1-.6-1.26-.71-.4-.26-.82-.54-1.19-.85.28.24.92.72.27.2-.19-.15-.38-.31-.57-.46-1.67-1.33-3.31-2.7-4.8-4.22-.71-.72-1.38-1.48-2.02-2.27-.46-.56.17.29.29.37-.18-.13-.39-.54-.51-.71-.25-.36-.49-.73-.72-1.1-.25-.42-.49-.84-.72-1.27-.11-.22-.22-.43-.32-.65-.06-.13-.46-1.05-.09-.17s.02.01-.06-.18c-.08-.23-.16-.46-.24-.7-.17-.52-.31-1.05-.43-1.58-.64-2.7-3.87-4.56-6.52-3.7-2.82.91-4.39,3.63-3.7,6.52h0Z"/>
                </g>
                <ellipse class="cls-43" cx="68.39" cy="215.03" rx="9.54" ry="13.57" transform="translate(-140.15 128.86) rotate(-49.91)"/>
              </g>
              <g>
                <path class="cls-30" d="M57.17,210.48c-.1-9.34,1.11-9.58-.17-19l18.17-2.47-.13,24.8"/>
                <g class="cls-71">
                  <path class="cls-4" d="M15.92,152.64c2.27,3.93,4.71,7.76,7.32,11.47"/>
                  <path class="cls-61" d="M55.11,194.54c-.47,2.23-.89,4.48-1.25,6.73-.2,1.2-.37,2.41-.54,3.61-.13.92-.25,1.84-.37,2.77-.04.3-.08.6-.11.91.09-.63.11-.76.05-.37-.57,3.16-.75,5.77.67,8.75.42.89.99,1.7,1.58,2.49.51.69,1.04,1.36,1.57,2.03.36.47.33.42-.11-.15.15.2.3.39.44.59.85,1.15,1.74,2.04,3.17,2.44,1.27.35,2.96.19,4.09-.53,2.2-1.42,3.67-4.87,1.9-7.26-.49-.66-1-1.32-1.51-1.97-.13-.17-.99-1.19-.15-.18-.59-.7-1.13-1.51-1.57-2.31-.12-.22-.24-.44-.34-.67l.27.56c.39,1.35-.1-.06.11-.56l-.08.59c.04-.27.09-.54.14-.81.13-.81.23-1.61.33-2.42.07-.53.12-1.06.2-1.59-.19,1.28.04-.24.06-.4.15-1.05.31-2.11.49-3.16.35-2.1.74-4.2,1.18-6.28.56-2.71-.79-5.86-3.7-6.52-2.66-.6-5.92.8-6.52,3.7h0Z"/>
                  <path class="cls-61" d="M69.51,194.16c-.21.23-.43.43-.67.63l1.07-.83c-.53.4-1.09.71-1.69.97l1.27-.53c-.54.21-1.08.36-1.65.46l1.41-.19c-.64.08-1.27.07-1.91,0l1.41.19c-.93-.13-1.82-.38-2.69-.73l1.27.53c-1.31-.55-2.51-1.29-3.63-2.15l1.07.83c-1.39-1.1-2.62-2.36-3.71-3.75l.83,1.07c-.1-.13-.2-.27-.3-.4-.85-1.15-1.74-2.04-3.17-2.44-1.27-.35-2.96-.19-4.09.53s-2.13,1.82-2.44,3.17-.3,2.97.53,4.09c2.89,3.88,6.39,7.02,10.94,8.79s10.24.97,13.65-2.73c1.88-2.04,2.17-5.51,0-7.5-2.05-1.88-5.49-2.18-7.5,0h0Z"/>
                </g>
                <path class="cls-4" d="M57.17,210.48c-.1-9.34,1.11-9.58-.17-19l18.17-2.47-.13,24.8"/>
              </g>
              <g>
                <path class="cls-30" d="M66.48,171.47h0c-6.22.58-10.8,6.09-10.22,12.32l.1,1.04c-.69-.11-1.42-.09-2.13.12-2.58.74-4.08,3.44-3.33,6.02.74,2.58,3.44,4.08,6.02,3.33.12-.03.73-.6.89-.72.98,5.78,5.73,10.52,11.66,9.97h0c6.22-.58,10.8-6.09,10.22-12.32l-.89-9.55c-.58-6.22-6.09-10.8-12.32-10.22Z"/>
                <g class="cls-75">
                  <path class="cls-43" d="M52.51,145.31c-3.52-.83-6.98-1.96-10.3-3.37"/>
                  <path class="cls-61" d="M66.57,170.5c-1.21.8-2.52,1.39-3.78,2.11-.66.38-1.29.83-1.96,1.21-.72.41-1.47.77-2.24,1.09l1.27-.53c-.75.31-1.52.6-2.3.85-1.31.43-2.46,1.23-3.17,2.44-.67,1.14-.95,2.81-.53,4.09s1.21,2.52,2.44,3.17,2.73.98,4.09.53c2.28-.75,4.59-1.65,6.61-2.97,1.59-1.04,3.34-1.78,4.93-2.83,1.15-.76,2.06-1.81,2.44-3.17.35-1.27.19-2.96-.53-4.09s-1.82-2.13-3.17-2.44-2.89-.25-4.09.53h0Z"/>
                  <path class="cls-61" d="M70.66,178.51c2.48,1.33,4.95,2.69,7.39,4.09,1.2.69,2.75.9,4.09.53.69-.16,1.29-.48,1.8-.95.58-.37,1.03-.87,1.37-1.49.65-1.23.98-2.72.53-4.09s-1.22-2.47-2.44-3.17c-2.44-1.4-4.91-2.76-7.39-4.09-1.24-.66-2.71-.91-4.09-.53-.69.16-1.29.48-1.8.95-.58.37-1.03.87-1.37,1.49-.65,1.23-.98,2.72-.53,4.09.42,1.29,1.21,2.52,2.44,3.17h0Z"/>
                  <line class="cls-23" x1="56.37" y1="188.41" x2="53.47" y2="191.22"/>
                  <line class="cls-23" x1="54.02" y1="188.52" x2="56.4" y2="190.82"/>
                </g>
                <path class="cls-43" d="M66.48,171.47h0c-6.22.58-10.8,6.09-10.22,12.32l.1,1.04c-.69-.11-1.42-.09-2.13.12-2.58.74-4.08,3.44-3.33,6.02.74,2.58,3.44,4.08,6.02,3.33.12-.03.73-.6.89-.72.98,5.78,5.73,10.52,11.66,9.97h0c6.22-.58,10.8-6.09,10.22-12.32l-.89-9.55c-.58-6.22-6.09-10.8-12.32-10.22Z"/>
              </g>
              <path class="cls-21" d="M74.07,187.69l.89,2.01c.36.81.26,1.78-.32,2.45-.35.41-.81.65-1.38.3"/>
              <path class="cls-23" d="M70.94,186.81s-1.01-.11-2.34.62c0,0-.62.28-.73.22"/>
              <path class="cls-23" d="M77.17,185.53s-1.01-.11-2.34.62c0,0-.62.28-.73.22"/>
              <path class="cls-21" d="M73.61,184.45s1.9-2.15,3.68-1.06"/>
              <path class="cls-21" d="M66.5,185.56s1.9-2.15,3.68-1.06"/>
              <path class="cls-21" d="M71.57,196.88c-1.39,1.39-2.64,1.12-4.1.66"/>
              <path class="cls-42" d="M58.93,177.6l1.83,9.92c.13.72-.53,1.33-1.24,1.13h0c-.61-.17-1.13-.57-1.46-1.12l-3.87-6.51,1.63-5.81,3.1,2.39Z"/>
              <path class="cls-42" d="M52.6,181.73l7.39,1.61,11.01-6.79,9.78,5.98c.69.34,1.51-.06,1.55-.78.04-.55.08-1.06.08-1.16-.02-3.44-.87-6.76-1.87-10.1-.94-3.15-2.46-8.22-6.87-8.27-2.71-.29-6.88-.43-11.69.67-4.15.95-7.32,2.48-9.41,3.7"/>
              <path class="cls-58" d="M59.72,176.5s4.96-.58,7.42-2.98c-.99.38-1.99.77-3,1.17-1.5.6-2.97,1.2-4.42,1.81Z"/>
              <path class="cls-58" d="M62.54,167.86s4.13-4.03,8.25-2.31c-1.01.1-2.13.27-3.35.56-1.95.47-3.6,1.12-4.9,1.75Z"/>
            </g>
          </g>
          <g>
            <g>
              <path class="cls-65" d="M183.83,433.29c-8.88,6.33-29.69,2.19-29.69,2.19,0,0,.95,13.63,3.62,22.98,0,0-2.52,11.52,3.05,25.35.51,1.26,1.86,1.97,3.18,1.66l71.38-16.66c1.29-.3,2.2-1.46,2.19-2.78l-.08-8.39c-.02-1.95-1.21-3.69-3.02-4.41-5.48-2.18-17.91-6.27-32.35-5.38l-3.73-22.1c-.94-.82-3.96-3.25-8.6-3.59-4.59-.33-7.91,1.59-8.96,2.26l3.01,8.88Z"/>
              <g class="cls-91">
                <path class="cls-4" d="M290.1,470.14c-9.28,11.6-19.14,22.73-29.55,33.32"/>
                <path class="cls-61" d="M152.4,439.03l2.24,11.68c.36,1.89.8,3.78,1.07,5.69-.12-.87.02.55.03.59.02.45.02.91-.02,1.36.08-.83-.16.57-.17.62-.11.46-.24.91-.35,1.37-.84,3.71-.63,7.71-.23,11.47.44,4.07,1.32,7.87,3.15,11.55,1.07,2.14,4.27,2.91,6.25,1.64,2.19-1.41,2.78-3.95,1.64-6.25-.07-.14-.57-1.22-.27-.5-.17-.4-.32-.82-.46-1.23-.28-.83-.51-1.67-.71-2.52s-.35-1.72-.47-2.59c.09.67,0,0-.02-.32-.04-.44-.08-.88-.12-1.32-.13-1.7-.19-3.41-.17-5.11,0-.45.03-.9.05-1.36.06-1.33-.21.73.07-.58.2-.92.47-1.82.65-2.75.79-4.1-.34-8.18-1.11-12.2l-2.24-11.68c-.45-2.35-3.4-3.91-5.62-3.19-2.51.81-3.67,3.1-3.19,5.62h0Z"/>
              </g>
              <path class="cls-4" d="M183.83,433.29c-8.88,6.33-29.69,2.19-29.69,2.19,0,0,.95,13.63,3.62,22.98,0,0-2.52,11.52,3.05,25.35.51,1.26,1.86,1.97,3.18,1.66l71.38-16.66c1.29-.3,2.2-1.46,2.19-2.78l-.08-8.39c-.02-1.95-1.21-3.69-3.02-4.41-5.48-2.18-17.91-6.27-32.35-5.38l-3.73-22.1c-.94-.82-3.96-3.25-8.6-3.59-4.59-.33-7.91,1.59-8.96,2.26l3.01,8.88Z"/>
            </g>
            <path class="cls-4" d="M154.96,443.61c4.45.45,9.67.73,16.11-.02,5.87-.68,10.89-1.95,14.88-3.24"/>
            <path class="cls-4" d="M156.29,450.93c4.45.45,10.64.61,17.08-.14,5.87-.68,11.79-2.23,15.79-3.53"/>
            <path class="cls-40" d="M235.38,468.8l-71.38,16.67c-1.32.31-2.68-.4-3.19-1.66-.99-2.45-1.72-4.82-2.25-7.07,0,0,74.53-14.36,78.95-16.94l.06,6.22c.01,1.33-.9,2.48-2.19,2.78Z"/>
            <path class="cls-8" d="M237.51,459.8l-.02-2.18c-.02-1.95-1.21-3.69-3.02-4.41-5.48-2.18-17.91-6.27-32.35-5.38l-3.73-22.1c-.94-.82-3.97-3.25-8.6-3.59-4.59-.33-7.91,1.59-8.97,2.26,1,2.96,2.01,5.92,3.01,8.89,1.68,4.97,3.36,9.93,5.04,14.89,1,2.95,4.34,8.26,7.45,8.56,11.7,1.11,17.73,1.22,30.73.32"/>
          </g>
          <g>
            <g>
              <path class="cls-65" d="M121.12,407.79c-10.87-.88-24.13-17.44-24.13-17.44,0,0-8.06,11.04-12.03,19.91,0,0-9.35,7.2-13.99,21.35-.42,1.29.16,2.7,1.37,3.32l65.34,33.22c1.18.6,2.62.3,3.46-.72l5.34-6.47c1.24-1.5,1.45-3.6.53-5.32-2.79-5.2-9.66-16.33-21.28-24.95l11.38-19.31c-.19-1.23-.94-5.04-4.27-8.29-3.29-3.21-7.08-3.88-8.31-4.04l-3.42,8.73Z"/>
              <g class="cls-84">
                <path class="cls-4" d="M178.68,504.43c-14.57,2.9-29.28,5.06-44.07,6.46"/>
                <path class="cls-61" d="M93.59,391.55c-2.02,3.61-4.03,7.21-6.05,10.82-.91,1.62-1.77,3.28-2.75,4.85-.22.35-.45.71-.7,1.04.54-.7-.24.21-.37.35-.16.16-.97.82-.34.34-.38.29-.78.56-1.17.84-3.28,2.41-5.78,5.72-8.08,9.05-2.16,3.11-3.92,6.58-4.81,10.27-.56,2.32.73,5.06,3.19,5.62s5.01-.71,5.62-3.19c.2-.83.44-1.64.73-2.44.07-.2.51-1.2.18-.48.18-.39.36-.77.55-1.15.78-1.53,1.69-2.98,2.68-4.37.25-.35.5-.7.76-1.04.1-.13.81-1.05.33-.44.54-.69,1.09-1.38,1.67-2.05s1.22-1.32,1.89-1.94c.83-.77-.38.23.42-.31.5-.34.98-.71,1.46-1.08,3.16-2.44,4.87-6.06,6.78-9.47s3.95-7.07,5.93-10.6c1.17-2.08.57-5.08-1.64-6.25s-5-.59-6.25,1.64h0Z"/>
              </g>
              <path class="cls-4" d="M121.12,407.79c-10.87-.88-24.13-17.44-24.13-17.44,0,0-8.06,11.04-12.03,19.91,0,0-9.35,7.2-13.99,21.35-.42,1.29.16,2.7,1.37,3.32l65.34,33.22c1.18.6,2.62.3,3.46-.72l5.34-6.47c1.24-1.5,1.45-3.6.53-5.32-2.79-5.2-9.66-16.33-21.28-24.95l11.38-19.31c-.19-1.23-.94-5.04-4.27-8.29-3.29-3.21-7.08-3.88-8.31-4.04l-3.42,8.73Z"/>
            </g>
            <path class="cls-4" d="M92.39,397.1c3.12,3.21,6.93,6.78,12.34,10.36,4.93,3.26,9.58,5.52,13.48,7.1"/>
            <path class="cls-4" d="M88.69,403.56c3.12,3.21,7.75,7.32,13.16,10.9,4.93,3.26,10.46,5.89,14.35,7.47"/>
            <path class="cls-40" d="M137.68,468.16l-65.34-33.22c-1.21-.62-1.79-2.03-1.37-3.32.82-2.51,1.79-4.79,2.83-6.86,0,0,66.27,37.02,71.31,37.89l-3.96,4.79c-.85,1.02-2.29,1.32-3.47.72Z"/>
            <path class="cls-8" d="M145.1,462.65l1.38-1.68c1.24-1.5,1.45-3.6.53-5.32-2.78-5.2-9.66-16.33-21.28-24.95l11.38-19.3c-.19-1.23-.94-5.04-4.27-8.29-3.3-3.21-7.08-3.88-8.32-4.04-1.14,2.91-2.28,5.82-3.42,8.73-1.91,4.88-3.83,9.76-5.74,14.64-1.14,2.9-2,9.12.19,11.34,8.24,8.38,12.78,12.35,23.3,20.04"/>
          </g>
          <line class="cls-36" x1="56.7" y1="210.44" x2="62.97" y2="211.53"/>
          <path class="cls-43" d="M67.46,305.84c-2.96,2.07-5.87,4.24-8.89,6.21-3.14,2.04-6.08,4.74-9.72,5.85-.09.03-.17.05-.26.08-3.93,1.1-8.47.57-11.7-2.02-1.17-.94-2.09-2.06-2.92-3.3-.95-1.43-1.19-2.77-1.49-4.47-1.36-7.71-1.74-15.55-2.12-23.36-.65-13.44-.59-12.13-1.24-25.57"/>
        </g>
      </g>
    </g>
  </g>
</svg>